999
dxfrw 0.6.3
  0
SECTION
  2
HEADER
  9
$ACADVER
  1
AC1021
  9
$DWGCODEPAGE
  3
ANSI_1252
  9
$INSBASE
 10
0
 20
0
 30
0
  9
$EXTMIN
 10
7.7597254
 20
7.2498712
 30
0
  9
$EXTMAX
 10
29.856684
 20
50.398934
 30
0
  9
$LIMMIN
 10
0
 20
0
  9
$LIMMAX
 10
420
 20
297
  9
$ORTHOMODE
 70
    0
  9
$REGENMODE
 70
    1
  9
$FILLMODE
 70
    0
  9
$QTEXTMODE
 70
    0
  9
$MIRRTEXT
 70
    0
  9
$LTSCALE
 40
1
  9
$ATTMODE
 70
    0
  9
$TEXTSIZE
 40
2.5
  9
$TRACEWID
 40
15.68
  9
$TEXTSTYLE
  7
STANDARD
  9
$CLAYER
  8
0
  9
$CELTYPE
  6
BYLAYER
  9
$CECOLOR
 62
  256
  9
$CELTSCALE
 40
1
  9
$DISPSILH
 70
    0
  9
$DIMSCALE
 40
2.5
  9
$DIMASZ
 40
2.5
  9
$DIMEXO
 40
0.625
  9
$DIMDLI
 40
3.75
  9
$DIMRND
 40
0
  9
$DIMDLE
 40
0
  9
$DIMEXE
 40
1.25
  9
$DIMTP
 40
0
  9
$DIMTM
 40
0
  9
$DIMTXT
 40
2.5
  9
$DIMCEN
 40
2.5
  9
$DIMTSZ
 40
0
  9
$DIMTOL
 70
    0
  9
$DIMLIM
 70
    0
  9
$DIMTIH
 70
    0
  9
$DIMTOH
 70
    0
  9
$DIMSE1
 70
    0
  9
$DIMSE2
 70
    0
  9
$DIMTAD
 70
    1
  9
$DIMZIN
 70
    8
  9
$DIMBLK
  1

  9
$DIMASO
 70
    1
  9
$DIMSHO
 70
    1
  9
$DIMPOST
  1

  9
$DIMAPOST
  1

  9
$DIMALT
 70
    0
  9
$DIMALTD
 70
    3
  9
$DIMALTF
 40
0.03937
  9
$DIMLFAC
 40
1
  9
$DIMTOFL
 70
    1
  9
$DIMTVP
 40
0
  9
$DIMTIX
 70
    0
  9
$DIMSOXD
 70
    0
  9
$DIMSAH
 70
    0
  9
$DIMBLK1
  1

  9
$DIMBLK2
  1

  9
$DIMSTYLE
  2
Standard
  9
$DIMCLRD
 70
    0
  9
$DIMCLRE
 70
    0
  9
$DIMCLRT
 70
    0
  9
$DIMTFAC
 40
1
  9
$DIMGAP
 40
0.625
  9
$DIMJUST
 70
    0
  9
$DIMSD1
 70
    0
  9
$DIMSD2
 70
    0
  9
$DIMTOLJ
 70
    0
  9
$DIMTZIN
 70
    8
  9
$DIMALTZ
 70
    0
  9
$DIMALTTZ
 70
    0
  9
$DIMUPT
 70
    0
  9
$DIMDEC
 70
    2
  9
$DIMTDEC
 70
    2
  9
$DIMALTU
 70
    2
  9
$DIMALTTD
 70
    3
  9
$DIMTXSTY
  7
STANDARD
  9
$DIMAUNIT
 70
    0
  9
$DIMADEC
 70
    0
  9
$DIMALTRND
 40
0
  9
$DIMAZIN
 70
    0
  9
$DIMDSEP
 70
   44
  9
$DIMATFIT
 70
    3
  9
$DIMFRAC
 70
    0
  9
$DIMLDRBLK
  1
STANDARD
  9
$DIMLUNIT
 70
    2
  9
$DIMLWD
 70
   -2
  9
$DIMLWE
 70
   -2
  9
$DIMTMOVE
 70
    0
  9
$DIMFXL
 40
1
  9
$DIMFXLON
 70
    0
  9
$DIMJOGANG
 40
0.7854
  9
$DIMTFILL
 70
    0
  9
$DIMTFILLCLR
 70
    0
  9
$DIMARCSYM
 70
    0
  9
$DIMLTYPE
  6

  9
$DIMLTEX1
  6

  9
$DIMLTEX2
  6

  9
$LUNITS
 70
    2
  9
$LUPREC
 70
    4
  9
$SKETCHINC
 40
1
  9
$FILLETRAD
 40
0
  9
$AUNITS
 70
    0
  9
$AUPREC
 70
    2
  9
$MENU
  1
.
  9
$ELEVATION
 40
0
  9
$PELEVATION
 40
0
  9
$THICKNESS
 40
0
  9
$LIMCHECK
 70
    0
  9
$CHAMFERA
 40
0
  9
$CHAMFERB
 40
0
  9
$CHAMFERC
 40
0
  9
$CHAMFERD
 40
0
  9
$SKPOLY
 70
    0
  9
$USRTIMER
 70
    1
  9
$ANGBASE
 50
0
  9
$ANGDIR
 70
    0
  9
$PDMODE
 70
   34
  9
$PDSIZE
 40
0
  9
$PLINEWID
 40
0
  9
$SPLFRAME
 70
    1
  9
$SPLINETYPE
 70
    2
  9
$SPLINESEGS
 70
    8
  9
$HANDSEED
  5
20000
  9
$SURFTAB1
 70
    6
  9
$SURFTAB2
 70
    6
  9
$SURFTYPE
 70
    6
  9
$SURFU
 70
    6
  9
$SURFV
 70
    6
  9
$UCSBASE
  2

  9
$UCSNAME
  2

  9
$UCSORG
 10
0
 20
0
 30
0
  9
$UCSXDIR
 10
1
 20
0
 30
0
  9
$UCSYDIR
 10
0
 20
1
 30
0
  9
$UCSORTHOREF
  2

  9
$UCSORTHOVIEW
 70
    0
  9
$UCSORGTOP
 10
0
 20
0
 30
0
  9
$UCSORGBOTTOM
 10
0
 20
0
 30
0
  9
$UCSORGLEFT
 10
0
 20
0
 30
0
  9
$UCSORGRIGHT
 10
0
 20
0
 30
0
  9
$UCSORGFRONT
 10
0
 20
0
 30
0
  9
$UCSORGBACK
 10
0
 20
0
 30
0
  9
$PUCSBASE
  2

  9
$PUCSNAME
  2

  9
$PUCSORG
 10
0
 20
0
 30
0
  9
$PUCSXDIR
 10
1
 20
0
 30
0
  9
$PUCSYDIR
 10
0
 20
1
 30
0
  9
$PUCSORTHOREF
  2

  9
$PUCSORTHOVIEW
 70
    0
  9
$PUCSORGTOP
 10
0
 20
0
 30
0
  9
$PUCSORGBOTTOM
 10
0
 20
0
 30
0
  9
$PUCSORGLEFT
 10
0
 20
0
 30
0
  9
$PUCSORGRIGHT
 10
0
 20
0
 30
0
  9
$PUCSORGFRONT
 10
0
 20
0
 30
0
  9
$PUCSORGBACK
 10
0
 20
0
 30
0
  9
$USERI1
 70
    0
  9
$USERI2
 70
    0
  9
$USERI3
 70
    0
  9
$USERI4
 70
    0
  9
$USERI5
 70
    0
  9
$USERR1
 40
0
  9
$USERR2
 40
0
  9
$USERR3
 40
0
  9
$USERR4
 40
0
  9
$USERR5
 40
0
  9
$WORLDVIEW
 70
    1
  9
$SHADEDGE
 70
    3
  9
$SHADEDIF
 70
   70
  9
$TILEMODE
 70
    1
  9
$MAXACTVP
 70
   64
  9
$PINSBASE
 10
0
 20
0
 30
0
  9
$PLIMCHECK
 70
    0
  9
$PEXTMIN
 10
0
 20
0
 30
0
  9
$PEXTMAX
 10
0
 20
0
 30
0
  9
$SNAPSTYLE
 70
    0
  9
$PLIMMIN
 10
0
 20
0
  9
$PLIMMAX
 10
215.9
 20
279.4
  9
$UNITMODE
 70
    0
  9
$VISRETAIN
 70
    1
  9
$PLINEGEN
 70
    0
  9
$PSLTSCALE
 70
    1
  9
$TREEDEPTH
 70
 3020
  9
$CMLSTYLE
  2
Standard
  9
$CMLJUST
 70
    0
  9
$CMLSCALE
 40
20
  9
$PROXYGRAPHICS
 70
    1
  9
$MEASUREMENT
 70
    1
  9
$CELWEIGHT
370
   -1
  9
$ENDCAPS
280
    0
  9
$JOINSTYLE
280
    0
  9
$LWDISPLAY
290
    0
  9
$INSUNITS
 70
    4
  9
$HYPERLINKBASE
  1

  9
$STYLESHEET
  1

  9
$XEDIT
290
    1
  9
$CEPSNTYPE
380
    0
  9
$PSTYLEMODE
290
    1
  9
$EXTNAMES
290
    1
  9
$PSVPSCALE
 40
1
  9
$OLESTARTUP
290
    0
  9
$SORTENTS
280
  127
  9
$INDEXCTL
280
    0
  9
$HIDETEXT
280
    1
  9
$XCLIPFRAME
290
    0
  9
$HALOGAP
280
    0
  9
$OBSCOLOR
 70
  257
  9
$OBSLTYPE
280
    0
  9
$INTERSECTIONDISPLAY
280
    0
  9
$INTERSECTIONCOLOR
 70
  257
  9
$DIMASSOC
280
    1
  9
$PROJECTNAME
  1

  9
$CAMERADISPLAY
290
    0
  9
$LENSLENGTH
 40
50
  9
$CAMERAHEIGHT
 40
0
  9
$STEPSPERSEC
 40
2
  9
$STEPSIZE
 40
50
  9
$3DDWFPREC
 40
2
  9
$PSOLWIDTH
 40
5
  9
$PSOLHEIGHT
 40
80
  9
$LOFTANG1
 40
1.570796326794897
  9
$LOFTANG2
 40
1.570796326794897
  9
$LOFTMAG1
 40
0
  9
$LOFTMAG2
 40
0
  9
$LOFTPARAM
 70
    7
  9
$LOFTNORMALS
280
    1
  9
$LATITUDE
 40
1
  9
$LONGITUDE
 40
1
  9
$NORTHDIRECTION
 40
0
  9
$TIMEZONE
 70
-8000
  9
$LIGHTGLYPHDISPLAY
280
    1
  9
$TILEMODELIGHTSYNCH
280
    1
  9
$SOLIDHIST
280
    1
  9
$SHOWHIST
280
    1
  9
$DWFFRAME
280
    2
  9
$DGNFRAME
280
    0
  9
$REALWORLDSCALE
290
    1
  9
$INTERFERECOLOR
 62
    1
  9
$CSHADOW
280
    0
  9
$SHADOWPLANELOCATION
 40
0
  0
ENDSEC
  0
SECTION
  2
CLASSES
  0
ENDSEC
  0
SECTION
  2
TABLES
  0
TABLE
  2
VPORT
  5
8
330
0
100
AcDbSymbolTable
 70
    1
  0
VPORT
  5
31
330
2
100
AcDbSymbolTableRecord
100
AcDbViewportTableRecord
  2
*ACTIVE
 70
    0
 10
0
 20
0
 11
1
 21
1
 12
24.594965796
 22
25.43256525035294
 13
0
 23
0
 14
10
 24
10
 15
10
 25
10
 16
0
 26
0
 36
1
 17
0
 27
0
 37
0
 40
44.16433486588235
 41
1.374712643678161
 42
50
 43
0
 44
0
 50
0
 51
0
 71
    0
 72
  100
 73
    1
 74
    3
 75
    0
 76
    1
 77
    0
 78
    0
281
    0
 65
    1
110
0
120
0
130
0
111
1
121
0
131
0
112
0
122
1
132
0
 79
    0
146
0
348
10020
 60
    7
 61
    5
292
1
282
    1
141
0
142
0
 63
  250
421
3358443
  0
ENDTAB
  0
TABLE
  2
LTYPE
  5
5
330
0
100
AcDbSymbolTable
 70
    4
  0
LTYPE
  5
14
330
5
100
AcDbSymbolTableRecord
100
AcDbLinetypeTableRecord
  2
ByBlock
 70
    0
  3

 72
   65
 73
    0
 40
0
  0
LTYPE
  5
15
330
5
100
AcDbSymbolTableRecord
100
AcDbLinetypeTableRecord
  2
ByLayer
 70
    0
  3

 72
   65
 73
    0
 40
0
  0
LTYPE
  5
16
330
5
100
AcDbSymbolTableRecord
100
AcDbLinetypeTableRecord
  2
Continuous
 70
    0
  3
Solid line
 72
   65
 73
    0
 40
0
  0
LTYPE
  5
32
330
5
100
AcDbSymbolTableRecord
100
AcDbLinetypeTableRecord
  2
DOT
 70
    0
  3
Dot . . . . . . . . . . . . . . . . . . . . . .
 72
   65
 73
    2
 40
6.35
 49
0
 74
    0
 49
-6.35
 74
    0
  0
LTYPE
  5
33
330
5
100
AcDbSymbolTableRecord
100
AcDbLinetypeTableRecord
  2
DOTTINY
 70
    0
  3
Dot (.15x) .....................................
 72
   65
 73
    2
 40
0.9525
 49
0
 74
    0
 49
-0.9525
 74
    0
  0
LTYPE
  5
34
330
5
100
AcDbSymbolTableRecord
100
AcDbLinetypeTableRecord
  2
DOT2
 70
    0
  3
Dot (.5x) .....................................
 72
   65
 73
    2
 40
3.175
 49
0
 74
    0
 49
-3.175
 74
    0
  0
LTYPE
  5
35
330
5
100
AcDbSymbolTableRecord
100
AcDbLinetypeTableRecord
  2
DOTX2
 70
    0
  3
Dot (2x) .  .  .  .  .  .  .  .  .  .  .  .  .
 72
   65
 73
    2
 40
12.7
 49
0
 74
    0
 49
-12.7
 74
    0
  0
LTYPE
  5
36
330
5
100
AcDbSymbolTableRecord
100
AcDbLinetypeTableRecord
  2
DASHED
 70
    0
  3
Dashed _ _ _ _ _ _ _ _ _ _ _ _ _ _ _ _ _
 72
   65
 73
    2
 40
19.05
 49
12.7
 74
    0
 49
-6.35
 74
    0
  0
LTYPE
  5
37
330
5
100
AcDbSymbolTableRecord
100
AcDbLinetypeTableRecord
  2
DASHEDTINY
 70
    0
  3
Dashed (.15x) _ _ _ _ _ _ _ _ _ _ _ _ _ _ _ _ _
 72
   65
 73
    2
 40
2.8575
 49
1.905
 74
    0
 49
-0.9525
 74
    0
  0
LTYPE
  5
38
330
5
100
AcDbSymbolTableRecord
100
AcDbLinetypeTableRecord
  2
DASHED2
 70
    0
  3
Dashed (.5x) _ _ _ _ _ _ _ _ _ _ _ _ _ _ _ _ _
 72
   65
 73
    2
 40
9.524999999999999
 49
6.35
 74
    0
 49
-3.175
 74
    0
  0
LTYPE
  5
39
330
5
100
AcDbSymbolTableRecord
100
AcDbLinetypeTableRecord
  2
DASHEDX2
 70
    0
  3
Dashed (2x) ____  ____  ____  ____  ____  ___
 72
   65
 73
    2
 40
38.09999999999999
 49
25.4
 74
    0
 49
-12.7
 74
    0
  0
LTYPE
  5
3A
330
5
100
AcDbSymbolTableRecord
100
AcDbLinetypeTableRecord
  2
DASHDOT
 70
    0
  3
Dash dot __ . __ . __ . __ . __ . __ . __ . __
 72
   65
 73
    4
 40
25.4
 49
12.7
 74
    0
 49
-6.35
 74
    0
 49
0
 74
    0
 49
-6.35
 74
    0
  0
LTYPE
  5
3B
330
5
100
AcDbSymbolTableRecord
100
AcDbLinetypeTableRecord
  2
DASHDOTTINY
 70
    0
  3
Dash dot (.15x) _._._._._._._._._._._._._._._.
 72
   65
 73
    4
 40
3.81
 49
1.905
 74
    0
 49
-0.9525
 74
    0
 49
0
 74
    0
 49
-0.9525
 74
    0
  0
LTYPE
  5
3C
330
5
100
AcDbSymbolTableRecord
100
AcDbLinetypeTableRecord
  2
DASHDOT2
 70
    0
  3
Dash dot (.5x) _._._._._._._._._._._._._._._.
 72
   65
 73
    4
 40
12.7
 49
6.35
 74
    0
 49
-3.175
 74
    0
 49
0
 74
    0
 49
-3.175
 74
    0
  0
LTYPE
  5
3D
330
5
100
AcDbSymbolTableRecord
100
AcDbLinetypeTableRecord
  2
DASHDOTX2
 70
    0
  3
Dash dot (2x) ____  .  ____  .  ____  .  ___
 72
   65
 73
    4
 40
50.8
 49
25.4
 74
    0
 49
-12.7
 74
    0
 49
0
 74
    0
 49
-12.7
 74
    0
  0
LTYPE
  5
3E
330
5
100
AcDbSymbolTableRecord
100
AcDbLinetypeTableRecord
  2
DIVIDE
 70
    0
  3
Divide ____ . . ____ . . ____ . . ____ . . ____
 72
   65
 73
    6
 40
31.75
 49
12.7
 74
    0
 49
-6.35
 74
    0
 49
0
 74
    0
 49
-6.35
 74
    0
 49
0
 74
    0
 49
-6.35
 74
    0
  0
LTYPE
  5
3F
330
5
100
AcDbSymbolTableRecord
100
AcDbLinetypeTableRecord
  2
DIVIDETINY
 70
    0
  3
Divide (.15x) __..__..__..__..__..__..__..__.._
 72
   65
 73
    6
 40
4.7625
 49
1.905
 74
    0
 49
-0.9525
 74
    0
 49
0
 74
    0
 49
-0.9525
 74
    0
 49
0
 74
    0
 49
-0.9525
 74
    0
  0
LTYPE
  5
40
330
5
100
AcDbSymbolTableRecord
100
AcDbLinetypeTableRecord
  2
DIVIDE2
 70
    0
  3
Divide (.5x) __..__..__..__..__..__..__..__.._
 72
   65
 73
    6
 40
15.875
 49
6.35
 74
    0
 49
-3.175
 74
    0
 49
0
 74
    0
 49
-3.175
 74
    0
 49
0
 74
    0
 49
-3.175
 74
    0
  0
LTYPE
  5
41
330
5
100
AcDbSymbolTableRecord
100
AcDbLinetypeTableRecord
  2
DIVIDEX2
 70
    0
  3
Divide (2x) ________  .  .  ________  .  .  _
 72
   65
 73
    6
 40
63.5
 49
25.4
 74
    0
 49
-12.7
 74
    0
 49
0
 74
    0
 49
-12.7
 74
    0
 49
0
 74
    0
 49
-12.7
 74
    0
  0
LTYPE
  5
42
330
5
100
AcDbSymbolTableRecord
100
AcDbLinetypeTableRecord
  2
BORDER
 70
    0
  3
Border __ __ . __ __ . __ __ . __ __ . __ __ .
 72
   65
 73
    6
 40
44.45
 49
12.7
 74
    0
 49
-6.35
 74
    0
 49
12.7
 74
    0
 49
-6.35
 74
    0
 49
0
 74
    0
 49
-6.35
 74
    0
  0
LTYPE
  5
43
330
5
100
AcDbSymbolTableRecord
100
AcDbLinetypeTableRecord
  2
BORDERTINY
 70
    0
  3
Border (.15x) __.__.__.__.__.__.__.__.__.__.__.
 72
   65
 73
    6
 40
6.6675
 49
1.905
 74
    0
 49
-0.9525
 74
    0
 49
1.905
 74
    0
 49
-0.9525
 74
    0
 49
0
 74
    0
 49
-0.9525
 74
    0
  0
LTYPE
  5
44
330
5
100
AcDbSymbolTableRecord
100
AcDbLinetypeTableRecord
  2
BORDER2
 70
    0
  3
Border (.5x) __.__.__.__.__.__.__.__.__.__.__.
 72
   65
 73
    6
 40
22.225
 49
6.35
 74
    0
 49
-3.175
 74
    0
 49
6.35
 74
    0
 49
-3.175
 74
    0
 49
0
 74
    0
 49
-3.175
 74
    0
  0
LTYPE
  5
45
330
5
100
AcDbSymbolTableRecord
100
AcDbLinetypeTableRecord
  2
BORDERX2
 70
    0
  3
Border (2x) ____  ____  .  ____  ____  .  ___
 72
   65
 73
    6
 40
88.89999999999999
 49
25.4
 74
    0
 49
-12.7
 74
    0
 49
25.4
 74
    0
 49
-12.7
 74
    0
 49
0
 74
    0
 49
-12.7
 74
    0
  0
LTYPE
  5
46
330
5
100
AcDbSymbolTableRecord
100
AcDbLinetypeTableRecord
  2
CENTER
 70
    0
  3
Center ____ _ ____ _ ____ _ ____ _ ____ _ ____
 72
   65
 73
    4
 40
50.8
 49
31.75
 74
    0
 49
-6.35
 74
    0
 49
6.35
 74
    0
 49
-6.35
 74
    0
  0
LTYPE
  5
47
330
5
100
AcDbSymbolTableRecord
100
AcDbLinetypeTableRecord
  2
CENTERTINY
 70
    0
  3
Center (.15x) ___ _ ___ _ ___ _ ___ _ ___ _ ___
 72
   65
 73
    4
 40
7.619999999999999
 49
4.7625
 74
    0
 49
-0.9525
 74
    0
 49
0.9525
 74
    0
 49
-0.9525
 74
    0
  0
LTYPE
  5
48
330
5
100
AcDbSymbolTableRecord
100
AcDbLinetypeTableRecord
  2
CENTER2
 70
    0
  3
Center (.5x) ___ _ ___ _ ___ _ ___ _ ___ _ ___
 72
   65
 73
    4
 40
28.575
 49
19.05
 74
    0
 49
-3.175
 74
    0
 49
3.175
 74
    0
 49
-3.175
 74
    0
  0
LTYPE
  5
49
330
5
100
AcDbSymbolTableRecord
100
AcDbLinetypeTableRecord
  2
CENTERX2
 70
    0
  3
Center (2x) ________  __  ________  __  _____
 72
   65
 73
    4
 40
101.6
 49
63.5
 74
    0
 49
-12.7
 74
    0
 49
12.7
 74
    0
 49
-12.7
 74
    0
  0
ENDTAB
  0
TABLE
  2
LAYER
  5
2
330
0
100
AcDbSymbolTable
 70
    1
  0
LAYER
  5
10
330
2
100
AcDbSymbolTableRecord
100
AcDbLayerTableRecord
  2
0
 70
    0
 62
    7
  6
CONTINUOUS
370
   -3
390
F
  0
ENDTAB
  0
TABLE
  2
STYLE
  5
3
330
0
100
AcDbSymbolTable
 70
    3
  0
STYLE
  5
4A
330
2
100
AcDbSymbolTableRecord
100
AcDbTextStyleTableRecord
  2
Standard
 70
    0
 40
0
 41
1
 50
0
 71
    0
 42
1
  3
txt
  4

  0
ENDTAB
  0
TABLE
  2
VIEW
  5
6
330
0
100
AcDbSymbolTable
 70
    0
  0
ENDTAB
  0
TABLE
  2
UCS
  5
7
330
0
100
AcDbSymbolTable
 70
    0
  0
ENDTAB
  0
TABLE
  2
APPID
  5
9
330
0
100
AcDbSymbolTable
 70
    1
  0
APPID
  5
12
330
9
100
AcDbSymbolTableRecord
100
AcDbRegAppTableRecord
  2
ACAD
 70
    0
  0
APPID
  5
4B
330
9
100
AcDbSymbolTableRecord
100
AcDbRegAppTableRecord
  2
LibreCad
 70
    0
  0
ENDTAB
  0
TABLE
  2
DIMSTYLE
  5
A
330
0
100
AcDbSymbolTable
 70
    1
100
AcDbDimStyleTable
 71
    1
  0
DIMSTYLE
105
4C
330
A
100
AcDbSymbolTableRecord
100
AcDbDimStyleTableRecord
  2
Standard
 70
    0
 40
1
 41
2.5
 42
0.625
 43
0.38
 44
1.25
 45
0
 46
0
 47
0
 48
0
 49
1
140
2.5
141
0.09
142
2.5
143
25.4
144
1
145
0
146
1
147
0.625
148
0
 71
    0
 72
    0
 73
    0
 74
    1
 75
    0
 76
    0
 77
    0
 78
    1
 79
    0
170
    0
171
    2
172
    0
173
    0
174
    0
175
    0
176
    0
177
    0
178
    0
179
    0
271
    2
272
    4
273
    2
274
    2
275
    0
276
    0
277
    2
278
    0
279
    0
280
    0
281
    0
282
    0
283
    1
284
    0
285
    0
286
    0
288
    0
289
    3
340
standard
341

371
   -2
372
   -2
  0
ENDTAB
  0
TABLE
  2
BLOCK_RECORD
  5
1
330
0
100
AcDbSymbolTable
 70
    2
  0
BLOCK_RECORD
  5
1F
330
1
100
AcDbSymbolTableRecord
100
AcDbBlockTableRecord
  2
*Model_Space
 70
    0
280
    1
281
    0
  0
BLOCK_RECORD
  5
1E
330
1
100
AcDbSymbolTableRecord
100
AcDbBlockTableRecord
  2
*Paper_Space
 70
    0
280
    1
281
    0
  0
ENDTAB
  0
ENDSEC
  0
SECTION
  2
BLOCKS
  0
BLOCK
  5
20
330
1F
100
AcDbEntity
  8
0
100
AcDbBlockBegin
  2
*Model_Space
 70
    0
 10
0
 20
0
 30
0
  3
*Model_Space
  1

  0
ENDBLK
  5
21
330
1F
100
AcDbEntity
  8
0
100
AcDbBlockEnd
  0
BLOCK
  5
1C
330
1B
100
AcDbEntity
  8
0
100
AcDbBlockBegin
  2
*Paper_Space
 70
    0
 10
0
 20
0
 30
0
  3
*Paper_Space
  1

  0
ENDBLK
  5
1D
330
1F
100
AcDbEntity
  8
0
100
AcDbBlockEnd
  0
ENDSEC
  0
SECTION
  2
ENTITIES
  0
LWPOLYLINE
  5
4D
100
AcDbEntity
  8
0
  6
ByLayer
 62
    0
370
   -1
100
AcDbPolyline
 90
  854
 70
    1
 43
0
 10
28.626054
 20
46.161706
 10
28.626054
 20
46.161706
 10
28.54325
 20
46.300644
 10
28.303474
 20
46.667166
 10
27.923236
 20
47.191168
 10
27.414728
 20
47.80127599999999
 10
26.79192
 20
48.424338
 10
26.069798
 20
48.990504
 10
25.2608334
 20
49.427384
 10
24.6035068
 20
49.63541
 10
24.3802662
 20
49.66157199999999
 10
24.3802662
 20
49.66157199999999
 10
24.117046
 20
49.735994
 10
23.4459272
 20
49.894744
 10
22.5447352
 20
50.040794
 10
21.8253818
 20
50.090324
 10
21.588349
 20
50.076354
 10
21.588349
 20
50.076354
 10
21.15566
 20
50.106834
 10
20.1606912
 20
50.181256
 10
19.0596266
 20
50.280316
 10
18.4478168
 20
50.351944
 10
18.3058562
 20
50.385218
 10
18.3058562
 20
50.385218
 10
17.6306226
 20
50.398934
 10
16.0224724
 20
50.243232
 10
14.1069822
 20
49.62321799999999
 10
12.7895604
 20
48.66665399999999
 10
12.5098048
 20
48.242474
 10
12.5098048
 20
48.242474
 10
12.3665234
 20
48.067468
 10
12.0178576
 20
47.651162
 10
11.5824
 20
47.16068799999999
 10
11.2833912
 20
46.852078
 10
11.1758984
 20
46.75962199999999
 10
11.1758984
 20
46.75962199999999
 10
10.9402372
 20
46.471332
 10
10.4151938
 20
45.689012
 10
9.865360000000001
 20
44.543726
 10
9.580143399999999
 20
43.511724
 10
9.556673799999999
 20
43.162982
 10
9.5208852
 20
43.114722
 10
9.323806599999999
 20
42.607484
 10
9.323806599999999
 20
42.438066
 10
9.323806599999999
 20
42.290746
 10
9.471279000000001
 20
41.84396
 10
9.7785682
 20
41.481756
 10
9.858476599999999
 20
41.433496
 10
9.8626168
 20
41.425368
 10
9.908082799999999
 20
41.32478399999999
 10
9.913619999999998
 20
41.314878
 10
9.908082799999999
 20
41.295828
 10
9.8874072
 20
41.123362
 10
9.8874072
 20
41.06545
 10
9.8874072
 20
40.955468
 10
9.965969400000001
 20
40.624506
 10
10.180955
 20
40.263572
 10
10.5006394
 20
40.01947799999999
 10
10.7941872
 20
39.930324
 10
10.8920026
 20
39.930324
 10
10.9664246
 20
39.930324
 10
11.169015
 20
39.976806
 10
11.1924338
 20
39.98518799999999
 10
11.1938054
 20
39.98518799999999
 10
11.2103154
 20
39.974266
 10
11.2131094
 20
39.97299599999999
 10
11.2199928
 20
39.83355
 10
11.5383056
 20
39.24935
 10
12.1308622
 20
38.916102
 10
12.2769376
 20
38.900862
 10
12.2273568
 20
38.768528
 10
11.914505
 20
38.200584
 10
11.417046
 20
37.737796
 10
11.2764824
 20
37.65473799999999
 10
11.2627156
 20
37.64661
 10
11.2255046
 20
37.50741799999999
 10
11.2351566
 20
37.493448
 10
11.2392968
 20
37.485574
 10
11.3123218
 20
37.43426599999999
 10
11.3371122
 20
37.43426599999999
 10
11.3509044
 20
37.43426599999999
 10
11.390884
 20
37.447982
 10
11.3963704
 20
37.450776
 10
11.5603528
 20
37.54755
 10
12.1322338
 20
38.098476
 10
12.4795026
 20
38.754304
 10
12.5304804
 20
38.900862
 10
12.5649482
 20
38.904672
 10
12.8929384
 20
38.99281
 10
12.9246122
 20
39.006526
 10
12.9246122
 20
39.001446
 10
12.9287524
 20
38.986206
 10
12.9287524
 20
38.980618
 10
12.8309116
 20
38.771068
 10
12.2135646
 20
37.376354
 10
11.4914426
 20
35.625024
 10
11.3412524
 20
35.23640399999999
 10
11.1510826
 20
34.7472
 10
10.6219244
 20
33.260284
 10
9.9480624
 20
31.073344
 10
9.4354396
 20
28.847796
 10
9.214942199999999
 20
27.2796
 10
9.20115
 20
26.754582
 10
9.192895
 20
26.703528
 10
9.140545599999999
 20
26.2255
 10
9.0674952
 20
25.1092462
 10
9.077147200000001
 20
23.6512862
 10
9.186011599999999
 20
22.4799398
 10
9.264548400000001
 20
22.0982032
 10
9.108821000000001
 20
21.8267534
 10
8.684412399999999
 20
20.9875374
 10
8.149742399999999
 20
19.6632322
 10
7.809331599999999
 20
18.2535068
 10
7.7597254
 20
17.2158406
 10
7.8203806
 20
16.8837356
 10
7.8217522
 20
16.8699434
 10
7.9058262
 20
16.7858694
 10
7.9347568
 20
16.7858694
 10
7.9388716
 20
16.7858694
 10
7.9512922
 20
16.7858694
 10
7.955432399999999
 20
16.7858694
 10
7.970596199999999
 20
16.790035
 10
8.051876199999999
 20
16.9057828
 10
8.049107599999999
 20
16.9209212
 10
7.994014999999999
 20
17.2199554
 10
8.032572199999999
 20
18.1515004
 10
8.32612
 20
19.4372484
 10
8.804275000000001
 20
20.6719678
 10
9.1970098
 20
21.4835994
 10
9.341738999999999
 20
21.7468196
 10
9.39546
 20
21.5387428
 10
9.7813368
 20
20.5961488
 10
10.3518462
 20
19.8589138
 10
10.4978962
 20
19.751421
 10
10.502011
 20
19.7473062
 10
10.548874
 20
19.7307454
 10
10.5654094
 20
19.7307454
 10
10.5888282
 20
19.7307454
 10
10.6563668
 20
19.7693534
 10
10.6632756
 20
19.7762368
 10
10.6715306
 20
19.790029
 10
10.6494834
 20
19.9333104
 10
10.6370628
 20
19.9415654
 10
10.4896412
 20
20.0490582
 10
9.9259898
 20
20.8249266
 10
9.562211
 20
21.8322652
 10
9.5153734
 20
22.0554804
 10
9.5993966
 20
22.2029528
 10
9.941178999999998
 20
22.7624132
 10
10.1175566
 20
23.0311706
 10
10.1203252
 20
23.0339138
 10
10.1203252
 20
23.0366824
 10
10.12444
 20
23.0421688
 10
10.12444
 20
23.0435404
 10
10.4730804
 20
23.6429804
 10
11.9585994
 20
26.569924
 10
13.0941318
 20
29.38399
 10
13.2677662
 20
29.926788
 10
13.2953252
 20
29.889704
 10
13.7900156
 20
29.640276
 10
13.8658346
 20
29.634688
 10
13.8658346
 20
29.634688
 10
13.7693654
 20
29.455618
 10
13.4882382
 20
29.201872
 10
13.3959346
 20
29.164788
 10
13.3959346
 20
29.164788
 10
13.3807454
 20
29.038042
 10
13.42898
 20
28.744418
 10
13.677011
 20
28.41370999999999
 10
14.1111224
 20
28.20289
 10
14.2640812
 20
28.173934
 10
14.2640812
 20
28.173934
 10
14.2351506
 20
27.985212
 10
14.047724
 20
27.63647
 10
13.9678156
 20
27.55519
 10
13.9678156
 20
27.55519
 10
13.9609068
 20
27.47263999999999
 10
14.0104876
 20
27.283664
 10
14.2185898
 20
27.075638
 10
14.5672556
 20
26.950162
 10
14.6871182
 20
26.936446
 10
14.6871182
 20
26.936446
 10
14.6967956
 20
26.831798
 10
14.6733768
 20
26.573988
 10
14.5396712
 20
26.255726
 10
14.3095472
 20
26.017474
 10
14.2172182
 20
25.96642
 10
14.2172182
 20
25.96642
 10
14.1813788
 20
25.88514
 10
14.15796
 20
25.683972
 10
14.2709646
 20
25.43175
 10
14.5410682
 20
25.233249
 10
14.6416522
 20
25.1946918
 10
14.6416522
 20
25.1946918
 10
14.6154648
 20
25.01138
 10
14.6030696
 20
24.5469918
 10
14.703679
 20
23.9282478
 10
14.9103588
 20
23.426674
 10
15.0137368
 20
23.2847134
 10
15.0137368
 20
23.2847134
 10
15.027529
 20
23.1744774
 10
15.0192232
 20
22.8974904
 10
14.9076156
 20
22.5419412
 10
14.7023074
 20
22.2608394
 10
14.6154648
 20
22.1919546
 10
14.6154648
 20
22.1919546
 10
14.5975578
 20
22.1092522
 10
14.6030696
 20
21.9135706
 10
14.7202144
 20
21.69033
 10
14.9530816
 20
21.5442546
 10
15.0385272
 20
21.5222074
 10
15.0385272
 20
21.5222074
 10
14.914499
 20
21.3113874
 10
14.6540728
 20
21.099145
 10
14.5686272
 20
21.099145
 10
14.5686272
 20
21.099145
 10
14.5382996
 20
21.0316318
 10
14.4997424
 20
20.8759044
 10
14.5245328
 20
20.7008984
 10
14.6443954
 20
20.5906624
 10
14.6912584
 20
20.5768448
 10
14.6912584
 20
20.5768448
 10
14.5052288
 20
20.342606
 10
14.1965426
 20
20.1069702
 10
14.0945616
 20
20.1069702
 10
14.0945616
 20
20.1069702
 10
14.0918184
 20
20.0173844
 10
14.1179804
 20
19.8092822
 10
14.2185898
 20
19.5832984
 10
14.379829
 20
19.4523868
 10
14.4418304
 20
19.4372484
 10
14.4418304
 20
19.4372484
 10
14.3632682
 20
19.3187066
 10
14.3095472
 20
19.0816738
 10
14.3233394
 20
19.022441
 10
14.1910562
 20
18.8997844
 10
13.8437874
 20
18.478119
 10
13.4607046
 20
17.7615596
 10
13.2870702
 20
16.871315
 10
13.3573266
 20
16.0596326
 10
13.4330948
 20
15.8033466
 10
13.4330948
 20
15.8033466
 10
13.5089138
 20
15.691739
 10
13.7059924
 20
15.4657044
 10
13.9719304
 20
15.2976072
 10
14.2089378
 20
15.3141426
 10
14.259941
 20
15.3540968
 10
14.259941
 20
15.3540968
 10
14.2392654
 20
15.6172916
 10
14.0546074
 20
16.0293304
 10
13.9719304
 20
16.1037524
 10
13.9719304
 20
16.1037524
 10
14.047724
 20
16.161639
 10
14.1993112
 20
16.336645
 10
14.3095472
 20
16.6370762
 10
14.2930118
 20
16.9664126
 10
14.259941
 20
17.065625
 10
14.259941
 20
17.065625
 10
14.2392654
 20
17.1538138
 10
14.2268448
 20
17.3770544
 10
14.2875
 20
17.6802288
 10
14.4280382
 20
17.9379372
 10
14.4928082
 20
18.0054504
 10
14.5024856
 20
17.969611
 10
14.749145
 20
17.6733454
 10
14.7932394
 20
17.6540668
 10
14.7932394
 20
17.6540668
 10
14.7615656
 20
17.5286416
 10
14.7077938
 20
17.2365162
 10
14.6981672
 20
16.9126662
 10
14.7505166
 20
16.7210994
 10
14.7932394
 20
16.688054
 10
14.7932394
 20
16.688054
 10
14.7560284
 20
16.5516306
 10
14.7009104
 20
16.2388296
 10
14.7105624
 20
15.9039306
 10
14.8180298
 20
15.7151578
 10
14.8704046
 20
15.6972254
 10
14.8704046
 20
15.6972254
 10
14.841474
 20
15.5759404
 10
14.7973796
 20
15.303119
 10
14.7959826
 20
15.01648
 10
14.8607526
 20
14.8648928
 10
14.8952204
 20
14.8538946
 10
14.8952204
 20
14.8538946
 10
14.8552662
 20
14.7560284
 10
14.7836128
 20
14.519021
 10
14.7477734
 20
14.2254732
 10
14.7836128
 20
14.0146532
 10
14.8194268
 20
13.9595352
 10
14.8194268
 20
13.9595352
 10
14.7836128
 20
13.8685778
 10
14.721586
 20
13.6591294
 10
14.7023074
 20
13.4262368
 10
14.7587716
 20
13.2843016
 10
14.7932394
 20
13.2649976
 10
14.7932394
 20
13.2649976
 10
14.7505166
 20
13.1712716
 10
14.6788632
 20
12.9577084
 10
14.656816
 20
12.7316738
 10
14.7339812
 20
12.6049278
 10
14.768449
 20
12.5952504
 10
14.7836128
 20
12.5911356
 10
14.8111718
 20
12.50569
 10
14.7670774
 20
12.3155456
 10
14.6816318
 20
12.0619774
 10
14.6016726
 20
11.77671
 10
14.5713704
 20
11.4955828
 10
14.6375374
 20
11.2558322
 10
14.8442172
 20
11.0904528
 10
15.1391366
 20
11.0311946
 10
15.238349
 20
11.0325662
 10
15.238349
 20
11.0325662
 10
15.3444702
 20
11.0835694
 10
15.5938728
 20
11.3274856
 10
15.8763716
 20
11.9007382
 10
16.0555178
 20
12.680696
 10
16.0816798
 20
12.9425446
 10
16.0816798
 20
12.9425446
 10
16.1395918
 20
13.8768328
 10
16.2553396
 20
15.9948626
 10
16.3325302
 20
18.275554
 10
16.3297616
 20
19.4799712
 10
16.28013
 20
19.6962776
 10
16.28013
 20
19.6962776
 10
16.2622484
 20
19.7803516
 10
16.2553396
 20
19.9912224
 10
16.3228528
 20
20.2722988
 10
16.466185
 20
20.5052168
 10
16.530955
 20
20.564475
 10
16.530955
 20
20.564475
 10
16.6728902
 20
20.7174338
 10
16.7390318
 20
21.136356
 10
16.7045894
 20
21.2589872
 10
16.7045894
 20
21.2589872
 10
16.7473122
 20
21.56079
 10
16.6673784
 20
22.022435
 10
16.6067232
 20
22.1023434
 10
16.6067232
 20
22.1023434
 10
16.5723062
 20
22.179534
 10
16.5226746
 20
22.362795
 10
16.5323266
 20
22.5832924
 10
16.6342822
 20
22.74316
 10
16.6825422
 20
22.7720906
 10
16.6825422
 20
22.7720906
 10
16.7555672
 20
22.8203252
 10
16.9016426
 20
22.965029
 10
17.0049698
 20
23.2116884
 10
16.9856912
 20
23.4859068
 10
16.9540174
 20
23.564469
 10
16.9540174
 20
23.564469
 10
16.947134
 20
23.6306106
 10
16.9719244
 20
23.7739174
 10
17.1000928
 20
23.9117378
 10
17.324705
 20
23.9668304
 10
17.3991016
 20
23.9627156
 10
17.3991016
 20
23.9627156
 10
17.3412404
 20
24.0564162
 10
17.2640752
 20
24.274145
 10
17.3026578
 20
24.5291102
 10
17.5148494
 20
24.708231
 10
17.5975518
 20
24.7330468
 10
17.5975518
 20
24.7330468
 10
17.473549
 20
24.8763282
 10
17.5176434
 20
25.1588524
 10
17.572736
 20
25.2043184
 10
17.572736
 20
25.2043184
 10
17.6154588
 20
25.3531624
 10
17.4156624
 20
25.663144
 10
17.3233334
 20
25.72512
 10
17.1992798
 20
26.991564
 10
17.1992798
 20
26.991564
 10
17.2351446
 20
27.111452
 10
17.297146
 20
27.447748
 10
17.3177962
 20
27.963114
 10
17.2626782
 20
28.46197
 10
17.2254672
 20
28.62326
 10
17.222724
 20
28.631642
 10
17.2006768
 20
28.71978
 10
17.1992798
 20
28.727908
 10
17.1606972
 20
28.873958
 10
17.07388
 20
29.317696
 10
17.0794172
 20
29.670502
 10
17.1827444
 20
29.948886
 10
17.3109128
 20
30.22320599999999
 10
17.3481238
 20
30.316932
 10
17.3481238
 20
30.316932
 10
17.3811946
 20
30.447742
 10
17.4294546
 20
30.819852
 10
17.4115222
 20
31.406846
 10
17.3067726
 20
31.989776
 10
17.2502576
 20
32.177228
 10
17.2502576
 20
32.177228
 10
17.232376
 20
32.34537599999999
 10
17.2199554
 20
32.757364
 10
17.2723048
 20
33.276794
 10
17.3839378
 20
33.657286
 10
17.4500794
 20
33.765998
 10
17.4500794
 20
33.765998
 10
17.4886874
 20
33.883092
 10
17.5713644
 20
34.191956
 10
17.6499266
 20
34.635694
 10
17.6788572
 20
35.027108
 10
17.6747424
 20
35.155124
 10
17.6747424
 20
35.155124
 10
17.8621182
 20
35.374072
 10
18.2700422
 20
35.937952
 10
18.6586368
 20
36.70554
 10
18.810224
 20
37.333682
 10
18.7922916
 20
37.536374
 10
18.7922916
 20
37.536374
 10
18.993485
 20
37.332412
 10
19.3159634
 20
37.204396
 10
19.37385
 20
37.24021
 10
19.37385
 20
37.24021
 10
19.317335
 20
37.114734
 10
19.216751
 20
36.828222
 10
19.1657478
 20
36.519612
 10
19.2236344
 20
36.340288
 10
19.263614
 20
36.320984
 10
19.263614
 20
36.320984
 10
19.2759838
 20
36.190174
 10
19.3462656
 20
35.899344
 10
19.5254372
 20
35.609784
 10
19.7762368
 20
35.47745
 10
19.8602854
 20
35.47745
 10
19.8602854
 20
35.47745
 10
19.9181466
 20
35.27628199999999
 10
19.9154034
 20
34.661856
 10
19.8864728
 20
34.460688
 10
19.8864728
 20
34.460688
 10
19.8313294
 20
34.313114
 10
19.7307454
 20
33.95218
 10
19.6756274
 20
33.497266
 10
19.7155816
 20
33.165288
 10
19.7624446
 20
33.071562
 10
19.7624446
 20
33.071562
 10
19.7720966
 20
32.940752
 10
19.7583044
 20
32.60979
 10
19.64944
 20
32.181292
 10
19.4634104
 20
31.842202
 10
19.3779648
 20
31.752794
 10
19.3779648
 20
31.752794
 10
19.2884044
 20
31.609538
 10
19.0968376
 20
31.2166
 10
18.9232032
 20
30.63367
 10
18.866739
 20
30.092142
 10
18.8818774
 20
29.914342
 10
18.8818774
 20
29.914342
 10
18.8639704
 20
29.702252
 10
18.7881768
 20
29.196538
 10
18.6186572
 20
28.598368
 10
18.4202324
 20
28.204414
 10
18.3223916
 20
28.1051
 10
18.3223916
 20
28.1051
 10
18.3623712
 20
27.971496
 10
18.5015378
 20
27.720544
 10
18.7619894
 20
27.582876
 10
19.0858394
 20
27.710892
 10
19.1657478
 20
27.784044
 10
19.1657478
 20
27.784044
 10
19.17954
 20
27.607514
 10
19.3476626
 20
27.541474
 10
19.37385
 20
27.559508
 10
19.37385
 20
27.559508
 10
19.3228468
 20
27.40914
 10
19.1657478
 20
27.059128
 10
18.8915294
 20
26.669238
 10
18.6021472
 20
26.433526
 10
18.4919112
 20
26.393648
 10
18.4919112
 20
26.393648
 10
18.4464452
 20
26.32329
 10
18.4326276
 20
26.14549
 10
18.6269376
 20
25.912572
 10
19.061049
 20
25.714198
 10
19.2125854
 20
25.67432
 10
19.1354456
 20
25.402794
 10
19.1354456
 20
25.402794
 10
19.2346326
 20
25.1988066
 10
19.50339
 20
25.0788932
 10
19.5598796
 20
25.1064776
 10
19.5598796
 20
25.1064776
 10
19.5474844
 20
24.99487
 10
19.5598796
 20
24.7495822
 10
19.6646038
 20
24.5098062
 10
19.8657972
 20
24.4091968
 10
19.9319388
 20
24.41194
 10
19.9319388
 20
24.41194
 10
19.9071484
 20
24.2865656
 10
19.8878444
 20
23.9999266
 10
19.953986
 20
23.6912404
 10
20.1165968
 20
23.5120688
 10
20.1827384
 20
23.4928156
 10
20.1827384
 20
23.4928156
 10
20.24888
 20
23.2695496
 10
20.3646532
 20
22.7389944
 10
20.4018388
 20
22.1216474
 10
20.3122784
 20
21.7220038
 10
20.2337416
 20
21.6324434
 10
20.2337416
 20
21.6324434
 10
20.1634852
 20
21.4822278
 10
20.0504298
 20
21.1542376
 10
20.0339452
 20
20.8359502
 10
20.2061572
 20
20.7091534
 10
20.2585574
 20
20.7132682
 10
20.2585574
 20
20.7132682
 10
20.2006454
 20
20.5368906
 10
20.0986898
 20
20.1358754
 10
20.057364
 20
19.7073266
 10
20.1317606
 20
19.4702938
 10
20.1827384
 20
19.446875
 10
20.1827384
 20
19.446875
 10
20.2447652
 20
19.0059056
 10
20.3453746
 20
17.9255166
 10
20.3522326
 20
16.576421
 10
20.2351132
 20
15.6200602
 10
20.1317606
 20
15.3237946
 10
20.1317606
 20
15.3237946
 10
20.0794112
 20
15.0688294
 10
20.000849
 20
14.5038572
 10
20.0049638
 20
13.9402312
 10
20.156551
 20
13.6839452
 10
20.2075796
 20
13.6839452
 10
20.2075796
 20
13.6839452
 10
20.0794112
 20
13.2663946
 10
19.8175626
 20
12.29487
 10
19.5943474
 20
11.1938054
 10
19.5350638
 20
10.558526
 10
19.5888102
 20
10.38352
 10
19.5888102
 20
10.38352
 10
19.613626
 20
10.200259
 10
19.6012054
 20
9.728936599999999
 10
19.4220846
 20
9.096451199999999
 10
19.0899796
 20
8.564499
 10
18.9452504
 20
8.422563799999999
 10
18.9452504
 20
8.422563799999999
 10
18.8515752
 20
8.297164
 10
18.6999626
 20
7.988477799999999
 10
18.6834272
 20
7.606766599999999
 10
18.8984128
 20
7.311872599999999
 10
18.996279
 20
7.258126199999999
 10
18.996279
 20
7.258126199999999
 10
19.0444882
 20
7.2498712
 10
19.1767968
 20
7.2526144
 10
19.3752216
 20
7.3173844
 10
19.6177662
 20
7.4910188
 10
19.8851012
 20
7.8217522
 10
20.1593196
 20
8.3577938
 10
20.4183996
 20
9.146057399999998
 10
20.600289
 20
9.961854600000001
 10
20.6443834
 20
10.2360476
 10
20.6443834
 20
10.2360476
 10
20.7064102
 20
10.6384598
 10
20.8290668
 20
11.6774976
 10
20.9199988
 20
13.1065016
 10
20.9172556
 20
14.2888716
 10
20.885531
 20
14.6802602
 10
20.885531
 20
14.6802602
 10
20.9213704
 20
14.9186646
 10
20.97786
 20
15.542895
 10
20.9668618
 20
16.4179504
 10
20.8717896
 20
17.167606
 10
20.8097628
 20
17.408779
 10
20.8097628
 20
17.408779
 10
20.840065
 20
17.481804
 10
20.877276
 20
17.6884838
 10
20.8386934
 20
18.016474
 10
20.7064102
 20
18.3513222
 10
20.6443834
 20
18.45056
 10
20.6443834
 20
18.45056
 10
20.7684116
 20
18.6544966
 10
20.8717896
 20
19.1313054
 10
20.8607406
 20
19.2677288
 10
20.8607406
 20
19.2677288
 10
20.885531
 20
19.3145918
 10
20.9282538
 20
19.4868546
 10
20.9434176
 20
19.835495
 10
20.9075782
 20
20.2695556
 10
20.885531
 20
20.4115162
 10
20.885531
 20
20.4115162
 10
20.924139
 20
20.5424278
 10
20.9902806
 20
20.8717896
 10
21.0109562
 20
21.312759
 10
20.9558128
 20
21.6682828
 10
20.9117184
 20
21.7757756
 10
20.9117184
 20
21.7757756
 10
20.932394
 20
22.0086428
 10
20.8428082
 20
22.5777806
 10
20.7877156
 20
22.7459032
 10
20.7877156
 20
22.7459032
 10
20.721574
 20
23.1317546
 10
20.600289
 20
24.0536476
 10
20.5368906
 20
25.1671074
 10
20.5782418
 20
25.897586
 10
20.648549
 20
26.123392
 10
20.648549
 20
26.123392
 10
20.6995268
 20
26.498296
 10
20.8111344
 20
27.422856
 10
20.9117184
 20
28.603956
 10
20.9461862
 20
29.460952
 10
20.9365596
 20
29.744924
 10
20.9365596
 20
29.744924
 10
20.9943954
 20
29.7561
 10
21.1225638
 20
29.826204
 10
21.2507322
 20
30.01772
 10
21.3099904
 20
30.297628
 10
21.3099904
 20
30.38983
 10
21.3099904
 20
30.38983
 10
21.36648
 20
30.35681
 10
21.5015318
 20
30.32506
 10
21.6641426
 20
30.401006
 10
21.7854022
 20
30.611826
 10
21.8047062
 20
30.686248
 10
21.8047062
 20
30.686248
 10
21.8432888
 20
30.351222
 10
21.892895
 20
29.53004
 10
21.855684
 20
28.499308
 10
21.7247724
 20
27.759152
 10
21.6310718
 20
27.533092
 10
21.6310718
 20
27.533092
 10
21.515324
 20
27.257502
 10
21.3278974
 20
26.629106
 10
21.2961982
 20
25.944322
 10
21.541486
 20
25.541986
 10
21.6572338
 20
25.500584
 10
21.6572338
 20
25.500584
 10
21.6917016
 20
25.2263656
 10
21.8419172
 20
24.643461
 10
22.179534
 20
24.117046
 10
22.6452938
 20
23.9709706
 10
22.7748338
 20
24.0095532
 10
22.7748338
 20
24.0095532
 10
22.788626
 20
24.0357406
 10
22.7830888
 20
24.1239294
 10
22.6797616
 20
24.2920774
 10
22.4757996
 20
24.496014
 10
22.4027746
 20
24.5552722
 10
22.4027746
 20
24.5552722
 10
22.4358454
 20
24.6489728
 10
22.4689162
 20
24.8915174
 10
22.4013776
 20
25.2263656
 10
22.2140018
 20
25.522682
 10
22.1312994
 20
25.597104
 10
22.1312994
 20
25.597104
 10
22.058249
 20
25.734772
 10
21.9259404
 20
26.100024
 10
21.8584272
 20
26.623772
 10
21.9231972
 20
27.094942
 10
21.9824554
 20
27.236928
 10
21.9824554
 20
27.236928
 10
22.0885766
 20
27.604974
 10
22.2732346
 20
28.539186
 10
22.3380046
 20
29.783532
 10
22.1988126
 20
30.781244
 10
22.0802962
 20
31.08452
 10
22.0802962
 20
31.08452
 10
22.1657418
 20
31.160212
 10
22.309074
 20
31.364174
 10
22.3297496
 20
31.671514
 10
22.140926
 20
31.97733
 10
22.0554804
 20
32.050482
 10
22.0554804
 20
32.050482
 10
22.0169232
 20
32.101282
 10
21.9714572
 20
32.226758
 10
22.0238066
 20
32.396176
 10
22.2098362
 20
32.54248
 10
22.2801434
 20
32.571182
 10
22.2801434
 20
32.571182
 10
22.41931
 20
32.590486
 10
22.6535488
 20
32.72434399999999
 10
22.7073206
 20
33.085278
 10
22.4289366
 20
33.631124
 10
22.3049338
 20
33.786826
 10
22.3049338
 20
33.786826
 10
22.2318834
 20
33.88055199999999
 10
22.1119954
 20
34.120328
 10
22.09546
 20
34.446718
 10
22.2511874
 20
34.737548
 10
22.3297496
 20
34.803842
 10
22.3297496
 20
34.803842
 10
22.408261
 20
34.882328
 10
22.5336862
 20
35.07104999999999
 10
22.537801
 20
35.306762
 10
22.3338644
 20
35.49395999999999
 10
22.2539306
 20
35.52444
 10
22.2539306
 20
35.52444
 10
22.1106238
 20
35.746182
 10
21.865336
 20
35.96817799999999
 10
21.7840306
 20
35.96817799999999
 10
21.7840306
 20
35.96817799999999
 10
21.7275156
 20
36.05072799999999
 10
21.6228168
 20
36.27018399999999
 10
21.56079
 20
36.589716
 10
21.6007696
 20
36.886134
 10
21.6393268
 20
36.97300199999999
 10
21.6889584
 20
36.912296
 10
22.0086428
 20
36.67505999999999
 10
22.400006
 20
36.547044
 10
22.4868232
 20
36.539932
 10
22.576409
 20
35.915854
 10
22.8823266
 20
34.044382
 10
23.4762548
 20
30.986476
 10
24.2507262
 20
28.011374
 10
24.8749566
 20
26.279094
 10
25.186386
 20
25.762458
 10
25.1877576
 20
25.758394
 10
25.3090426
 20
25.510236
 10
25.3297182
 20
25.46604
 10
25.27046
 20
25.067895
 10
24.8625868
 20
23.0587296
 10
24.2893088
 20
21.0605624
 10
24.1473482
 20
20.6664306
 10
24.1459766
 20
20.6636874
 10
24.0674652
 20
20.434935
 10
23.8786416
 20
19.8079106
 10
23.6402372
 20
18.8708538
 10
23.461091
 20
17.9957984
 10
23.4142534
 20
17.7009044
 10
23.3632756
 20
17.3867318
 10
23.2626662
 20
16.4303456
 10
23.2309924
 20
15.0109682
 10
23.3976926
 20
13.5488934
 10
23.6857032
 20
12.4822712
 10
23.8345472
 20
12.1501662
 10
23.8386874
 20
12.1405396
 10
23.914481
 20
12.0826276
 10
23.9406684
 20
12.0826276
 10
23.9516666
 20
12.0826276
 10
23.9833912
 20
12.0908826
 10
23.987506
 20
12.0908826
 10
24.0012982
 20
12.0978168
 10
24.052276
 20
12.2342148
 10
24.0467896
 20
12.2480324
 10
23.9075722
 20
12.5580648
 10
23.6347254
 20
13.5530082
 10
23.4707684
 20
14.9379432
 10
23.4941872
 20
16.325596
 10
23.645749
 20
17.637506
 10
23.869015
 20
18.7978288
 10
24.1018822
 20
19.7280022
 10
24.2879372
 20
20.3494894
 10
24.3637054
 20
20.5741016
 10
24.3678456
 20
20.5865222
 10
24.5015004
 20
20.9544412
 10
25.446736
 20
24.7026938
 10
25.507442
 20
25.07615
 10
25.696164
 20
24.6544846
 10
26.223976
 20
23.3274362
 10
27.045412
 20
20.8097628
 10
27.677872
 20
17.8249072
 10
27.87777
 20
15.4519376
 10
27.833574
 20
14.6678396
 10
27.832304
 20
14.6527012
 10
27.914854
 20
14.5438368
 10
27.94381
 20
14.5438368
 10
27.945334
 20
14.5438368
 10
27.949398
 20
14.5438368
 10
27.952192
 20
14.5438368
 10
27.981148
 20
14.5438368
 10
28.06928599999999
 20
14.638909
 10
28.070556
 20
14.6540728
 10
28.110688
 20
15.3499566
 10
27.76194599999999
 20
18.782665
 10
27.010868
 20
21.7991944
 10
26.851102
 20
22.2842582
 10
26.72714999999999
 20
22.6563428
 10
26.124916
 20
24.2410488
 10
25.63977599999999
 20
25.3641606
 10
25.575006
 20
25.504648
 10
25.665938
 20
26.126186
 10
25.907238
 20
29.091636
 10
25.930606
 20
31.740348
 10
25.914096
 20
32.20212
 10
25.896062
 20
32.711898
 10
25.727914
 20
34.953956
 10
25.519888
 20
36.676584
 10
25.482804
 20
36.926012
 10
25.526746
 20
36.90239
 10
25.940258
 20
36.774374
 10
26.07945
 20
36.774374
 10
26.2255
 20
36.774374
 10
26.619454
 20
36.895532
 10
26.66365
 20
36.917376
 10
26.84272
 20
36.380166
 10
27.318208
 20
34.744406
 10
27.9273
 20
32.01035
 10
28.204414
 20
29.15919999999999
 10
28.063698
 20
27.228546
 10
27.864054
 20
26.636218
 10
27.858466
 20
26.620978
 10
27.920442
 20
26.492708
 10
27.935682
 20
26.487374
 10
27.938222
 20
26.487374
 10
27.963114
 20
26.483056
 10
27.972766
 20
26.483056
 10
28.000452
 20
26.483056
 10
28.078938
 20
26.55062
 10
28.083002
 20
26.563066
 10
28.224988
 20
26.984706
 10
28.42895
 20
29.681678
 10
27.963114
 20
33.14192
 10
27.770328
 20
33.943798
 10
27.695906
 20
34.251138
 10
27.305762
 20
35.668966
 10
26.929588
 20
36.865306
 10
26.863548
 20
37.06241
 10
26.867612
 20
37.066474
 10
26.918666
 20
37.11194
 10
26.92273
 20
37.117528
 10
26.962608
 20
37.02939
 10
27.203908
 20
36.688776
 10
27.58694
 20
36.43375999999999
 10
27.698446
 20
36.38829399999999
 10
27.702764
 20
36.38829399999999
 10
27.73299
 20
36.380166
 10
27.743912
 20
36.380166
 10
27.771598
 20
36.380166
 10
27.848814
 20
36.440872
 10
27.854402
 20
36.451794
 10
27.859736
 20
36.467034
 10
27.804618
 20
36.599368
 10
27.790902
 20
36.604956
 10
27.686254
 20
36.64915199999999
 10
27.336242
 20
36.90239
 10
27.129486
 20
37.241226
 10
27.096466
 20
37.328602
 10
27.106118
 20
37.343334
 10
27.18308
 20
37.496496
 10
27.190192
 20
37.511482
 10
27.199844
 20
37.50741799999999
 10
27.31008
 20
37.475668
 10
27.321002
 20
37.473128
 10
27.422856
 20
37.450776
 10
27.7495
 20
37.47033399999999
 10
28.13685
 20
37.634418
 10
28.441396
 20
37.935916
 10
28.597098
 20
38.241732
 10
28.621736
 20
38.349428
 10
28.626054
 20
38.370256
 10
28.649422
 20
38.568376
 10
28.650692
 20
38.58641
 10
28.774898
 20
38.594538
 10
29.339794
 20
38.922706
 10
29.72562
 20
39.55389599999999
 10
29.761434
 20
39.713662
 10
29.779468
 20
39.800276
 10
29.717492
 20
40.598344
 10
29.689806
 20
40.667178
 10
29.743654
 20
40.922194
 10
29.847032
 20
41.69664
 10
29.856684
 20
43.10634
 10
29.516324
 20
44.671996
 10
28.909772
 20
45.84446
 10
28.626054
 20
46.161706
  0
LWPOLYLINE
  5
4E
100
AcDbEntity
  8
0
  6
ByLayer
 62
    0
370
   -1
100
AcDbPolyline
 90
   80
 70
    1
 43
0
 10
9.9384104
 20
23.1620822
 10
9.9287584
 20
23.1496616
 10
9.779965199999999
 20
22.9277926
 10
9.5236284
 20
22.5185224
 10
9.460229999999999
 20
22.4124266
 10
9.398203199999999
 20
22.7844604
 10
9.3169232
 20
23.9158526
 10
9.3251782
 20
25.298019
 10
9.396831599999999
 20
26.315162
 10
9.440925999999999
 20
26.715974
 10
9.4422976
 20
26.724356
 10
9.4422976
 20
26.724356
 10
9.4422976
 20
26.734008
 10
9.4422976
 20
26.736802
 10
9.462973199999999
 20
27.526234
 10
9.895687599999999
 20
29.885386
 10
10.872724
 20
33.238186
 10
12.03579
 20
36.320984
 10
12.784074
 20
38.07815599999999
 10
13.0486404
 20
38.655244
 10
13.0789426
 20
38.598856
 10
13.5612632
 20
38.165024
 10
13.6246616
 20
38.13835399999999
 10
13.5764524
 20
37.963348
 10
13.318744
 20
37.28973999999999
 10
13.0279648
 20
36.901374
 10
12.9632202
 20
36.866576
 10
12.948031
 20
36.859718
 10
12.9039366
 20
36.72052599999999
 10
12.9122424
 20
36.70554
 10
12.9177288
 20
36.695888
 10
12.9921254
 20
36.64204
 10
13.0183128
 20
36.64204
 10
13.032105
 20
36.64204
 10
13.069316
 20
36.652962
 10
13.0734562
 20
36.65423199999999
 10
13.1547616
 20
36.696904
 10
13.4896352
 20
37.095176
 10
13.7555732
 20
37.72789
 10
13.8024362
 20
37.887656
 10
13.836904
 20
37.72916
 10
13.974699
 20
36.75761
 10
14.0297916
 20
35.54806199999999
 10
14.0229082
 20
35.269424
 10
14.020165
 20
35.178492
 10
13.9526518
 20
34.165794
 10
13.9416028
 20
34.054034
 10
13.909929
 20
34.04311199999999
 10
13.5460994
 20
34.03346
 10
13.5061706
 20
34.045906
 10
13.5061706
 20
34.045906
 10
13.603986
 20
33.865312
 10
13.7542016
 20
33.45332399999999
 10
13.7362946
 20
33.008062
 10
13.4427722
 20
32.750506
 10
13.3325362
 20
32.728408
 10
13.3325362
 20
32.728408
 10
13.2815076
 20
32.693864
 10
13.2098796
 20
32.583628
 10
13.2360416
 20
32.383984
 10
13.4083044
 20
32.148272
 10
13.4799578
 20
32.083502
 10
13.4799578
 20
32.083502
 10
13.3462776
 20
32.095948
 10
13.08862
 20
32.065468
 10
12.913614
 20
31.89478
 10
12.9811272
 20
31.574994
 10
13.0348482
 20
31.486856
 10
13.0348482
 20
31.486856
 10
12.9838704
 20
31.233364
 10
13.0858768
 20
30.903926
 10
13.1575302
 20
30.868112
 10
13.1575302
 20
30.868112
 10
13.1258056
 20
30.683454
 10
13.1230624
 20
30.345888
 10
13.1368546
 20
30.269942
 10
12.9852674
 20
29.77261
 10
11.9089932
 20
26.999946
 10
10.3366824
 20
23.8483394
 10
9.9384104
 20
23.1620822
  0
LWPOLYLINE
  5
4F
100
AcDbEntity
  8
0
  6
ByLayer
 62
    0
370
   -1
100
AcDbPolyline
 90
   41
 70
    1
 43
0
 10
14.6237198
 20
36.531804
 10
14.6237198
 20
36.531804
 10
14.5134838
 20
36.462716
 10
14.344015
 20
36.253674
 10
14.3508984
 20
35.903154
 10
14.6485356
 20
35.513518
 10
14.7725638
 20
35.414204
 10
14.501114
 20
35.015932
 10
14.501114
 20
35.015932
 10
14.3770604
 20
34.867088
 10
14.41704
 20
34.55441399999999
 10
14.4762982
 20
34.494978
 10
14.4762982
 20
34.494978
 10
14.4018762
 20
34.398458
 10
14.2406624
 20
34.231834
 10
14.1965426
 20
34.19729
 10
14.2047976
 20
34.289746
 10
14.2613126
 20
35.178492
 10
14.2640812
 20
35.26536
 10
14.2709646
 20
35.564572
 10
14.2075662
 20
36.85565399999999
 10
14.0546074
 20
37.876734
 10
14.0187934
 20
38.040818
 10
14.0270484
 20
38.040818
 10
14.09319
 20
38.0365
 10
14.1152372
 20
38.0365
 10
14.3219678
 20
38.0365
 10
14.8883116
 20
38.305232
 10
14.9420834
 20
38.35374599999999
 10
14.9503384
 20
38.352222
 10
15.0467822
 20
38.334188
 10
15.0564596
 20
38.33291799999999
 10
15.0702518
 20
38.301168
 10
15.2714452
 20
38.022784
 10
15.2976072
 20
37.998146
 10
15.2548844
 20
37.967666
 10
15.0702518
 20
37.809424
 10
14.7629372
 20
37.463222
 10
14.554835
 20
37.018468
 10
14.5686272
 20
36.632388
 10
14.6237198
 20
36.531804
  0
LWPOLYLINE
  5
50
100
AcDbEntity
  8
0
  6
ByLayer
 62
    0
370
   -1
100
AcDbPolyline
 90
   67
 70
    1
 43
0
 10
25.664668
 20
32.177228
 10
25.679654
 20
31.741872
 10
25.663144
 20
29.247592
 10
25.455118
 20
26.458418
 10
25.3765812
 20
25.872694
 10
25.0734068
 20
26.377138
 10
24.468455
 20
28.07208
 10
23.7050072
 20
31.010098
 10
23.1124506
 20
34.044382
 10
22.8065076
 20
35.90899599999999
 10
22.7155756
 20
36.531804
 10
22.7252276
 20
36.533328
 10
22.82444
 20
36.552378
 10
22.8341174
 20
36.553648
 10
22.9016306
 20
36.40632799999999
 10
23.2709212
 20
35.805618
 10
23.7821978
 20
35.193732
 10
23.922736
 20
35.04082399999999
 10
23.9282478
 20
35.035236
 10
23.9902746
 20
35.003486
 10
24.0123218
 20
35.003486
 10
24.0316004
 20
35.003486
 10
24.0853468
 20
35.028378
 10
24.0922556
 20
35.032442
 10
24.1032538
 20
35.043618
 10
24.1101626
 20
35.186874
 10
24.1005106
 20
35.197796
 10
23.9682274
 20
35.342576
 10
23.4845098
 20
35.915854
 10
23.1331262
 20
36.483544
 10
23.0669846
 20
36.625276
 10
23.1041956
 20
36.64331
 10
23.4376722
 20
36.876228
 10
23.4652312
 20
36.905184
 10
23.480395
 20
36.905184
 10
23.5162344
 20
36.901374
 10
23.5286296
 20
36.901374
 10
23.5561632
 20
36.872418
 10
23.8924338
 20
36.639246
 10
23.9323626
 20
36.621466
 10
24.0040668
 20
36.498784
 10
24.301704
 20
36.082478
 10
24.625554
 20
35.823398
 10
24.7109996
 20
35.777932
 10
24.7151144
 20
35.776662
 10
24.7523254
 20
35.76573999999999
 10
24.7660922
 20
35.76573999999999
 10
24.7922796
 20
35.76573999999999
 10
24.8667016
 20
35.819334
 10
24.8722134
 20
35.82924
 10
24.8790968
 20
35.843972
 10
24.8350024
 20
35.983418
 10
24.8212356
 20
35.990276
 10
24.7578372
 20
36.02329599999999
 10
24.5359682
 20
36.170616
 10
24.3209826
 20
36.439602
 10
24.2617244
 20
36.531804
 10
24.274145
 20
36.530534
 10
24.3816378
 20
36.523422
 10
24.4188488
 20
36.523422
 10
24.625554
 20
36.523422
 10
25.1919232
 20
36.792154
 10
25.2456696
 20
36.841938
 10
25.281509
 20
36.593526
 10
25.48128
 20
34.887662
 10
25.646634
 20
32.678878
 10
25.664668
 20
32.177228
  0
LWPOLYLINE
  5
51
100
AcDbEntity
  8
0
  6
ByLayer
 62
    0
370
   -1
100
AcDbPolyline
 90
  318
 70
    1
 43
0
 10
17.6347628
 20
49.86985199999999
 10
17.2544232
 20
49.87671
 10
16.1134044
 20
49.735994
 10
14.6664426
 20
49.276
 10
13.4000494
 20
48.469804
 10
12.6104396
 20
47.627794
 10
12.4188728
 20
47.30394399999999
 10
12.1487946
 20
47.058834
 10
11.4308128
 20
46.22190399999999
 10
10.6549952
 20
44.981876
 10
10.1271832
 20
43.631612
 10
9.908082799999999
 20
42.573194
 10
9.8874072
 20
42.216324
 10
10.0100638
 20
42.098976
 10
10.3339138
 20
41.43756
 10
10.5447338
 20
40.72255
 10
10.6122724
 20
40.577516
 10
10.70737
 20
40.537638
 10
11.0229396
 20
40.47566199999999
 10
11.4143028
 20
40.404034
 10
11.7050566
 20
40.212518
 10
11.8166896
 20
39.866824
 10
11.8166896
 20
39.751
 10
11.8635272
 20
39.678102
 10
12.073001
 20
39.49877799999999
 10
12.3541028
 20
39.43959599999999
 10
12.6393448
 20
39.500302
 10
12.9094738
 20
39.60876
 10
13.1451096
 20
39.691818
 10
13.326999
 20
39.678102
 10
13.4358634
 20
39.49446
 10
13.4579106
 20
39.173404
 10
13.4523988
 20
39.065962
 10
13.5226806
 20
39.176452
 10
13.7445496
 20
39.500302
 10
13.89888
 20
39.54145
 10
14.0752576
 20
39.23944399999999
 10
14.3357346
 20
38.784784
 10
14.4349724
 20
38.641528
 10
14.5066004
 20
38.744906
 10
14.9379432
 20
38.904672
 10
15.4726132
 20
38.660832
 10
15.8488126
 20
38.192456
 10
15.9232346
 20
37.84346
 10
15.8777432
 20
37.777674
 10
15.7812994
 20
37.714174
 10
15.5084272
 20
37.49929
 10
15.1887428
 20
37.14369
 10
15.0743666
 20
36.73855999999999
 10
15.2342088
 20
36.389818
 10
15.3223976
 20
36.311332
 10
15.2217882
 20
36.27399399999999
 10
14.9930612
 20
35.977576
 10
15.1239728
 20
35.54095
 10
15.3086054
 20
35.046412
 10
15.2273254
 20
34.626042
 10
15.1446484
 20
34.53765
 10
15.0785068
 20
34.42614399999999
 10
14.8304504
 20
34.117534
 10
14.519021
 20
33.75787
 10
14.2971266
 20
33.372044
 10
14.2351506
 20
32.99307599999999
 10
14.250289
 20
32.870394
 10
14.1662404
 20
32.790384
 10
14.0256768
 20
32.436308
 10
14.2185898
 20
32.066992
 10
14.6182334
 20
31.71698
 10
14.9296628
 20
31.445454
 10
15.0137368
 20
31.339282
 10
14.8152866
 20
31.395924
 10
14.2061946
 20
31.50743
 10
13.7597134
 20
31.416498
 10
13.6026144
 20
31.03753
 10
13.6329166
 20
30.512512
 10
13.6618726
 20
30.3403
 10
13.7225024
 20
30.264608
 10
14.0229082
 20
30.12948
 10
14.4073626
 20
30.03169
 10
14.582394
 20
29.83992
 10
14.4005046
 20
29.451554
 10
14.315059
 20
29.341318
 10
14.2709646
 20
29.284676
 10
14.1372844
 20
29.118052
 10
14.020165
 20
28.918154
 10
14.0642594
 20
28.76804
 10
14.2943834
 20
28.696412
 10
14.3729456
 20
28.690824
 10
14.454251
 20
28.696412
 10
14.7050506
 20
28.643834
 10
14.8318474
 20
28.47848
 10
14.82217
 20
28.238704
 10
14.7464018
 20
27.964638
 10
14.6733768
 20
27.70124
 10
14.6705828
 20
27.49042
 10
14.8084032
 20
27.37485
 10
15.0716234
 20
27.380184
 10
15.1556466
 20
27.398218
 10
15.2011126
 20
27.293316
 10
15.2438354
 20
26.932382
 10
15.1694388
 20
26.45156
 10
15.0137368
 20
26.01595
 10
14.8952204
 20
25.763728
 10
14.8524976
 20
25.681178
 10
14.9503384
 20
25.635712
 10
15.1473916
 20
25.2856238
 10
15.1680672
 20
24.6889524
 10
15.1956262
 20
24.0412524
 10
15.3968196
 20
23.5865162
 10
15.5125928
 20
23.4928156
 10
15.5759404
 20
23.3908346
 10
15.5731972
 20
22.9594918
 10
15.394051
 20
22.4248218
 10
15.34033
 20
22.0127576
 10
15.672435
 20
21.8460574
 10
15.7840426
 20
21.8446604
 10
15.699994
 20
21.7316812
 10
15.5015438
 20
21.3513162
 10
15.394051
 20
20.96135
 10
15.303119
 20
20.5989174
 10
15.1391366
 20
20.2819762
 10
15.0674578
 20
20.1896472
 10
15.0716234
 20
20.0945496
 10
15.0467822
 20
19.8023988
 10
14.9861778
 20
19.3986404
 10
14.9407118
 20
18.9039246
 10
14.95171
 20
18.4105804
 10
14.9696424
 20
18.2466234
 10
15.0633176
 20
18.19148
 10
15.2658826
 20
17.8896772
 10
15.3086054
 20
17.4280322
 10
15.256256
 20
16.9209212
 10
15.2452324
 20
16.5460934
 10
15.2714452
 20
16.4276024
 10
15.27556
 20
16.2498278
 10
15.424404
 20
15.432659
 10
15.3871676
 20
14.5879312
 10
15.2989788
 20
14.3963644
 10
15.3058622
 20
14.2406624
 10
15.2962356
 20
13.5681466
 10
15.2810718
 20
12.9356612
 10
15.2879298
 20
12.7992378
 10
15.3100024
 20
12.756515
 10
15.3306526
 20
12.6007876
 10
15.312771
 20
12.3499626
 10
15.2603962
 20
12.0881394
 10
15.1983694
 20
11.8580154
 10
15.154275
 20
11.6995702
 10
15.1515318
 20
11.6540788
 10
15.2163018
 20
11.7643148
 10
15.3348182
 20
11.9944388
 10
15.3747724
 20
12.0702324
 10
15.4988006
 20
12.756515
 10
15.7440884
 20
16.2222688
 10
15.7812994
 20
19.694906
 10
15.8006034
 20
20.3825602
 10
15.9342582
 20
20.5327504
 10
16.1974784
 20
21.3526878
 10
16.0541462
 20
22.2291402
 10
15.9866076
 20
22.4068894
 10
15.9728154
 20
22.5006154
 10
16.0610296
 20
22.7982526
 10
16.291179
 20
23.1014524
 10
16.4799518
 20
23.4059984
 10
16.4730684
 20
23.7187994
 10
16.4330888
 20
23.8028734
 10
16.5405816
 20
23.9971326
 10
16.8961054
 20
24.9824494
 10
16.8423844
 20
25.993852
 10
16.7445182
 20
26.200608
 10
16.7459406
 20
26.481786
 10
16.7321484
 20
27.876246
 10
16.5943534
 20
29.269436
 10
16.5350952
 20
29.54782
 10
16.60398
 20
29.77515
 10
16.8658032
 20
30.914848
 10
16.7996616
 20
32.076644
 10
16.7045894
 20
32.313626
 10
16.6783766
 20
32.594804
 10
16.9140378
 20
33.97681799999999
 10
17.2833538
 20
35.305238
 10
17.3260766
 20
35.55746
 10
17.4983394
 20
35.71875
 10
17.9089812
 20
36.31819
 10
18.210784
 20
37.189156
 10
18.283809
 20
38.124638
 10
18.2217822
 20
38.838632
 10
18.1776878
 20
39.07154999999999
 10
18.2094124
 20
38.903402
 10
18.4340246
 20
38.421056
 10
18.8267594
 20
38.101524
 10
19.281521
 20
38.007544
 10
19.7238874
 20
38.028372
 10
20.0794112
 20
38.057328
 10
20.2750928
 20
37.9857
 10
20.2365102
 20
37.703252
 10
19.9856852
 20
37.247068
 10
19.8905876
 20
37.102288
 10
19.8299578
 20
37.007038
 10
19.7362572
 20
36.662868
 10
19.8023988
 20
36.263072
 10
20.027011
 20
35.9283
 10
20.2613006
 20
35.731196
 10
20.3494894
 20
35.682682
 10
20.4101446
 20
35.506406
 10
20.4528674
 20
34.925
 10
20.3550012
 20
34.169858
 10
20.240625
 20
33.413192
 10
20.2475084
 20
32.833056
 10
20.2957684
 20
32.65119199999999
 10
20.2737212
 20
32.458406
 10
20.0683622
 20
31.893256
 10
19.7032118
 20
31.18231
 10
19.4068954
 20
30.45333
 10
19.3476626
 20
29.830522
 10
19.3889884
 20
29.635958
 10
19.3862198
 20
29.509212
 10
19.3077084
 20
29.128974
 10
19.2084706
 20
28.679648
 10
19.281521
 20
28.540456
 10
19.6163946
 20
28.84932
 10
19.7155816
 20
28.96362
 10
19.7720966
 20
28.879546
 10
19.9512428
 20
28.630118
 10
20.0807828
 20
28.303474
 10
20.0353168
 20
27.82951
 10
19.8327518
 20
27.240992
 10
19.7500494
 20
27.051
 10
19.7169532
 20
26.950162
 10
19.5405756
 20
26.67203199999999
 10
19.3297556
 20
26.348182
 10
19.3559176
 20
26.120598
 10
19.7362572
 20
26.033984
 10
19.863054
 20
26.03246
 10
19.8699374
 20
25.978866
 10
19.9677782
 20
25.825704
 10
20.1000868
 20
26.110946
 10
20.2047856
 20
26.593292
 10
20.240625
 20
26.897838
 10
20.2282044
 20
26.976578
 10
20.2613006
 20
27.253438
 10
20.4101446
 20
29.962602
 10
20.397724
 20
30.240986
 10
20.4776578
 20
30.367732
 10
20.7615282
 20
30.719268
 10
21.053679
 20
31.000446
 10
21.3141306
 20
31.289752
 10
21.5304878
 20
31.661862
 10
21.5869774
 20
31.791402
 10
21.5180672
 20
31.871412
 10
21.4271352
 20
32.21304199999999
 10
21.5676734
 20
32.60852
 10
21.8419172
 20
32.946086
 10
22.0251782
 20
33.12795
 10
22.0816932
 20
33.18992599999999
 10
21.9865956
 20
33.285176
 10
21.7606118
 20
33.622742
 10
21.5814656
 20
34.13252
 10
21.6007696
 20
34.64941
 10
21.7867738
 20
35.019996
 10
21.8804744
 20
35.108388
 10
21.7413078
 20
35.210242
 10
21.3926674
 20
35.609784
 10
21.0950302
 20
36.250626
 10
21.0523074
 20
36.956238
 10
21.2273134
 20
37.504878
 10
21.3320376
 20
37.65473799999999
 10
21.3444328
 20
37.69741
 10
21.5993726
 20
37.75964
 10
22.0334332
 20
37.375084
 10
22.557105
 20
37.038788
 10
23.0214932
 20
37.182044
 10
23.0986838
 20
37.285422
 10
23.1317546
 20
37.329618
 10
23.2957624
 20
37.409628
 10
23.5465366
 20
37.395912
 10
23.8290354
 20
37.299138
 10
24.1184176
 20
37.17543999999999
 10
24.3912644
 20
37.078666
 10
24.6214138
 20
37.06495
 10
24.7867678
 20
37.189156
 10
24.8584212
 20
37.426138
 10
24.8625868
 20
37.505894
 10
24.8901204
 20
37.585904
 10
25.0775216
 20
37.788596
 10
25.354534
 20
37.715444
 10
25.700482
 20
37.48836799999999
 10
26.01595
 20
37.327078
 10
26.12771
 20
37.304726
 10
26.236422
 20
37.318696
 10
26.54935
 20
37.51859399999999
 10
26.82494
 20
37.864288
 10
27.11704
 20
38.098476
 10
27.494738
 20
38.042088
 10
27.595322
 20
37.981382
 10
27.709622
 20
38.01999
 10
28.000452
 20
38.291516
 10
28.20009599999999
 20
38.713156
 10
28.42895
 20
39.08679
 10
28.798266
 20
39.252144
 10
28.922218
 20
39.253668
 10
29.031184
 20
39.384478
 10
29.221176
 20
39.894256
 10
29.25445
 20
40.59986799999999
 10
29.225494
 20
41.332912
 10
29.281882
 20
41.885362
 10
29.343858
 20
42.05351
 10
29.38526
 20
42.52341
 10
29.156406
 20
43.962066
 10
28.373832
 20
45.701204
 10
27.184604
 20
47.239174
 10
26.152348
 20
48.24374399999999
 10
25.783032
 20
48.543972
 10
25.3338584
 20
48.78959
 10
23.8483394
 20
49.267618
 10
21.7950796
 20
49.570894
 10
19.6990462
 20
49.69332199999999
 10
18.146014
 20
49.798224
 10
17.6347628
 20
49.86985199999999
  0
ENDSEC
  0
SECTION
  2
OBJECTS
  0
DICTIONARY
  5
C
330
0
100
AcDbDictionary
281
    1
  3
ACAD_GROUP
350
D
  0
DICTIONARY
  5
D
330
C
100
AcDbDictionary
281
    1
  0
ENDSEC
  0
EOF
