999
dxfrw 0.6.3
  0
SECTION
  2
HEADER
  9
$ACADVER
  1
AC1021
  9
$DWGCODEPAGE
  3
ANSI_1252
  9
$INSBASE
 10
0
 20
0
 30
0
  9
$EXTMIN
 10
7.7790294
 20
3.034436399999999
 30
0
  9
$EXTMAX
 10
29.864812
 20
54.61177799999999
 30
0
  9
$LIMMIN
 10
0
 20
0
  9
$LIMMAX
 10
420
 20
297
  9
$ORTHOMODE
 70
    0
  9
$REGENMODE
 70
    1
  9
$FILLMODE
 70
    0
  9
$QTEXTMODE
 70
    0
  9
$MIRRTEXT
 70
    0
  9
$LTSCALE
 40
1
  9
$ATTMODE
 70
    0
  9
$TEXTSIZE
 40
2.5
  9
$TRACEWID
 40
15.68
  9
$TEXTSTYLE
  7
STANDARD
  9
$CLAYER
  8
0
  9
$CELTYPE
  6
BYLAYER
  9
$CECOLOR
 62
  256
  9
$CELTSCALE
 40
1
  9
$DISPSILH
 70
    0
  9
$DIMSCALE
 40
2.5
  9
$DIMASZ
 40
2.5
  9
$DIMEXO
 40
0.625
  9
$DIMDLI
 40
3.75
  9
$DIMRND
 40
0
  9
$DIMDLE
 40
0
  9
$DIMEXE
 40
1.25
  9
$DIMTP
 40
0
  9
$DIMTM
 40
0
  9
$DIMTXT
 40
2.5
  9
$DIMCEN
 40
2.5
  9
$DIMTSZ
 40
0
  9
$DIMTOL
 70
    0
  9
$DIMLIM
 70
    0
  9
$DIMTIH
 70
    0
  9
$DIMTOH
 70
    0
  9
$DIMSE1
 70
    0
  9
$DIMSE2
 70
    0
  9
$DIMTAD
 70
    1
  9
$DIMZIN
 70
    8
  9
$DIMBLK
  1

  9
$DIMASO
 70
    1
  9
$DIMSHO
 70
    1
  9
$DIMPOST
  1

  9
$DIMAPOST
  1

  9
$DIMALT
 70
    0
  9
$DIMALTD
 70
    3
  9
$DIMALTF
 40
0.03937
  9
$DIMLFAC
 40
1
  9
$DIMTOFL
 70
    1
  9
$DIMTVP
 40
0
  9
$DIMTIX
 70
    0
  9
$DIMSOXD
 70
    0
  9
$DIMSAH
 70
    0
  9
$DIMBLK1
  1

  9
$DIMBLK2
  1

  9
$DIMSTYLE
  2
Standard
  9
$DIMCLRD
 70
    0
  9
$DIMCLRE
 70
    0
  9
$DIMCLRT
 70
    0
  9
$DIMTFAC
 40
1
  9
$DIMGAP
 40
0.625
  9
$DIMJUST
 70
    0
  9
$DIMSD1
 70
    0
  9
$DIMSD2
 70
    0
  9
$DIMTOLJ
 70
    0
  9
$DIMTZIN
 70
    8
  9
$DIMALTZ
 70
    0
  9
$DIMALTTZ
 70
    0
  9
$DIMUPT
 70
    0
  9
$DIMDEC
 70
    2
  9
$DIMTDEC
 70
    2
  9
$DIMALTU
 70
    2
  9
$DIMALTTD
 70
    3
  9
$DIMTXSTY
  7
STANDARD
  9
$DIMAUNIT
 70
    0
  9
$DIMADEC
 70
    0
  9
$DIMALTRND
 40
0
  9
$DIMAZIN
 70
    0
  9
$DIMDSEP
 70
   44
  9
$DIMATFIT
 70
    3
  9
$DIMFRAC
 70
    0
  9
$DIMLDRBLK
  1
STANDARD
  9
$DIMLUNIT
 70
    2
  9
$DIMLWD
 70
   -2
  9
$DIMLWE
 70
   -2
  9
$DIMTMOVE
 70
    0
  9
$DIMFXL
 40
1
  9
$DIMFXLON
 70
    0
  9
$DIMJOGANG
 40
0.7854
  9
$DIMTFILL
 70
    0
  9
$DIMTFILLCLR
 70
    0
  9
$DIMARCSYM
 70
    0
  9
$DIMLTYPE
  6

  9
$DIMLTEX1
  6

  9
$DIMLTEX2
  6

  9
$LUNITS
 70
    2
  9
$LUPREC
 70
    4
  9
$SKETCHINC
 40
1
  9
$FILLETRAD
 40
0
  9
$AUNITS
 70
    0
  9
$AUPREC
 70
    2
  9
$MENU
  1
.
  9
$ELEVATION
 40
0
  9
$PELEVATION
 40
0
  9
$THICKNESS
 40
0
  9
$LIMCHECK
 70
    0
  9
$CHAMFERA
 40
0
  9
$CHAMFERB
 40
0
  9
$CHAMFERC
 40
0
  9
$CHAMFERD
 40
0
  9
$SKPOLY
 70
    0
  9
$USRTIMER
 70
    1
  9
$ANGBASE
 50
0
  9
$ANGDIR
 70
    0
  9
$PDMODE
 70
   34
  9
$PDSIZE
 40
0
  9
$PLINEWID
 40
0
  9
$SPLFRAME
 70
    1
  9
$SPLINETYPE
 70
    2
  9
$SPLINESEGS
 70
    8
  9
$HANDSEED
  5
20000
  9
$SURFTAB1
 70
    6
  9
$SURFTAB2
 70
    6
  9
$SURFTYPE
 70
    6
  9
$SURFU
 70
    6
  9
$SURFV
 70
    6
  9
$UCSBASE
  2

  9
$UCSNAME
  2

  9
$UCSORG
 10
0
 20
0
 30
0
  9
$UCSXDIR
 10
1
 20
0
 30
0
  9
$UCSYDIR
 10
0
 20
1
 30
0
  9
$UCSORTHOREF
  2

  9
$UCSORTHOVIEW
 70
    0
  9
$UCSORGTOP
 10
0
 20
0
 30
0
  9
$UCSORGBOTTOM
 10
0
 20
0
 30
0
  9
$UCSORGLEFT
 10
0
 20
0
 30
0
  9
$UCSORGRIGHT
 10
0
 20
0
 30
0
  9
$UCSORGFRONT
 10
0
 20
0
 30
0
  9
$UCSORGBACK
 10
0
 20
0
 30
0
  9
$PUCSBASE
  2

  9
$PUCSNAME
  2

  9
$PUCSORG
 10
0
 20
0
 30
0
  9
$PUCSXDIR
 10
1
 20
0
 30
0
  9
$PUCSYDIR
 10
0
 20
1
 30
0
  9
$PUCSORTHOREF
  2

  9
$PUCSORTHOVIEW
 70
    0
  9
$PUCSORGTOP
 10
0
 20
0
 30
0
  9
$PUCSORGBOTTOM
 10
0
 20
0
 30
0
  9
$PUCSORGLEFT
 10
0
 20
0
 30
0
  9
$PUCSORGRIGHT
 10
0
 20
0
 30
0
  9
$PUCSORGFRONT
 10
0
 20
0
 30
0
  9
$PUCSORGBACK
 10
0
 20
0
 30
0
  9
$USERI1
 70
    0
  9
$USERI2
 70
    0
  9
$USERI3
 70
    0
  9
$USERI4
 70
    0
  9
$USERI5
 70
    0
  9
$USERR1
 40
0
  9
$USERR2
 40
0
  9
$USERR3
 40
0
  9
$USERR4
 40
0
  9
$USERR5
 40
0
  9
$WORLDVIEW
 70
    1
  9
$SHADEDGE
 70
    3
  9
$SHADEDIF
 70
   70
  9
$TILEMODE
 70
    1
  9
$MAXACTVP
 70
   64
  9
$PINSBASE
 10
0
 20
0
 30
0
  9
$PLIMCHECK
 70
    0
  9
$PEXTMIN
 10
0
 20
0
 30
0
  9
$PEXTMAX
 10
0
 20
0
 30
0
  9
$SNAPSTYLE
 70
    0
  9
$PLIMMIN
 10
0
 20
0
  9
$PLIMMAX
 10
215.9
 20
279.4
  9
$UNITMODE
 70
    0
  9
$VISRETAIN
 70
    1
  9
$PLINEGEN
 70
    0
  9
$PSLTSCALE
 70
    1
  9
$TREEDEPTH
 70
 3020
  9
$CMLSTYLE
  2
Standard
  9
$CMLJUST
 70
    0
  9
$CMLSCALE
 40
20
  9
$PROXYGRAPHICS
 70
    1
  9
$MEASUREMENT
 70
    1
  9
$CELWEIGHT
370
   -1
  9
$ENDCAPS
280
    0
  9
$JOINSTYLE
280
    0
  9
$LWDISPLAY
290
    0
  9
$INSUNITS
 70
    4
  9
$HYPERLINKBASE
  1

  9
$STYLESHEET
  1

  9
$XEDIT
290
    1
  9
$CEPSNTYPE
380
    0
  9
$PSTYLEMODE
290
    1
  9
$EXTNAMES
290
    1
  9
$PSVPSCALE
 40
1
  9
$OLESTARTUP
290
    0
  9
$SORTENTS
280
  127
  9
$INDEXCTL
280
    0
  9
$HIDETEXT
280
    1
  9
$XCLIPFRAME
290
    0
  9
$HALOGAP
280
    0
  9
$OBSCOLOR
 70
  257
  9
$OBSLTYPE
280
    0
  9
$INTERSECTIONDISPLAY
280
    0
  9
$INTERSECTIONCOLOR
 70
  257
  9
$DIMASSOC
280
    1
  9
$PROJECTNAME
  1

  9
$CAMERADISPLAY
290
    0
  9
$LENSLENGTH
 40
50
  9
$CAMERAHEIGHT
 40
0
  9
$STEPSPERSEC
 40
2
  9
$STEPSIZE
 40
50
  9
$3DDWFPREC
 40
2
  9
$PSOLWIDTH
 40
5
  9
$PSOLHEIGHT
 40
80
  9
$LOFTANG1
 40
1.570796326794897
  9
$LOFTANG2
 40
1.570796326794897
  9
$LOFTMAG1
 40
0
  9
$LOFTMAG2
 40
0
  9
$LOFTPARAM
 70
    7
  9
$LOFTNORMALS
280
    1
  9
$LATITUDE
 40
1
  9
$LONGITUDE
 40
1
  9
$NORTHDIRECTION
 40
0
  9
$TIMEZONE
 70
-8000
  9
$LIGHTGLYPHDISPLAY
280
    1
  9
$TILEMODELIGHTSYNCH
280
    1
  9
$SOLIDHIST
280
    1
  9
$SHOWHIST
280
    1
  9
$DWFFRAME
280
    2
  9
$DGNFRAME
280
    0
  9
$REALWORLDSCALE
290
    1
  9
$INTERFERECOLOR
 62
    1
  9
$CSHADOW
280
    0
  9
$SHADOWPLANELOCATION
 40
0
  0
ENDSEC
  0
SECTION
  2
CLASSES
  0
ENDSEC
  0
SECTION
  2
TABLES
  0
TABLE
  2
VPORT
  5
8
330
0
100
AcDbSymbolTable
 70
    1
  0
VPORT
  5
31
330
2
100
AcDbSymbolTableRecord
100
AcDbViewportTableRecord
  2
*ACTIVE
 70
    0
 10
0
 20
0
 11
1
 21
1
 12
27.57870794964706
 22
27.60904756235294
 13
0
 23
0
 14
10
 24
10
 15
10
 25
10
 16
0
 26
0
 36
1
 17
0
 27
0
 37
0
 40
52.7909261082353
 41
1.374712643678161
 42
50
 43
0
 44
0
 50
0
 51
0
 71
    0
 72
  100
 73
    1
 74
    3
 75
    0
 76
    1
 77
    0
 78
    0
281
    0
 65
    1
110
0
120
0
130
0
111
1
121
0
131
0
112
0
122
1
132
0
 79
    0
146
0
348
10020
 60
    7
 61
    5
292
1
282
    1
141
0
142
0
 63
  250
421
3358443
  0
ENDTAB
  0
TABLE
  2
LTYPE
  5
5
330
0
100
AcDbSymbolTable
 70
    4
  0
LTYPE
  5
14
330
5
100
AcDbSymbolTableRecord
100
AcDbLinetypeTableRecord
  2
ByBlock
 70
    0
  3

 72
   65
 73
    0
 40
0
  0
LTYPE
  5
15
330
5
100
AcDbSymbolTableRecord
100
AcDbLinetypeTableRecord
  2
ByLayer
 70
    0
  3

 72
   65
 73
    0
 40
0
  0
LTYPE
  5
16
330
5
100
AcDbSymbolTableRecord
100
AcDbLinetypeTableRecord
  2
Continuous
 70
    0
  3
Solid line
 72
   65
 73
    0
 40
0
  0
LTYPE
  5
32
330
5
100
AcDbSymbolTableRecord
100
AcDbLinetypeTableRecord
  2
DOT
 70
    0
  3
Dot . . . . . . . . . . . . . . . . . . . . . .
 72
   65
 73
    2
 40
6.35
 49
0
 74
    0
 49
-6.35
 74
    0
  0
LTYPE
  5
33
330
5
100
AcDbSymbolTableRecord
100
AcDbLinetypeTableRecord
  2
DOTTINY
 70
    0
  3
Dot (.15x) .....................................
 72
   65
 73
    2
 40
0.9525
 49
0
 74
    0
 49
-0.9525
 74
    0
  0
LTYPE
  5
34
330
5
100
AcDbSymbolTableRecord
100
AcDbLinetypeTableRecord
  2
DOT2
 70
    0
  3
Dot (.5x) .....................................
 72
   65
 73
    2
 40
3.175
 49
0
 74
    0
 49
-3.175
 74
    0
  0
LTYPE
  5
35
330
5
100
AcDbSymbolTableRecord
100
AcDbLinetypeTableRecord
  2
DOTX2
 70
    0
  3
Dot (2x) .  .  .  .  .  .  .  .  .  .  .  .  .
 72
   65
 73
    2
 40
12.7
 49
0
 74
    0
 49
-12.7
 74
    0
  0
LTYPE
  5
36
330
5
100
AcDbSymbolTableRecord
100
AcDbLinetypeTableRecord
  2
DASHED
 70
    0
  3
Dashed _ _ _ _ _ _ _ _ _ _ _ _ _ _ _ _ _
 72
   65
 73
    2
 40
19.05
 49
12.7
 74
    0
 49
-6.35
 74
    0
  0
LTYPE
  5
37
330
5
100
AcDbSymbolTableRecord
100
AcDbLinetypeTableRecord
  2
DASHEDTINY
 70
    0
  3
Dashed (.15x) _ _ _ _ _ _ _ _ _ _ _ _ _ _ _ _ _
 72
   65
 73
    2
 40
2.8575
 49
1.905
 74
    0
 49
-0.9525
 74
    0
  0
LTYPE
  5
38
330
5
100
AcDbSymbolTableRecord
100
AcDbLinetypeTableRecord
  2
DASHED2
 70
    0
  3
Dashed (.5x) _ _ _ _ _ _ _ _ _ _ _ _ _ _ _ _ _
 72
   65
 73
    2
 40
9.524999999999999
 49
6.35
 74
    0
 49
-3.175
 74
    0
  0
LTYPE
  5
39
330
5
100
AcDbSymbolTableRecord
100
AcDbLinetypeTableRecord
  2
DASHEDX2
 70
    0
  3
Dashed (2x) ____  ____  ____  ____  ____  ___
 72
   65
 73
    2
 40
38.09999999999999
 49
25.4
 74
    0
 49
-12.7
 74
    0
  0
LTYPE
  5
3A
330
5
100
AcDbSymbolTableRecord
100
AcDbLinetypeTableRecord
  2
DASHDOT
 70
    0
  3
Dash dot __ . __ . __ . __ . __ . __ . __ . __
 72
   65
 73
    4
 40
25.4
 49
12.7
 74
    0
 49
-6.35
 74
    0
 49
0
 74
    0
 49
-6.35
 74
    0
  0
LTYPE
  5
3B
330
5
100
AcDbSymbolTableRecord
100
AcDbLinetypeTableRecord
  2
DASHDOTTINY
 70
    0
  3
Dash dot (.15x) _._._._._._._._._._._._._._._.
 72
   65
 73
    4
 40
3.81
 49
1.905
 74
    0
 49
-0.9525
 74
    0
 49
0
 74
    0
 49
-0.9525
 74
    0
  0
LTYPE
  5
3C
330
5
100
AcDbSymbolTableRecord
100
AcDbLinetypeTableRecord
  2
DASHDOT2
 70
    0
  3
Dash dot (.5x) _._._._._._._._._._._._._._._.
 72
   65
 73
    4
 40
12.7
 49
6.35
 74
    0
 49
-3.175
 74
    0
 49
0
 74
    0
 49
-3.175
 74
    0
  0
LTYPE
  5
3D
330
5
100
AcDbSymbolTableRecord
100
AcDbLinetypeTableRecord
  2
DASHDOTX2
 70
    0
  3
Dash dot (2x) ____  .  ____  .  ____  .  ___
 72
   65
 73
    4
 40
50.8
 49
25.4
 74
    0
 49
-12.7
 74
    0
 49
0
 74
    0
 49
-12.7
 74
    0
  0
LTYPE
  5
3E
330
5
100
AcDbSymbolTableRecord
100
AcDbLinetypeTableRecord
  2
DIVIDE
 70
    0
  3
Divide ____ . . ____ . . ____ . . ____ . . ____
 72
   65
 73
    6
 40
31.75
 49
12.7
 74
    0
 49
-6.35
 74
    0
 49
0
 74
    0
 49
-6.35
 74
    0
 49
0
 74
    0
 49
-6.35
 74
    0
  0
LTYPE
  5
3F
330
5
100
AcDbSymbolTableRecord
100
AcDbLinetypeTableRecord
  2
DIVIDETINY
 70
    0
  3
Divide (.15x) __..__..__..__..__..__..__..__.._
 72
   65
 73
    6
 40
4.7625
 49
1.905
 74
    0
 49
-0.9525
 74
    0
 49
0
 74
    0
 49
-0.9525
 74
    0
 49
0
 74
    0
 49
-0.9525
 74
    0
  0
LTYPE
  5
40
330
5
100
AcDbSymbolTableRecord
100
AcDbLinetypeTableRecord
  2
DIVIDE2
 70
    0
  3
Divide (.5x) __..__..__..__..__..__..__..__.._
 72
   65
 73
    6
 40
15.875
 49
6.35
 74
    0
 49
-3.175
 74
    0
 49
0
 74
    0
 49
-3.175
 74
    0
 49
0
 74
    0
 49
-3.175
 74
    0
  0
LTYPE
  5
41
330
5
100
AcDbSymbolTableRecord
100
AcDbLinetypeTableRecord
  2
DIVIDEX2
 70
    0
  3
Divide (2x) ________  .  .  ________  .  .  _
 72
   65
 73
    6
 40
63.5
 49
25.4
 74
    0
 49
-12.7
 74
    0
 49
0
 74
    0
 49
-12.7
 74
    0
 49
0
 74
    0
 49
-12.7
 74
    0
  0
LTYPE
  5
42
330
5
100
AcDbSymbolTableRecord
100
AcDbLinetypeTableRecord
  2
BORDER
 70
    0
  3
Border __ __ . __ __ . __ __ . __ __ . __ __ .
 72
   65
 73
    6
 40
44.45
 49
12.7
 74
    0
 49
-6.35
 74
    0
 49
12.7
 74
    0
 49
-6.35
 74
    0
 49
0
 74
    0
 49
-6.35
 74
    0
  0
LTYPE
  5
43
330
5
100
AcDbSymbolTableRecord
100
AcDbLinetypeTableRecord
  2
BORDERTINY
 70
    0
  3
Border (.15x) __.__.__.__.__.__.__.__.__.__.__.
 72
   65
 73
    6
 40
6.6675
 49
1.905
 74
    0
 49
-0.9525
 74
    0
 49
1.905
 74
    0
 49
-0.9525
 74
    0
 49
0
 74
    0
 49
-0.9525
 74
    0
  0
LTYPE
  5
44
330
5
100
AcDbSymbolTableRecord
100
AcDbLinetypeTableRecord
  2
BORDER2
 70
    0
  3
Border (.5x) __.__.__.__.__.__.__.__.__.__.__.
 72
   65
 73
    6
 40
22.225
 49
6.35
 74
    0
 49
-3.175
 74
    0
 49
6.35
 74
    0
 49
-3.175
 74
    0
 49
0
 74
    0
 49
-3.175
 74
    0
  0
LTYPE
  5
45
330
5
100
AcDbSymbolTableRecord
100
AcDbLinetypeTableRecord
  2
BORDERX2
 70
    0
  3
Border (2x) ____  ____  .  ____  ____  .  ___
 72
   65
 73
    6
 40
88.89999999999999
 49
25.4
 74
    0
 49
-12.7
 74
    0
 49
25.4
 74
    0
 49
-12.7
 74
    0
 49
0
 74
    0
 49
-12.7
 74
    0
  0
LTYPE
  5
46
330
5
100
AcDbSymbolTableRecord
100
AcDbLinetypeTableRecord
  2
CENTER
 70
    0
  3
Center ____ _ ____ _ ____ _ ____ _ ____ _ ____
 72
   65
 73
    4
 40
50.8
 49
31.75
 74
    0
 49
-6.35
 74
    0
 49
6.35
 74
    0
 49
-6.35
 74
    0
  0
LTYPE
  5
47
330
5
100
AcDbSymbolTableRecord
100
AcDbLinetypeTableRecord
  2
CENTERTINY
 70
    0
  3
Center (.15x) ___ _ ___ _ ___ _ ___ _ ___ _ ___
 72
   65
 73
    4
 40
7.619999999999999
 49
4.7625
 74
    0
 49
-0.9525
 74
    0
 49
0.9525
 74
    0
 49
-0.9525
 74
    0
  0
LTYPE
  5
48
330
5
100
AcDbSymbolTableRecord
100
AcDbLinetypeTableRecord
  2
CENTER2
 70
    0
  3
Center (.5x) ___ _ ___ _ ___ _ ___ _ ___ _ ___
 72
   65
 73
    4
 40
28.575
 49
19.05
 74
    0
 49
-3.175
 74
    0
 49
3.175
 74
    0
 49
-3.175
 74
    0
  0
LTYPE
  5
49
330
5
100
AcDbSymbolTableRecord
100
AcDbLinetypeTableRecord
  2
CENTERX2
 70
    0
  3
Center (2x) ________  __  ________  __  _____
 72
   65
 73
    4
 40
101.6
 49
63.5
 74
    0
 49
-12.7
 74
    0
 49
12.7
 74
    0
 49
-12.7
 74
    0
  0
ENDTAB
  0
TABLE
  2
LAYER
  5
2
330
0
100
AcDbSymbolTable
 70
    1
  0
LAYER
  5
10
330
2
100
AcDbSymbolTableRecord
100
AcDbLayerTableRecord
  2
0
 70
    0
 62
    7
  6
CONTINUOUS
370
   -3
390
F
  0
ENDTAB
  0
TABLE
  2
STYLE
  5
3
330
0
100
AcDbSymbolTable
 70
    3
  0
STYLE
  5
4A
330
2
100
AcDbSymbolTableRecord
100
AcDbTextStyleTableRecord
  2
Standard
 70
    0
 40
0
 41
1
 50
0
 71
    0
 42
1
  3
txt
  4

  0
ENDTAB
  0
TABLE
  2
VIEW
  5
6
330
0
100
AcDbSymbolTable
 70
    0
  0
ENDTAB
  0
TABLE
  2
UCS
  5
7
330
0
100
AcDbSymbolTable
 70
    0
  0
ENDTAB
  0
TABLE
  2
APPID
  5
9
330
0
100
AcDbSymbolTable
 70
    1
  0
APPID
  5
12
330
9
100
AcDbSymbolTableRecord
100
AcDbRegAppTableRecord
  2
ACAD
 70
    0
  0
APPID
  5
4B
330
9
100
AcDbSymbolTableRecord
100
AcDbRegAppTableRecord
  2
LibreCad
 70
    0
  0
ENDTAB
  0
TABLE
  2
DIMSTYLE
  5
A
330
0
100
AcDbSymbolTable
 70
    1
100
AcDbDimStyleTable
 71
    1
  0
DIMSTYLE
105
4C
330
A
100
AcDbSymbolTableRecord
100
AcDbDimStyleTableRecord
  2
Standard
 70
    0
 40
1
 41
2.5
 42
0.625
 43
0.38
 44
1.25
 45
0
 46
0
 47
0
 48
0
 49
1
140
2.5
141
0.09
142
2.5
143
25.4
144
1
145
0
146
1
147
0.625
148
0
 71
    0
 72
    0
 73
    0
 74
    1
 75
    0
 76
    0
 77
    0
 78
    1
 79
    0
170
    0
171
    2
172
    0
173
    0
174
    0
175
    0
176
    0
177
    0
178
    0
179
    0
271
    2
272
    4
273
    2
274
    2
275
    0
276
    0
277
    2
278
    0
279
    0
280
    0
281
    0
282
    0
283
    1
284
    0
285
    0
286
    0
288
    0
289
    3
340
standard
341

371
   -2
372
   -2
  0
ENDTAB
  0
TABLE
  2
BLOCK_RECORD
  5
1
330
0
100
AcDbSymbolTable
 70
    2
  0
BLOCK_RECORD
  5
1F
330
1
100
AcDbSymbolTableRecord
100
AcDbBlockTableRecord
  2
*Model_Space
 70
    0
280
    1
281
    0
  0
BLOCK_RECORD
  5
1E
330
1
100
AcDbSymbolTableRecord
100
AcDbBlockTableRecord
  2
*Paper_Space
 70
    0
280
    1
281
    0
  0
ENDTAB
  0
ENDSEC
  0
SECTION
  2
BLOCKS
  0
BLOCK
  5
20
330
1F
100
AcDbEntity
  8
0
100
AcDbBlockBegin
  2
*Model_Space
 70
    0
 10
0
 20
0
 30
0
  3
*Model_Space
  1

  0
ENDBLK
  5
21
330
1F
100
AcDbEntity
  8
0
100
AcDbBlockEnd
  0
BLOCK
  5
1C
330
1B
100
AcDbEntity
  8
0
100
AcDbBlockBegin
  2
*Paper_Space
 70
    0
 10
0
 20
0
 30
0
  3
*Paper_Space
  1

  0
ENDBLK
  5
1D
330
1F
100
AcDbEntity
  8
0
100
AcDbBlockEnd
  0
ENDSEC
  0
SECTION
  2
ENTITIES
  0
LWPOLYLINE
  5
4D
100
AcDbEntity
  8
0
  6
ByLayer
 62
    0
370
   -1
100
AcDbPolyline
 90
  863
 70
    1
 43
0
 10
14.7711922
 20
24.181816
 10
15.329281
 20
24.6269256
 10
15.5676854
 20
24.8060718
 10
15.7358334
 20
24.8777252
 10
15.7743906
 20
24.8777252
 10
15.829534
 20
24.846026
 10
15.9011874
 20
24.708231
 10
15.7619954
 20
24.4891306
 10
15.7068774
 20
24.4643402
 10
15.6200602
 20
24.4271038
 10
15.4464512
 20
24.1198146
 10
15.6338524
 20
23.8015018
 10
15.790926
 20
23.7229396
 10
15.920466
 20
23.4790234
 10
15.7482032
 20
23.1331262
 10
15.6696918
 20
23.046309
 10
15.607665
 20
22.9801674
 10
15.46987
 20
22.7389944
 10
15.5731972
 20
22.5212656
 10
15.6255974
 20
22.464776
 10
15.6627576
 20
22.4248218
 10
15.7482032
 20
22.2773494
 10
15.6820616
 20
22.1216474
 10
15.6503878
 20
22.0775276
 10
15.635224
 20
22.058249
 10
15.440914
 20
21.790914
 10
15.4257756
 20
21.7688668
 10
15.4092148
 20
21.7468196
 10
15.1873712
 20
21.4712296
 10
15.1680672
 20
21.4477854
 10
15.1226012
 20
21.3967822
 10
15.035784
 20
21.2024976
 10
15.1722074
 20
21.0027012
 10
15.230094
 20
20.9489294
 10
15.4354022
 20
20.7601566
 10
15.4160982
 20
20.5561946
 10
15.4092148
 20
20.4817726
 10
15.0398988
 20
19.8079106
 10
14.9668738
 20
19.7362572
 10
14.8580094
 20
19.6329046
 10
14.5906744
 20
19.2608454
 10
14.7023074
 20
19.0003938
 10
14.768449
 20
18.9507876
 10
14.8607526
 20
18.8818774
 10
14.9820376
 20
18.3816498
 10
14.647164
 20
17.7160682
 10
14.5134838
 20
17.5631094
 10
14.3991076
 20
17.434941
 10
14.1069822
 20
16.9485056
 10
14.2268448
 20
16.7087296
 10
14.2723362
 20
16.705961
 10
14.3426434
 20
16.7018462
 10
14.5341594
 20
16.364204
 10
14.3012922
 20
15.7496002
 10
14.1965426
 20
15.6035248
 10
14.1193774
 20
15.4988006
 10
13.9650216
 20
15.1239728
 10
14.122146
 20
14.9296628
 10
14.1841474
 20
14.9172676
 10
14.233779
 20
14.9089872
 10
14.3357346
 20
14.6044412
 10
14.1249146
 20
14.1235176
 10
14.0422122
 20
14.020165
 10
13.96365
 20
13.9264644
 10
13.772134
 20
13.513054
 10
13.8603228
 20
13.2484622
 10
13.9126722
 20
13.2319268
 10
13.9622784
 20
13.2167376
 10
14.0904468
 20
13.1037584
 10
14.0146532
 20
12.8970532
 10
13.9760706
 20
12.837795
 10
13.8933682
 20
12.7179324
 10
13.7059924
 20
12.210796
 10
13.8465306
 20
11.9448326
 10
13.9416028
 20
11.9448326
 10
14.0835634
 20
11.5520978
 10
14.0256768
 20
10.9250988
 10
13.982954
 20
10.807954
 10
13.955395
 20
10.7335574
 10
13.9113006
 20
10.4910128
 10
14.0132816
 20
10.3407972
 10
14.0587476
 20
10.310495
 10
14.0973048
 20
10.2842822
 10
14.1993112
 20
10.1230684
 10
14.2103348
 20
9.741357199999999
 10
14.2047976
 20
9.613188799999998
 10
14.1993112
 20
9.4919546
 10
14.2103348
 20
9.124010199999999
 10
14.3191738
 20
8.9889584
 10
14.3632682
 20
8.9696544
 10
14.4239234
 20
8.942095399999999
 10
14.5755106
 20
8.757437399999999
 10
14.5314162
 20
8.47217
 10
14.4941798
 20
8.392261599999998
 10
14.4500854
 20
8.301329599999999
 10
14.3963644
 20
7.941614799999999
 10
14.5562066
 20
7.706004399999998
 10
14.6209766
 20
7.6770484
 10
14.7518882
 20
7.6178156
 10
14.768449
 20
7.238822199999998
 10
14.7725638
 20
7.1410068
 10
14.82217
 20
6.818528399999999
 10
14.914499
 20
6.6917824
 10
14.9930612
 20
6.6917824
 10
15.134971
 20
6.6159634
 10
15.1928576
 20
6.424396599999999
 10
15.1928576
 20
6.254927799999999
 10
15.2769316
 20
5.937961199999999
 10
15.4740102
 20
5.794654399999999
 10
15.5304744
 20
5.791911199999999
 10
15.5718256
 20
5.791911199999999
 10
15.6958538
 20
5.711977399999999
 10
15.7992318
 20
5.425338399999999
 10
15.8253938
 20
5.326125999999999
 10
15.8529528
 20
5.217261599999999
 10
15.976981
 20
4.898923399999998
 10
16.1836862
 20
4.798339399999999
 10
16.2539426
 20
4.788687399999999
 10
16.3077144
 20
4.781803999999999
 10
16.4882322
 20
4.701870199999999
 10
16.5736778
 20
4.543399599999999
 10
16.5805612
 20
4.496536599999999
 10
16.5860476
 20
4.4510706
 10
16.6728902
 20
4.310532399999999
 10
16.8726866
 20
4.2608754
 10
17.0022266
 20
4.2608754
 10
17.1882816
 20
4.216780999999999
 10
17.3067726
 20
4.052823999999999
 10
17.33296
 20
3.993540399999999
 10
17.360519
 20
3.930167399999999
 10
17.4859188
 20
3.757904599999999
 10
17.6912524
 20
3.719347399999999
 10
17.7587656
 20
3.722090599999999
 10
17.9847748
 20
3.728973999999999
 10
18.0771038
 20
3.599433999999999
 10
18.089499
 20
3.582923999999999
 10
18.2176674
 20
3.381705199999999
 10
18.2259478
 20
3.367938399999999
 10
18.2424578
 20
3.337610799999999
 10
18.5290968
 20
3.304539999999999
 10
18.5676794
 20
3.329330399999999
 10
18.6117738
 20
3.359657999999999
 10
18.8253878
 20
3.391357199999999
 10
19.0665354
 20
3.261817199999999
 10
19.1243966
 20
3.209442399999999
 10
19.1643762
 20
3.173628399999999
 10
19.5240656
 20
3.165347999999999
 10
19.5667376
 20
3.198418799999999
 10
19.694906
 20
3.299028199999999
 10
19.8285862
 20
3.165347999999999
 10
19.8299578
 20
3.168116599999999
 10
19.9636126
 20
3.034436399999999
 10
21.1473796
 20
3.034436399999999
 10
21.23694
 20
3.184651999999999
 10
21.264499
 20
3.231489599999999
 10
21.4023194
 20
3.348634399999999
 10
21.614511
 20
3.337610799999999
 10
21.679281
 20
3.318306799999999
 10
21.7399362
 20
3.301771399999999
 10
21.9342462
 20
3.289376199999999
 10
22.0720412
 20
3.403752399999999
 10
22.106509
 20
3.450615399999999
 10
22.1354396
 20
3.491941199999999
 10
22.2539306
 20
3.589807399999999
 10
22.4068894
 20
3.569131799999999
 10
22.4537524
 20
3.549827799999999
 10
22.5143822
 20
3.525011999999999
 10
22.805136
 20
3.527780599999999
 10
23.0311706
 20
3.693159999999999
 10
23.0601012
 20
3.748252599999999
 10
23.128986
 20
3.883304399999999
 10
23.3439716
 20
3.872306199999999
 10
23.4197652
 20
3.869537599999999
 10
23.6815884
 20
3.966006799999999
 10
23.8304324
 20
4.269181199999999
 10
23.8524796
 20
4.368368199999999
 10
23.8552228
 20
4.384929
 10
23.9806226
 20
4.486909999999999
 10
24.0081816
 20
4.493793399999999
 10
24.052276
 20
4.507534799999999
 10
24.3237512
 20
4.783175599999999
 10
24.3361718
 20
4.825898399999999
 10
24.34717
 20
4.868621199999999
 10
24.513921
 20
5.0629312
 10
24.6530876
 20
5.0629312
 10
24.892889
 20
5.397779399999999
 10
24.9066812
 20
5.459806199999999
 10
24.9163078
 20
5.505272199999999
 10
24.9714512
 20
5.656859399999999
 10
25.0858274
 20
5.791911199999999
 10
25.1257816
 20
5.827725199999999
 10
25.1657104
 20
5.866307799999999
 10
25.2759718
 20
5.994476199999998
 10
25.3021846
 20
6.122644599999999
 10
25.3021846
 20
6.208090199999999
 10
25.3242318
 20
6.333464599999998
 10
25.418034
 20
6.4492378
 10
25.453848
 20
6.482283199999999
 10
25.605232
 20
6.628383999999999
 10
25.569418
 20
6.917766199999998
 10
25.56129
 20
6.9811646
 10
25.548844
 20
7.1726806
 10
25.57907
 20
7.263612599999997
 10
25.59304
 20
7.2801734
 10
25.650698
 20
7.353223799999999
 10
25.818846
 20
7.579207599999998
 10
25.811988
 20
7.711516199999998
 10
25.801066
 20
7.7514704
 10
25.794208
 20
7.773517599999999
 10
25.737566
 20
8.091830399999999
 10
25.734772
 20
8.120760999999998
 10
25.731978
 20
8.151113999999998
 10
25.650698
 20
8.458403199999999
 10
25.641046
 20
8.477707199999998
 10
25.628854
 20
8.499754399999999
 10
25.568148
 20
8.699576199999999
 10
25.568148
 20
8.867673399999999
 10
25.499314
 20
9.152915399999999
 10
25.3779528
 20
9.451974999999997
 10
25.3517654
 20
9.487788999999998
 10
25.3407418
 20
9.5043244
 10
25.1905516
 20
9.744100400000001
 10
25.178131
 20
9.7661476
 10
25.1643388
 20
9.7895918
 10
24.938355
 20
10.078974
 10
24.892889
 20
10.12444
 10
24.6958104
 20
10.372471
 10
24.6889524
 20
10.3890318
 10
24.6765318
 20
10.4151938
 10
24.4808502
 20
10.5695496
 10
24.4422676
 20
10.5833418
 10
24.3857526
 20
10.6040174
 10
24.209375
 20
10.6990896
 10
24.1087656
 20
10.8327444
 10
24.090884
 20
10.872724
 10
24.0688368
 20
10.9209332
 10
23.866221
 20
11.1028734
 10
23.5617004
 20
11.2020604
 10
23.4900216
 20
11.2062006
 10
23.4542076
 20
11.2089438
 10
23.128986
 20
11.2820196
 10
23.1069388
 20
11.2916462
 10
23.0587296
 20
11.315065
 10
22.6549712
 20
11.3632996
 10
22.2470472
 20
11.3219738
 10
22.1960694
 20
11.2999266
 10
22.1781624
 20
11.2930178
 10
22.0100144
 20
11.2627156
 10
22.0017594
 20
11.2654588
 10
21.9742004
 20
11.2750854
 10
21.6228168
 20
11.1717582
 10
21.5897206
 20
11.1441738
 10
21.5717882
 20
11.1304324
 10
21.3830154
 20
11.0270544
 10
21.3705948
 20
11.0243112
 10
21.3485476
 20
11.020171
 10
21.1377276
 20
10.882376
 10
20.8166462
 20
10.6081322
 10
20.7408526
 20
10.5351072
 10
20.7229456
 20
10.5199434
 10
20.5589378
 20
10.3890318
 10
20.5506828
 20
10.38352
 10
20.5203806
 20
10.3683562
 10
20.3522326
 20
10.1478588
 10
20.2254612
 20
9.851593199999998
 10
20.2158346
 20
9.796475199999998
 10
20.2103228
 20
9.768916199999998
 10
20.1317606
 20
9.438182799999998
 10
20.1248772
 20
9.413392399999999
 10
20.0711054
 20
9.236989400000001
 10
20.065619
 20
8.659596599999997
 10
20.3356972
 20
7.989849399999999
 10
20.8938368
 20
7.4634598
 10
21.4919052
 20
7.183729599999999
 10
21.7013282
 20
7.136866599999999
 10
21.8047062
 20
7.1148194
 10
22.1368112
 20
7.138238199999999
 10
22.5336862
 20
7.3077324
 10
22.8671628
 20
7.598511599999997
 10
23.1138222
 20
7.962290399999999
 10
23.250271
 20
8.353679
 10
23.250271
 20
8.722994999999999
 10
23.091775
 20
9.023375399999999
 10
22.8409754
 20
9.186011599999997
 10
22.7500434
 20
9.2080588
 10
22.6618546
 20
9.230105999999999
 10
22.3710754
 20
9.174962599999999
 10
22.2939102
 20
8.886977399999999
 10
22.3077024
 20
8.796019999999999
 10
22.3214438
 20
8.699576199999999
 10
22.3490282
 20
8.401888199999998
 10
22.2746062
 20
8.301329599999999
 10
22.2429324
 20
8.2833972
 10
22.1629732
 20
8.240674399999998
 10
21.8708478
 20
8.2062066
 10
21.5952324
 20
8.360562399999999
 10
21.4726012
 20
8.680272199999999
 10
21.515324
 20
9.004096799999997
 10
21.5594184
 20
9.096451199999999
 10
21.614511
 20
9.213570599999997
 10
21.9604082
 20
9.480905599999998
 10
22.5254312
 20
9.534626599999999
 10
23.0848916
 20
9.289338799999999
 10
23.4142534
 20
8.917279599999999
 10
23.469346
 20
8.772601199999999
 10
23.5300012
 20
8.608593399999997
 10
23.5933996
 20
8.067039999999999
 10
23.4500928
 20
7.417968399999998
 10
23.0848916
 20
6.8543678
 10
22.5391726
 20
6.403720999999999
 10
21.8570556
 20
6.092291599999999
 10
21.0826096
 20
5.9462416
 10
20.2585574
 20
5.994476199999998
 10
19.6232526
 20
6.169482199999999
 10
19.4289426
 20
6.261811199999999
 10
19.2387982
 20
6.3527432
 10
18.7606178
 20
6.815759799999998
 10
18.3044846
 20
7.7500988
 10
18.0509418
 20
9.088145399999998
 10
17.9875434
 20
10.4083104
 10
17.99717
 20
10.8465366
 10
18.0040788
 20
11.214481
 10
18.0660548
 20
12.3155456
 10
18.2204106
 20
13.5364728
 10
18.4753504
 20
14.61135
 10
18.7426854
 20
15.385796
 10
18.8488066
 20
15.635224
 10
18.8612018
 20
15.6655516
 10
19.0431166
 20
16.169894
 10
19.0596266
 20
16.2195256
 10
19.0803022
 20
16.2856672
 10
19.3159634
 20
16.8244774
 10
19.7748398
 20
17.7518822
 10
19.90852
 20
18.0123338
 10
20.0725024
 20
18.3348122
 10
20.5685898
 20
19.3021712
 10
20.9847688
 20
20.10283
 10
21.2314282
 20
20.5520544
 10
21.3416896
 20
20.7339438
 10
21.3816438
 20
20.7904588
 10
21.43125
 20
20.8621122
 10
21.6200482
 20
21.2038946
 10
21.9590366
 20
21.8612212
 10
22.2773494
 20
22.5226626
 10
22.4344738
 20
22.8740462
 10
22.4592896
 20
22.9512368
 10
22.4620328
 20
22.9636574
 10
22.6728528
 20
23.4059984
 10
23.0601012
 20
24.1955828
 10
23.1524048
 20
24.3802662
 10
23.6319822
 20
25.3559056
 10
23.9296194
 20
25.985724
 10
24.1211862
 20
26.441908
 10
24.2452144
 20
26.783538
 10
24.2851432
 20
26.896568
 10
24.34717
 20
27.079702
 10
24.5594124
 20
27.61869
 10
24.6351806
 20
27.549856
 10
24.6351806
 20
27.477974
 10
24.7881394
 20
27.260296
 10
25.0003818
 20
27.191462
 10
25.0279154
 20
27.216354
 10
25.0347988
 20
27.223212
 10
25.1712476
 20
27.286458
 10
25.1850144
 20
27.28925199999999
 10
25.2318774
 20
27.300428
 10
25.372441
 20
27.345894
 10
25.427432
 20
27.406346
 10
25.435814
 20
27.42565
 10
25.439878
 20
27.436826
 10
25.517094
 20
27.526234
 10
25.525476
 20
27.529028
 10
25.624536
 20
27.566366
 10
25.890474
 20
27.902662
 10
25.82037
 20
28.319984
 10
25.751282
 20
28.3972
 10
25.704546
 20
28.449524
 10
25.439878
 20
28.798266
 10
25.216739
 20
29.139896
 10
25.1919232
 20
29.186886
 10
25.178131
 20
29.213048
 10
25.2263656
 20
29.334206
 10
25.2552962
 20
29.349446
 10
25.3738126
 20
29.414216
 10
25.751282
 20
29.976572
 10
25.776174
 20
30.662626
 10
25.719786
 20
30.78810199999999
 10
25.624536
 20
30.996128
 10
25.648158
 20
31.49219
 10
25.650698
 20
31.559754
 10
25.697688
 20
32.15512999999999
 10
25.701752
 20
32.181292
 10
25.741884
 20
32.444436
 10
25.759664
 20
33.879028
 10
25.543256
 20
35.26409
 10
25.467564
 20
35.502596
 10
25.457912
 20
35.53002799999999
 10
25.3572772
 20
35.888168
 10
25.3503938
 20
35.917378
 10
25.3131828
 20
36.063428
 10
24.9149362
 20
36.90239
 10
24.3071904
 20
37.75964
 10
24.1666522
 20
37.914072
 10
23.8249206
 20
38.288722
 10
22.087205
 20
39.78656
 10
20.3481178
 20
40.760904
 10
20.0049638
 20
40.873934
 10
19.9347074
 20
40.89755599999999
 10
19.613626
 20
41.01465
 10
19.3986404
 20
41.108122
 10
19.3834766
 20
41.119298
 10
19.3669412
 20
41.130474
 10
19.1078866
 20
41.247568
 10
19.0830962
 20
41.254172
 10
19.0196978
 20
41.275
 10
18.5001662
 20
41.549066
 10
18.4408826
 20
41.593262
 10
18.3789066
 20
41.638728
 10
18.1280816
 20
41.787572
 10
17.8070256
 20
41.899332
 10
17.710531
 20
41.924224
 10
17.600295
 20
41.95445
 10
17.2806106
 20
42.081196
 10
16.7541956
 20
42.323766
 10
16.2732466
 20
42.582846
 10
16.0307274
 20
42.73575399999999
 10
15.928721
 20
42.837862
 10
15.9301434
 20
43.13809
 10
16.1974784
 20
43.3324
 10
16.2787584
 20
43.330876
 10
16.3614354
 20
43.330876
 10
16.6866824
 20
43.207178
 10
16.8106852
 20
42.989246
 10
16.7927782
 20
42.936922
 10
16.7679878
 20
42.86681799999999
 10
16.7927782
 20
42.62119999999999
 10
17.1138596
 20
42.614596
 10
17.2158406
 20
42.63771
 10
17.2558202
 20
42.647616
 10
17.6774856
 20
42.725848
 10
17.7050446
 20
42.728896
 10
17.7312066
 20
42.73169
 10
18.1322218
 20
42.78807799999999
 10
18.1694328
 20
42.79366599999999
 10
18.247995
 20
42.807382
 10
18.5635646
 20
42.84319599999999
 10
19.1450722
 20
42.897044
 10
19.725259
 20
42.939716
 10
20.0366884
 20
42.95622599999999
 10
20.1138282
 20
42.954956
 10
20.1813668
 20
42.954956
 10
20.6581756
 20
42.89425
 10
21.2066378
 20
42.781474
 10
21.3099904
 20
42.752518
 10
21.377529
 20
42.734484
 10
21.6158826
 20
42.68749399999999
 10
21.8322652
 20
42.68749399999999
 10
21.8915234
 20
42.693082
 10
22.0431106
 20
42.708322
 10
22.5598482
 20
42.713656
 10
23.0173784
 20
42.604944
 10
23.140035
 20
42.560748
 10
23.3329226
 20
42.493184
 10
23.9158526
 20
42.287952
 10
24.439499
 20
42.112946
 10
24.781256
 20
42.010838
 10
24.9548904
 20
41.96969
 10
25.014174
 20
41.958768
 10
25.132665
 20
41.93921
 10
25.763728
 20
41.740582
 10
26.268172
 20
41.483026
 10
26.32456
 20
41.431972
 10
26.448766
 20
41.320466
 10
26.863548
 20
41.349422
 10
26.919936
 20
41.35374
 10
27.628342
 20
41.378378
 10
27.778456
 20
41.378378
 10
28.23337
 20
41.426638
 10
28.277312
 20
41.434766
 10
28.319984
 20
41.443148
 10
28.807918
 20
41.483026
 10
28.847796
 20
41.481756
 10
28.93187
 20
41.478962
 10
29.210254
 20
41.530016
 10
29.49956
 20
41.771062
 10
29.586428
 20
41.85919999999999
 10
29.864812
 20
42.143172
 10
29.848302
 20
42.31005
 10
29.842714
 20
42.367962
 10
29.767022
 20
42.549572
 10
29.614114
 20
42.604944
 10
29.569918
 20
42.597832
 10
29.43352
 20
42.579798
 10
29.45003
 20
42.737278
 10
29.455618
 20
42.804588
 10
29.357828
 20
43.073574
 10
29.135832
 20
43.207178
 10
28.99664
 20
43.207178
 10
28.80233
 20
43.295316
 10
28.772104
 20
43.30903199999999
 10
28.677108
 20
43.351704
 10
28.387548
 20
43.46194
 10
27.899868
 20
43.63008799999999
 10
27.42565
 20
43.776138
 10
27.16529999999999
 20
43.84649599999999
 10
27.08960799999999
 20
43.860212
 10
26.97226
 20
43.88104
 10
26.458418
 20
44.029884
 10
26.06294
 20
44.235116
 10
26.006298
 20
44.28185199999999
 10
25.985724
 20
44.298362
 10
25.65781
 20
44.51731
 10
25.624536
 20
44.53534399999999
 10
25.3944882
 20
44.662344
 10
24.5800626
 20
45.246544
 10
24.2300506
 20
45.7454
 10
24.2327938
 20
45.82794999999999
 10
24.2341654
 20
45.87494
 10
24.2148868
 20
46.018196
 10
24.1087656
 20
46.171104
 10
24.0702084
 20
46.216824
 10
24.0467896
 20
46.244256
 10
23.739475
 20
46.703234
 10
23.7146846
 20
46.7487
 10
23.6884718
 20
46.795182
 10
23.5106972
 20
47.109634
 10
23.3164126
 20
47.449994
 10
23.2833418
 20
47.507906
 10
23.2047796
 20
47.645828
 10
22.9719124
 20
48.057816
 10
22.8409754
 20
48.359568
 10
22.8630226
 20
48.546766
 10
22.9691438
 20
48.69992799999999
 10
23.0077518
 20
48.74818799999999
 10
23.1179878
 20
48.892968
 10
23.4556046
 20
49.40680999999999
 10
23.572724
 20
49.73751799999999
 10
23.572724
 20
49.872646
 10
23.5313728
 20
49.94833799999999
 10
23.4169966
 20
49.816004
 10
23.3866944
 20
49.766474
 10
23.3494834
 20
49.708562
 10
22.9567232
 20
49.286922
 10
22.9098856
 20
49.263554
 10
22.7582984
 20
49.160176
 10
22.7486718
 20
49.150524
 10
22.7334826
 20
49.13807799999999
 10
22.67839
 20
49.107852
 10
22.7362512
 20
49.22901
 10
22.7582984
 20
49.267618
 10
22.7982526
 20
49.34051599999999
 10
22.9429818
 20
49.868328
 10
22.9705154
 20
50.382424
 10
22.9526084
 20
50.448718
 10
22.945725
 20
50.474626
 10
22.8382322
 20
50.52593399999999
 10
22.7376228
 20
50.40325199999999
 10
22.7307394
 20
50.357532
 10
22.705949
 20
50.222404
 10
22.4496122
 20
49.577752
 10
22.0858334
 20
49.102518
 10
22.0072712
 20
49.04994
 10
21.9838524
 20
49.036224
 10
21.7606118
 20
49.043082
 10
21.3334346
 20
49.16830399999999
 10
21.209381
 20
49.2125
 10
21.0109562
 20
49.284128
 10
20.4776578
 20
49.671478
 10
19.9071484
 20
50.36185
 10
19.6191378
 20
51.087782
 10
19.64944
 20
51.55539599999999
 10
19.7307454
 20
51.65166199999999
 10
19.7844918
 20
51.716432
 10
19.897471
 20
51.950874
 10
20.0311766
 20
52.34050999999999
 10
20.0931526
 20
52.682394
 10
20.065619
 20
52.83809599999999
 10
20.0476866
 20
52.84089
 10
20.027011
 20
52.84495399999999
 10
19.8685404
 20
52.67426599999999
 10
19.8533766
 20
52.63032399999999
 10
19.8368666
 20
52.587144
 10
19.621881
 20
52.233322
 10
19.4261994
 20
52.005738
 10
19.4248278
 20
52.01005599999999
 10
19.5295774
 20
52.332382
 10
19.548856
 20
52.379372
 10
19.5819268
 20
52.46751
 10
19.678396
 20
52.866798
 10
19.668744
 20
53.152294
 10
19.6439282
 20
53.18937799999999
 10
19.576415
 20
53.179726
 10
19.4675506
 20
52.951126
 10
19.4372484
 20
52.87264
 10
19.3518028
 20
52.660296
 10
18.9411356
 20
52.082954
 10
18.358231
 20
51.750722
 10
17.8235356
 20
51.89956599999999
 10
17.5121062
 20
52.37657799999999
 10
17.470755
 20
52.55006
 10
17.4625
 20
52.58460400000001
 10
17.2999146
 20
53.047646
 10
17.2833538
 20
53.08599999999999
 10
17.2447712
 20
53.17032799999999
 10
17.157954
 20
53.50789399999999
 10
17.195165
 20
53.83860199999999
 10
17.2213524
 20
53.918612
 10
17.2544232
 20
54.02605399999999
 10
17.259935
 20
54.37606599999999
 10
17.0229022
 20
54.130448
 10
16.973296
 20
54.034182
 10
16.9374566
 20
53.96788799999999
 10
16.8561766
 20
53.64556199999999
 10
16.8919906
 20
53.236368
 10
16.916781
 20
53.12765599999999
 10
16.9374566
 20
53.03240599999999
 10
16.9333418
 20
52.72938399999999
 10
16.679799
 20
53.061362
 10
16.612235
 20
53.18125
 10
16.5819328
 20
53.234844
 10
16.26362
 20
53.794406
 10
16.2429444
 20
53.830474
 10
16.2057334
 20
53.89498999999999
 10
16.0899856
 20
54.128162
 10
16.0100518
 20
54.39257599999999
 10
15.9907478
 20
54.471062
 10
15.9838644
 20
54.498494
 10
15.9149796
 20
54.61177799999999
 10
15.8612078
 20
54.61177799999999
 10
15.7785562
 20
54.498494
 10
15.7840426
 20
54.20512399999999
 10
15.8915354
 20
53.801518
 10
16.0348422
 20
53.463698
 10
16.0941004
 20
53.35625599999999
 10
16.13408
 20
53.283104
 10
16.207105
 20
52.866798
 10
16.1120328
 20
52.510182
 10
16.06931
 20
52.46623999999999
 10
16.0610296
 20
52.45912799999999
 10
15.9452818
 20
52.31155399999999
 10
15.9356552
 20
52.295044
 10
15.912211
 20
52.262278
 10
15.790926
 20
52.115974
 10
15.5387802
 20
51.81981
 10
15.2355804
 20
51.47944999999999
 10
15.01648
 20
51.239674
 10
14.943455
 20
51.16093399999999
 10
14.8773134
 20
51.09209999999999
 10
14.425295
 20
50.67045999999999
 10
13.9650216
 20
50.29022199999999
 10
13.8961368
 20
50.240438
 10
13.8699494
 20
50.222404
 10
13.5433562
 20
49.972976
 10
13.5171688
 20
49.95113199999999
 10
13.485495
 20
49.92624
 10
13.1850638
 20
49.76393399999999
 10
13.1602734
 20
49.756822
 10
13.1368546
 20
49.751234
 10
12.9824988
 20
49.691798
 10
12.9770124
 20
49.683924
 10
12.8722628
 20
49.657762
 10
12.7813054
 20
49.657762
 10
12.6200662
 20
49.530762
 10
12.6228348
 20
49.248568
 10
12.6490222
 20
49.17109799999999
 10
12.6572772
 20
49.14519
 10
12.5415294
 20
48.982376
 10
12.2149362
 20
48.77435
 10
12.1170954
 20
48.72609
 10
11.9572278
 20
48.64735
 10
11.3825782
 20
48.48224999999999
 10
10.9650276
 20
48.622712
 10
10.8851446
 20
48.69560999999999
 10
10.83691
 20
48.738282
 10
10.3931466
 20
48.923194
 10
10.3587296
 20
48.914812
 10
10.3435404
 20
48.912018
 10
10.3311706
 20
48.778668
 10
10.3366824
 20
48.777144
 10
10.3794052
 20
48.764444
 10
10.5805732
 20
48.589438
 10
10.65911
 20
48.40351
 10
10.6288078
 20
48.373284
 10
10.299446
 20
48.392588
 10
9.8157538
 20
48.487584
 10
9.726193400000001
 20
48.514
 10
9.649028200000002
 20
48.53736799999999
 10
9.416135599999999
 20
48.589438
 10
9.341739
 20
48.558196
 10
9.341739
 20
48.512476
 10
9.544303999999999
 20
48.407828
 10
10.0086922
 20
48.236632
 10
10.1396038
 20
48.19548399999999
 10
10.200259
 20
48.17643399999999
 10
10.4910128
 20
48.07407199999999
 10
10.6922062
 20
47.988728
 10
10.7087416
 20
47.97780599999999
 10
10.7817666
 20
47.930816
 10
10.9622844
 20
47.51882799999999
 10
10.8658406
 20
47.131732
 10
10.8010706
 20
47.095918
 10
10.7294172
 20
47.058834
 10
10.4662224
 20
46.787054
 10
10.31875
 20
46.395894
 10
10.3063294
 20
46.29785
 10
10.2939596
 20
46.20590199999999
 10
10.2277926
 20
45.902372
 10
10.116185
 20
45.702728
 10
10.0817172
 20
45.660056
 10
10.0652072
 20
45.640752
 10
9.819894
 20
45.30445599999999
 10
9.7978468
 20
45.269912
 10
9.724821800000001
 20
45.1612
 10
9.498812599999999
 20
44.835826
 10
9.275597399999999
 20
44.601638
 10
8.995841799999999
 20
44.476162
 10
8.6499446
 20
44.393612
 10
8.534196800000002
 20
44.36745
 10
8.461171799999999
 20
44.35221
 10
8.224138999999999
 20
44.31919
 10
8.0229456
 20
44.34382799999999
 10
7.969173799999999
 20
44.357544
 10
7.949920600000001
 20
44.363132
 10
7.878241800000001
 20
44.32477799999999
 10
7.878241800000001
 20
44.284646
 10
7.951292200000001
 20
44.197778
 10
8.173161199999999
 20
44.13326199999999
 10
8.247557800000001
 20
44.119546
 10
8.3164426
 20
44.108116
 10
8.5218016
 20
44.051728
 10
8.4804504
 20
43.937428
 10
8.458403200000001
 20
43.904154
 10
8.4129372
 20
43.839638
 10
8.213115400000001
 20
43.64101
 10
8.002270000000001
 20
43.583352
 10
7.952663800000002
 20
43.587416
 10
7.9140812
 20
43.591226
 10
7.7790294
 20
43.559984
 10
7.7790294
 20
43.503088
 10
7.981594400000001
 20
43.359832
 10
8.3192112
 20
43.46194
 10
8.388095999999999
 20
43.516804
 10
8.483218999999998
 20
43.595544
 10
8.826322200000002
 20
43.76775599999999
 10
9.170847800000001
 20
43.76674
 10
9.3692726
 20
43.537632
 10
9.39546
 20
43.205654
 10
9.373412800000001
 20
43.101006
 10
9.351365600000001
 20
42.999152
 10
9.238360999999999
 20
42.665396
 10
9.041307800000002
 20
42.413428
 10
8.976537800000001
 20
42.351452
 10
8.893835399999999
 20
42.273982
 10
8.729878399999999
 20
41.898062
 10
8.907627600000001
 20
41.632124
 10
8.984818200000001
 20
41.611296
 10
9.082659000000001
 20
41.585134
 10
9.3251782
 20
41.301162
 10
9.479534000000001
 20
40.716962
 10
9.434042600000001
 20
40.041576
 10
9.265919999999999
 20
39.577518
 10
9.170847800000001
 20
39.454582
 10
9.124010199999999
 20
39.3954
 10
9.1584272
 20
39.030402
 10
9.4506034
 20
38.76294
 10
9.533255
 20
38.753288
 10
9.577349399999999
 20
38.749224
 10
9.7344738
 20
38.64864
 10
9.9342956
 20
38.255702
 10
9.993528400000001
 20
38.120828
 10
10.0417376
 20
38.010338
 10
10.1547676
 20
37.605462
 10
10.0955094
 20
37.313362
 10
10.05967
 20
37.25799
 10
10.0004372
 20
37.168328
 10
9.978390000000001
 20
36.723574
 10
10.2567232
 20
36.457382
 10
10.428986
 20
36.457382
 10
10.6646472
 20
36.304474
 10
10.8920026
 20
35.942016
 10
10.9733334
 20
35.513518
 10
10.9113066
 20
35.225482
 10
10.8547916
 20
35.161982
 10
10.7941872
 20
35.09594199999999
 10
10.8106972
 20
34.721038
 10
11.1910622
 20
34.49929599999999
 10
11.3054384
 20
34.49929599999999
 10
11.4129312
 20
34.500566
 10
11.8539006
 20
34.384742
 10
12.1611898
 20
34.106358
 10
12.2025156
 20
34.026602
 10
12.2204226
 20
33.99078799999999
 10
12.5001782
 20
33.75634599999999
 10
12.534646
 20
33.748218
 10
12.551156
 20
33.745424
 10
12.6324868
 20
33.684718
 10
12.6324868
 20
33.66262
 10
12.7
 20
33.599374
 10
12.756515
 20
33.522158
 10
12.745466
 20
33.422844
 10
12.5718316
 20
33.25749
 10
12.367895
 20
33.20795999999999
 10
11.959971
 20
33.312608
 10
11.6347748
 20
33.447736
 10
11.334369
 20
33.53180999999999
 10
11.1372904
 20
33.53460399999999
 10
11.0821978
 20
33.511236
 10
11.0077504
 20
33.47669199999999
 10
10.8865162
 20
33.151572
 10
11.0973362
 20
32.68853
 10
11.2668304
 20
32.28339999999999
 10
11.0256828
 20
32.098742
 10
10.9443774
 20
32.095948
 10
10.83691
 20
32.043624
 10
10.5516426
 20
31.806642
 10
10.550271
 20
31.559754
 10
10.7913932
 20
31.350458
 10
11.1290354
 20
31.171134
 10
11.417046
 20
31.016956
 10
11.509375
 20
30.881828
 10
11.2572038
 20
30.759146
 10
10.7018328
 20
30.662626
 10
10.5172002
 20
30.642052
 10
10.4923844
 20
30.58287
 10
10.4827324
 20
30.377384
 10
10.5833418
 20
30.168088
 10
10.7556046
 20
30.00121
 10
10.9388656
 20
29.862018
 10
11.0697772
 20
29.734002
 10
11.0863126
 20
29.601668
 10
10.929239
 20
29.45003
 10
10.6343196
 20
29.30398
 10
10.5337356
 20
29.264102
 10
10.5254298
 20
29.226764
 10
10.5929684
 20
29.09316
 10
10.8038138
 20
28.944316
 10
11.0904528
 20
28.80233
 10
11.3757202
 20
28.657804
 10
11.5837716
 20
28.496514
 10
11.6361718
 20
28.307792
 10
11.4597688
 20
28.077414
 10
11.1015018
 20
27.854402
 10
10.9760766
 20
27.794966
 10
10.994009
 20
27.671014
 10
11.1910622
 20
27.316938
 10
11.5327938
 20
26.885392
 10
11.7739668
 20
26.43759
 10
11.749151
 20
26.017474
 10
11.8180612
 20
25.964896
 10
11.886946
 20
25.926542
 10
12.4905516
 20
25.93594
 10
12.6586488
 20
25.78989
 10
12.5677168
 20
25.49778999999999
 10
12.5525276
 20
25.1795026
 10
12.5925072
 20
25.0940824
 10
12.7165354
 20
24.9989848
 10
13.3297676
 20
24.6021098
 10
13.8244834
 20
24.2273074
 10
13.8892534
 20
24.1432334
 10
13.974699
 20
24.0632996
 10
14.341221
 20
23.930991
 10
14.6967956
 20
24.1239294
 10
14.7711922
 20
24.181816
  0
ENDSEC
  0
SECTION
  2
OBJECTS
  0
DICTIONARY
  5
C
330
0
100
AcDbDictionary
281
    1
  3
ACAD_GROUP
350
D
  0
DICTIONARY
  5
D
330
C
100
AcDbDictionary
281
    1
  0
ENDSEC
  0
EOF
