<?xml version="1.0" encoding="UTF-8" standalone="no"?>
<!-- Created with Inkscape (http://www.inkscape.org/) -->

<svg
   xmlns:dc="http://purl.org/dc/elements/1.1/"
   xmlns:cc="http://creativecommons.org/ns#"
   xmlns:rdf="http://www.w3.org/1999/02/22-rdf-syntax-ns#"
   xmlns:svg="http://www.w3.org/2000/svg"
   xmlns="http://www.w3.org/2000/svg"
   xmlns:xlink="http://www.w3.org/1999/xlink"
   xmlns:sodipodi="http://sodipodi.sourceforge.net/DTD/sodipodi-0.dtd"
   xmlns:inkscape="http://www.inkscape.org/namespaces/inkscape"
   width="744.09448819"
   height="1052.3622047"
   id="svg2"
   version="1.1"
   inkscape:version="0.48.1 r9760"
   sodipodi:docname="New document 1">
  <defs
     id="defs4" />
  <sodipodi:namedview
     id="base"
     pagecolor="#ffffff"
     bordercolor="#666666"
     borderopacity="1.0"
     inkscape:pageopacity="0.0"
     inkscape:pageshadow="2"
     inkscape:zoom="1.979899"
     inkscape:cx="93.488782"
     inkscape:cy="202.80619"
     inkscape:document-units="px"
     inkscape:current-layer="svg2"
     showgrid="false"
     showguides="true"
     inkscape:guide-bbox="true"
     inkscape:window-width="1920"
     inkscape:window-height="1058"
     inkscape:window-x="0"
     inkscape:window-y="0"
     inkscape:window-maximized="1" />
  <metadata
     id="metadata7">
    <rdf:RDF>
      <cc:Work
         rdf:about="">
        <dc:format>image/svg+xml</dc:format>
        <dc:type
           rdf:resource="http://purl.org/dc/dcmitype/StillImage" />
        <dc:title></dc:title>
      </cc:Work>
    </rdf:RDF>
  </metadata>
  <g
     inkscape:label="Layer 1"
     inkscape:groupmode="layer"
     id="layer1">
    <path
       sodipodi:type="inkscape:offset"
       inkscape:radius="7.089488"
       inkscape:original="M 79.75 726.9375 C 79.275472 726.9415 78.787482 726.95195 78.3125 726.96875 C 71.339833 728.69581 60.453409 730.52647 57.78125 731.875 C 54.767765 733.54819 51.228639 734.6774 48.65625 736.8125 C 47.05461 737.73521 44.185577 740.15253 42.65625 741.375 C 40.838378 742.74409 38.730931 744.66888 36.75 746.34375 C 35.079705 748.22135 33.503621 750.0155 31.84375 752 C 30.805998 753.28927 28.070651 756.58664 27.21875 759.84375 C 24.637305 761.81537 23.519123 765.18928 22.71875 768.75 C 20.245103 773.14159 19.151265 778.66624 17.6875 783.90625 C 16.706797 792.30788 14.682433 801.33387 16.1875 810 C 16.16218 818.50649 18.460136 825.82887 19.75 833.6875 C 22.534997 840.38593 22.228268 849.89787 19.21875 856 C 15.995371 862.43449 15.108672 871.20809 14.65625 879.5625 C 11.939222 887.9104 15.285301 897.02715 16.1875 905.0625 C 17.712749 912.52218 21.258685 918.85745 20.6875 927.59375 C 19.219719 933.4809 18.574546 939.61626 15.65625 944.09375 C 14.552544 947.23523 10.349944 949.42476 10.6875 953.59375 C 10.091369 958.13538 13.970943 958.98029 15.65625 961.59375 C 14.687481 958.99645 16.866502 964.48439 19.625 966.15625 C 20.419103 967.45969 22.918378 971.52444 24.1875 973.0625 C 25.176717 976.49437 28.188574 978.18613 28.75 981.96875 C 30.967813 985.86127 32.507619 990.32053 33.65625 995.125 C 36.293921 1004.0554 36.183032 1015.2386 34.6875 1024.8125 C 31.935088 1029.4072 31.476744 1038.8729 37.6875 1039.7188 C 46.573682 1040.7079 55.889085 1039.9237 64.9375 1040.1562 C 72.414105 1039.2209 83.911646 1042.5484 88.71875 1037.1562 C 91.143603 1032.0061 92.423847 1026.1047 90.28125 1020.1562 C 88.74457 1017.5308 87.03976 1016.1672 84.6875 1013.2188 C 83.181041 1012.2628 78.743813 1010.2061 75.75 1008.6562 C 70.013687 1009.2903 67.639071 1006.7474 64.78125 1003.7812 C 64.618457 996.31142 61.729545 990.73074 60.1875 984.125 C 58.370782 979.42471 54.484226 973.20008 57.65625 967.09375 C 58.923581 964.27092 62.686649 963.31345 64.78125 962.0625 C 68.34401 960.0217 70.597621 959.27205 72.90625 957.15625 C 75.867744 954.9046 76.732443 953.85032 78.84375 951.5625 C 80.191256 949.97403 82.122952 948.29735 83.75 947.0625 C 84.798825 946.21569 86.501204 941.66827 88.3125 939.0625 C 91.182255 932.04956 93.951691 938.395 93.84375 942.96875 C 94.886811 945.28728 96.714504 947.74649 98.75 949.625 C 101.17004 952.23426 102.21091 953.22949 103.78125 955.125 C 105.75205 957.62366 106.92569 960.0097 109.8125 961.125 C 112.57413 962.21686 113.18978 963.87379 114.8125 965.21875 C 116.93288 967.47971 118.60636 968.79326 120.875 970.125 C 118.30062 968.71526 125.57687 973.23082 127.90625 975.03125 C 131.57422 976.09961 134.53919 978.13586 137.875 979.625 C 141.47485 981.55199 145.09351 983.42086 149.6875 984.1875 C 153.74959 986.3778 158.29965 988.04759 163.34375 989.0625 C 169.28948 991.22874 179.51932 992.659 182.1875 994.125 C 185.69557 994.075 196.95833 997.8176 201.84375 998.625 C 205.61929 1000.4104 209.96299 1001.6346 213.84375 1003.25 C 217.41747 1005.0855 220.35049 1006.4861 222.875 1008.2188 C 220.5365 1006.3949 228.06749 1011.3465 230.4375 1013.1562 C 228.28108 1011.8103 234.12518 1015.7222 236 1018.0625 C 241.44896 1020.584 250.44254 1023.4633 254.84375 1023.125 C 259.75343 1024.8752 266.69164 1024.1531 270.03125 1027.6562 C 272.36105 1029.2385 270.32064 1035.1678 275.1875 1039.1562 C 288.7275 1040.4558 303.28208 1039.481 317.25 1039.7812 C 321.95036 1040.1622 324.84506 1036.687 326.125 1033.3125 C 328.58011 1030.3862 329.40773 1023.9333 325.03125 1019.5625 C 323.9224 1016.5162 321.32246 1014.7752 318.125 1014.0312 C 313.51789 1010.0622 305.86568 1009.713 298.34375 1010.1875 C 292.3032 1011.4884 289.87032 1007.8739 286.09375 1006.0938 C 283.5131 1004.9878 281.04411 1002.788 278.5 1001.1875 C 275.78196 998.96217 271.86912 998.0291 268.8125 996.125 C 265.45988 995.8523 263.88902 993.4665 261.9375 991.625 C 258.58236 989.74942 256.59595 986.31329 255.03125 982.78125 C 254.38625 977.49067 256.60207 973.69673 259.46875 971.0625 C 263.99862 967.16669 270.54505 968.9021 277 969.0625 C 285.15947 969.66958 289.798 964.99453 297.96875 965.125 C 301.83121 964.67323 303.50481 961.80687 306.125 960.125 C 308.71045 958.79578 310.67901 957.41862 311.96875 955.125 C 314.81611 950.47374 315.84776 938.67094 307.3125 939.96875 C 308.94457 941.87027 304.01056 936.7711 302.46875 935.03125 C 299.79503 929.95935 301.1813 921.72248 297.90625 917.09375 C 295.27857 914.55472 290.85269 913.43745 287.03125 912.96875 C 284.14839 912.4643 280.49948 910.95821 278.96875 908.09375 C 275.33522 905.98166 279.01305 902.67834 279.9375 899.71875 C 280.66223 893.84705 279.82508 888.70582 276.8125 885.09375 C 272.23038 885.00585 271.86282 890.75272 270.03125 893.03125 C 268.70235 894.6662 265.30436 897.13681 262.09375 898.125 C 256.99466 901.21594 248.5671 899.87102 243.375 902.84375 C 243.02485 903.14668 238.05927 906.06463 235.75 907.9375 C 232.51198 910.19818 231.02722 911.50507 228.875 913.53125 C 226.34986 916.21887 221.38601 916.78579 219.1875 916.03125 C 215.14048 913.74973 210.02954 913.19003 205.96875 911.09375 C 202.81691 909.19314 198.99948 907.94808 195.875 906.0625 C 193.63271 904.78918 190.57093 903.04129 187.875 901.5625 C 190.51013 903.07452 182.80015 898.28399 180.0625 896.9375 C 178.08185 895.31705 176.20784 893.07326 173.84375 892 C 171.88277 890.39936 170.71585 888.90643 168.84375 887.09375 C 166.38538 884.64238 164.9084 884.33769 163.34375 883 C 161.96558 881.25266 160.64585 880.04845 157.96875 877.96875 C 159.40678 879.77506 155.48937 875.05915 153.8125 872.59375 C 153.7682 872.51545 153.61559 872.32415 153.375 872 C 153.4729 872.16047 153.61829 872.36761 153.75 872.5625 C 153.28578 872.12158 149.70936 867.77634 147.0625 864.46875 C 144.88461 862.35603 143.30346 861.05244 141.90625 859.5 C 140.18367 857.66353 138.56299 856.504 136.5625 854.40625 C 134.3173 852.68871 131.17751 851.29685 128.875 849.4375 C 125.8837 847.97208 123.58219 845.64267 119.96875 844.90625 C 115.92222 842.66929 109.37181 841.86196 104.09375 840.0625 C 94.391134 839.40136 87.367328 839.11643 77.78125 840.9375 C 72.51303 841.21788 71.448341 836.61297 69.78125 833.125 C 68.162107 830.95072 67.490568 829.13016 64.71875 825 C 62.602757 822.36919 61.498451 818.84306 59.8125 815.78125 C 57.966744 811.1428 56.581906 809.27888 55.21875 804.90625 C 53.16487 800.44709 50.925494 793.0735 52.03125 786.03125 C 53.185778 781.31038 54.575175 776.77936 56.78125 772.96875 C 59.299137 770.59083 59.812847 768.60505 61.71875 766.78125 C 64.88159 764.0914 67.897292 761.28588 72.25 759.84375 C 75.863583 758.03625 83.58892 754.94738 86.875 758.84375 C 91.832402 759.3312 91.785748 767.70509 88.65625 770.8125 C 83.774826 772.04455 77.265855 772.16132 77.78125 778.875 C 78.124521 783.23272 80.447797 786.11157 82.65625 788.96875 C 85.145106 791.64797 89.491058 793.0446 93.71875 793.375 C 98.893538 792.97786 103.7705 791.8705 107.8125 788.96875 C 110.12828 786.01664 111.04697 784.62917 112.9375 783.03125 C 115.34424 779.90747 116.92946 775.88674 117.8125 771.40625 C 119.59619 764.50271 119.00638 755.34794 115.875 749.78125 C 114.84403 746.42431 113.45964 743.27041 111.3125 740.875 C 109.50935 739.20993 108.0997 737.2013 105.9375 735.84375 C 104.35202 733.68451 101.75342 732.22378 99.28125 730.8125 C 93.891062 728.26394 86.867915 726.87466 79.75 726.9375 z "
       xlink:href="#path3916"
       style="fill:none;stroke:#000000;stroke-width:0.13444591;stroke-opacity:1"
       id="path5878"
       inkscape:href="#path3916"
       d="m 79.6875,719.84375 c -0.537633,0.005 -1.082381,0.0121 -1.625,0.0312 a 7.090197,7.090197 0 0 0 -1.46875,0.21875 c -3.21797,0.79706 -7.652592,1.67274 -11.65625,2.53125 -4.003658,0.85851 -6.702511,1.06866 -10.34375,2.90625 a 7.090197,7.090197 0 0 0 -0.25,0.15625 c -1.962288,1.08953 -5.493084,2.18502 -9.21875,4.96875 -0.332571,0.24849 -0.665145,0.40957 -1,0.6875 -2.560979,1.64816 -4.723431,3.55451 -5.90625,4.5 l 0,0.0312 c -2.188806,1.66929 -4.257186,3.56254 -6.03125,5.0625 a 7.090197,7.090197 0 0 0 -0.75,0.6875 c -1.688951,1.89857 -3.303569,3.74693 -5.03125,5.8125 a 7.090197,7.090197 0 0 0 -0.09375,0.125 c -0.802257,0.9967 -3.491045,3.96029 -5.1875,8.4375 -3.005328,3.16565 -4.205465,6.8409 -4.96875,10.0625 C 13.207734,771.64362 12.176563,777.34064 10.875,782 a 7.090197,7.090197 0 0 0 -0.21875,1.09375 c -0.8812421,7.54955 -3.0042544,16.82476 -1.5625,26.875 0.022681,0.15811 0.00674,0.31025 0.03125,0.46875 0.053555,9.56714 2.458969,17.30209 3.625,24.40625 a 7.090197,7.090197 0 0 0 0.46875,1.5625 c 1.792297,4.3108 1.466638,12.72614 -0.3125,16.40625 -0.0011,0.002 -0.03014,-0.002 -0.03125,0 -4.0438992,8.07241 -4.7836599,17.30185 -5.25,25.71875 -3.0795677,10.95751 0.8053191,20.84706 1.53125,27.3125 a 7.090197,7.090197 0 0 0 0.09375,0.625 c 1.764092,8.62781 4.636713,13.85427 4.34375,20.28125 -1.481152,6.09491 -2.391963,11.19335 -3.875,13.46875 a 7.090197,7.090197 0 0 0 -0.75,1.53125 c 0.2101805,-0.59824 -0.4126454,0.44005 -1.90625,2.34375 -1.3196503,1.68199 -3.1913429,4.74501 -3.375,8.5625 l -0.03125,0 c -0.027354,0.2084 0.014203,0.41611 0,0.625 0.0014,0.29994 -0.056233,0.56645 -0.03125,0.875 l 0.0625,0 c 0.053906,3.79647 1.9451991,7.50835 3.625,9.1875 1.90132,1.90059 2.6865438,2.57687 2.375,2.09375 a 7.090197,7.090197 0 0 0 0.75,0.9375 c 0.751397,1.26806 1.732506,2.91107 3.8125,4.59375 0.894466,1.49972 2.23947,3.65469 3.875,5.78125 0.940449,2.17438 2.096308,3.83536 2.75,4.75 0.830343,1.16181 0.842049,1.27799 0.875,1.5 a 7.090197,7.090197 0 0 0 0.84375,2.46875 c 1.763618,3.09536 3.110116,6.93675 4.15625,11.3125 a 7.090197,7.090197 0 0 0 0.09375,0.34375 c 2.095251,7.0939 2.175139,17.0825 0.9375,25.6875 -1.73358,3.5535 -2.436252,7.4105 -2,11.5937 0.251918,2.4157 0.939963,5.0332 2.71875,7.4688 1.778787,2.4356 4.902652,4.4234 8.21875,4.875 a 7.090197,7.090197 0 0 0 0.1875,0 c 9.837039,1.0949 19.32945,0.2812 27.84375,0.5 a 7.090197,7.090197 0 0 0 1.0625,-0.062 c 2.266634,-0.2835 6.933954,0.1723 11.9375,0.2187 5.003546,0.047 11.496144,-0.1987 16.25,-5.5312 a 7.090197,7.090197 0 0 0 1.125,-1.6875 c 2.904311,-6.1684 4.766827,-14.2354 1.8125,-22.4375 a 7.090197,7.090197 0 0 0 -0.53125,-1.1875 c -2.1508,-3.6746 -4.212108,-5.274 -6.1875,-7.75 A 7.090197,7.090197 0 0 0 88.5,1007.2188 c -2.940127,-1.8659 -6.772046,-3.4315 -9.5,-4.8438 a 7.090197,7.090197 0 0 0 -4.03125,-0.75 c -1.733296,0.1916 -1.90573,-0.01 -2.34375,-0.25 -0.172185,-0.096 -0.781722,-0.6993 -1.09375,-0.9688 -0.782284,-7.45633 -3.303149,-13.04692 -4.4375,-17.9062 a 7.090197,7.090197 0 0 0 -0.28125,-0.9375 c -1.141858,-2.95426 -2.405391,-5.38432 -2.9375,-7.3125 -0.516512,-1.87166 -0.504505,-2.70235 0.03125,-3.78125 0.03944,-0.0287 0.09309,-0.109 0.40625,-0.28125 0.750332,-0.4127 2.109173,-0.85607 4,-1.96875 0.0474,-0.0279 0.04562,-0.0338 0.09375,-0.0625 2.886296,-1.63914 5.632402,-2.71825 8.75,-5.40625 l 0.03125,0.0625 c 0.211953,-0.16115 0.301928,-0.28235 0.5,-0.4375 2.868028,-2.24646 4.476694,-3.94299 6.375,-6 a 7.090197,7.090197 0 0 0 0.1875,-0.21875 c 0.777377,-0.91639 2.463431,-2.43734 3.78125,-3.4375 a 7.090197,7.090197 0 0 0 0.1875,-0.125 c 1.061201,-0.8568 1.56239,-1.49568 1.90625,-2.03125 1.017797,1.39249 2.184018,2.67688 3.4375,3.875 0.13379,0.12788 0.238841,0.28059 0.375,0.40625 2.08398,2.23234 3.115798,3.29256 4.375,4.8125 1.453575,1.89551 3.58104,5.98728 8.90625,8.0625 0.0331,0.0131 0.006,0.0219 0.0312,0.0312 0.28538,0.10635 0.13558,0.004 0.40625,0.28125 0.22484,0.23025 1.0799,1.15114 2,2.03125 0.032,0.0341 0.0617,0.0598 0.0937,0.0937 0.25308,0.2372 0.2147,0.26888 0.53125,0.53125 l 0.0312,-0.0312 c 1.58603,1.61507 3.19927,2.95853 4.875,4.125 0.30754,0.33171 0.47065,0.42682 0.59375,0.53125 0.40848,0.34653 0.5306,0.38856 0.6875,0.5 0.6276,0.44576 1.29145,0.87868 2.1875,1.46875 1.79211,1.18014 4.29853,2.87403 4.90625,3.34375 a 7.090197,7.090197 0 0 0 2.375,1.21875 c 2.22703,0.64866 4.79513,2.2893 8.59375,4.03125 0.17682,0.0811 0.28619,0.13725 0.46875,0.21875 3.3328,1.77926 7.33873,3.80991 12.40625,4.84375 4.11229,2.10098 8.6236,3.70725 13.5,4.78125 3.73009,1.359 7.90184,2.25198 11.53125,3.0625 3.62941,0.81052 7.50815,2.20225 6.34375,1.56255 a 7.090197,7.090197 0 0 0 3.5,0.875 c -0.87445,0.012 3.60898,0.6751 7.40625,1.6874 3.44167,0.9176 6.86898,1.8749 9.96875,2.4688 4.07464,1.8325 8.00124,3.014 11.0625,4.25 3.58958,1.842 6.30229,3.165 8.15625,4.4375 a 7.090197,7.090197 0 0 0 1.4375,0.75 c 0.28808,0.1825 0.34206,0.2112 0.6875,0.4375 1.4702,0.9633 3.12171,2.1185 4.21875,2.9062 0.38471,0.3509 0.44618,0.3779 0.5625,0.4688 0.46528,0.3636 0.93929,0.7128 1.59375,1.2188 1.30892,1.0119 3.19855,2.787 3.09375,2.6562 a 7.090197,7.090197 0 0 0 2.5625,2 c 3.14022,1.4531 6.97744,2.8657 10.84375,3.9688 3.26678,0.9319 6.34923,1.5885 9.6875,1.625 3.25197,0.9884 6.14614,1.2628 8.25,1.625 2.01835,0.3474 2.54461,0.7076 2.65625,0.7187 0.0709,0.4345 0.0895,0.5898 0.21875,1.3125 0.48691,2.7237 1.85873,7.4812 6,10.875 a 7.090197,7.090197 0 0 0 3.8125,1.5938 c 14.35659,1.3779 29.06122,0.3654 42.59375,0.6562 l 0,-0.031 c 4.04641,0.2091 7.86415,-1.2946 10.4375,-3.4688 2.2356,-1.8888 3.60089,-4.1175 4.59375,-6.3125 2.17934,-2.9607 3.14352,-6.4091 3.09375,-10.1875 -0.05,-3.7959 -1.45865,-7.9964 -4.46875,-11.4375 -2.05198,-3.8602 -5.56372,-6.4195 -9.21875,-7.6875 -7.192,-5.3641 -16.01575,-5.105 -23.625,-4.625 a 7.090197,7.090197 0 0 0 -1.0625,0.125 c -1.50769,0.3247 -1.30608,0.244 -2.1875,-0.2188 -0.88142,-0.4627 -2.50009,-1.915 -5.53125,-3.3437 a 7.090197,7.090197 0 0 0 -0.25,-0.125 c -0.85118,-0.36479 -3.14556,-2.08588 -5.875,-3.875 -0.24745,-0.2026 -0.47344,-0.31391 -0.71875,-0.5 -4.26233,-3.23332 -8.17351,-4.13115 -9.71875,-5.09375 a 7.090197,7.090197 0 0 0 -3.1875,-1.03125 c -0.20072,-0.0163 0.23088,0.0421 -2.5625,-2.59375 a 7.090197,7.090197 0 0 0 -1.40625,-1.03125 c -0.98939,-0.55309 -2.11498,-2.13454 -3.25,-4.375 -0.0421,-2.12587 0.61572,-3.37288 2.03125,-4.6875 0.57606,-0.46569 1.2941,-0.72679 3.40625,-0.75 2.12694,-0.0234 5.25674,0.38464 8.875,0.5 0.14042,0.004 0.20168,0.0277 0.34375,0.0312 l 0,-0.0312 c 5.35618,0.32345 9.73376,-1.04748 12.9375,-2.125 3.27522,-1.10156 5.3814,-1.82456 8.09375,-1.78125 a 7.090197,7.090197 0 0 0 0.9375,-0.0625 c 3.53222,-0.41314 6.4185,-2.14061 8.15625,-3.53125 1.73775,-1.39064 2.68445,-2.30864 3.03125,-2.53125 l -0.0312,-0.0312 c 2.85264,-1.53099 5.98635,-3.70536 8.0625,-7.25 0.0467,-0.0797 0.11065,-0.13766 0.15625,-0.21875 l -0.0312,-0.0312 c 2.51024,-4.2137 3.53124,-8.84167 2.8125,-14.1875 -0.36631,-2.72451 -1.33302,-5.86695 -4.03125,-8.40625 -1.72668,-1.62497 -4.11394,-2.53752 -6.5625,-2.90625 -0.65425,-0.68374 -1.17363,-1.22696 -1.6875,-1.78125 -0.35672,-0.87393 -0.83466,-3.08484 -1.21875,-6.25 -0.41107,-3.38752 -0.69482,-7.71327 -3.75,-12.03125 a 7.090197,7.090197 0 0 0 -0.84375,-1 c -4.62611,-4.47004 -10.13316,-5.43992 -14.59375,-6 -0.019,-0.003 -0.0122,-0.0276 -0.0312,-0.0312 -1.3841,-0.26496 -2.65582,-1.21579 -2.75,-1.125 0.40347,-0.79361 0.83258,-1.66364 1.25,-3 a 7.090197,7.090197 0 0 0 0.25,-1.25 c 0.86767,-7.02977 -5.6e-4,-14.37416 -4.71875,-20.03125 A 7.090197,7.090197 0 0 0 276.9375,878 c -2.62846,-0.0504 -5.42541,0.96317 -7.28125,2.4375 -1.85584,1.47433 -2.86526,3.13408 -3.5625,4.46875 -1.38022,2.64204 -2.28239,4.53627 -1.5625,3.65625 0.007,-0.009 -0.039,0.0409 -0.0312,0.0312 0.12026,-0.17974 -3.13534,2.32997 -4.5,2.75 a 7.090197,7.090197 0 0 0 -1.59375,0.71875 c -0.67917,0.41169 -3.12879,1.01852 -6.5,1.4375 -3.37121,0.41898 -7.63102,0.65026 -12.0625,3.1875 a 7.090197,7.090197 0 0 0 -0.71875,0.46875 c -0.12006,0.0771 -0.29107,0.19314 -0.53125,0.34375 -0.53316,0.33433 -1.2704,0.78858 -2.09375,1.3125 -1.51866,0.96636 -3.23264,2.10699 -4.8125,3.34375 l 0,-0.0312 c -0.11578,0.0808 -0.13744,0.1394 -0.25,0.21875 -0.0486,0.0389 -0.108,0.0546 -0.15625,0.0937 -3.13752,2.22381 -5.16725,3.9473 -7.28125,5.9375 a 7.090197,7.090197 0 0 0 -0.28125,0.3125 c 0.15446,-0.16439 -0.43911,0.26776 -1.25,0.4375 -0.69789,0.14609 -1.40178,0.006 -1.03125,0.15625 -5.32942,-2.7058 -10.02529,-3.36768 -12.21875,-4.5 l -0.0312,0.0312 c -3.96665,-2.3186 -7.61628,-3.58141 -9.65625,-4.8125 a 7.090197,7.090197 0 0 0 -0.15625,-0.0937 c -1.94399,-1.10393 -4.58916,-2.59789 -7.0625,-3.96875 -0.0995,-0.0679 -0.19503,-0.16254 -0.28125,-0.21875 -0.56289,-0.36696 -1.36674,-0.85716 -2.375,-1.46875 -1.66382,-1.00923 -3.58815,-2.09727 -5.34375,-3.03125 -1.08327,-0.96846 -2.88951,-3.12016 -6.25,-4.96875 -1.22788,-1.0476 -2.19123,-2.21658 -4.21875,-4.1875 -0.0272,-0.0271 -0.0354,-0.0357 -0.0625,-0.0625 -3.10806,-3.07729 -5.30987,-4.02546 -5.71875,-4.3125 -1.40216,-1.61536 -3.02086,-3.12619 -5.0625,-4.75 -0.15406,-0.18944 -0.21545,-0.23027 -0.40625,-0.46875 -0.95518,-1.19383 -2.32944,-3.02695 -2.90625,-3.875 l -0.0312,0.0312 c -0.20555,-0.29413 -0.47663,-0.68596 -0.59375,-0.84375 a 7.090197,7.090197 0 0 0 -1.15625,-1.25 c -0.36102,-0.42973 -0.74217,-0.85993 -1.21875,-1.4375 -1.2567,-1.52301 -2.79731,-3.44244 -4.09375,-5.0625 A 7.090197,7.090197 0 0 0 152,859.375 c -2.36266,-2.29196 -3.87427,-3.58253 -4.8125,-4.625 a 7.090197,7.090197 0 0 0 -0.125,-0.0937 c -2.22185,-2.36875 -3.79382,-3.49819 -5.375,-5.15625 a 7.090197,7.090197 0 0 0 -0.8125,-0.71875 c -3.31051,-2.53248 -6.33421,-3.90835 -7.53125,-4.875 A 7.090197,7.090197 0 0 0 132,843.0625 c -1.48778,-0.72885 -4.34358,-3.35622 -9.375,-4.71875 -6.0118,-3.08062 -12.22848,-3.62893 -16.25,-5 A 7.090197,7.090197 0 0 0 104.5625,833 c -9.30823,-0.63427 -17.011274,-0.90574 -26.625,0.75 -0.276317,-0.51451 -0.776353,-1.65039 -1.75,-3.6875 a 7.090197,7.090197 0 0 0 -0.71875,-1.15625 c -1.047728,-1.40695 -1.861247,-3.35309 -4.875,-7.84375 a 7.090197,7.090197 0 0 0 -0.34375,-0.5 C 69.360423,819.45649 68.19586,816.4278 66.21875,812.75 64.292494,808.00803 63.087427,806.26942 62,802.78125 a 7.090197,7.090197 0 0 0 -0.34375,-0.84375 c -1.610973,-3.49757 -3.316777,-9.80236 -2.625,-14.625 1.036186,-4.15544 2.236765,-7.79579 3.75,-10.5 2.330456,-2.53192 3.381517,-4.39586 3.8125,-4.84375 0.0075,-0.008 0.02394,-0.0555 0.03125,-0.0625 3.115578,-2.65128 5.269536,-4.49087 7.84375,-5.34375 a 7.090197,7.090197 0 0 0 0.9375,-0.375 c 1.444076,-0.72232 3.904705,-1.69672 5.5625,-2 0.784092,-0.14345 1.025777,-0.14955 1.0625,-0.1875 A 7.090197,7.090197 0 0 0 83,764.75 c -1.429981,0.32989 -3.032497,0.7875 -4.8125,1.625 -1.894276,0.89127 -4.076878,2.40554 -5.59375,4.8125 -1.516872,2.40696 -2.091139,5.40327 -1.875,8.21875 a 7.090197,7.090197 0 0 0 0,0.0312 c 0.520734,6.61055 4.197405,11.09817 6.34375,13.875 a 7.090197,7.090197 0 0 0 0.40625,0.46875 c 4.453577,4.79422 10.288898,6.23434 15.6875,6.65625 a 7.090197,7.090197 0 0 0 1.09375,0 c 5.83846,-0.44807 12.14501,-1.7398 17.6875,-5.71875 a 7.090197,7.090197 0 0 0 1.4375,-1.375 c 2.41959,-3.08445 2.91491,-3.88346 4.125,-4.90625 a 7.090197,7.090197 0 0 0 1.0625,-1.09375 c 3.19588,-4.14803 5.03808,-9.03797 6.09375,-14.15625 l 0.0312,0 c 0.0182,-0.0704 0.0134,-0.14818 0.0312,-0.21875 0.0131,-0.0651 0.0497,-0.12234 0.0625,-0.1875 l -0.0312,0 c 2.03135,-8.17541 1.71376,-17.34243 -2.125,-25.09375 l 0.0312,0 c -1.18802,-3.8683 -2.86189,-7.96056 -6.0625,-11.53125 a 7.090197,7.090197 0 0 0 -0.46875,-0.5 c -0.91166,-0.84185 -2.53593,-2.82499 -5.1875,-4.8125 -2.72982,-3.28389 -5.90688,-4.90341 -8.15625,-6.1875 a 7.090197,7.090197 0 0 0 -0.46875,-0.25 c -6.641455,-3.14018 -14.543539,-4.63385 -22.625,-4.5625 z m 148,283.18745 c 0.10733,0.055 0.23052,0.1778 0.4375,0.4376 a 7.090197,7.090197 0 0 0 -0.4375,-0.4376 z" />
    <path
       style="fill:none;stroke:#000000;stroke-width:0.13444591;stroke-opacity:1"
       d="m 79.762051,726.94174 c -0.474528,0.004 -0.967846,0.005 -1.442828,0.0218 -6.972667,1.72706 -17.855345,3.5702 -20.527504,4.91873 -3.013485,1.67319 -6.565521,2.78363 -9.13791,4.91873 -1.60164,0.92271 -4.460594,3.34649 -5.989921,4.56896 -1.817872,1.36909 -3.921546,3.28758 -5.902477,4.96245 -1.670295,1.8776 -3.25886,3.67751 -4.918731,5.66201 -1.037752,1.28927 -3.782637,4.59099 -4.634538,7.8481 -2.581445,1.97162 -3.702999,5.33672 -4.503372,8.89744 -2.473647,4.39159 -3.564271,9.93155 -5.028036,15.17156 -0.980703,8.40163 -2.991617,17.41407 -1.48655,26.0802 -0.02532,8.50649 2.273484,15.83872 3.563348,23.69735 2.784997,6.69843 2.462992,16.19612 -0.546526,22.29825 -3.223379,6.43449 -4.094672,15.21178 -4.547094,23.56619 -2.717028,8.3479 0.628073,17.47647 1.530272,25.51182 1.525249,7.45968 5.074557,13.80242 4.503372,22.53872 -1.467781,5.88715 -2.131601,12.02758 -5.049897,16.50507 -1.103706,3.14148 -5.300009,5.3187 -4.962453,9.48769 -0.596131,4.54163 3.277146,5.38767 4.962453,8.00113 -0.968769,-2.5973 1.220209,2.8971 3.978707,4.56896 0.794103,1.30344 3.299832,5.37002 4.568954,6.90808 0.989217,3.43187 4.007529,5.11482 4.568955,8.89744 2.217813,3.89252 3.748239,8.35588 4.89687,13.16035 2.637671,8.93043 2.523,20.09153 1.027468,29.66543 -2.752412,4.5947 -3.193934,14.0634 3.016822,14.9092 8.886182,0.9891 18.190424,0.2266 27.238839,0.4591 7.476605,-0.9353 18.977694,2.3754 23.784798,-3.0168 2.424853,-5.1501 3.69473,-11.0594 1.552133,-17.0079 -1.53668,-2.6255 -3.244163,-3.9815 -5.596423,-6.9299 -1.506459,-0.9559 -5.947347,-3.0191 -8.94116,-4.569 -5.736313,0.634 -8.094554,-1.9088 -10.952375,-4.875 -0.162793,-7.46983 -3.04877,-13.04736 -4.590815,-19.6531 -1.816718,-4.70029 -5.707904,-10.90155 -2.53588,-17.00788 1.267331,-2.82283 5.032094,-3.79895 7.126695,-5.0499 3.56276,-2.0408 5.823673,-2.78107 8.132302,-4.89687 2.961494,-2.25165 3.813032,-3.3086 5.924339,-5.59642 1.347506,-1.58847 3.269822,-3.26852 4.89687,-4.50337 1.048825,-0.84681 2.757658,-5.39537 4.568954,-8.00114 2.869755,-7.01294 5.638781,-0.66062 5.53084,3.91313 1.043061,2.31853 2.861374,4.76724 4.89687,6.64575 2.420038,2.60926 3.479558,3.61347 5.049898,5.50898 1.9708,2.49866 3.14684,4.87462 6.03365,5.98992 2.76163,1.09186 3.36159,2.74305 4.98431,4.08801 2.12038,2.26096 3.78686,3.58699 6.0555,4.91873 -2.57438,-1.40974 4.70988,3.1183 7.03926,4.91873 3.66797,1.06836 6.63281,3.07982 9.96862,4.56896 3.59985,1.92699 7.23283,3.80231 11.82682,4.56895 4.06209,2.1903 8.59718,3.88196 13.64128,4.89687 5.94573,2.16624 16.19789,3.58392 18.86607,5.04992 3.50807,-0.05 14.76764,3.696 19.65306,4.5034 3.77554,1.78543 8.09908,3.01913 11.97984,4.63453 3.57372,1.8355 6.52596,3.2297 9.05047,4.9624 -2.3385,-1.8238 5.17204,3.109 7.54205,4.9188 -2.15642,-1.3459 3.69974,2.5784 5.57456,4.9187 5.44896,2.5215 14.443,5.3882 18.84421,5.0499 4.90968,1.7502 11.83194,1.0439 15.17155,4.5471 2.3298,1.5822 0.29234,7.5104 5.1592,11.4989 13.54,1.2995 28.11456,0.3118 42.08248,0.6121 4.70036,0.3809 7.59564,-3.0963 8.87558,-6.4708 2.45511,-2.9263 3.26157,-9.3579 -1.11491,-13.7287 -1.10885,-3.0463 -3.68877,-4.8087 -6.88623,-5.5527 -4.60711,-3.969 -12.28416,-4.3003 -19.80609,-3.8258 -6.04055,1.3009 -8.4656,-2.3296 -12.24217,-4.1098 -2.58065,-1.1059 -5.04167,-3.2964 -7.58578,-4.8969 -2.71804,-2.22533 -6.62781,-3.14583 -9.68443,-5.04993 -3.35262,-0.2727 -4.91285,-2.6618 -6.86437,-4.5033 -3.35514,-1.87558 -5.36524,-5.32175 -6.92994,-8.85379 -0.645,-5.29058 1.57111,-9.08328 4.43779,-11.71751 4.52987,-3.89581 11.09945,-2.17162 17.5544,-2.01122 8.15947,0.60708 12.77211,-4.06545 20.94286,-3.93498 3.86246,-0.45177 5.53398,-3.32431 8.15417,-5.00618 2.58545,-1.32922 4.56901,-2.69069 5.85875,-4.98431 2.84736,-4.65126 3.87886,-16.46936 -4.6564,-15.17155 1.63207,1.90152 -3.28947,-3.17888 -4.83128,-4.91873 -2.67372,-5.0719 -1.29391,-13.31918 -4.56896,-17.94791 -2.62768,-2.53903 -7.06535,-3.64117 -10.88679,-4.10987 -2.88286,-0.50445 -6.53599,-2.03241 -8.06672,-4.89687 -3.63353,-2.11209 0.0593,-5.41318 0.98375,-8.37277 0.72473,-5.8717 -0.11355,-11.01296 -3.12613,-14.62503 -4.58212,-0.0879 -4.96721,5.65702 -6.79878,7.93555 -1.3289,1.63495 -4.72494,4.10543 -7.93555,5.09362 -5.22978,3.17016 -14.0017,1.63489 -19.15026,4.91873 0.33293,-0.16925 0.51066,-0.2459 0.56839,-0.26233 -0.20888,0.22401 -5.39461,3.27986 -7.73881,5.18106 -3.23802,2.26068 -4.734,3.54838 -6.88622,5.57456 -2.52514,2.68762 -7.48593,3.2467 -9.68444,2.49216 -4.04702,-2.28152 -9.16513,-2.82245 -13.22592,-4.91873 -3.15184,-1.90061 -6.97531,-3.14246 -10.09979,-5.02804 -2.24229,-1.27332 -5.30521,-3.02458 -8.00114,-4.50337 2.63513,1.51202 -5.06673,-3.28804 -7.80438,-4.63453 -1.98065,-1.62045 -3.86631,-3.84548 -6.2304,-4.91874 -1.96098,-1.60064 -3.11221,-3.10605 -4.98431,-4.91873 -2.45837,-2.45137 -3.94433,-2.75032 -5.50898,-4.08801 -1.37817,-1.74734 -2.70071,-2.9702 -5.37781,-5.0499 1.43803,1.80631 -2.47673,-2.89055 -4.1536,-5.35595 -0.012,-0.0176 -0.032,-0.0263 -0.0437,-0.0437 -0.46422,-0.44092 -4.04261,-4.78099 -6.68947,-8.08858 -2.17789,-2.11272 -3.78386,-3.43187 -5.18107,-4.98431 -1.72258,-1.83647 -3.3336,-2.97401 -5.33409,-5.07176 -2.2452,-1.71754 -5.39257,-3.10311 -7.69508,-4.96246 -2.9913,-1.46542 -5.284,-3.81067 -8.89744,-4.54709 -4.04653,-2.23696 -10.59304,-3.05369 -15.8711,-4.85315 -9.702616,-0.66114 -16.734605,-0.94663 -26.320683,0.87444 -5.26822,0.28038 -6.334045,-4.31641 -8.001136,-7.80438 -1.619143,-2.17428 -2.278079,-4.00214 -5.049897,-8.1323 -2.115993,-2.63081 -3.210919,-6.14169 -4.89687,-9.2035 -1.845756,-4.63845 -3.22766,-6.51416 -4.590816,-10.88679 -2.05388,-4.45916 -4.319326,-11.82381 -3.21357,-18.86606 1.154528,-4.72087 2.559628,-9.26229 4.765703,-13.0729 2.517887,-2.37792 3.012828,-4.36287 4.918731,-6.18667 3.16284,-2.68985 6.184307,-5.48782 10.537015,-6.92995 3.613583,-1.8075 11.360809,-4.90197 14.646889,-1.0056 4.957402,0.48745 4.900241,8.87243 1.770743,11.97984 -4.881424,1.23205 -11.402187,1.35304 -10.886792,8.06672 0.343271,4.35772 2.688417,7.22075 4.89687,10.07793 2.488856,2.67922 6.833988,4.08553 11.06168,4.41593 5.174788,-0.39714 10.036503,-1.51418 14.078503,-4.41593 2.31578,-2.95211 3.22495,-4.32642 5.11548,-5.92434 2.40674,-3.12378 4.01383,-7.14957 4.89687,-11.63006 1.78369,-6.90354 1.18575,-16.05387 -1.94563,-21.62056 -1.03097,-3.35694 -2.42181,-6.50203 -4.56895,-8.89744 -1.80315,-1.66507 -3.21562,-3.69234 -5.37782,-5.04989 -1.58548,-2.15924 -4.17358,-3.61676 -6.645752,-5.02804 -5.390188,-2.54856 -12.403982,-3.93224 -19.521897,-3.8694 z m 73.999579,145.61631 c 0.011,0.0105 0.0362,0.0159 0.0437,0.0218 -0.0443,-0.0783 -0.17477,-0.2661 -0.41536,-0.59025 0.0979,0.16047 0.23993,0.3735 0.37164,0.56839 z"
       id="path3916"
       inkscape:connector-curvature="0"
       sodipodi:nodetypes="cccccccccccccccccccccccccccccccccccccccccccccccccccccccccccccccccccccccccccccccccccccccccccccccccccccccccccccccccccccccccccccccccc" />
  </g>
</svg>
