  0
SECTION
  2
HEADER
  9
$ACADVER
  1
AC1014
  9
$EXTMIN
 10
70.16401489310567
 20
112.369642808922
 30
0.0
  9
$EXTMAX
 10
277.0834797641999
 20
227.1366601424358
 30
0.0
  9
$HANDSEED
  5
56
  9
$MEASUREMENT
 70
1
  0
ENDSEC
  0
SECTION
  2
TABLES
  0
TABLE
  2
VPORT
  5
8
330
0
100
AcDbSymbolTable
 70
     4
  0
VPORT
  5
2E
330
8
100
AcDbSymbolTableRecord
100
AcDbViewportTableRecord
  2
*ACTIVE
 70
     0
 10
0.0
 20
0.0
 11
1.0
 21
1.0
 12
209.9999999999999
 22
148.4999999999999
 13
0.0
 23
0.0
 14
10.0
 24
10.0
 15
10.0
 25
10.0
 16
0.0
 26
0.0
 36
1.0
 17
0.0
 27
0.0
 37
0.0
 40
340.9950045922664
 41
1.239944521497919
 42
50.0
 43
0.0
 44
0.0
 50
0.0
 51
0.0
 71
     0
 72
   100
 73
     1
 74
     3
 75
     0
 76
     0
 77
     0
 78
     0
  0
ENDTAB
  0
TABLE
  2
LTYPE
  5
5
330
0
100
AcDbSymbolTable
 70
     1
  0
LTYPE
  5
14
330
5
100
AcDbSymbolTableRecord
100
AcDbLinetypeTableRecord
  2
BYBLOCK
 70
     0
  3

 72
    65
 73
     0
 40
0.0
  0
LTYPE
  5
15
330
5
100
AcDbSymbolTableRecord
100
AcDbLinetypeTableRecord
  2
BYLAYER
 70
     0
  3

 72
    65
 73
     0
 40
0.0
  0
LTYPE
  5
16
330
5
100
AcDbSymbolTableRecord
100
AcDbLinetypeTableRecord
  2
CONTINUOUS
 70
     0
  3
Solid line
 72
    65
 73
     0
 40
0.0
  0
ENDTAB
  0
TABLE
  2
LAYER
  5
2
330
0
100
AcDbSymbolTable
 70
1
  0
LAYER
  5
10
330
2
100
AcDbSymbolTableRecord
100
AcDbLayerTableRecord
  2
0
 70
     0
 62
     7
  6
CONTINUOUS
  0
ENDTAB
  0
TABLE
  2
STYLE
  5
3
330
0
100
AcDbSymbolTable
 70
     1
  0
STYLE
  5
11
330
3
100
AcDbSymbolTableRecord
100
AcDbTextStyleTableRecord
  2
STANDARD
 70
     0
 40
0.0
 41
1.0
 50
0.0
 71
     0
 42
2.5
  3
txt
  4

  0
ENDTAB
  0
TABLE
  2
VIEW
  5
6
330
0
100
AcDbSymbolTable
 70
     0
  0
ENDTAB
  0
TABLE
  2
UCS
  5
7
330
0
100
AcDbSymbolTable
 70
     0
  0
ENDTAB
  0
TABLE
  2
APPID
  5
9
330
0
100
AcDbSymbolTable
 70
     2
  0
APPID
  5
12
330
9
100
AcDbSymbolTableRecord
100
AcDbRegAppTableRecord
  2
ACAD
 70
     0
  0
APPID
  5
2B
330
9
100
AcDbSymbolTableRecord
100
AcDbRegAppTableRecord
  2
URBANX
 70
     0
  0
ENDTAB
  0
TABLE
  2
DIMSTYLE
  5
A
330
0
100
AcDbSymbolTable
 70
     1
  0
DIMSTYLE
105
27
330
A
100
AcDbSymbolTableRecord
100
AcDbDimStyleTableRecord
  2
ISO-25
 70
     0
  3

  4

  5

  6

  7

 40
1.0
 41
2.5
 42
0.625
 43
3.75
 44
1.25
 45
0.0
 46
0.0
 47
0.0
 48
0.0
140
2.5
141
2.5
142
0.0
143
0.03937007874016
144
1.0
145
0.0
146
1.0
147
0.625
 71
     0
 72
     0
 73
     0
 74
     0
 75
     0
 76
     0
 77
     1
 78
     8
170
     0
171
     3
172
     1
173
     0
174
     0
175
     0
176
     0
177
     0
178
     0
270
     2
271
     2
272
     2
273
     2
274
     3
340
11
275
     0
280
     0
281
     0
282
     0
283
     0
284
     8
285
     0
286
     0
287
     3
288
     0
  0
ENDTAB
  0
TABLE
  2
BLOCK_RECORD
  5
1
330
0
100
AcDbSymbolTable
 70
     1
  0
BLOCK_RECORD
  5
1F
102
{ACAD_XDICTIONARY
360
52
102
}
330
1
100
AcDbSymbolTableRecord
100
AcDbBlockTableRecord
  2
*MODEL_SPACE
  0
BLOCK_RECORD
  5
1B
102
{ACAD_XDICTIONARY
360
50
102
}
330
1
100
AcDbSymbolTableRecord
100
AcDbBlockTableRecord
  2
*PAPER_SPACE
  0
ENDTAB
  0
ENDSEC
  0
SECTION
  2
BLOCKS
  0
BLOCK
  5
20
330
1F
100
AcDbEntity
  8
0
100
AcDbBlockBegin
  2
*MODEL_SPACE
 70
     0
 10
0.0
 20
0.0
 30
0.0
  3
*MODEL_SPACE
  1

  0
ENDBLK
  5
21
330
1F
100
AcDbEntity
  8
0
100
AcDbBlockEnd
  0
BLOCK
  5
1C
330
1B
100
AcDbEntity
 67
     1
  8
0
100
AcDbBlockBegin
  2
*PAPER_SPACE
  1

  0
ENDBLK
  5
1D
330
1B
100
AcDbEntity
 67
     1
  8
0
100
AcDbBlockEnd
  0
ENDSEC
  0
SECTION
  2
ENTITIES
  0
SPLINE
  5
ff
100
AcDbEntity
  8
0
100
AcDbSpline
210
0.0
220
0.0
230
1.0
 62
     0
 70
     0
 71
     3
 72
     8
 73
4
 40
0.0
 40
0.0
 40
0.0
 40
0.0
 40
1.0
 40
1.0
 40
1.0
 40
1.0
 10
21.4864
 20
92.4662
 30
0.0
 10
21.3624
 20
92.4648
 30
0.0
 10
21.2066
 20
92.4648
 30
0.0
 10
21.0261
 20
92.4581
 30
0.0
  0
SPLINE
  5
100
100
AcDbEntity
  8
0
100
AcDbSpline
210
0.0
220
0.0
230
1.0
 62
     0
 70
     0
 71
     3
 72
     8
 73
4
 40
0.0
 40
0.0
 40
0.0
 40
0.0
 40
1.0
 40
1.0
 40
1.0
 40
1.0
 10
21.0261
 20
92.4581
 30
0.0
 10
20.8869
 20
92.4539
 30
0.0
 10
20.7491
 20
92.4348
 30
0.0
 10
20.6155
 20
92.4003
 30
0.0
  0
SPLINE
  5
101
100
AcDbEntity
  8
0
100
AcDbSpline
210
0.0
220
0.0
230
1.0
 62
     0
 70
     0
 71
     3
 72
     8
 73
4
 40
0.0
 40
0.0
 40
0.0
 40
0.0
 40
1.0
 40
1.0
 40
1.0
 40
1.0
 10
20.6155
 20
92.4003
 30
0.0
 10
19.706
 20
92.1755
 30
0.0
 10
18.4533
 20
91.9233
 30
0.0
 10
17.3233
 20
91.6809
 30
0.0
  0
SPLINE
  5
102
100
AcDbEntity
  8
0
100
AcDbSpline
210
0.0
220
0.0
230
1.0
 62
     0
 70
     0
 71
     3
 72
     8
 73
4
 40
0.0
 40
0.0
 40
0.0
 40
0.0
 40
1.0
 40
1.0
 40
1.0
 40
1.0
 10
17.3233
 20
91.6809
 30
0.0
 10
16.1933
 20
91.4368
 30
0.0
 10
15.4258
 20
91.3737
 30
0.0
 10
14.4019
 20
90.8569
 30
0.0
  0
SPLINE
  5
103
100
AcDbEntity
  8
0
100
AcDbSpline
210
0.0
220
0.0
230
1.0
 62
     0
 70
     0
 71
     3
 72
     8
 73
4
 40
0.0
 40
0.0
 40
0.0
 40
0.0
 40
1.0
 40
1.0
 40
1.0
 40
1.0
 10
14.4019
 20
90.8569
 30
0.0
 10
14.3784
 20
90.8445
 30
0.0
 10
14.355
 20
90.8322
 30
0.0
 10
14.3316
 20
90.8195
 30
0.0
  0
SPLINE
  5
104
100
AcDbEntity
  8
0
100
AcDbSpline
210
0.0
220
0.0
230
1.0
 62
     0
 70
     0
 71
     3
 72
     8
 73
4
 40
0.0
 40
0.0
 40
0.0
 40
0.0
 40
1.0
 40
1.0
 40
1.0
 40
1.0
 10
14.3316
 20
90.8195
 30
0.0
 10
13.7363
 20
90.4889
 30
0.0
 10
12.6063
 20
90.1845
 30
0.0
 10
11.446
 20
89.2224
 30
0.0
  0
SPLINE
  5
105
100
AcDbEntity
  8
0
100
AcDbSpline
210
0.0
220
0.0
230
1.0
 62
     0
 70
     0
 71
     3
 72
     8
 73
4
 40
0.0
 40
0.0
 40
0.0
 40
0.0
 40
1.0
 40
1.0
 40
1.0
 40
1.0
 10
11.446
 20
89.2224
 30
0.0
 10
10.7184
 20
88.7539
 30
0.0
 10
10.1134
 20
88.2191
 30
0.0
 10
9.78408
 20
87.956
 30
0.0
  0
LINE
  5
106
100
AcDbEntity
  8
0
100
AcDbLine
 62
     0
 10
9.78408
 20
87.956
 30
0.0
 11
9.82955
 21
87.9905
 31
0.0
  0
SPLINE
  5
107
100
AcDbEntity
  8
0
100
AcDbSpline
210
0.0
220
0.0
230
1.0
 62
     0
 70
     0
 71
     3
 72
     8
 73
4
 40
0.0
 40
0.0
 40
0.0
 40
0.0
 40
1.0
 40
1.0
 40
1.0
 40
1.0
 10
9.82955
 20
87.9905
 30
0.0
 10
9.19152
 20
87.5108
 30
0.0
 10
8.59208
 20
86.9569
 30
0.0
 10
8.0753
 20
86.5202
 30
0.0
  0
SPLINE
  5
108
100
AcDbEntity
  8
0
100
AcDbSpline
210
0.0
220
0.0
230
1.0
 62
     0
 70
     0
 71
     3
 72
     8
 73
4
 40
0.0
 40
0.0
 40
0.0
 40
0.0
 40
1.0
 40
1.0
 40
1.0
 40
1.0
 10
8.0753
 20
86.5202
 30
0.0
 10
8.00365
 20
86.4595
 30
0.0
 10
7.93612
 20
86.3935
 30
0.0
 10
7.87273
 20
86.323
 30
0.0
  0
SPLINE
  5
109
100
AcDbEntity
  8
0
100
AcDbSpline
210
0.0
220
0.0
230
1.0
 62
     0
 70
     0
 71
     3
 72
     8
 73
4
 40
0.0
 40
0.0
 40
0.0
 40
0.0
 40
1.0
 40
1.0
 40
1.0
 40
1.0
 10
7.87273
 20
86.323
 30
0.0
 10
7.3987
 20
85.7899
 30
0.0
 10
6.93427
 20
85.2632
 30
0.0
 10
6.44507
 20
84.6776
 30
0.0
  0
SPLINE
  5
10a
100
AcDbEntity
  8
0
100
AcDbSpline
210
0.0
220
0.0
230
1.0
 62
     0
 70
     0
 71
     3
 72
     8
 73
4
 40
0.0
 40
0.0
 40
0.0
 40
0.0
 40
1.0
 40
1.0
 40
1.0
 40
1.0
 10
6.44507
 20
84.6776
 30
0.0
 10
6.43682
 20
84.6681
 30
0.0
 10
6.42856
 20
84.6586
 30
0.0
 10
6.42027
 20
84.6487
 30
0.0
  0
SPLINE
  5
10b
100
AcDbEntity
  8
0
100
AcDbSpline
210
0.0
220
0.0
230
1.0
 62
     0
 70
     0
 71
     3
 72
     8
 73
4
 40
0.0
 40
0.0
 40
0.0
 40
0.0
 40
1.0
 40
1.0
 40
1.0
 40
1.0
 10
6.42027
 20
84.6487
 30
0.0
 10
6.19566
 20
84.3689
 30
0.0
 10
5.42809
 20
83.5297
 30
0.0
 10
4.94852
 20
82.2621
 30
0.0
  0
SPLINE
  5
10c
100
AcDbEntity
  8
0
100
AcDbSpline
210
0.0
220
0.0
230
1.0
 62
     0
 70
     0
 71
     3
 72
     8
 73
4
 40
0.0
 40
0.0
 40
0.0
 40
0.0
 40
1.0
 40
1.0
 40
1.0
 40
1.0
 10
4.94852
 20
82.2621
 30
0.0
 10
4.09967
 20
81.3675
 30
0.0
 10
3.75927
 20
80.3219
 30
0.0
 10
3.54432
 20
79.411
 30
0.0
  0
SPLINE
  5
10d
100
AcDbEntity
  8
0
100
AcDbSpline
210
0.0
220
0.0
230
1.0
 62
     0
 70
     0
 71
     3
 72
     8
 73
4
 40
0.0
 40
0.0
 40
0.0
 40
0.0
 40
1.0
 40
1.0
 40
1.0
 40
1.0
 10
3.54432
 20
79.411
 30
0.0
 10
2.71749
 20
77.8387
 30
0.0
 10
2.41984
 20
76.2346
 30
0.0
 10
2.05466
 20
74.9254
 30
0.0
  0
SPLINE
  5
10e
100
AcDbEntity
  8
0
100
AcDbSpline
210
0.0
220
0.0
230
1.0
 62
     0
 70
     0
 71
     3
 72
     8
 73
4
 40
0.0
 40
0.0
 40
0.0
 40
0.0
 40
1.0
 40
1.0
 40
1.0
 40
1.0
 10
2.05466
 20
74.9254
 30
0.0
 10
2.02572
 20
74.8249
 30
0.0
 10
2.00642
 20
74.7226
 30
0.0
 10
1.99402
 20
74.6181
 30
0.0
  0
SPLINE
  5
10f
100
AcDbEntity
  8
0
100
AcDbSpline
210
0.0
220
0.0
230
1.0
 62
     0
 70
     0
 71
     3
 72
     8
 73
4
 40
0.0
 40
0.0
 40
0.0
 40
0.0
 40
1.0
 40
1.0
 40
1.0
 40
1.0
 10
1.99402
 20
74.6181
 30
0.0
 10
1.7446
 20
72.4793
 30
0.0
 10
1.14791
 20
69.8528
 30
0.0
 10
1.5627
 20
67.007
 30
0.0
  0
SPLINE
  5
110
100
AcDbEntity
  8
0
100
AcDbSpline
210
0.0
220
0.0
230
1.0
 62
     0
 70
     0
 71
     3
 72
     8
 73
4
 40
0.0
 40
0.0
 40
0.0
 40
0.0
 40
1.0
 40
1.0
 40
1.0
 40
1.0
 10
1.5627
 20
67.007
 30
0.0
 10
1.55856
 20
64.2553
 30
0.0
 10
2.25998
 20
62.0462
 30
0.0
 10
2.59347
 20
60.0135
 30
0.0
  0
SPLINE
  5
111
100
AcDbEntity
  8
0
100
AcDbSpline
210
0.0
220
0.0
230
1.0
 62
     0
 70
     0
 71
     3
 72
     8
 73
4
 40
0.0
 40
0.0
 40
0.0
 40
0.0
 40
1.0
 40
1.0
 40
1.0
 40
1.0
 10
2.59347
 20
60.0135
 30
0.0
 10
2.61827
 20
59.8622
 30
0.0
 10
2.66099
 20
59.7133
 30
0.0
 10
2.72025
 20
59.5697
 30
0.0
  0
SPLINE
  5
112
100
AcDbEntity
  8
0
100
AcDbSpline
210
0.0
220
0.0
230
1.0
 62
     0
 70
     0
 71
     3
 72
     8
 73
4
 40
0.0
 40
0.0
 40
0.0
 40
0.0
 40
1.0
 40
1.0
 40
1.0
 40
1.0
 10
2.72025
 20
59.5697
 30
0.0
 10
3.22737
 20
58.3487
 30
0.0
 10
3.12952
 20
55.965
 30
0.0
 10
2.61965
 20
54.93
 30
0.0
  0
LINE
  5
113
100
AcDbEntity
  8
0
100
AcDbLine
 62
     0
 10
2.61965
 20
54.93
 30
0.0
 11
2.62516
 21
54.9409
 31
0.0
  0
SPLINE
  5
114
100
AcDbEntity
  8
0
100
AcDbSpline
210
0.0
220
0.0
230
1.0
 62
     0
 70
     0
 71
     3
 72
     8
 73
4
 40
0.0
 40
0.0
 40
0.0
 40
0.0
 40
1.0
 40
1.0
 40
1.0
 40
1.0
 10
2.62516
 20
54.9409
 30
0.0
 10
1.48553
 20
52.6658
 30
0.0
 10
1.28295
 20
50.0736
 30
0.0
 10
1.15204
 20
47.7051
 30
0.0
  0
SPLINE
  5
115
100
AcDbEntity
  8
0
100
AcDbSpline
210
0.0
220
0.0
230
1.0
 62
     0
 70
     0
 71
     3
 72
     8
 73
4
 40
0.0
 40
0.0
 40
0.0
 40
0.0
 40
1.0
 40
1.0
 40
1.0
 40
1.0
 10
1.15204
 20
47.7051
 30
0.0
 10
0.272852
 20
44.6056
 30
0.0
 10
1.36839
 20
41.7999
 30
0.0
 10
1.57372
 20
39.9715
 30
0.0
  0
SPLINE
  5
116
100
AcDbEntity
  8
0
100
AcDbSpline
210
0.0
220
0.0
230
1.0
 62
     0
 70
     0
 71
     3
 72
     8
 73
4
 40
0.0
 40
0.0
 40
0.0
 40
0.0
 40
1.0
 40
1.0
 40
1.0
 40
1.0
 10
1.57372
 20
39.9715
 30
0.0
 10
1.58061
 20
39.9122
 30
0.0
 10
1.59026
 20
39.853
 30
0.0
 10
1.60128
 20
39.7937
 30
0.0
  0
SPLINE
  5
117
100
AcDbEntity
  8
0
100
AcDbSpline
210
0.0
220
0.0
230
1.0
 62
     0
 70
     0
 71
     3
 72
     8
 73
4
 40
0.0
 40
0.0
 40
0.0
 40
0.0
 40
1.0
 40
1.0
 40
1.0
 40
1.0
 10
1.60128
 20
39.7937
 30
0.0
 10
2.10013
 20
37.356
 30
0.0
 10
2.91593
 20
35.88
 30
0.0
 10
2.83187
 20
34.0637
 30
0.0
  0
SPLINE
  5
118
100
AcDbEntity
  8
0
100
AcDbSpline
210
0.0
220
0.0
230
1.0
 62
     0
 70
     0
 71
     3
 72
     8
 73
4
 40
0.0
 40
0.0
 40
0.0
 40
0.0
 40
1.0
 40
1.0
 40
1.0
 40
1.0
 10
2.83187
 20
34.0637
 30
0.0
 10
2.41432
 20
32.3494
 30
0.0
 10
2.15112
 20
30.9122
 30
0.0
 10
1.7322
 20
30.2672
 30
0.0
  0
SPLINE
  5
119
100
AcDbEntity
  8
0
100
AcDbSpline
210
0.0
220
0.0
230
1.0
 62
     0
 70
     0
 71
     3
 72
     8
 73
4
 40
0.0
 40
0.0
 40
0.0
 40
0.0
 40
1.0
 40
1.0
 40
1.0
 40
1.0
 10
1.7322
 20
30.2672
 30
0.0
 10
1.644
 20
30.1336
 30
0.0
 10
1.57372
 20
29.9889
 30
0.0
 10
1.51997
 20
29.8387
 30
0.0
  0
SPLINE
  5
11a
100
AcDbEntity
  8
0
100
AcDbSpline
210
0.0
220
0.0
230
1.0
 62
     0
 70
     0
 71
     3
 72
     8
 73
4
 40
0.0
 40
0.0
 40
0.0
 40
0.0
 40
1.0
 40
1.0
 40
1.0
 40
1.0
 10
1.51997
 20
29.8387
 30
0.0
 10
1.57923
 20
30.0068
 30
0.0
 10
1.40284
 20
29.7174
 30
0.0
 10
0.981163
 20
29.1814
 30
0.0
  0
SPLINE
  5
11b
100
AcDbEntity
  8
0
100
AcDbSpline
210
0.0
220
0.0
230
1.0
 62
     0
 70
     0
 71
     3
 72
     8
 73
4
 40
0.0
 40
0.0
 40
0.0
 40
0.0
 40
1.0
 40
1.0
 40
1.0
 40
1.0
 10
0.981163
 20
29.1814
 30
0.0
 10
0.589802
 20
28.6825
 30
0.0
 10
0.0248047
 20
27.7496
 30
0.0
 10
0.0275608
 20
26.5934
 30
0.0
  0
SPLINE
  5
11c
100
AcDbEntity
  8
0
100
AcDbSpline
210
0.0
220
0.0
230
1.0
 62
     0
 70
     0
 71
     3
 72
     8
 73
4
 40
0.0
 40
0.0
 40
0.0
 40
0.0
 40
1.0
 40
1.0
 40
1.0
 40
1.0
 10
0.0275608
 20
26.5934
 30
0.0
 10
-0.0564995
 20
25.4345
 30
0.0
 10
0.538812
 20
24.2631
 30
0.0
 10
1.05144
 20
23.7505
 30
0.0
  0
SPLINE
  5
11d
100
AcDbEntity
  8
0
100
AcDbSpline
210
0.0
220
0.0
230
1.0
 62
     0
 70
     0
 71
     3
 72
     8
 73
4
 40
0.0
 40
0.0
 40
0.0
 40
0.0
 40
1.0
 40
1.0
 40
1.0
 40
1.0
 10
1.05144
 20
23.7505
 30
0.0
 10
1.5875
 20
23.2131
 30
0.0
 10
1.8135
 20
23.0201
 30
0.0
 10
1.72668
 20
23.1552
 30
0.0
  0
SPLINE
  5
11e
100
AcDbEntity
  8
0
100
AcDbSpline
210
0.0
220
0.0
230
1.0
 62
     0
 70
     0
 71
     3
 72
     8
 73
4
 40
0.0
 40
0.0
 40
0.0
 40
0.0
 40
1.0
 40
1.0
 40
1.0
 40
1.0
 10
1.72668
 20
23.1552
 30
0.0
 10
1.79558
 20
23.0491
 30
0.0
 10
1.87413
 20
22.9499
 30
0.0
 10
1.96233
 20
22.8589
 30
0.0
  0
SPLINE
  5
11f
100
AcDbEntity
  8
0
100
AcDbSpline
210
0.0
220
0.0
230
1.0
 62
     0
 70
     0
 71
     3
 72
     8
 73
4
 40
0.0
 40
0.0
 40
0.0
 40
0.0
 40
1.0
 40
1.0
 40
1.0
 40
1.0
 10
1.96233
 20
22.8589
 30
0.0
 10
2.17179
 20
22.5034
 30
0.0
 10
2.44464
 20
22.0514
 30
0.0
 10
3.0179
 20
21.5883
 30
0.0
  0
SPLINE
  5
120
100
AcDbEntity
  8
0
100
AcDbSpline
210
0.0
220
0.0
230
1.0
 62
     0
 70
     0
 71
     3
 72
     8
 73
4
 40
0.0
 40
0.0
 40
0.0
 40
0.0
 40
1.0
 40
1.0
 40
1.0
 40
1.0
 10
3.0179
 20
21.5883
 30
0.0
 10
3.27284
 20
21.1625
 30
0.0
 10
3.65457
 20
20.5521
 30
0.0
 10
4.11759
 20
19.9526
 30
0.0
  0
SPLINE
  5
121
100
AcDbEntity
  8
0
100
AcDbSpline
210
0.0
220
0.0
230
1.0
 62
     0
 70
     0
 71
     3
 72
     8
 73
4
 40
0.0
 40
0.0
 40
0.0
 40
0.0
 40
1.0
 40
1.0
 40
1.0
 40
1.0
 10
4.11759
 20
19.9526
 30
0.0
 10
4.38217
 20
19.3435
 30
0.0
 10
4.70048
 20
18.8736
 30
0.0
 10
4.88378
 20
18.6173
 30
0.0
  0
SPLINE
  5
122
100
AcDbEntity
  8
0
100
AcDbSpline
210
0.0
220
0.0
230
1.0
 62
     0
 70
     0
 71
     3
 72
     8
 73
4
 40
0.0
 40
0.0
 40
0.0
 40
0.0
 40
1.0
 40
1.0
 40
1.0
 40
1.0
 10
4.88378
 20
18.6173
 30
0.0
 10
5.11941
 20
18.2893
 30
0.0
 10
5.12216
 20
18.2576
 30
0.0
 10
5.13045
 20
18.1956
 30
0.0
  0
SPLINE
  5
123
100
AcDbEntity
  8
0
100
AcDbSpline
210
0.0
220
0.0
230
1.0
 62
     0
 70
     0
 71
     3
 72
     8
 73
4
 40
0.0
 40
0.0
 40
0.0
 40
0.0
 40
1.0
 40
1.0
 40
1.0
 40
1.0
 10
5.13045
 20
18.1956
 30
0.0
 10
5.16625
 20
17.9503
 30
0.0
 10
5.24895
 20
17.7147
 30
0.0
 10
5.37161
 20
17.4983
 30
0.0
  0
SPLINE
  5
124
100
AcDbEntity
  8
0
100
AcDbSpline
210
0.0
220
0.0
230
1.0
 62
     0
 70
     0
 71
     3
 72
     8
 73
4
 40
0.0
 40
0.0
 40
0.0
 40
0.0
 40
1.0
 40
1.0
 40
1.0
 40
1.0
 10
5.37161
 20
17.4983
 30
0.0
 10
5.86768
 20
16.6274
 30
0.0
 10
6.24939
 20
15.5484
 30
0.0
 10
6.54569
 20
14.3095
 30
0.0
  0
SPLINE
  5
125
100
AcDbEntity
  8
0
100
AcDbSpline
210
0.0
220
0.0
230
1.0
 62
     0
 70
     0
 71
     3
 72
     8
 73
4
 40
0.0
 40
0.0
 40
0.0
 40
0.0
 40
1.0
 40
1.0
 40
1.0
 40
1.0
 10
6.54569
 20
14.3095
 30
0.0
 10
6.55394
 20
14.2765
 30
0.0
 10
6.56223
 20
14.242
 30
0.0
 10
6.57324
 20
14.2089
 30
0.0
  0
SPLINE
  5
126
100
AcDbEntity
  8
0
100
AcDbSpline
210
0.0
220
0.0
230
1.0
 62
     0
 70
     0
 71
     3
 72
     8
 73
4
 40
0.0
 40
0.0
 40
0.0
 40
0.0
 40
1.0
 40
1.0
 40
1.0
 40
1.0
 10
6.57324
 20
14.2089
 30
0.0
 10
7.16442
 20
12.2039
 30
0.0
 10
7.18372
 20
9.39133
 30
0.0
 10
6.83232
 20
6.96048
 30
0.0
  0
SPLINE
  5
127
100
AcDbEntity
  8
0
100
AcDbSpline
210
0.0
220
0.0
230
1.0
 62
     0
 70
     0
 71
     3
 72
     8
 73
4
 40
0.0
 40
0.0
 40
0.0
 40
0.0
 40
1.0
 40
1.0
 40
1.0
 40
1.0
 10
6.83232
 20
6.96048
 30
0.0
 10
6.3445
 20
5.95725
 30
0.0
 10
6.14468
 20
4.87137
 30
0.0
 10
6.26869
 20
3.69316
 30
0.0
  0
SPLINE
  5
128
100
AcDbEntity
  8
0
100
AcDbSpline
210
0.0
220
0.0
230
1.0
 62
     0
 70
     0
 71
     3
 72
     8
 73
4
 40
0.0
 40
0.0
 40
0.0
 40
0.0
 40
1.0
 40
1.0
 40
1.0
 40
1.0
 10
6.26869
 20
3.69316
 30
0.0
 10
6.34037
 20
3.01101
 30
0.0
 10
6.53327
 20
2.27652
 30
0.0
 10
7.03626
 20
1.59026
 30
0.0
  0
SPLINE
  5
129
100
AcDbEntity
  8
0
100
AcDbSpline
210
0.0
220
0.0
230
1.0
 62
     0
 70
     0
 71
     3
 72
     8
 73
4
 40
0.0
 40
0.0
 40
0.0
 40
0.0
 40
1.0
 40
1.0
 40
1.0
 40
1.0
 10
7.03626
 20
1.59026
 30
0.0
 10
7.53787
 20
0.902614
 30
0.0
 10
8.4267
 20
0.340376
 30
0.0
 10
9.3624
 20
0.212218
 30
0.0
  0
SPLINE
  5
12a
100
AcDbEntity
  8
0
100
AcDbSpline
210
0.0
220
0.0
230
1.0
 62
     0
 70
     0
 71
     3
 72
     8
 73
4
 40
0.0
 40
0.0
 40
0.0
 40
0.0
 40
1.0
 40
1.0
 40
1.0
 40
1.0
 10
9.3624
 20
0.212218
 30
0.0
 10
9.37891
 20
0.209462
 30
0.0
 10
9.39546
 20
0.208084
 30
0.0
 10
9.41201
 20
0.206706
 30
0.0
  0
SPLINE
  5
12b
100
AcDbEntity
  8
0
100
AcDbSpline
210
0.0
220
0.0
230
1.0
 62
     0
 70
     0
 71
     3
 72
     8
 73
4
 40
0.0
 40
0.0
 40
0.0
 40
0.0
 40
1.0
 40
1.0
 40
1.0
 40
1.0
 10
9.41201
 20
0.206706
 30
0.0
 10
12.1846
 20
-0.101975
 30
0.0
 10
14.8621
 20
0.128157
 30
0.0
 10
17.2696
 20
0.0661458
 30
0.0
  0
SPLINE
  5
12c
100
AcDbEntity
  8
0
100
AcDbSpline
210
0.0
220
0.0
230
1.0
 62
     0
 70
     0
 71
     3
 72
     8
 73
4
 40
0.0
 40
0.0
 40
0.0
 40
0.0
 40
1.0
 40
1.0
 40
1.0
 40
1.0
 10
17.2696
 20
0.0661458
 30
0.0
 10
17.3688
 20
0.0633899
 30
0.0
 10
17.4694
 20
0.0689017
 30
0.0
 10
17.5686
 20
0.0813043
 30
0.0
  0
SPLINE
  5
12d
100
AcDbEntity
  8
0
100
AcDbSpline
210
0.0
220
0.0
230
1.0
 62
     0
 70
     0
 71
     3
 72
     8
 73
4
 40
0.0
 40
0.0
 40
0.0
 40
0.0
 40
1.0
 40
1.0
 40
1.0
 40
1.0
 10
17.5686
 20
0.0813043
 30
0.0
 10
18.2094
 20
0.16123
 30
0.0
 10
19.5296
 20
0.0316949
 30
0.0
 10
20.9421
 20
0.0192925
 30
0.0
  0
SPLINE
  5
12e
100
AcDbEntity
  8
0
100
AcDbSpline
210
0.0
220
0.0
230
1.0
 62
     0
 70
     0
 71
     3
 72
     8
 73
4
 40
0.0
 40
0.0
 40
0.0
 40
0.0
 40
1.0
 40
1.0
 40
1.0
 40
1.0
 10
20.9421
 20
0.0192925
 30
0.0
 10
22.3545
 20
0.00826823
 30
0.0
 10
24.1846
 20
0.0813043
 30
0.0
 10
25.5268
 20
1.58612
 30
0.0
  0
SPLINE
  5
12f
100
AcDbEntity
  8
0
100
AcDbSpline
210
0.0
220
0.0
230
1.0
 62
     0
 70
     0
 71
     3
 72
     8
 73
4
 40
0.0
 40
0.0
 40
0.0
 40
0.0
 40
1.0
 40
1.0
 40
1.0
 40
1.0
 10
25.5268
 20
1.58612
 30
0.0
 10
25.655
 20
1.72944
 30
0.0
 10
25.761
 20
1.89067
 30
0.0
 10
25.8437
 20
2.06568
 30
0.0
  0
SPLINE
  5
130
100
AcDbEntity
  8
0
100
AcDbSpline
210
0.0
220
0.0
230
1.0
 62
     0
 70
     0
 71
     3
 72
     8
 73
4
 40
0.0
 40
0.0
 40
0.0
 40
0.0
 40
1.0
 40
1.0
 40
1.0
 40
1.0
 10
25.8437
 20
2.06568
 30
0.0
 10
26.6637
 20
3.80891
 30
0.0
 10
27.1873
 20
6.08129
 30
0.0
 10
26.3536
 20
8.39502
 30
0.0
  0
SPLINE
  5
131
100
AcDbEntity
  8
0
100
AcDbSpline
210
0.0
220
0.0
230
1.0
 62
     0
 70
     0
 71
     3
 72
     8
 73
4
 40
0.0
 40
0.0
 40
0.0
 40
0.0
 40
1.0
 40
1.0
 40
1.0
 40
1.0
 10
26.3536
 20
8.39502
 30
0.0
 10
26.3122
 20
8.51076
 30
0.0
 10
26.2599
 20
8.62238
 30
0.0
 10
26.1979
 20
8.7285
 30
0.0
  0
SPLINE
  5
132
100
AcDbEntity
  8
0
100
AcDbSpline
210
0.0
220
0.0
230
1.0
 62
     0
 70
     0
 71
     3
 72
     8
 73
4
 40
0.0
 40
0.0
 40
0.0
 40
0.0
 40
1.0
 40
1.0
 40
1.0
 40
1.0
 10
26.1979
 20
8.7285
 30
0.0
 10
25.5902
 20
9.76753
 30
0.0
 10
25.0114
 20
10.2237
 30
0.0
 10
24.456
 20
10.9209
 30
0.0
  0
SPLINE
  5
133
100
AcDbEntity
  8
0
100
AcDbSpline
210
0.0
220
0.0
230
1.0
 62
     0
 70
     0
 71
     3
 72
     8
 73
4
 40
0.0
 40
0.0
 40
0.0
 40
0.0
 40
1.0
 40
1.0
 40
1.0
 40
1.0
 10
24.456
 20
10.9209
 30
0.0
 10
24.3169
 20
11.0946
 30
0.0
 10
24.1515
 20
11.2434
 30
0.0
 10
23.9641
 20
11.3633
 30
0.0
  0
SPLINE
  5
134
100
AcDbEntity
  8
0
100
AcDbSpline
210
0.0
220
0.0
230
1.0
 62
     0
 70
     0
 71
     3
 72
     8
 73
4
 40
0.0
 40
0.0
 40
0.0
 40
0.0
 40
1.0
 40
1.0
 40
1.0
 40
1.0
 10
23.9641
 20
11.3633
 30
0.0
 10
23.1359
 20
11.8883
 30
0.0
 10
22.0596
 20
12.3403
 30
0.0
 10
21.288
 20
12.7386
 30
0.0
  0
SPLINE
  5
135
100
AcDbEntity
  8
0
100
AcDbSpline
210
0.0
220
0.0
230
1.0
 62
     0
 70
     0
 71
     3
 72
     8
 73
4
 40
0.0
 40
0.0
 40
0.0
 40
0.0
 40
1.0
 40
1.0
 40
1.0
 40
1.0
 10
21.288
 20
12.7386
 30
0.0
 10
20.9379
 20
12.9205
 30
0.0
 10
20.5411
 20
12.9949
 30
0.0
 10
20.1483
 20
12.9508
 30
0.0
  0
SPLINE
  5
136
100
AcDbEntity
  8
0
100
AcDbSpline
210
0.0
220
0.0
230
1.0
 62
     0
 70
     0
 71
     3
 72
     8
 73
4
 40
0.0
 40
0.0
 40
0.0
 40
0.0
 40
1.0
 40
1.0
 40
1.0
 40
1.0
 10
20.1483
 20
12.9508
 30
0.0
 10
19.6591
 20
12.8971
 30
0.0
 10
19.6136
 20
12.948
 30
0.0
 10
19.4923
 20
13.0169
 30
0.0
  0
SPLINE
  5
137
100
AcDbEntity
  8
0
100
AcDbSpline
210
0.0
220
0.0
230
1.0
 62
     0
 70
     0
 71
     3
 72
     8
 73
4
 40
0.0
 40
0.0
 40
0.0
 40
0.0
 40
1.0
 40
1.0
 40
1.0
 40
1.0
 10
19.4923
 20
13.0169
 30
0.0
 10
19.4441
 20
13.0445
 30
0.0
 10
19.2746
 20
13.2223
 30
0.0
 10
19.185
 20
13.2994
 30
0.0
  0
SPLINE
  5
138
100
AcDbEntity
  8
0
100
AcDbSpline
210
0.0
220
0.0
230
1.0
 62
     0
 70
     0
 71
     3
 72
     8
 73
4
 40
0.0
 40
0.0
 40
0.0
 40
0.0
 40
1.0
 40
1.0
 40
1.0
 40
1.0
 10
19.185
 20
13.2994
 30
0.0
 10
18.9632
 20
15.3982
 30
0.0
 10
18.2507
 20
16.9692
 30
0.0
 10
17.931
 20
18.3389
 30
0.0
  0
SPLINE
  5
139
100
AcDbEntity
  8
0
100
AcDbSpline
210
0.0
220
0.0
230
1.0
 62
     0
 70
     0
 71
     3
 72
     8
 73
4
 40
0.0
 40
0.0
 40
0.0
 40
0.0
 40
1.0
 40
1.0
 40
1.0
 40
1.0
 10
17.931
 20
18.3389
 30
0.0
 10
17.909
 20
18.4299
 30
0.0
 10
17.8814
 20
18.5195
 30
0.0
 10
17.8484
 20
18.6063
 30
0.0
  0
SPLINE
  5
13a
100
AcDbEntity
  8
0
100
AcDbSpline
210
0.0
220
0.0
230
1.0
 62
     0
 70
     0
 71
     3
 72
     8
 73
4
 40
0.0
 40
0.0
 40
0.0
 40
0.0
 40
1.0
 40
1.0
 40
1.0
 40
1.0
 10
17.8484
 20
18.6063
 30
0.0
 10
17.5259
 20
19.4414
 30
0.0
 10
17.1745
 20
20.1276
 30
0.0
 10
17.0243
 20
20.6706
 30
0.0
  0
SPLINE
  5
13b
100
AcDbEntity
  8
0
100
AcDbSpline
210
0.0
220
0.0
230
1.0
 62
     0
 70
     0
 71
     3
 72
     8
 73
4
 40
0.0
 40
0.0
 40
0.0
 40
0.0
 40
1.0
 40
1.0
 40
1.0
 40
1.0
 10
17.0243
 20
20.6706
 30
0.0
 10
16.8782
 20
21.197
 30
0.0
 10
16.8824
 20
21.4313
 30
0.0
 10
17.0339
 20
21.7372
 30
0.0
  0
SPLINE
  5
13c
100
AcDbEntity
  8
0
100
AcDbSpline
210
0.0
220
0.0
230
1.0
 62
     0
 70
     0
 71
     3
 72
     8
 73
4
 40
0.0
 40
0.0
 40
0.0
 40
0.0
 40
1.0
 40
1.0
 40
1.0
 40
1.0
 10
17.0339
 20
21.7372
 30
0.0
 10
17.0463
 20
21.7468
 30
0.0
 10
17.0642
 20
21.7647
 30
0.0
 10
17.1524
 20
21.813
 30
0.0
  0
SPLINE
  5
13d
100
AcDbEntity
  8
0
100
AcDbSpline
210
0.0
220
0.0
230
1.0
 62
     0
 70
     0
 71
     3
 72
     8
 73
4
 40
0.0
 40
0.0
 40
0.0
 40
0.0
 40
1.0
 40
1.0
 40
1.0
 40
1.0
 10
17.1524
 20
21.813
 30
0.0
 10
17.3702
 20
21.9342
 30
0.0
 10
17.7519
 20
22.0624
 30
0.0
 10
18.3031
 20
22.3931
 30
0.0
  0
LINE
  5
13e
100
AcDbEntity
  8
0
100
AcDbLine
 62
     0
 10
18.3031
 20
22.3931
 30
0.0
 11
18.2714
 21
22.3738
 31
0.0
  0
SPLINE
  5
13f
100
AcDbEntity
  8
0
100
AcDbSpline
210
0.0
220
0.0
230
1.0
 62
     0
 70
     0
 71
     3
 72
     8
 73
4
 40
0.0
 40
0.0
 40
0.0
 40
0.0
 40
1.0
 40
1.0
 40
1.0
 40
1.0
 10
18.2714
 20
22.3738
 30
0.0
 10
19.1354
 20
22.8685
 30
0.0
 10
19.954
 20
23.1386
 30
0.0
 10
20.9048
 20
24.0027
 30
0.0
  0
SPLINE
  5
140
100
AcDbEntity
  8
0
100
AcDbSpline
210
0.0
220
0.0
230
1.0
 62
     0
 70
     0
 71
     3
 72
     8
 73
4
 40
0.0
 40
0.0
 40
0.0
 40
0.0
 40
1.0
 40
1.0
 40
1.0
 40
1.0
 10
20.9048
 20
24.0027
 30
0.0
 10
21.7331
 20
24.649
 30
0.0
 10
22.1768
 20
25.1313
 30
0.0
 10
22.7156
 20
25.7142
 30
0.0
  0
SPLINE
  5
141
100
AcDbEntity
  8
0
100
AcDbSpline
210
0.0
220
0.0
230
1.0
 62
     0
 70
     0
 71
     3
 72
     8
 73
4
 40
0.0
 40
0.0
 40
0.0
 40
0.0
 40
1.0
 40
1.0
 40
1.0
 40
1.0
 10
22.7156
 20
25.7142
 30
0.0
 10
22.7335
 20
25.7349
 30
0.0
 10
22.7528
 20
25.7555
 30
0.0
 10
22.7707
 20
25.7776
 30
0.0
  0
SPLINE
  5
142
100
AcDbEntity
  8
0
100
AcDbSpline
210
0.0
220
0.0
230
1.0
 62
     0
 70
     0
 71
     3
 72
     8
 73
4
 40
0.0
 40
0.0
 40
0.0
 40
0.0
 40
1.0
 40
1.0
 40
1.0
 40
1.0
 10
22.7707
 20
25.7776
 30
0.0
 10
22.994
 20
26.0408
 30
0.0
 10
23.468
 20
26.4708
 30
0.0
 10
23.8359
 20
26.7491
 30
0.0
  0
SPLINE
  5
143
100
AcDbEntity
  8
0
100
AcDbSpline
210
0.0
220
0.0
230
1.0
 62
     0
 70
     0
 71
     3
 72
     8
 73
4
 40
0.0
 40
0.0
 40
0.0
 40
0.0
 40
1.0
 40
1.0
 40
1.0
 40
1.0
 10
23.8359
 20
26.7491
 30
0.0
 10
23.8511
 20
26.7615
 30
0.0
 10
23.8676
 20
26.7739
 30
0.0
 10
23.8828
 20
26.7863
 30
0.0
  0
SPLINE
  5
144
100
AcDbEntity
  8
0
100
AcDbSpline
210
0.0
220
0.0
230
1.0
 62
     0
 70
     0
 71
     3
 72
     8
 73
4
 40
0.0
 40
0.0
 40
0.0
 40
0.0
 40
1.0
 40
1.0
 40
1.0
 40
1.0
 10
23.8828
 20
26.7863
 30
0.0
 10
24.186
 20
27.0302
 30
0.0
 10
24.3292
 20
27.2066
 30
0.0
 10
24.4271
 20
27.3582
 30
0.0
  0
SPLINE
  5
145
100
AcDbEntity
  8
0
100
AcDbSpline
210
0.0
220
0.0
230
1.0
 62
     0
 70
     0
 71
     3
 72
     8
 73
4
 40
0.0
 40
0.0
 40
0.0
 40
0.0
 40
1.0
 40
1.0
 40
1.0
 40
1.0
 10
24.4271
 20
27.3582
 30
0.0
 10
24.744
 20
26.9227
 30
0.0
 10
25.1037
 20
26.519
 30
0.0
 10
25.502
 20
26.151
 30
0.0
  0
LINE
  5
146
100
AcDbEntity
  8
0
100
AcDbLine
 62
     0
 10
25.502
 20
26.151
 30
0.0
 11
25.3917
 21
26.2599
 31
0.0
  0
SPLINE
  5
147
100
AcDbEntity
  8
0
100
AcDbSpline
210
0.0
220
0.0
230
1.0
 62
     0
 70
     0
 71
     3
 72
     8
 73
4
 40
0.0
 40
0.0
 40
0.0
 40
0.0
 40
1.0
 40
1.0
 40
1.0
 40
1.0
 10
25.3917
 20
26.2599
 30
0.0
 10
26.0931
 20
25.5047
 30
0.0
 10
26.3536
 20
25.2567
 30
0.0
 10
26.7312
 20
24.8019
 30
0.0
  0
SPLINE
  5
148
100
AcDbEntity
  8
0
100
AcDbSpline
210
0.0
220
0.0
230
1.0
 62
     0
 70
     0
 71
     3
 72
     8
 73
4
 40
0.0
 40
0.0
 40
0.0
 40
0.0
 40
1.0
 40
1.0
 40
1.0
 40
1.0
 10
26.7312
 20
24.8019
 30
0.0
 10
27.1446
 20
24.2673
 30
0.0
 10
27.7468
 20
23.0959
 30
0.0
 10
29.2654
 20
22.5089
 30
0.0
  0
LINE
  5
149
100
AcDbEntity
  8
0
100
AcDbLine
 62
     0
 10
29.2654
 20
22.5089
 30
0.0
 11
29.2503
 21
22.5144
 31
0.0
  0
SPLINE
  5
14a
100
AcDbEntity
  8
0
100
AcDbSpline
210
0.0
220
0.0
230
1.0
 62
     0
 70
     0
 71
     3
 72
     8
 73
4
 40
0.0
 40
0.0
 40
0.0
 40
0.0
 40
1.0
 40
1.0
 40
1.0
 40
1.0
 10
29.2503
 20
22.5144
 30
0.0
 10
29.366
 20
22.4689
 30
0.0
 10
29.2943
 20
22.5144
 30
0.0
 10
29.377
 20
22.4303
 30
0.0
  0
SPLINE
  5
14b
100
AcDbEntity
  8
0
100
AcDbSpline
210
0.0
220
0.0
230
1.0
 62
     0
 70
     0
 71
     3
 72
     8
 73
4
 40
0.0
 40
0.0
 40
0.0
 40
0.0
 40
1.0
 40
1.0
 40
1.0
 40
1.0
 10
29.377
 20
22.4303
 30
0.0
 10
29.4569
 20
22.3477
 30
0.0
 10
29.6747
 20
22.0541
 30
0.0
 10
30.1019
 20
21.6958
 30
0.0
  0
SPLINE
  5
14c
100
AcDbEntity
  8
0
100
AcDbSpline
210
0.0
220
0.0
230
1.0
 62
     0
 70
     0
 71
     3
 72
     8
 73
4
 40
0.0
 40
0.0
 40
0.0
 40
0.0
 40
1.0
 40
1.0
 40
1.0
 40
1.0
 10
30.1019
 20
21.6958
 30
0.0
 10
30.5525
 20
21.2356
 30
0.0
 10
31.0155
 20
20.8552
 30
0.0
 10
31.4937
 20
20.5204
 30
0.0
  0
SPLINE
  5
14d
100
AcDbEntity
  8
0
100
AcDbSpline
210
0.0
220
0.0
230
1.0
 62
     0
 70
     0
 71
     3
 72
     8
 73
4
 40
0.0
 40
0.0
 40
0.0
 40
0.0
 40
1.0
 40
1.0
 40
1.0
 40
1.0
 10
31.4937
 20
20.5204
 30
0.0
 10
31.5777
 20
20.4294
 30
0.0
 10
31.6273
 20
20.4032
 30
0.0
 10
31.6618
 20
20.3729
 30
0.0
  0
SPLINE
  5
14e
100
AcDbEntity
  8
0
100
AcDbSpline
210
0.0
220
0.0
230
1.0
 62
     0
 70
     0
 71
     3
 72
     8
 73
4
 40
0.0
 40
0.0
 40
0.0
 40
0.0
 40
1.0
 40
1.0
 40
1.0
 40
1.0
 10
31.6618
 20
20.3729
 30
0.0
 10
31.7776
 20
20.2751
 30
0.0
 10
31.8079
 20
20.2585
 30
0.0
 10
31.8534
 20
20.2268
 30
0.0
  0
SPLINE
  5
14f
100
AcDbEntity
  8
0
100
AcDbSpline
210
0.0
220
0.0
230
1.0
 62
     0
 70
     0
 71
     3
 72
     8
 73
4
 40
0.0
 40
0.0
 40
0.0
 40
0.0
 40
1.0
 40
1.0
 40
1.0
 40
1.0
 10
31.8534
 20
20.2268
 30
0.0
 10
32.0311
 20
20.1001
 30
0.0
 10
32.2227
 20
19.976
 30
0.0
 10
32.4749
 20
19.8093
 30
0.0
  0
SPLINE
  5
150
100
AcDbEntity
  8
0
100
AcDbSpline
210
0.0
220
0.0
230
1.0
 62
     0
 70
     0
 71
     3
 72
     8
 73
4
 40
0.0
 40
0.0
 40
0.0
 40
0.0
 40
1.0
 40
1.0
 40
1.0
 40
1.0
 10
32.4749
 20
19.8093
 30
0.0
 10
32.982
 20
19.4744
 30
0.0
 10
33.693
 20
18.9949
 30
0.0
 10
33.8653
 20
18.8626
 30
0.0
  0
SPLINE
  5
151
100
AcDbEntity
  8
0
100
AcDbSpline
210
0.0
220
0.0
230
1.0
 62
     0
 70
     0
 71
     3
 72
     8
 73
4
 40
0.0
 40
0.0
 40
0.0
 40
0.0
 40
1.0
 40
1.0
 40
1.0
 40
1.0
 10
33.8653
 20
18.8626
 30
0.0
 10
34.0637
 20
18.7082
 30
0.0
 10
34.2897
 20
18.5939
 30
0.0
 10
34.5295
 20
18.5236
 30
0.0
  0
SPLINE
  5
152
100
AcDbEntity
  8
0
100
AcDbSpline
210
0.0
220
0.0
230
1.0
 62
     0
 70
     0
 71
     3
 72
     8
 73
4
 40
0.0
 40
0.0
 40
0.0
 40
0.0
 40
1.0
 40
1.0
 40
1.0
 40
1.0
 10
34.5295
 20
18.5236
 30
0.0
 10
35.1662
 20
18.3389
 30
0.0
 10
35.8923
 20
17.88
 30
0.0
 10
36.9591
 20
17.3922
 30
0.0
  0
SPLINE
  5
153
100
AcDbEntity
  8
0
100
AcDbSpline
210
0.0
220
0.0
230
1.0
 62
     0
 70
     0
 71
     3
 72
     8
 73
4
 40
0.0
 40
0.0
 40
0.0
 40
0.0
 40
1.0
 40
1.0
 40
1.0
 40
1.0
 10
36.9591
 20
17.3922
 30
0.0
 10
37.925
 20
16.8754
 30
0.0
 10
39.1086
 20
16.2677
 30
0.0
 10
40.6054
 20
15.9646
 30
0.0
  0
SPLINE
  5
154
100
AcDbEntity
  8
0
100
AcDbSpline
210
0.0
220
0.0
230
1.0
 62
     0
 70
     0
 71
     3
 72
     8
 73
4
 40
0.0
 40
0.0
 40
0.0
 40
0.0
 40
1.0
 40
1.0
 40
1.0
 40
1.0
 10
40.6054
 20
15.9646
 30
0.0
 10
41.7587
 20
15.3748
 30
0.0
 10
43.0265
 20
14.909
 30
0.0
 10
44.4045
 20
14.6044
 30
0.0
  0
SPLINE
  5
155
100
AcDbEntity
  8
0
100
AcDbSpline
210
0.0
220
0.0
230
1.0
 62
     0
 70
     0
 71
     3
 72
     8
 73
4
 40
0.0
 40
0.0
 40
0.0
 40
0.0
 40
1.0
 40
1.0
 40
1.0
 40
1.0
 10
44.4045
 20
14.6044
 30
0.0
 10
45.46
 20
14.22
 30
0.0
 10
46.6397
 20
13.9719
 30
0.0
 10
47.6663
 20
13.7445
 30
0.0
  0
SPLINE
  5
156
100
AcDbEntity
  8
0
100
AcDbSpline
210
0.0
220
0.0
230
1.0
 62
     0
 70
     0
 71
     3
 72
     8
 73
4
 40
0.0
 40
0.0
 40
0.0
 40
0.0
 40
1.0
 40
1.0
 40
1.0
 40
1.0
 10
47.6663
 20
13.7445
 30
0.0
 10
48.6914
 20
13.5172
 30
0.0
 10
49.7844
 20
13.1231
 30
0.0
 10
49.451
 20
13.3064
 30
0.0
  0
SPLINE
  5
157
100
AcDbEntity
  8
0
100
AcDbSpline
210
0.0
220
0.0
230
1.0
 62
     0
 70
     0
 71
     3
 72
     8
 73
4
 40
0.0
 40
0.0
 40
0.0
 40
0.0
 40
1.0
 40
1.0
 40
1.0
 40
1.0
 10
49.451
 20
13.3064
 30
0.0
 10
49.7554
 20
13.1396
 30
0.0
 10
50.0973
 20
13.0542
 30
0.0
 10
50.443
 20
13.0583
 30
0.0
  0
SPLINE
  5
158
100
AcDbEntity
  8
0
100
AcDbSpline
210
0.0
220
0.0
230
1.0
 62
     0
 70
     0
 71
     3
 72
     8
 73
4
 40
0.0
 40
0.0
 40
0.0
 40
0.0
 40
1.0
 40
1.0
 40
1.0
 40
1.0
 10
50.443
 20
13.0583
 30
0.0
 10
50.1964
 20
13.0555
 30
0.0
 10
51.4544
 20
12.8681
 30
0.0
 10
52.5254
 20
12.5815
 30
0.0
  0
SPLINE
  5
159
100
AcDbEntity
  8
0
100
AcDbSpline
210
0.0
220
0.0
230
1.0
 62
     0
 70
     0
 71
     3
 72
     8
 73
4
 40
0.0
 40
0.0
 40
0.0
 40
0.0
 40
1.0
 40
1.0
 40
1.0
 40
1.0
 10
52.5254
 20
12.5815
 30
0.0
 10
53.4913
 20
12.3238
 30
0.0
 10
54.4544
 20
12.0592
 30
0.0
 10
55.3254
 20
11.8897
 30
0.0
  0
SPLINE
  5
15a
100
AcDbEntity
  8
0
100
AcDbSpline
210
0.0
220
0.0
230
1.0
 62
     0
 70
     0
 71
     3
 72
     8
 73
4
 40
0.0
 40
0.0
 40
0.0
 40
0.0
 40
1.0
 40
1.0
 40
1.0
 40
1.0
 10
55.3254
 20
11.8897
 30
0.0
 10
56.4967
 20
11.3605
 30
0.0
 10
57.628
 20
11.0161
 30
0.0
 10
58.5075
 20
10.6577
 30
0.0
  0
SPLINE
  5
15b
100
AcDbEntity
  8
0
100
AcDbSpline
210
0.0
220
0.0
230
1.0
 62
     0
 70
     0
 71
     3
 72
     8
 73
4
 40
0.0
 40
0.0
 40
0.0
 40
0.0
 40
1.0
 40
1.0
 40
1.0
 40
1.0
 10
58.5075
 20
10.6577
 30
0.0
 10
59.4953
 20
10.1506
 30
0.0
 10
60.2576
 20
9.77858
 30
0.0
 10
60.7646
 20
9.42993
 30
0.0
  0
SPLINE
  5
15c
100
AcDbEntity
  8
0
100
AcDbSpline
210
0.0
220
0.0
230
1.0
 62
     0
 70
     0
 71
     3
 72
     8
 73
4
 40
0.0
 40
0.0
 40
0.0
 40
0.0
 40
1.0
 40
1.0
 40
1.0
 40
1.0
 10
60.7646
 20
9.42993
 30
0.0
 10
60.8926
 20
9.34448
 30
0.0
 10
61.0291
 20
9.27283
 30
0.0
 10
61.1738
 20
9.21907
 30
0.0
  0
SPLINE
  5
15d
100
AcDbEntity
  8
0
100
AcDbSpline
210
0.0
220
0.0
230
1.0
 62
     0
 70
     0
 71
     3
 72
     8
 73
4
 40
0.0
 40
0.0
 40
0.0
 40
0.0
 40
1.0
 40
1.0
 40
1.0
 40
1.0
 10
61.1738
 20
9.21907
 30
0.0
 10
61.2553
 20
9.16672
 30
0.0
 10
61.269
 20
9.1598
 30
0.0
 10
61.3668
 20
9.09645
 30
0.0
  0
SPLINE
  5
15e
100
AcDbEntity
  8
0
100
AcDbSpline
210
0.0
220
0.0
230
1.0
 62
     0
 70
     0
 71
     3
 72
     8
 73
4
 40
0.0
 40
0.0
 40
0.0
 40
0.0
 40
1.0
 40
1.0
 40
1.0
 40
1.0
 10
61.3668
 20
9.09645
 30
0.0
 10
61.783
 20
8.82357
 30
0.0
 10
62.2582
 20
8.49147
 30
0.0
 10
62.5658
 20
8.26961
 30
0.0
  0
SPLINE
  5
15f
100
AcDbEntity
  8
0
100
AcDbSpline
210
0.0
220
0.0
230
1.0
 62
     0
 70
     0
 71
     3
 72
     8
 73
4
 40
0.0
 40
0.0
 40
0.0
 40
0.0
 40
1.0
 40
1.0
 40
1.0
 40
1.0
 10
62.5658
 20
8.26961
 30
0.0
 10
62.647
 20
8.19658
 30
0.0
 10
62.6773
 20
8.17453
 30
0.0
 10
62.7063
 20
8.15248
 30
0.0
  0
SPLINE
  5
160
100
AcDbEntity
  8
0
100
AcDbSpline
210
0.0
220
0.0
230
1.0
 62
     0
 70
     0
 71
     3
 72
     8
 73
4
 40
0.0
 40
0.0
 40
0.0
 40
0.0
 40
1.0
 40
1.0
 40
1.0
 40
1.0
 10
62.7063
 20
8.15248
 30
0.0
 10
62.8385
 20
8.04912
 30
0.0
 10
62.9751
 20
7.94851
 30
0.0
 10
63.161
 20
7.80521
 30
0.0
  0
SPLINE
  5
161
100
AcDbEntity
  8
0
100
AcDbSpline
210
0.0
220
0.0
230
1.0
 62
     0
 70
     0
 71
     3
 72
     8
 73
4
 40
0.0
 40
0.0
 40
0.0
 40
0.0
 40
1.0
 40
1.0
 40
1.0
 40
1.0
 10
63.161
 20
7.80521
 30
0.0
 10
63.5303
 20
7.51858
 30
0.0
 10
64.0662
 20
7.01559
 30
0.0
 10
64.0362
 20
7.0528
 30
0.0
  0
SPLINE
  5
162
100
AcDbEntity
  8
0
100
AcDbSpline
210
0.0
220
0.0
230
1.0
 62
     0
 70
     0
 71
     3
 72
     8
 73
4
 40
0.0
 40
0.0
 40
0.0
 40
0.0
 40
1.0
 40
1.0
 40
1.0
 40
1.0
 10
64.0362
 20
7.0528
 30
0.0
 10
64.2303
 20
6.81164
 30
0.0
 10
64.4772
 20
6.61733
 30
0.0
 10
64.758
 20
6.4878
 30
0.0
  0
SPLINE
  5
163
100
AcDbEntity
  8
0
100
AcDbSpline
210
0.0
220
0.0
230
1.0
 62
     0
 70
     0
 71
     3
 72
     8
 73
4
 40
0.0
 40
0.0
 40
0.0
 40
0.0
 40
1.0
 40
1.0
 40
1.0
 40
1.0
 10
64.758
 20
6.4878
 30
0.0
 10
65.6456
 20
6.07716
 30
0.0
 10
66.73
 20
5.67475
 30
0.0
 10
67.8215
 20
5.36332
 30
0.0
  0
SPLINE
  5
164
100
AcDbEntity
  8
0
100
AcDbSpline
210
0.0
220
0.0
230
1.0
 62
     0
 70
     0
 71
     3
 72
     8
 73
4
 40
0.0
 40
0.0
 40
0.0
 40
0.0
 40
1.0
 40
1.0
 40
1.0
 40
1.0
 10
67.8215
 20
5.36332
 30
0.0
 10
68.749
 20
5.10011
 30
0.0
 10
69.6267
 20
4.91822
 30
0.0
 10
70.575
 20
4.90996
 30
0.0
  0
SPLINE
  5
165
100
AcDbEntity
  8
0
100
AcDbSpline
210
0.0
220
0.0
230
1.0
 62
     0
 70
     0
 71
     3
 72
     8
 73
4
 40
0.0
 40
0.0
 40
0.0
 40
0.0
 40
1.0
 40
1.0
 40
1.0
 40
1.0
 10
70.575
 20
4.90996
 30
0.0
 10
71.4816
 20
4.63709
 30
0.0
 10
72.2933
 20
4.55302
 30
0.0
 10
72.8818
 20
4.45107
 30
0.0
  0
SPLINE
  5
166
100
AcDbEntity
  8
0
100
AcDbSpline
210
0.0
220
0.0
230
1.0
 62
     0
 70
     0
 71
     3
 72
     8
 73
4
 40
0.0
 40
0.0
 40
0.0
 40
0.0
 40
1.0
 40
1.0
 40
1.0
 40
1.0
 10
72.8818
 20
4.45107
 30
0.0
 10
73.448
 20
4.35183
 30
0.0
 10
73.5902
 20
4.25401
 30
0.0
 10
73.6244
 20
4.2485
 30
0.0
  0
SPLINE
  5
167
100
AcDbEntity
  8
0
100
AcDbSpline
210
0.0
220
0.0
230
1.0
 62
     0
 70
     0
 71
     3
 72
     8
 73
4
 40
0.0
 40
0.0
 40
0.0
 40
0.0
 40
1.0
 40
1.0
 40
1.0
 40
1.0
 10
73.6244
 20
4.2485
 30
0.0
 10
73.6452
 20
4.12584
 30
0.0
 10
73.6505
 20
4.08174
 30
0.0
 10
73.6879
 20
3.87505
 30
0.0
  0
SPLINE
  5
168
100
AcDbEntity
  8
0
100
AcDbSpline
210
0.0
220
0.0
230
1.0
 62
     0
 70
     0
 71
     3
 72
     8
 73
4
 40
0.0
 40
0.0
 40
0.0
 40
0.0
 40
1.0
 40
1.0
 40
1.0
 40
1.0
 10
73.6879
 20
3.87505
 30
0.0
 10
73.8258
 20
3.1061
 30
0.0
 10
74.217
 20
1.75975
 30
0.0
 10
75.3854
 20
0.802019
 30
0.0
  0
SPLINE
  5
169
100
AcDbEntity
  8
0
100
AcDbSpline
210
0.0
220
0.0
230
1.0
 62
     0
 70
     0
 71
     3
 72
     8
 73
4
 40
0.0
 40
0.0
 40
0.0
 40
0.0
 40
1.0
 40
1.0
 40
1.0
 40
1.0
 10
75.3854
 20
0.802019
 30
0.0
 10
75.6927
 20
0.551215
 30
0.0
 10
76.0677
 20
0.395496
 30
0.0
 10
76.4632
 20
0.358288
 30
0.0
  0
SPLINE
  5
16a
100
AcDbEntity
  8
0
100
AcDbSpline
210
0.0
220
0.0
230
1.0
 62
     0
 70
     0
 71
     3
 72
     8
 73
4
 40
0.0
 40
0.0
 40
0.0
 40
0.0
 40
1.0
 40
1.0
 40
1.0
 40
1.0
 10
76.4632
 20
0.358288
 30
0.0
 10
80.5159
 20
-0.0303168
 30
0.0
 10
84.6695
 20
0.259071
 30
0.0
 10
88.488
 20
0.176389
 30
0.0
  0
LINE
  5
16b
100
AcDbEntity
  8
0
100
AcDbLine
 62
     0
 10
88.488
 20
0.176389
 30
0.0
 11
88.3694
 21
0.183279
 31
0.0
  0
SPLINE
  5
16c
100
AcDbEntity
  8
0
100
AcDbSpline
210
0.0
220
0.0
230
1.0
 62
     0
 70
     0
 71
     3
 72
     8
 73
4
 40
0.0
 40
0.0
 40
0.0
 40
0.0
 40
1.0
 40
1.0
 40
1.0
 40
1.0
 10
88.3694
 20
0.183279
 30
0.0
 10
89.5544
 20
0.0868165
 30
0.0
 10
90.6858
 20
0.530546
 30
0.0
 10
91.4368
 20
1.16444
 30
0.0
  0
SPLINE
  5
16d
100
AcDbEntity
  8
0
100
AcDbSpline
210
0.0
220
0.0
230
1.0
 62
     0
 70
     0
 71
     3
 72
     8
 73
4
 40
0.0
 40
0.0
 40
0.0
 40
0.0
 40
1.0
 40
1.0
 40
1.0
 40
1.0
 10
91.4368
 20
1.16444
 30
0.0
 10
92.0778
 20
1.70601
 30
0.0
 10
92.4638
 20
2.34266
 30
0.0
 10
92.7446
 20
2.97243
 30
0.0
  0
SPLINE
  5
16e
100
AcDbEntity
  8
0
100
AcDbSpline
210
0.0
220
0.0
230
1.0
 62
     0
 70
     0
 71
     3
 72
     8
 73
4
 40
0.0
 40
0.0
 40
0.0
 40
0.0
 40
1.0
 40
1.0
 40
1.0
 40
1.0
 10
92.7446
 20
2.97243
 30
0.0
 10
93.3457
 20
3.80337
 30
0.0
 10
93.6184
 20
4.76388
 30
0.0
 10
93.6018
 20
5.81808
 30
0.0
  0
SPLINE
  5
16f
100
AcDbEntity
  8
0
100
AcDbSpline
210
0.0
220
0.0
230
1.0
 62
     0
 70
     0
 71
     3
 72
     8
 73
4
 40
0.0
 40
0.0
 40
0.0
 40
0.0
 40
1.0
 40
1.0
 40
1.0
 40
1.0
 10
93.6018
 20
5.81808
 30
0.0
 10
93.5852
 20
6.88742
 30
0.0
 10
93.1884
 20
8.06979
 30
0.0
 10
92.3424
 20
9.03855
 30
0.0
  0
SPLINE
  5
170
100
AcDbEntity
  8
0
100
AcDbSpline
210
0.0
220
0.0
230
1.0
 62
     0
 70
     0
 71
     3
 72
     8
 73
4
 40
0.0
 40
0.0
 40
0.0
 40
0.0
 40
1.0
 40
1.0
 40
1.0
 40
1.0
 10
92.3424
 20
9.03855
 30
0.0
 10
91.7635
 20
10.1299
 30
0.0
 10
90.7687
 20
10.8603
 30
0.0
 10
89.7283
 20
11.22
 30
0.0
  0
SPLINE
  5
171
100
AcDbEntity
  8
0
100
AcDbSpline
210
0.0
220
0.0
230
1.0
 62
     0
 70
     0
 71
     3
 72
     8
 73
4
 40
0.0
 40
0.0
 40
0.0
 40
0.0
 40
1.0
 40
1.0
 40
1.0
 40
1.0
 10
89.7283
 20
11.22
 30
0.0
 10
87.6956
 20
12.7303
 30
0.0
 10
85.2039
 20
12.6573
 30
0.0
 10
83.0612
 20
12.5222
 30
0.0
  0
SPLINE
  5
172
100
AcDbEntity
  8
0
100
AcDbSpline
210
0.0
220
0.0
230
1.0
 62
     0
 70
     0
 71
     3
 72
     8
 73
4
 40
0.0
 40
0.0
 40
0.0
 40
0.0
 40
1.0
 40
1.0
 40
1.0
 40
1.0
 10
83.0612
 20
12.5222
 30
0.0
 10
82.962
 20
12.5154
 30
0.0
 10
82.8643
 20
12.5016
 30
0.0
 10
82.7663
 20
12.4809
 30
0.0
  0
SPLINE
  5
173
100
AcDbEntity
  8
0
100
AcDbSpline
210
0.0
220
0.0
230
1.0
 62
     0
 70
     0
 71
     3
 72
     8
 73
4
 40
0.0
 40
0.0
 40
0.0
 40
0.0
 40
1.0
 40
1.0
 40
1.0
 40
1.0
 10
82.7663
 20
12.4809
 30
0.0
 10
82.3419
 20
12.3886
 30
0.0
 10
82.4025
 20
12.4175
 30
0.0
 10
82.1545
 20
12.5484
 30
0.0
  0
SPLINE
  5
174
100
AcDbEntity
  8
0
100
AcDbSpline
210
0.0
220
0.0
230
1.0
 62
     0
 70
     0
 71
     3
 72
     8
 73
4
 40
0.0
 40
0.0
 40
0.0
 40
0.0
 40
1.0
 40
1.0
 40
1.0
 40
1.0
 10
82.1545
 20
12.5484
 30
0.0
 10
81.9051
 20
12.6793
 30
0.0
 10
81.4433
 20
13.09
 30
0.0
 10
80.5864
 20
13.4938
 30
0.0
  0
SPLINE
  5
175
100
AcDbEntity
  8
0
100
AcDbSpline
210
0.0
220
0.0
230
1.0
 62
     0
 70
     0
 71
     3
 72
     8
 73
4
 40
0.0
 40
0.0
 40
0.0
 40
0.0
 40
1.0
 40
1.0
 40
1.0
 40
1.0
 10
80.5864
 20
13.4938
 30
0.0
 10
80.5642
 20
13.5034
 30
0.0
 10
80.5423
 20
13.5144
 30
0.0
 10
80.5215
 20
13.5227
 30
0.0
  0
SPLINE
  5
176
100
AcDbEntity
  8
0
100
AcDbSpline
210
0.0
220
0.0
230
1.0
 62
     0
 70
     0
 71
     3
 72
     8
 73
4
 40
0.0
 40
0.0
 40
0.0
 40
0.0
 40
1.0
 40
1.0
 40
1.0
 40
1.0
 10
80.5215
 20
13.5227
 30
0.0
 10
80.2488
 20
13.6398
 30
0.0
 10
79.5803
 20
14.18
 30
0.0
 10
78.6571
 20
14.7602
 30
0.0
  0
LINE
  5
177
100
AcDbEntity
  8
0
100
AcDbLine
 62
     0
 10
78.6571
 20
14.7602
 30
0.0
 11
78.8596
 21
14.6155
 31
0.0
  0
SPLINE
  5
178
100
AcDbEntity
  8
0
100
AcDbSpline
210
0.0
220
0.0
230
1.0
 62
     0
 70
     0
 71
     3
 72
     8
 73
4
 40
0.0
 40
0.0
 40
0.0
 40
0.0
 40
1.0
 40
1.0
 40
1.0
 40
1.0
 10
78.8596
 20
14.6155
 30
0.0
 10
77.5741
 20
15.6683
 30
0.0
 10
76.375
 20
15.9039
 30
0.0
 10
75.916
 20
16.1906
 30
0.0
  0
SPLINE
  5
179
100
AcDbEntity
  8
0
100
AcDbSpline
210
0.0
220
0.0
230
1.0
 62
     0
 70
     0
 71
     3
 72
     8
 73
4
 40
0.0
 40
0.0
 40
0.0
 40
0.0
 40
1.0
 40
1.0
 40
1.0
 40
1.0
 10
75.916
 20
16.1906
 30
0.0
 10
75.6461
 20
16.3587
 30
0.0
 10
75.3389
 20
16.4607
 30
0.0
 10
75.0203
 20
16.4855
 30
0.0
  0
SPLINE
  5
17a
100
AcDbEntity
  8
0
100
AcDbSpline
210
0.0
220
0.0
230
1.0
 62
     0
 70
     0
 71
     3
 72
     8
 73
4
 40
0.0
 40
0.0
 40
0.0
 40
0.0
 40
1.0
 40
1.0
 40
1.0
 40
1.0
 10
75.0203
 20
16.4855
 30
0.0
 10
74.9667
 20
16.491
 30
0.0
 10
75.0866
 20
16.4703
 30
0.0
 10
74.2943
 20
17.2186
 30
0.0
  0
SPLINE
  5
17b
100
AcDbEntity
  8
0
100
AcDbSpline
210
0.0
220
0.0
230
1.0
 62
     0
 70
     0
 71
     3
 72
     8
 73
4
 40
0.0
 40
0.0
 40
0.0
 40
0.0
 40
1.0
 40
1.0
 40
1.0
 40
1.0
 10
74.2943
 20
17.2186
 30
0.0
 10
74.1743
 20
17.3302
 30
0.0
 10
74.0406
 20
17.428
 30
0.0
 10
73.8974
 20
17.5093
 30
0.0
  0
SPLINE
  5
17c
100
AcDbEntity
  8
0
100
AcDbSpline
210
0.0
220
0.0
230
1.0
 62
     0
 70
     0
 71
     3
 72
     8
 73
4
 40
0.0
 40
0.0
 40
0.0
 40
0.0
 40
1.0
 40
1.0
 40
1.0
 40
1.0
 10
73.8974
 20
17.5093
 30
0.0
 10
73.6177
 20
17.6651
 30
0.0
 10
73.2966
 20
18.113
 30
0.0
 10
72.9753
 20
18.7454
 30
0.0
  0
SPLINE
  5
17d
100
AcDbEntity
  8
0
100
AcDbSpline
210
0.0
220
0.0
230
1.0
 62
     0
 70
     0
 71
     3
 72
     8
 73
4
 40
0.0
 40
0.0
 40
0.0
 40
0.0
 40
1.0
 40
1.0
 40
1.0
 40
1.0
 10
72.9753
 20
18.7454
 30
0.0
 10
72.9615
 20
19.3463
 30
0.0
 10
73.1464
 20
19.6922
 30
0.0
 10
73.5461
 20
20.0629
 30
0.0
  0
SPLINE
  5
17e
100
AcDbEntity
  8
0
100
AcDbSpline
210
0.0
220
0.0
230
1.0
 62
     0
 70
     0
 71
     3
 72
     8
 73
4
 40
0.0
 40
0.0
 40
0.0
 40
0.0
 40
1.0
 40
1.0
 40
1.0
 40
1.0
 10
73.5461
 20
20.0629
 30
0.0
 10
73.7087
 20
20.1965
 30
0.0
 10
73.9126
 20
20.2737
 30
0.0
 10
74.5162
 20
20.2806
 30
0.0
  0
SPLINE
  5
17f
100
AcDbEntity
  8
0
100
AcDbSpline
210
0.0
220
0.0
230
1.0
 62
     0
 70
     0
 71
     3
 72
     8
 73
4
 40
0.0
 40
0.0
 40
0.0
 40
0.0
 40
1.0
 40
1.0
 40
1.0
 40
1.0
 10
74.5162
 20
20.2806
 30
0.0
 10
75.1198
 20
20.2875
 30
0.0
 10
76.0084
 20
20.1731
 30
0.0
 10
77.0336
 20
20.14
 30
0.0
  0
SPLINE
  5
180
100
AcDbEntity
  8
0
100
AcDbSpline
210
0.0
220
0.0
230
1.0
 62
     0
 70
     0
 71
     3
 72
     8
 73
4
 40
0.0
 40
0.0
 40
0.0
 40
0.0
 40
1.0
 40
1.0
 40
1.0
 40
1.0
 10
77.0336
 20
20.14
 30
0.0
 10
78.5869
 20
20.027
 30
0.0
 10
79.8449
 20
20.4349
 30
0.0
 10
80.7653
 20
20.745
 30
0.0
  0
SPLINE
  5
181
100
AcDbEntity
  8
0
100
AcDbSpline
210
0.0
220
0.0
230
1.0
 62
     0
 70
     0
 71
     3
 72
     8
 73
4
 40
0.0
 40
0.0
 40
0.0
 40
0.0
 40
1.0
 40
1.0
 40
1.0
 40
1.0
 10
80.7653
 20
20.745
 30
0.0
 10
81.6875
 20
21.055
 30
0.0
 10
82.2854
 20
21.259
 30
0.0
 10
83.0516
 20
21.2466
 30
0.0
  0
SPLINE
  5
182
100
AcDbEntity
  8
0
100
AcDbSpline
210
0.0
220
0.0
230
1.0
 62
     0
 70
     0
 71
     3
 72
     8
 73
4
 40
0.0
 40
0.0
 40
0.0
 40
0.0
 40
1.0
 40
1.0
 40
1.0
 40
1.0
 10
83.0516
 20
21.2466
 30
0.0
 10
83.1398
 20
21.2452
 30
0.0
 10
83.228
 20
21.2494
 30
0.0
 10
83.3162
 20
21.259
 30
0.0
  0
SPLINE
  5
183
100
AcDbEntity
  8
0
100
AcDbSpline
210
0.0
220
0.0
230
1.0
 62
     0
 70
     0
 71
     3
 72
     8
 73
4
 40
0.0
 40
0.0
 40
0.0
 40
0.0
 40
1.0
 40
1.0
 40
1.0
 40
1.0
 10
83.3162
 20
21.259
 30
0.0
 10
84.3139
 20
21.3761
 30
0.0
 10
85.127
 20
21.8681
 30
0.0
 10
85.6174
 20
22.2622
 30
0.0
  0
SPLINE
  5
184
100
AcDbEntity
  8
0
100
AcDbSpline
210
0.0
220
0.0
230
1.0
 62
     0
 70
     0
 71
     3
 72
     8
 73
4
 40
0.0
 40
0.0
 40
0.0
 40
0.0
 40
1.0
 40
1.0
 40
1.0
 40
1.0
 10
85.6174
 20
22.2622
 30
0.0
 10
86.1067
 20
22.655
 30
0.0
 10
86.3685
 20
22.9126
 30
0.0
 10
86.4651
 20
22.976
 30
0.0
  0
LINE
  5
185
100
AcDbEntity
  8
0
100
AcDbLine
 62
     0
 10
86.4651
 20
22.976
 30
0.0
 11
86.2997
 21
22.8796
 31
0.0
  0
SPLINE
  5
186
100
AcDbEntity
  8
0
100
AcDbSpline
210
0.0
220
0.0
230
1.0
 62
     0
 70
     0
 71
     3
 72
     8
 73
4
 40
0.0
 40
0.0
 40
0.0
 40
0.0
 40
1.0
 40
1.0
 40
1.0
 40
1.0
 10
86.2997
 20
22.8796
 30
0.0
 10
87.1456
 20
23.315
 30
0.0
 10
88.1352
 20
23.96
 30
0.0
 10
88.7635
 20
25.0596
 30
0.0
  0
SPLINE
  5
187
100
AcDbEntity
  8
0
100
AcDbSpline
210
0.0
220
0.0
230
1.0
 62
     0
 70
     0
 71
     3
 72
     8
 73
4
 40
0.0
 40
0.0
 40
0.0
 40
0.0
 40
1.0
 40
1.0
 40
1.0
 40
1.0
 10
88.7635
 20
25.0596
 30
0.0
 10
89.487
 20
26.2585
 30
0.0
 10
89.7738
 20
27.5801
 30
0.0
 10
89.5685
 20
29.1028
 30
0.0
  0
SPLINE
  5
188
100
AcDbEntity
  8
0
100
AcDbSpline
210
0.0
220
0.0
230
1.0
 62
     0
 70
     0
 71
     3
 72
     8
 73
4
 40
0.0
 40
0.0
 40
0.0
 40
0.0
 40
1.0
 40
1.0
 40
1.0
 40
1.0
 10
89.5685
 20
29.1028
 30
0.0
 10
89.4652
 20
29.8717
 30
0.0
 10
89.1921
 20
30.7564
 30
0.0
 10
88.4315
 20
31.4744
 30
0.0
  0
SPLINE
  5
189
100
AcDbEntity
  8
0
100
AcDbSpline
210
0.0
220
0.0
230
1.0
 62
     0
 70
     0
 71
     3
 72
     8
 73
4
 40
0.0
 40
0.0
 40
0.0
 40
0.0
 40
1.0
 40
1.0
 40
1.0
 40
1.0
 10
88.4315
 20
31.4744
 30
0.0
 10
87.9422
 20
31.9346
 30
0.0
 10
87.2684
 20
32.2006
 30
0.0
 10
86.5738
 20
32.304
 30
0.0
  0
SPLINE
  5
18a
100
AcDbEntity
  8
0
100
AcDbSpline
210
0.0
220
0.0
230
1.0
 62
     0
 70
     0
 71
     3
 72
     8
 73
4
 40
0.0
 40
0.0
 40
0.0
 40
0.0
 40
1.0
 40
1.0
 40
1.0
 40
1.0
 10
86.5738
 20
32.304
 30
0.0
 10
86.3921
 20
32.4941
 30
0.0
 10
86.2471
 20
32.6485
 30
0.0
 10
86.1053
 20
32.8015
 30
0.0
  0
SPLINE
  5
18b
100
AcDbEntity
  8
0
100
AcDbSpline
210
0.0
220
0.0
230
1.0
 62
     0
 70
     0
 71
     3
 72
     8
 73
4
 40
0.0
 40
0.0
 40
0.0
 40
0.0
 40
1.0
 40
1.0
 40
1.0
 40
1.0
 10
86.1053
 20
32.8015
 30
0.0
 10
86.0048
 20
33.0509
 30
0.0
 10
85.8739
 20
33.6669
 30
0.0
 10
85.7649
 20
34.5571
 30
0.0
  0
SPLINE
  5
18c
100
AcDbEntity
  8
0
100
AcDbSpline
210
0.0
220
0.0
230
1.0
 62
     0
 70
     0
 71
     3
 72
     8
 73
4
 40
0.0
 40
0.0
 40
0.0
 40
0.0
 40
1.0
 40
1.0
 40
1.0
 40
1.0
 10
85.7649
 20
34.5571
 30
0.0
 10
85.6492
 20
35.5134
 30
0.0
 10
85.5666
 20
36.7386
 30
0.0
 10
84.7037
 20
37.9568
 30
0.0
  0
SPLINE
  5
18d
100
AcDbEntity
  8
0
100
AcDbSpline
210
0.0
220
0.0
230
1.0
 62
     0
 70
     0
 71
     3
 72
     8
 73
4
 40
0.0
 40
0.0
 40
0.0
 40
0.0
 40
1.0
 40
1.0
 40
1.0
 40
1.0
 10
84.7037
 20
37.9568
 30
0.0
 10
84.6321
 20
38.0587
 30
0.0
 10
84.551
 20
38.1536
 30
0.0
 10
84.4614
 20
38.2393
 30
0.0
  0
SPLINE
  5
18e
100
AcDbEntity
  8
0
100
AcDbSpline
210
0.0
220
0.0
230
1.0
 62
     0
 70
     0
 71
     3
 72
     8
 73
4
 40
0.0
 40
0.0
 40
0.0
 40
0.0
 40
1.0
 40
1.0
 40
1.0
 40
1.0
 10
84.4614
 20
38.2393
 30
0.0
 10
83.1522
 20
39.5041
 30
0.0
 10
81.5964
 20
39.7757
 30
0.0
 10
80.3423
 20
39.9327
 30
0.0
  0
SPLINE
  5
18f
100
AcDbEntity
  8
0
100
AcDbSpline
210
0.0
220
0.0
230
1.0
 62
     0
 70
     0
 71
     3
 72
     8
 73
4
 40
0.0
 40
0.0
 40
0.0
 40
0.0
 40
1.0
 40
1.0
 40
1.0
 40
1.0
 10
80.3423
 20
39.9327
 30
0.0
 10
79.9539
 20
40.0018
 30
0.0
 10
79.5747
 20
40.2869
 30
0.0
 10
79.5514
 20
40.2594
 30
0.0
  0
SPLINE
  5
190
100
AcDbEntity
  8
0
100
AcDbSpline
210
0.0
220
0.0
230
1.0
 62
     0
 70
     0
 71
     3
 72
     8
 73
4
 40
0.0
 40
0.0
 40
0.0
 40
0.0
 40
1.0
 40
1.0
 40
1.0
 40
1.0
 10
79.5514
 20
40.2594
 30
0.0
 10
79.6657
 20
40.4841
 30
0.0
 10
79.7899
 20
40.7293
 30
0.0
 10
79.9098
 20
41.1095
 30
0.0
  0
SPLINE
  5
191
100
AcDbEntity
  8
0
100
AcDbSpline
210
0.0
220
0.0
230
1.0
 62
     0
 70
     0
 71
     3
 72
     8
 73
4
 40
0.0
 40
0.0
 40
0.0
 40
0.0
 40
1.0
 40
1.0
 40
1.0
 40
1.0
 10
79.9098
 20
41.1095
 30
0.0
 10
79.944
 20
41.2238
 30
0.0
 10
79.9705
 20
41.3424
 30
0.0
 10
79.9842
 20
41.4609
 30
0.0
  0
SPLINE
  5
192
100
AcDbEntity
  8
0
100
AcDbSpline
210
0.0
220
0.0
230
1.0
 62
     0
 70
     0
 71
     3
 72
     8
 73
4
 40
0.0
 40
0.0
 40
0.0
 40
0.0
 40
1.0
 40
1.0
 40
1.0
 40
1.0
 10
79.9842
 20
41.4609
 30
0.0
 10
80.2294
 20
43.4453
 30
0.0
 10
79.9842
 20
45.5193
 30
0.0
 10
78.6529
 20
47.1152
 30
0.0
  0
SPLINE
  5
193
100
AcDbEntity
  8
0
100
AcDbSpline
210
0.0
220
0.0
230
1.0
 62
     0
 70
     0
 71
     3
 72
     8
 73
4
 40
0.0
 40
0.0
 40
0.0
 40
0.0
 40
1.0
 40
1.0
 40
1.0
 40
1.0
 10
78.6529
 20
47.1152
 30
0.0
 10
78.2821
 20
47.5601
 30
0.0
 10
77.7353
 20
47.8233
 30
0.0
 10
77.155
 20
47.8345
 30
0.0
  0
SPLINE
  5
194
100
AcDbEntity
  8
0
100
AcDbSpline
210
0.0
220
0.0
230
1.0
 62
     0
 70
     0
 71
     3
 72
     8
 73
4
 40
0.0
 40
0.0
 40
0.0
 40
0.0
 40
1.0
 40
1.0
 40
1.0
 40
1.0
 10
77.155
 20
47.8345
 30
0.0
 10
76.4134
 20
47.8483
 30
0.0
 10
75.6253
 20
47.5671
 30
0.0
 10
75.1018
 20
47.1523
 30
0.0
  0
SPLINE
  5
195
100
AcDbEntity
  8
0
100
AcDbSpline
210
0.0
220
0.0
230
1.0
 62
     0
 70
     0
 71
     3
 72
     8
 73
4
 40
0.0
 40
0.0
 40
0.0
 40
0.0
 40
1.0
 40
1.0
 40
1.0
 40
1.0
 10
75.1018
 20
47.1523
 30
0.0
 10
74.5779
 20
46.7374
 30
0.0
 10
74.2929
 20
46.2703
 30
0.0
 10
74.0943
 20
45.8943
 30
0.0
  0
SPLINE
  5
196
100
AcDbEntity
  8
0
100
AcDbSpline
210
0.0
220
0.0
230
1.0
 62
     0
 70
     0
 71
     3
 72
     8
 73
4
 40
0.0
 40
0.0
 40
0.0
 40
0.0
 40
1.0
 40
1.0
 40
1.0
 40
1.0
 10
74.0943
 20
45.8943
 30
0.0
 10
73.7016
 20
45.146
 30
0.0
 10
73.4342
 20
44.5975
 30
0.0
 10
73.641
 20
44.8539
 30
0.0
  0
SPLINE
  5
197
100
AcDbEntity
  8
0
100
AcDbSpline
210
0.0
220
0.0
230
1.0
 62
     0
 70
     0
 71
     3
 72
     8
 73
4
 40
0.0
 40
0.0
 40
0.0
 40
0.0
 40
1.0
 40
1.0
 40
1.0
 40
1.0
 10
73.641
 20
44.8539
 30
0.0
 10
73.6865
 20
44.9128
 30
0.0
 10
72.7576
 20
44.1882
 30
0.0
 10
72.3706
 20
44.0683
 30
0.0
  0
SPLINE
  5
198
100
AcDbEntity
  8
0
100
AcDbSpline
210
0.0
220
0.0
230
1.0
 62
     0
 70
     0
 71
     3
 72
     8
 73
4
 40
0.0
 40
0.0
 40
0.0
 40
0.0
 40
1.0
 40
1.0
 40
1.0
 40
1.0
 10
72.3706
 20
44.0683
 30
0.0
 10
72.2133
 20
44.02
 30
0.0
 10
72.0619
 20
43.9526
 30
0.0
 10
71.9212
 20
43.8672
 30
0.0
  0
SPLINE
  5
199
100
AcDbEntity
  8
0
100
AcDbSpline
210
0.0
220
0.0
230
1.0
 62
     0
 70
     0
 71
     3
 72
     8
 73
4
 40
0.0
 40
0.0
 40
0.0
 40
0.0
 40
1.0
 40
1.0
 40
1.0
 40
1.0
 10
71.9212
 20
43.8672
 30
0.0
 10
71.7268
 20
43.7501
 30
0.0
 10
71.0255
 20
43.579
 30
0.0
 10
70.0733
 20
43.459
 30
0.0
  0
SPLINE
  5
19a
100
AcDbEntity
  8
0
100
AcDbSpline
210
0.0
220
0.0
230
1.0
 62
     0
 70
     0
 71
     3
 72
     8
 73
4
 40
0.0
 40
0.0
 40
0.0
 40
0.0
 40
1.0
 40
1.0
 40
1.0
 40
1.0
 10
70.0733
 20
43.459
 30
0.0
 10
69.1981
 20
43.3476
 30
0.0
 10
68.115
 20
43.2551
 30
0.0
 10
66.978
 20
42.6889
 30
0.0
  0
SPLINE
  5
19b
100
AcDbEntity
  8
0
100
AcDbSpline
210
0.0
220
0.0
230
1.0
 62
     0
 70
     0
 71
     3
 72
     8
 73
4
 40
0.0
 40
0.0
 40
0.0
 40
0.0
 40
1.0
 40
1.0
 40
1.0
 40
1.0
 10
66.978
 20
42.6889
 30
0.0
 10
66.8733
 20
42.6448
 30
0.0
 10
66.73
 20
42.5937
 30
0.0
 10
66.6475
 20
42.5524
 30
0.0
  0
LINE
  5
19c
100
AcDbEntity
  8
0
100
AcDbLine
 62
     0
 10
66.6475
 20
42.5524
 30
0.0
 11
66.6556
 21
42.5358
 31
0.0
  0
SPLINE
  5
19d
100
AcDbEntity
  8
0
100
AcDbSpline
210
0.0
220
0.0
230
1.0
 62
     0
 70
     0
 71
     3
 72
     8
 73
4
 40
0.0
 40
0.0
 40
0.0
 40
0.0
 40
1.0
 40
1.0
 40
1.0
 40
1.0
 10
66.6556
 20
42.5358
 30
0.0
 10
66.5649
 20
42.4822
 30
0.0
 10
66.4767
 20
42.4215
 30
0.0
 10
66.3938
 20
42.3541
 30
0.0
  0
SPLINE
  5
19e
100
AcDbEntity
  8
0
100
AcDbSpline
210
0.0
220
0.0
230
1.0
 62
     0
 70
     0
 71
     3
 72
     8
 73
4
 40
0.0
 40
0.0
 40
0.0
 40
0.0
 40
1.0
 40
1.0
 40
1.0
 40
1.0
 10
66.3938
 20
42.3541
 30
0.0
 10
66.602
 20
42.5263
 30
0.0
 10
66.5194
 20
42.4476
 30
0.0
 10
66.4863
 20
42.4258
 30
0.0
  0
SPLINE
  5
19f
100
AcDbEntity
  8
0
100
AcDbSpline
210
0.0
220
0.0
230
1.0
 62
     0
 70
     0
 71
     3
 72
     8
 73
4
 40
0.0
 40
0.0
 40
0.0
 40
0.0
 40
1.0
 40
1.0
 40
1.0
 40
1.0
 10
66.4863
 20
42.4258
 30
0.0
 10
66.4517
 20
42.4035
 30
0.0
 10
66.3896
 20
42.3651
 30
0.0
 10
66.3152
 20
42.3182
 30
0.0
  0
SPLINE
  5
1a0
100
AcDbEntity
  8
0
100
AcDbSpline
210
0.0
220
0.0
230
1.0
 62
     0
 70
     0
 71
     3
 72
     8
 73
4
 40
0.0
 40
0.0
 40
0.0
 40
0.0
 40
1.0
 40
1.0
 40
1.0
 40
1.0
 10
66.3152
 20
42.3182
 30
0.0
 10
66.1638
 20
42.2233
 30
0.0
 10
65.9543
 20
42.092
 30
0.0
 10
65.7243
 20
41.946
 30
0.0
  0
SPLINE
  5
1a1
100
AcDbEntity
  8
0
100
AcDbSpline
210
0.0
220
0.0
230
1.0
 62
     0
 70
     0
 71
     3
 72
     8
 73
4
 40
0.0
 40
0.0
 40
0.0
 40
0.0
 40
1.0
 40
1.0
 40
1.0
 40
1.0
 10
65.7243
 20
41.946
 30
0.0
 10
65.2819
 20
41.6624
 30
0.0
 10
64.7816
 20
41.3371
 30
0.0
 10
64.3255
 20
40.9734
 30
0.0
  0
SPLINE
  5
1a2
100
AcDbEntity
  8
0
100
AcDbSpline
210
0.0
220
0.0
230
1.0
 62
     0
 70
     0
 71
     3
 72
     8
 73
4
 40
0.0
 40
0.0
 40
0.0
 40
0.0
 40
1.0
 40
1.0
 40
1.0
 40
1.0
 10
64.3255
 20
40.9734
 30
0.0
 10
63.4037
 20
40.3243
 30
0.0
 10
62.8343
 20
39.8459
 30
0.0
 10
62.2155
 20
39.2645
 30
0.0
  0
SPLINE
  5
1a3
100
AcDbEntity
  8
0
100
AcDbSpline
210
0.0
220
0.0
230
1.0
 62
     0
 70
     0
 71
     3
 72
     8
 73
4
 40
0.0
 40
0.0
 40
0.0
 40
0.0
 40
1.0
 40
1.0
 40
1.0
 40
1.0
 10
62.2155
 20
39.2645
 30
0.0
 10
62.1852
 20
39.2356
 30
0.0
 10
62.1563
 20
39.2067
 30
0.0
 10
62.1288
 20
39.1763
 30
0.0
  0
SPLINE
  5
1a4
100
AcDbEntity
  8
0
100
AcDbSpline
210
0.0
220
0.0
230
1.0
 62
     0
 70
     0
 71
     3
 72
     8
 73
4
 40
0.0
 40
0.0
 40
0.0
 40
0.0
 40
1.0
 40
1.0
 40
1.0
 40
1.0
 10
62.1288
 20
39.1763
 30
0.0
 10
62.1729
 20
39.2232
 30
0.0
 10
62.0063
 20
39.0977
 30
0.0
 10
61.7774
 20
39.0493
 30
0.0
  0
SPLINE
  5
1a5
100
AcDbEntity
  8
0
100
AcDbSpline
210
0.0
220
0.0
230
1.0
 62
     0
 70
     0
 71
     3
 72
     8
 73
4
 40
0.0
 40
0.0
 40
0.0
 40
0.0
 40
1.0
 40
1.0
 40
1.0
 40
1.0
 10
61.7774
 20
39.0493
 30
0.0
 10
61.5968
 20
39.0123
 30
0.0
 10
61.437
 20
39.0398
 30
0.0
 10
61.4825
 20
39.0137
 30
0.0
  0
SPLINE
  5
1a6
100
AcDbEntity
  8
0
100
AcDbSpline
210
0.0
220
0.0
230
1.0
 62
     0
 70
     0
 71
     3
 72
     8
 73
4
 40
0.0
 40
0.0
 40
0.0
 40
0.0
 40
1.0
 40
1.0
 40
1.0
 40
1.0
 10
61.4825
 20
39.0137
 30
0.0
 10
59.9779
 20
39.7757
 30
0.0
 10
58.6507
 20
39.9535
 30
0.0
 10
58.039
 20
40.2689
 30
0.0
  0
LINE
  5
1a7
100
AcDbEntity
  8
0
100
AcDbLine
 62
     0
 10
58.039
 20
40.2689
 30
0.0
 11
58.1533
 21
40.2043
 31
0.0
  0
SPLINE
  5
1a8
100
AcDbEntity
  8
0
100
AcDbSpline
210
0.0
220
0.0
230
1.0
 62
     0
 70
     0
 71
     3
 72
     8
 73
4
 40
0.0
 40
0.0
 40
0.0
 40
0.0
 40
1.0
 40
1.0
 40
1.0
 40
1.0
 10
58.1533
 20
40.2043
 30
0.0
 10
56.9817
 20
40.9113
 30
0.0
 10
55.9001
 20
41.2641
 30
0.0
 10
55.3036
 20
41.6235
 30
0.0
  0
SPLINE
  5
1a9
100
AcDbEntity
  8
0
100
AcDbSpline
210
0.0
220
0.0
230
1.0
 62
     0
 70
     0
 71
     3
 72
     8
 73
4
 40
0.0
 40
0.0
 40
0.0
 40
0.0
 40
1.0
 40
1.0
 40
1.0
 40
1.0
 10
55.3036
 20
41.6235
 30
0.0
 10
55.2884
 20
41.6334
 30
0.0
 10
55.2732
 20
41.6415
 30
0.0
 10
55.2581
 20
41.6496
 30
0.0
  0
SPLINE
  5
1aa
100
AcDbEntity
  8
0
100
AcDbSpline
210
0.0
220
0.0
230
1.0
 62
     0
 70
     0
 71
     3
 72
     8
 73
4
 40
0.0
 40
0.0
 40
0.0
 40
0.0
 40
1.0
 40
1.0
 40
1.0
 40
1.0
 10
55.2581
 20
41.6496
 30
0.0
 10
54.7109
 20
41.9612
 30
0.0
 10
53.9679
 20
42.3831
 30
0.0
 10
53.2709
 20
42.7687
 30
0.0
  0
SPLINE
  5
1ab
100
AcDbEntity
  8
0
100
AcDbSpline
210
0.0
220
0.0
230
1.0
 62
     0
 70
     0
 71
     3
 72
     8
 73
4
 40
0.0
 40
0.0
 40
0.0
 40
0.0
 40
1.0
 40
1.0
 40
1.0
 40
1.0
 10
53.2709
 20
42.7687
 30
0.0
 10
53.2447
 20
42.7881
 30
0.0
 10
53.2116
 20
42.8103
 30
0.0
 10
53.1883
 20
42.8255
 30
0.0
  0
SPLINE
  5
1ac
100
AcDbEntity
  8
0
100
AcDbSpline
210
0.0
220
0.0
230
1.0
 62
     0
 70
     0
 71
     3
 72
     8
 73
4
 40
0.0
 40
0.0
 40
0.0
 40
0.0
 40
1.0
 40
1.0
 40
1.0
 40
1.0
 10
53.1883
 20
42.8255
 30
0.0
 10
53.0267
 20
42.9313
 30
0.0
 10
52.8038
 20
43.0692
 30
0.0
 10
52.5198
 20
43.2428
 30
0.0
  0
SPLINE
  5
1ad
100
AcDbEntity
  8
0
100
AcDbSpline
210
0.0
220
0.0
230
1.0
 62
     0
 70
     0
 71
     3
 72
     8
 73
4
 40
0.0
 40
0.0
 40
0.0
 40
0.0
 40
1.0
 40
1.0
 40
1.0
 40
1.0
 10
52.5198
 20
43.2428
 30
0.0
 10
52.0471
 20
43.5296
 30
0.0
 10
51.5027
 20
43.8422
 30
0.0
 10
51.0039
 20
44.1082
 30
0.0
  0
SPLINE
  5
1ae
100
AcDbEntity
  8
0
100
AcDbSpline
210
0.0
220
0.0
230
1.0
 62
     0
 70
     0
 71
     3
 72
     8
 73
4
 40
0.0
 40
0.0
 40
0.0
 40
0.0
 40
1.0
 40
1.0
 40
1.0
 40
1.0
 10
51.0039
 20
44.1082
 30
0.0
 10
50.6924
 20
44.3851
 30
0.0
 10
50.1826
 20
44.9763
 30
0.0
 10
49.2538
 20
45.4903
 30
0.0
  0
SPLINE
  5
1af
100
AcDbEntity
  8
0
100
AcDbSpline
210
0.0
220
0.0
230
1.0
 62
     0
 70
     0
 71
     3
 72
     8
 73
4
 40
0.0
 40
0.0
 40
0.0
 40
0.0
 40
1.0
 40
1.0
 40
1.0
 40
1.0
 10
49.2538
 20
45.4903
 30
0.0
 10
48.9119
 20
45.781
 30
0.0
 10
48.6364
 20
46.1186
 30
0.0
 10
48.0579
 20
46.6824
 30
0.0
  0
SPLINE
  5
1b0
100
AcDbEntity
  8
0
100
AcDbSpline
210
0.0
220
0.0
230
1.0
 62
     0
 70
     0
 71
     3
 72
     8
 73
4
 40
0.0
 40
0.0
 40
0.0
 40
0.0
 40
1.0
 40
1.0
 40
1.0
 40
1.0
 10
48.0579
 20
46.6824
 30
0.0
 10
47.1579
 20
47.5795
 30
0.0
 10
46.5183
 20
47.8511
 30
0.0
 10
46.415
 20
47.9256
 30
0.0
  0
SPLINE
  5
1b1
100
AcDbEntity
  8
0
100
AcDbSpline
210
0.0
220
0.0
230
1.0
 62
     0
 70
     0
 71
     3
 72
     8
 73
4
 40
0.0
 40
0.0
 40
0.0
 40
0.0
 40
1.0
 40
1.0
 40
1.0
 40
1.0
 10
46.415
 20
47.9256
 30
0.0
 10
45.1612
 20
48.9342
 30
0.0
 10
44.184
 20
50.323
 30
0.0
 10
43.2181
 20
51.4809
 30
0.0
  0
SPLINE
  5
1b2
100
AcDbEntity
  8
0
100
AcDbSpline
210
0.0
220
0.0
230
1.0
 62
     0
 70
     0
 71
     3
 72
     8
 73
4
 40
0.0
 40
0.0
 40
0.0
 40
0.0
 40
1.0
 40
1.0
 40
1.0
 40
1.0
 10
43.2181
 20
51.4809
 30
0.0
 10
42.8625
 20
51.9105
 30
0.0
 10
42.4272
 20
52.4454
 30
0.0
 10
42.0617
 20
52.9015
 30
0.0
  0
SPLINE
  5
1b3
100
AcDbEntity
  8
0
100
AcDbSpline
210
0.0
220
0.0
230
1.0
 62
     0
 70
     0
 71
     3
 72
     8
 73
4
 40
0.0
 40
0.0
 40
0.0
 40
0.0
 40
1.0
 40
1.0
 40
1.0
 40
1.0
 10
42.0617
 20
52.9015
 30
0.0
 10
42.0095
 20
52.9678
 30
0.0
 10
41.953
 20
53.0296
 30
0.0
 10
41.8924
 20
53.0874
 30
0.0
  0
SPLINE
  5
1b4
100
AcDbEntity
  8
0
100
AcDbSpline
210
0.0
220
0.0
230
1.0
 62
     0
 70
     0
 71
     3
 72
     8
 73
4
 40
0.0
 40
0.0
 40
0.0
 40
0.0
 40
1.0
 40
1.0
 40
1.0
 40
1.0
 10
41.8924
 20
53.0874
 30
0.0
 10
41.2238
 20
53.7365
 30
0.0
 10
40.7857
 20
54.1073
 30
0.0
 10
40.5253
 20
54.3966
 30
0.0
  0
SPLINE
  5
1b5
100
AcDbEntity
  8
0
100
AcDbSpline
210
0.0
220
0.0
230
1.0
 62
     0
 70
     0
 71
     3
 72
     8
 73
4
 40
0.0
 40
0.0
 40
0.0
 40
0.0
 40
1.0
 40
1.0
 40
1.0
 40
1.0
 10
40.5253
 20
54.3966
 30
0.0
 10
40.5158
 20
54.4079
 30
0.0
 10
40.5059
 20
54.4174
 30
0.0
 10
40.4964
 20
54.4269
 30
0.0
  0
SPLINE
  5
1b6
100
AcDbEntity
  8
0
100
AcDbSpline
210
0.0
220
0.0
230
1.0
 62
     0
 70
     0
 71
     3
 72
     8
 73
4
 40
0.0
 40
0.0
 40
0.0
 40
0.0
 40
1.0
 40
1.0
 40
1.0
 40
1.0
 10
40.4964
 20
54.4269
 30
0.0
 10
39.8667
 20
55.0997
 30
0.0
 10
39.4229
 20
55.4055
 30
0.0
 10
38.9805
 20
55.8698
 30
0.0
  0
SPLINE
  5
1b7
100
AcDbEntity
  8
0
100
AcDbSpline
210
0.0
220
0.0
230
1.0
 62
     0
 70
     0
 71
     3
 72
     8
 73
4
 40
0.0
 40
0.0
 40
0.0
 40
0.0
 40
1.0
 40
1.0
 40
1.0
 40
1.0
 10
38.9805
 20
55.8698
 30
0.0
 10
38.9075
 20
55.9456
 30
0.0
 10
38.8303
 20
56.0158
 30
0.0
 10
38.7477
 20
56.0793
 30
0.0
  0
SPLINE
  5
1b8
100
AcDbEntity
  8
0
100
AcDbSpline
210
0.0
220
0.0
230
1.0
 62
     0
 70
     0
 71
     3
 72
     8
 73
4
 40
0.0
 40
0.0
 40
0.0
 40
0.0
 40
1.0
 40
1.0
 40
1.0
 40
1.0
 10
38.7477
 20
56.0793
 30
0.0
 10
37.8093
 20
56.7958
 30
0.0
 10
36.9521
 20
57.1761
 30
0.0
 10
36.6173
 20
57.4463
 30
0.0
  0
SPLINE
  5
1b9
100
AcDbEntity
  8
0
100
AcDbSpline
210
0.0
220
0.0
230
1.0
 62
     0
 70
     0
 71
     3
 72
     8
 73
4
 40
0.0
 40
0.0
 40
0.0
 40
0.0
 40
1.0
 40
1.0
 40
1.0
 40
1.0
 10
36.6173
 20
57.4463
 30
0.0
 10
36.5016
 20
57.5398
 30
0.0
 10
36.3746
 20
57.6213
 30
0.0
 10
36.2409
 20
57.6873
 30
0.0
  0
SPLINE
  5
1ba
100
AcDbEntity
  8
0
100
AcDbSpline
210
0.0
220
0.0
230
1.0
 62
     0
 70
     0
 71
     3
 72
     8
 73
4
 40
0.0
 40
0.0
 40
0.0
 40
0.0
 40
1.0
 40
1.0
 40
1.0
 40
1.0
 10
36.2409
 20
57.6873
 30
0.0
 10
35.8221
 20
57.8915
 30
0.0
 10
35.0118
 20
58.6564
 30
0.0
 10
33.5607
 20
59.0391
 30
0.0
  0
SPLINE
  5
1bb
100
AcDbEntity
  8
0
100
AcDbSpline
210
0.0
220
0.0
230
1.0
 62
     0
 70
     0
 71
     3
 72
     8
 73
4
 40
0.0
 40
0.0
 40
0.0
 40
0.0
 40
1.0
 40
1.0
 40
1.0
 40
1.0
 10
33.5607
 20
59.0391
 30
0.0
 10
31.8782
 20
59.8911
 30
0.0
 10
30.1446
 20
60.0523
 30
0.0
 10
29.016
 20
60.4365
 30
0.0
  0
SPLINE
  5
1bc
100
AcDbEntity
  8
0
100
AcDbSpline
210
0.0
220
0.0
230
1.0
 62
     0
 70
     0
 71
     3
 72
     8
 73
4
 40
0.0
 40
0.0
 40
0.0
 40
0.0
 40
1.0
 40
1.0
 40
1.0
 40
1.0
 10
29.016
 20
60.4365
 30
0.0
 10
28.8506
 20
60.4933
 30
0.0
 10
28.6797
 20
60.5275
 30
0.0
 10
28.5061
 20
60.5384
 30
0.0
  0
SPLINE
  5
1bd
100
AcDbEntity
  8
0
100
AcDbSpline
210
0.0
220
0.0
230
1.0
 62
     0
 70
     0
 71
     3
 72
     8
 73
4
 40
0.0
 40
0.0
 40
0.0
 40
0.0
 40
1.0
 40
1.0
 40
1.0
 40
1.0
 10
28.5061
 20
60.5384
 30
0.0
 10
25.8782
 20
60.7176
 30
0.0
 10
23.6954
 20
60.7893
 30
0.0
 10
20.9793
 20
60.3222
 30
0.0
  0
SPLINE
  5
1be
100
AcDbEntity
  8
0
100
AcDbSpline
210
0.0
220
0.0
230
1.0
 62
     0
 70
     0
 71
     3
 72
     8
 73
4
 40
0.0
 40
0.0
 40
0.0
 40
0.0
 40
1.0
 40
1.0
 40
1.0
 40
1.0
 10
20.9793
 20
60.3222
 30
0.0
 10
20.9021
 20
60.4668
 30
0.0
 10
20.7629
 20
60.7893
 30
0.0
 10
20.4887
 20
61.3615
 30
0.0
  0
SPLINE
  5
1bf
100
AcDbEntity
  8
0
100
AcDbSpline
210
0.0
220
0.0
230
1.0
 62
     0
 70
     0
 71
     3
 72
     8
 73
4
 40
0.0
 40
0.0
 40
0.0
 40
0.0
 40
1.0
 40
1.0
 40
1.0
 40
1.0
 10
20.4887
 20
61.3615
 30
0.0
 10
20.4336
 20
61.4786
 30
0.0
 10
20.366
 20
61.5901
 30
0.0
 10
20.2888
 20
61.6934
 30
0.0
  0
SPLINE
  5
1c0
100
AcDbEntity
  8
0
100
AcDbSpline
210
0.0
220
0.0
230
1.0
 62
     0
 70
     0
 71
     3
 72
     8
 73
4
 40
0.0
 40
0.0
 40
0.0
 40
0.0
 40
1.0
 40
1.0
 40
1.0
 40
1.0
 10
20.2888
 20
61.6934
 30
0.0
 10
19.9967
 20
62.0847
 30
0.0
 10
19.7735
 20
62.6389
 30
0.0
 10
18.9205
 20
63.9092
 30
0.0
  0
SPLINE
  5
1c1
100
AcDbEntity
  8
0
100
AcDbSpline
210
0.0
220
0.0
230
1.0
 62
     0
 70
     0
 71
     3
 72
     8
 73
4
 40
0.0
 40
0.0
 40
0.0
 40
0.0
 40
1.0
 40
1.0
 40
1.0
 40
1.0
 10
18.9205
 20
63.9092
 30
0.0
 10
18.8888
 20
63.9576
 30
0.0
 10
18.8543
 20
64.0031
 30
0.0
 10
18.8185
 20
64.0486
 30
0.0
  0
SPLINE
  5
1c2
100
AcDbEntity
  8
0
100
AcDbSpline
210
0.0
220
0.0
230
1.0
 62
     0
 70
     0
 71
     3
 72
     8
 73
4
 40
0.0
 40
0.0
 40
0.0
 40
0.0
 40
1.0
 40
1.0
 40
1.0
 40
1.0
 10
18.8185
 20
64.0486
 30
0.0
 10
18.5649
 20
64.3625
 30
0.0
 10
18.2411
 20
65.2184
 30
0.0
 10
17.6761
 20
66.2658
 30
0.0
  0
SPLINE
  5
1c3
100
AcDbEntity
  8
0
100
AcDbSpline
210
0.0
220
0.0
230
1.0
 62
     0
 70
     0
 71
     3
 72
     8
 73
4
 40
0.0
 40
0.0
 40
0.0
 40
0.0
 40
1.0
 40
1.0
 40
1.0
 40
1.0
 10
17.6761
 20
66.2658
 30
0.0
 10
17.1387
 20
67.5831
 30
0.0
 10
16.7969
 20
68.0791
 30
0.0
 10
16.491
 20
69.0591
 30
0.0
  0
SPLINE
  5
1c4
100
AcDbEntity
  8
0
100
AcDbSpline
210
0.0
220
0.0
230
1.0
 62
     0
 70
     0
 71
     3
 72
     8
 73
4
 40
0.0
 40
0.0
 40
0.0
 40
0.0
 40
1.0
 40
1.0
 40
1.0
 40
1.0
 10
16.491
 20
69.0591
 30
0.0
 10
16.4662
 20
69.1416
 30
0.0
 10
16.4345
 20
69.2231
 30
0.0
 10
16.3987
 20
69.3014
 30
0.0
  0
SPLINE
  5
1c5
100
AcDbEntity
  8
0
100
AcDbSpline
210
0.0
220
0.0
230
1.0
 62
     0
 70
     0
 71
     3
 72
     8
 73
4
 40
0.0
 40
0.0
 40
0.0
 40
0.0
 40
1.0
 40
1.0
 40
1.0
 40
1.0
 10
16.3987
 20
69.3014
 30
0.0
 10
15.9411
 20
70.2938
 30
0.0
 10
15.4561
 20
72.0644
 30
0.0
 10
15.649
 20
73.4205
 30
0.0
  0
SPLINE
  5
1c6
100
AcDbEntity
  8
0
100
AcDbSpline
210
0.0
220
0.0
230
1.0
 62
     0
 70
     0
 71
     3
 72
     8
 73
4
 40
0.0
 40
0.0
 40
0.0
 40
0.0
 40
1.0
 40
1.0
 40
1.0
 40
1.0
 10
15.649
 20
73.4205
 30
0.0
 10
15.9411
 20
74.5945
 30
0.0
 10
16.2857
 20
75.6281
 30
0.0
 10
16.7156
 20
76.3958
 30
0.0
  0
SPLINE
  5
1c7
100
AcDbEntity
  8
0
100
AcDbSpline
210
0.0
220
0.0
230
1.0
 62
     0
 70
     0
 71
     3
 72
     8
 73
4
 40
0.0
 40
0.0
 40
0.0
 40
0.0
 40
1.0
 40
1.0
 40
1.0
 40
1.0
 10
16.7156
 20
76.3958
 30
0.0
 10
17.3716
 20
77.1109
 30
0.0
 10
17.6623
 20
77.64
 30
0.0
 10
17.7808
 20
77.7628
 30
0.0
  0
SPLINE
  5
1c8
100
AcDbEntity
  8
0
100
AcDbSpline
210
0.0
220
0.0
230
1.0
 62
     0
 70
     0
 71
     3
 72
     8
 73
4
 40
0.0
 40
0.0
 40
0.0
 40
0.0
 40
1.0
 40
1.0
 40
1.0
 40
1.0
 10
17.7808
 20
77.7628
 30
0.0
 10
18.6683
 20
78.5163
 30
0.0
 10
19.2774
 20
79.0374
 30
0.0
 10
20.0105
 20
79.2797
 30
0.0
  0
SPLINE
  5
1c9
100
AcDbEntity
  8
0
100
AcDbSpline
210
0.0
220
0.0
230
1.0
 62
     0
 70
     0
 71
     3
 72
     8
 73
4
 40
0.0
 40
0.0
 40
0.0
 40
0.0
 40
1.0
 40
1.0
 40
1.0
 40
1.0
 10
20.0105
 20
79.2797
 30
0.0
 10
20.1015
 20
79.3101
 30
0.0
 10
20.191
 20
79.3475
 30
0.0
 10
20.2765
 20
79.3902
 30
0.0
  0
SPLINE
  5
1ca
100
AcDbEntity
  8
0
100
AcDbSpline
210
0.0
220
0.0
230
1.0
 62
     0
 70
     0
 71
     3
 72
     8
 73
4
 40
0.0
 40
0.0
 40
0.0
 40
0.0
 40
1.0
 40
1.0
 40
1.0
 40
1.0
 10
20.2765
 20
79.3902
 30
0.0
 10
20.683
 20
79.5941
 30
0.0
 10
21.3734
 20
79.871
 30
0.0
 10
21.8433
 20
79.9578
 30
0.0
  0
SPLINE
  5
1cb
100
AcDbEntity
  8
0
100
AcDbSpline
210
0.0
220
0.0
230
1.0
 62
     0
 70
     0
 71
     3
 72
     8
 73
4
 40
0.0
 40
0.0
 40
0.0
 40
0.0
 40
1.0
 40
1.0
 40
1.0
 40
1.0
 10
21.8433
 20
79.9578
 30
0.0
 10
22.0652
 20
79.998
 30
0.0
 10
22.1368
 20
79.9938
 30
0.0
 10
22.1478
 20
80.0047
 30
0.0
  0
SPLINE
  5
1cc
100
AcDbEntity
  8
0
100
AcDbSpline
210
0.0
220
0.0
230
1.0
 62
     0
 70
     0
 71
     3
 72
     8
 73
4
 40
0.0
 40
0.0
 40
0.0
 40
0.0
 40
1.0
 40
1.0
 40
1.0
 40
1.0
 10
22.1478
 20
80.0047
 30
0.0
 10
22.2319
 20
79.925
 30
0.0
 10
22.3214
 20
79.8544
 30
0.0
 10
22.4179
 20
79.7913
 30
0.0
  0
SPLINE
  5
1cd
100
AcDbEntity
  8
0
100
AcDbSpline
210
0.0
220
0.0
230
1.0
 62
     0
 70
     0
 71
     3
 72
     8
 73
4
 40
0.0
 40
0.0
 40
0.0
 40
0.0
 40
1.0
 40
1.0
 40
1.0
 40
1.0
 10
22.4179
 20
79.7913
 30
0.0
 10
22.0141
 20
79.6974
 30
0.0
 10
21.558
 20
79.5722
 30
0.0
 10
21.0564
 20
79.3351
 30
0.0
  0
SPLINE
  5
1ce
100
AcDbEntity
  8
0
100
AcDbSpline
210
0.0
220
0.0
230
1.0
 62
     0
 70
     0
 71
     3
 72
     8
 73
4
 40
0.0
 40
0.0
 40
0.0
 40
0.0
 40
1.0
 40
1.0
 40
1.0
 40
1.0
 10
21.0564
 20
79.3351
 30
0.0
 10
20.5204
 20
79.0829
 30
0.0
 10
19.9044
 20
78.6599
 30
0.0
 10
19.4758
 20
77.9805
 30
0.0
  0
SPLINE
  5
1cf
100
AcDbEntity
  8
0
100
AcDbSpline
210
0.0
220
0.0
230
1.0
 62
     0
 70
     0
 71
     3
 72
     8
 73
4
 40
0.0
 40
0.0
 40
0.0
 40
0.0
 40
1.0
 40
1.0
 40
1.0
 40
1.0
 10
19.4758
 20
77.9805
 30
0.0
 10
19.0472
 20
77.301
 30
0.0
 10
18.886
 20
76.448
 30
0.0
 10
18.948
 20
75.6528
 30
0.0
  0
LINE
  5
1d0
100
AcDbEntity
  8
0
100
AcDbLine
 62
     0
 10
18.948
 20
75.6528
 30
0.0
 11
18.948
 21
75.649
 31
0.0
  0
SPLINE
  5
1d1
100
AcDbEntity
  8
0
100
AcDbSpline
210
0.0
220
0.0
230
1.0
 62
     0
 70
     0
 71
     3
 72
     8
 73
4
 40
0.0
 40
0.0
 40
0.0
 40
0.0
 40
1.0
 40
1.0
 40
1.0
 40
1.0
 10
18.948
 20
75.649
 30
0.0
 10
19.0955
 20
73.7761
 30
0.0
 10
20.1414
 20
72.5138
 30
0.0
 10
20.7409
 20
71.7381
 30
0.0
  0
SPLINE
  5
1d2
100
AcDbEntity
  8
0
100
AcDbSpline
210
0.0
220
0.0
230
1.0
 62
     0
 70
     0
 71
     3
 72
     8
 73
4
 40
0.0
 40
0.0
 40
0.0
 40
0.0
 40
1.0
 40
1.0
 40
1.0
 40
1.0
 10
20.7409
 20
71.7381
 30
0.0
 10
20.778
 20
71.6911
 30
0.0
 10
20.8166
 20
71.6442
 30
0.0
 10
20.858
 20
71.6001
 30
0.0
  0
SPLINE
  5
1d3
100
AcDbEntity
  8
0
100
AcDbSpline
210
0.0
220
0.0
230
1.0
 62
     0
 70
     0
 71
     3
 72
     8
 73
4
 40
0.0
 40
0.0
 40
0.0
 40
0.0
 40
1.0
 40
1.0
 40
1.0
 40
1.0
 10
20.858
 20
71.6001
 30
0.0
 10
22.1134
 20
70.2497
 30
0.0
 10
23.7629
 20
69.8405
 30
0.0
 10
25.2898
 20
69.7205
 30
0.0
  0
SPLINE
  5
1d4
100
AcDbEntity
  8
0
100
AcDbSpline
210
0.0
220
0.0
230
1.0
 62
     0
 70
     0
 71
     3
 72
     8
 73
4
 40
0.0
 40
0.0
 40
0.0
 40
0.0
 40
1.0
 40
1.0
 40
1.0
 40
1.0
 10
25.2898
 20
69.7205
 30
0.0
 10
25.3931
 20
69.7121
 30
0.0
 10
25.4964
 20
69.7121
 30
0.0
 10
25.5984
 20
69.7205
 30
0.0
  0
SPLINE
  5
1d5
100
AcDbEntity
  8
0
100
AcDbSpline
210
0.0
220
0.0
230
1.0
 62
     0
 70
     0
 71
     3
 72
     8
 73
4
 40
0.0
 40
0.0
 40
0.0
 40
0.0
 40
1.0
 40
1.0
 40
1.0
 40
1.0
 10
25.5984
 20
69.7205
 30
0.0
 10
27.2493
 20
69.8472
 30
0.0
 10
29.0256
 20
70.2151
 30
0.0
 10
30.5869
 20
71.337
 30
0.0
  0
SPLINE
  5
1d6
100
AcDbEntity
  8
0
100
AcDbSpline
210
0.0
220
0.0
230
1.0
 62
     0
 70
     0
 71
     3
 72
     8
 73
4
 40
0.0
 40
0.0
 40
0.0
 40
0.0
 40
1.0
 40
1.0
 40
1.0
 40
1.0
 10
30.5869
 20
71.337
 30
0.0
 10
30.7399
 20
71.447
 30
0.0
 10
30.8763
 20
71.5779
 30
0.0
 10
30.9935
 20
71.7268
 30
0.0
  0
SPLINE
  5
1d7
100
AcDbEntity
  8
0
100
AcDbSpline
210
0.0
220
0.0
230
1.0
 62
     0
 70
     0
 71
     3
 72
     8
 73
4
 40
0.0
 40
0.0
 40
0.0
 40
0.0
 40
1.0
 40
1.0
 40
1.0
 40
1.0
 10
30.9935
 20
71.7268
 30
0.0
 10
31.677
 20
72.5978
 30
0.0
 10
31.8106
 20
72.8155
 30
0.0
 10
32.1551
 20
73.1061
 30
0.0
  0
SPLINE
  5
1d8
100
AcDbEntity
  8
0
100
AcDbSpline
210
0.0
220
0.0
230
1.0
 62
     0
 70
     0
 71
     3
 72
     8
 73
4
 40
0.0
 40
0.0
 40
0.0
 40
0.0
 40
1.0
 40
1.0
 40
1.0
 40
1.0
 10
32.1551
 20
73.1061
 30
0.0
 10
32.2626
 20
73.1972
 30
0.0
 10
32.3605
 20
73.3005
 30
0.0
 10
32.4473
 20
73.4124
 30
0.0
  0
SPLINE
  5
1d9
100
AcDbEntity
  8
0
100
AcDbSpline
210
0.0
220
0.0
230
1.0
 62
     0
 70
     0
 71
     3
 72
     8
 73
4
 40
0.0
 40
0.0
 40
0.0
 40
0.0
 40
1.0
 40
1.0
 40
1.0
 40
1.0
 10
32.4473
 20
73.4124
 30
0.0
 10
33.3609
 20
74.5987
 30
0.0
 10
33.897
 20
76.0056
 30
0.0
 10
34.1933
 20
77.4802
 30
0.0
  0
SPLINE
  5
1da
100
AcDbEntity
  8
0
100
AcDbSpline
210
0.0
220
0.0
230
1.0
 62
     0
 70
     0
 71
     3
 72
     8
 73
4
 40
0.0
 40
0.0
 40
0.0
 40
0.0
 40
1.0
 40
1.0
 40
1.0
 40
1.0
 10
34.1933
 20
77.4802
 30
0.0
 10
34.8134
 20
79.9331
 30
0.0
 10
34.7183
 20
82.725
 30
0.0
 10
33.4395
 20
84.9986
 30
0.0
  0
LINE
  5
1db
100
AcDbEntity
  8
0
100
AcDbLine
 62
     0
 10
33.4395
 20
84.9986
 30
0.0
 11
33.609
 21
84.6046
 31
0.0
  0
SPLINE
  5
1dc
100
AcDbEntity
  8
0
100
AcDbSpline
210
0.0
220
0.0
230
1.0
 62
     0
 70
     0
 71
     3
 72
     8
 73
4
 40
0.0
 40
0.0
 40
0.0
 40
0.0
 40
1.0
 40
1.0
 40
1.0
 40
1.0
 10
33.609
 20
84.6046
 30
0.0
 10
33.2727
 20
85.7003
 30
0.0
 10
32.7959
 20
86.8606
 30
0.0
 10
31.8961
 20
87.8649
 30
0.0
  0
SPLINE
  5
1dd
100
AcDbEntity
  8
0
100
AcDbSpline
210
0.0
220
0.0
230
1.0
 62
     0
 70
     0
 71
     3
 72
     8
 73
4
 40
0.0
 40
0.0
 40
0.0
 40
0.0
 40
1.0
 40
1.0
 40
1.0
 40
1.0
 10
31.8961
 20
87.8649
 30
0.0
 10
31.8534
 20
87.9119
 30
0.0
 10
31.8093
 20
87.956
 30
0.0
 10
31.7638
 20
87.9987
 30
0.0
  0
SPLINE
  5
1de
100
AcDbEntity
  8
0
100
AcDbSpline
210
0.0
220
0.0
230
1.0
 62
     0
 70
     0
 71
     3
 72
     8
 73
4
 40
0.0
 40
0.0
 40
0.0
 40
0.0
 40
1.0
 40
1.0
 40
1.0
 40
1.0
 10
31.7638
 20
87.9987
 30
0.0
 10
31.5102
 20
88.2329
 30
0.0
 10
31.0527
 20
88.798
 30
0.0
 10
30.3044
 20
89.3618
 30
0.0
  0
SPLINE
  5
1df
100
AcDbEntity
  8
0
100
AcDbSpline
210
0.0
220
0.0
230
1.0
 62
     0
 70
     0
 71
     3
 72
     8
 73
4
 40
0.0
 40
0.0
 40
0.0
 40
0.0
 40
1.0
 40
1.0
 40
1.0
 40
1.0
 10
30.3044
 20
89.3618
 30
0.0
 10
29.5341
 20
90.2892
 30
0.0
 10
28.6425
 20
90.7464
 30
0.0
 10
28.0045
 20
91.1105
 30
0.0
  0
SPLINE
  5
1e0
100
AcDbEntity
  8
0
100
AcDbSpline
210
0.0
220
0.0
230
1.0
 62
     0
 70
     0
 71
     3
 72
     8
 73
4
 40
0.0
 40
0.0
 40
0.0
 40
0.0
 40
1.0
 40
1.0
 40
1.0
 40
1.0
 10
28.0045
 20
91.1105
 30
0.0
 10
27.9604
 20
91.1366
 30
0.0
 10
27.9149
 20
91.1599
 30
0.0
 10
27.8681
 20
91.1821
 30
0.0
  0
SPLINE
  5
1e1
100
AcDbEntity
  8
0
100
AcDbSpline
210
0.0
220
0.0
230
1.0
 62
     0
 70
     0
 71
     3
 72
     8
 73
4
 40
0.0
 40
0.0
 40
0.0
 40
0.0
 40
1.0
 40
1.0
 40
1.0
 40
1.0
 10
27.8681
 20
91.1821
 30
0.0
 10
25.9939
 20
92.0679
 30
0.0
 10
23.7657
 20
92.4856
 30
0.0
 10
21.4864
 20
92.4662
 30
0.0
  0
LINE
  5
1e2
100
AcDbEntity
  8
0
100
AcDbLine
 62
     0
 10
21.4864
 20
92.4662
 30
0.0
 11
21.4864
 21
92.4662
 31
0.0
  0
ENDSEC
  0
SECTION
  2
OBJECTS
  0
DICTIONARY
  5
C
330
0
100
AcDbDictionary
  3
ACAD_GROUP
350
D
  3
ACAD_LAYOUT
350
1A
  3
ACAD_MLINESTYLE
350
17
  3
ACAD_PLOTSETTINGS
350
19
  3
ACAD_PLOTSTYLENAME
350
E
  3
ACDBHEADERROUNDTRIPXREC
350
2F
  0
DICTIONARY
  5
52
330
1F
100
AcDbDictionary
280
     1
  3
ACAD_LAYOUTSELFREF
360
53
  0
DICTIONARY
  5
50
330
1B
100
AcDbDictionary
280
     1
  3
ACAD_LAYOUTSELFREF
360
51
  0
DICTIONARY
  5
D
102
{ACAD_REACTORS
330
C
102
}
330
C
100
AcDbDictionary
  0
DICTIONARY
  5
1A
102
{ACAD_REACTORS
330
C
102
}
330
C
100
AcDbDictionary
  0
DICTIONARY
  5
17
102
{ACAD_REACTORS
330
C
102
}
330
C
100
AcDbDictionary
  3
STANDARD
350
18
  0
DICTIONARY
  5
19
102
{ACAD_REACTORS
330
C
102
}
330
C
100
AcDbDictionary
  0
ACDBDICTIONARYWDFLT
  5
E
102
{ACAD_REACTORS
330
C
102
}
330
C
100
AcDbDictionary
281
     1
  3
Normal
350
F
100
AcDbDictionaryWithDefault
340
F
  0
DICTIONARY
  5
2F
102
{ACAD_REACTORS
330
C
102
}
330
C
100
AcDbDictionary
  3
CEPSNTYPE
350
39
  3
DIMSTYLEDATA
350
3D
  3
FINGERPRINTGUID
350
3A
  3
HYPERLINKBASE
350
32
  3
INSUNITS
350
38
  3
LAYOUTDICT
350
34
  3
LWETCUNION
350
37
  3
PLOTSETDICT
350
35
  3
PLOTSTYLNAMDICT
350
36
  3
PSVPSCALE
350
3C
  3
PUCSBASE
350
40
  3
PUCSORGBACK
350
46
  3
PUCSORGBOTTOM
350
42
  3
PUCSORGFRONT
350
45
  3
PUCSORGLEFT
350
43
  3
PUCSORGRIGHT
350
44
  3
PUCSORGTOP
350
41
  3
PUCSORTHOREF
350
3E
  3
PUCSORTHOVIEW
350
3F
  3
STYLESHEET
350
33
  3
TSTACKALIGN
350
30
  3
TSTACKSIZE
350
31
  3
UCSBASE
350
49
  3
UCSORGBACK
350
4F
  3
UCSORGBOTTOM
350
4B
  3
UCSORGFRONT
350
4E
  3
UCSORGLEFT
350
4C
  3
UCSORGRIGHT
350
4D
  3
UCSORGTOP
350
4A
  3
UCSORTHOREF
350
47
  3
UCSORTHOVIEW
350
48
  3
VERSIONGUID
350
3B
  0
XRECORD
  5
53
102
{ACAD_REACTORS
330
52
102
}
330
52
100
AcDbXrecord
340
1F
  0
XRECORD
  5
51
102
{ACAD_REACTORS
330
50
102
}
330
50
100
AcDbXrecord
340
1B
  0
MLINESTYLE
  5
18
102
{ACAD_REACTORS
330
17
102
}
330
17
100
AcDbMlineStyle
  2
STANDARD
 70
     0
  3

 62
   256
 51
90.0
 52
90.0
 71
     2
 49
0.5
 62
   256
  6
BYLAYER
 49
-0.5
 62
   256
  6
BYLAYER
  0
ACDBPLACEHOLDER
  5
F
102
{ACAD_REACTORS
330
E
102
}
330
E
100
AcDbPlaceHolder
280
     0
  0
XRECORD
  5
39
102
{ACAD_REACTORS
330
2F
102
}
330
2F
100
AcDbXrecord
 90
        0
  0
XRECORD
  5
3D
102
{ACAD_REACTORS
330
2F
102
}
330
2F
100
AcDbXrecord
1000
DSTYLE
1002
{
1070
   278
 70
    44
1002
}
  0
XRECORD
  5
3A
102
{ACAD_REACTORS
330
2F
102
}
330
2F
100
AcDbXrecord
  1
{705446A6-11D0-4548-8F8C-A97DCA50327D}
  0
XRECORD
  5
32
102
{ACAD_REACTORS
330
2F
102
}
330
2F
100
AcDbXrecord
  1

  0
XRECORD
  5
38
102
{ACAD_REACTORS
330
2F
102
}
330
2F
100
AcDbXrecord
 90
        4
  0
XRECORD
  5
34
102
{ACAD_REACTORS
330
2F
102
}
330
2F
100
AcDbXrecord
340
1A
  0
XRECORD
  5
37
102
{ACAD_REACTORS
330
2F
102
}
330
2F
100
AcDbXrecord
 90
    10781
  0
XRECORD
  5
35
102
{ACAD_REACTORS
330
2F
102
}
330
2F
100
AcDbXrecord
340
19
  0
XRECORD
  5
36
102
{ACAD_REACTORS
330
2F
102
}
330
2F
100
AcDbXrecord
340
E
  0
XRECORD
  5
3C
102
{ACAD_REACTORS
330
2F
102
}
330
2F
100
AcDbXrecord
 40
0.0
  0
XRECORD
  5
40
102
{ACAD_REACTORS
330
2F
102
}
330
2F
100
AcDbXrecord
340
0
  0
XRECORD
  5
46
102
{ACAD_REACTORS
330
2F
102
}
330
2F
100
AcDbXrecord
 10
0.0
 20
0.0
 30
0.0
  0
XRECORD
  5
42
102
{ACAD_REACTORS
330
2F
102
}
330
2F
100
AcDbXrecord
 10
0.0
 20
0.0
 30
0.0
  0
XRECORD
  5
45
102
{ACAD_REACTORS
330
2F
102
}
330
2F
100
AcDbXrecord
 10
0.0
 20
0.0
 30
0.0
  0
XRECORD
  5
43
102
{ACAD_REACTORS
330
2F
102
}
330
2F
100
AcDbXrecord
 10
0.0
 20
0.0
 30
0.0
  0
XRECORD
  5
44
102
{ACAD_REACTORS
330
2F
102
}
330
2F
100
AcDbXrecord
 10
0.0
 20
0.0
 30
0.0
  0
XRECORD
  5
41
102
{ACAD_REACTORS
330
2F
102
}
330
2F
100
AcDbXrecord
 10
0.0
 20
0.0
 30
0.0
  0
XRECORD
  5
3E
102
{ACAD_REACTORS
330
2F
102
}
330
2F
100
AcDbXrecord
340
0
  0
XRECORD
  5
3F
102
{ACAD_REACTORS
330
2F
102
}
330
2F
100
AcDbXrecord
 70
     0
  0
XRECORD
  5
33
102
{ACAD_REACTORS
330
2F
102
}
330
2F
100
AcDbXrecord
  1

  0
XRECORD
  5
30
102
{ACAD_REACTORS
330
2F
102
}
330
2F
100
AcDbXrecord
 90
        1
  0
XRECORD
  5
31
102
{ACAD_REACTORS
330
2F
102
}
330
2F
100
AcDbXrecord
 90
       70
  0
XRECORD
  5
49
102
{ACAD_REACTORS
330
2F
102
}
330
2F
100
AcDbXrecord
340
0
  0
XRECORD
  5
4F
102
{ACAD_REACTORS
330
2F
102
}
330
2F
100
AcDbXrecord
 10
0.0
 20
0.0
 30
0.0
  0
XRECORD
  5
4B
102
{ACAD_REACTORS
330
2F
102
}
330
2F
100
AcDbXrecord
 10
0.0
 20
0.0
 30
0.0
  0
XRECORD
  5
4E
102
{ACAD_REACTORS
330
2F
102
}
330
2F
100
AcDbXrecord
 10
0.0
 20
0.0
 30
0.0
  0
XRECORD
  5
4C
102
{ACAD_REACTORS
330
2F
102
}
330
2F
100
AcDbXrecord
 10
0.0
 20
0.0
 30
0.0
  0
XRECORD
  5
4D
102
{ACAD_REACTORS
330
2F
102
}
330
2F
100
AcDbXrecord
 10
0.0
 20
0.0
 30
0.0
  0
XRECORD
  5
4A
102
{ACAD_REACTORS
330
2F
102
}
330
2F
100
AcDbXrecord
 10
0.0
 20
0.0
 30
0.0
  0
XRECORD
  5
47
102
{ACAD_REACTORS
330
2F
102
}
330
2F
100
AcDbXrecord
340
0
  0
XRECORD
  5
48
102
{ACAD_REACTORS
330
2F
102
}
330
2F
100
AcDbXrecord
 70
     0
  0
XRECORD
  5
3B
102
{ACAD_REACTORS
330
2F
102
}
330
2F
100
AcDbXrecord
  1
{33328E3A-B6B8-4979-86B7-D70DEC2867C2}
  0
ENDSEC
  0
EOF
