<?xml version="1.0" encoding="UTF-8" standalone="no"?>
<!-- Created with Inkscape (http://www.inkscape.org/) -->

<svg
   xmlns:dc="http://purl.org/dc/elements/1.1/"
   xmlns:cc="http://creativecommons.org/ns#"
   xmlns:rdf="http://www.w3.org/1999/02/22-rdf-syntax-ns#"
   xmlns:svg="http://www.w3.org/2000/svg"
   xmlns="http://www.w3.org/2000/svg"
   xmlns:sodipodi="http://sodipodi.sourceforge.net/DTD/sodipodi-0.dtd"
   xmlns:inkscape="http://www.inkscape.org/namespaces/inkscape"
   width="331.73145"
   height="327.70676"
   id="svg2"
   version="1.1"
   inkscape:version="0.91 r13725"
   sodipodi:docname="stretching_cat.svg">
  <defs
     id="defs4" />
  <sodipodi:namedview
     id="base"
     pagecolor="#ffffff"
     bordercolor="#666666"
     borderopacity="1.0"
     inkscape:pageopacity="0.0"
     inkscape:pageshadow="2"
     inkscape:zoom="3.959798"
     inkscape:cx="188.95367"
     inkscape:cy="86.133813"
     inkscape:document-units="px"
     inkscape:current-layer="layer1"
     showgrid="false"
     showguides="true"
     inkscape:guide-bbox="true"
     inkscape:window-width="1920"
     inkscape:window-height="1051"
     inkscape:window-x="0"
     inkscape:window-y="0"
     inkscape:window-maximized="1"
     fit-margin-top="0"
     fit-margin-left="0"
     fit-margin-right="0"
     fit-margin-bottom="0" />
  <metadata
     id="metadata7">
    <rdf:RDF>
      <cc:Work
         rdf:about="">
        <dc:format>image/svg+xml</dc:format>
        <dc:type
           rdf:resource="http://purl.org/dc/dcmitype/StillImage" />
        <dc:title></dc:title>
      </cc:Work>
    </rdf:RDF>
  </metadata>
  <g
     inkscape:label="Layer 1"
     inkscape:groupmode="layer"
     id="layer1"
     transform="translate(-3.5686363,-719.7819)">
    <path
       style="fill:none;stroke:#000000;stroke-width:0.13444591;stroke-opacity:1"
       d="m 79.699219,719.85156 c -0.439586,0.004 -0.989915,0.003 -1.63086,0.0254 -0.49082,0.0178 -0.978464,0.0865 -1.455078,0.20508 -3.222507,0.79818 -7.660847,1.69063 -11.664062,2.55274 -4.003215,0.86211 -6.720167,1.08535 -10.351563,2.91796 -0.08355,0.0426 -0.166251,0.0869 -0.248047,0.13282 -2.110162,1.17163 -6.11206,2.24833 -10.222656,5.66015 -2.578889,1.66 -4.721794,3.55359 -5.888672,4.48633 l 0.160157,-0.125 c -2.261402,1.70313 -4.383076,3.66219 -6.214844,5.21094 -0.255853,0.21644 -0.496038,0.45075 -0.71875,0.70117 -1.681051,1.88969 -3.324981,3.75117 -5.060547,5.82617 -0.02897,0.0342 -0.05762,0.0687 -0.08594,0.10352 -0.79761,0.99092 -3.517117,3.9638 -5.216797,8.45703 -3.006295,3.172 -4.212196,6.87359 -4.976562,10.10352 -2.927084,5.56947 -3.981857,11.25692 -5.277344,15.89453 -0.09915,0.35588 -0.170326,0.71896 -0.21289,1.08593 -0.8849348,7.58119 -3.0001663,16.88793 -1.5292972,26.96875 -0.013265,9.7535 2.4702072,17.57701 3.6523432,24.7793 0.08846,0.54032 0.2392,1.06858 0.449219,1.57422 1.798479,4.32567 1.450045,12.77461 -0.357422,16.43945 l 0.01953,-0.0391 c -4.0382062,8.06104 -4.7554995,17.24654 -5.2207035,25.63867 -3.1150716,10.98566 0.7684719,20.9238 1.4960937,27.4043 0.023768,0.21102 0.057005,0.42087 0.099609,0.62891 1.7664098,8.63914 4.6579098,13.8674 4.3574218,20.30273 -1.476724,6.07539 -2.41,11.17048 -3.8964843,13.45117 -0.3099861,0.47532 -0.5617877,0.98614 -0.75,1.52149 0.2097938,-0.59714 -0.4153114,0.42866 -1.9082031,2.33007 -1.3870316,1.76659 -3.3883154,5.07123 -3.3828125,9.16602 -0.2967178,4.10708 1.8149196,8.26048 3.6289063,10.07617 1.8998988,1.90169 2.7020937,2.5874 2.3925781,2.10742 0.2441595,0.37583 0.5234035,0.72767 0.8339845,1.05078 0.744484,1.25844 1.710312,2.86003 3.742188,4.50196 0.902072,1.51028 2.257061,3.67228 3.894531,5.79687 0.940394,2.15642 2.067917,3.82453 2.71875,4.73242 0.831512,1.15994 0.840726,1.27443 0.873047,1.49219 0.128548,0.86854 0.417299,1.70566 0.851562,2.46875 1.758179,3.08581 3.113661,6.9134 4.16211,11.29883 0.02875,0.12061 0.06066,0.24044 0.0957,0.35937 2.097505,7.10161 2.163119,17.07131 0.921875,25.68171 -1.728718,3.5535 -2.438984,7.4026 -1.998047,11.58 0.254996,2.4159 0.938787,5.0182 2.71875,7.4512 1.779963,2.4331 4.928057,4.4273 8.244141,4.8789 0.0572,0.01 0.1145,0.015 0.171875,0.021 9.825079,1.0936 19.316068,0.2809 27.841796,0.5 0.354994,0.01 0.71016,-0.01 1.0625,-0.053 2.271301,-0.2842 6.948403,0.1747 11.953126,0.2168 5.004722,0.042 11.489956,-0.2202 16.242187,-5.5508 0.454023,-0.5088 0.832268,-1.0805 1.123047,-1.6973 2.908611,-6.1775 4.761263,-14.2322 1.808594,-22.4297 -0.147026,-0.4093 -0.331397,-0.8042 -0.550782,-1.1797 -2.154414,-3.6809 -4.202456,-5.3005 -6.173828,-7.7714 -0.490007,-0.6145 -1.078763,-1.1432 -1.742187,-1.5645 -2.933422,-1.8606 -6.748331,-3.4617 -9.480462,-4.8761 -1.242631,-0.6438 -2.647997,-0.9055 -4.039062,-0.752 -1.734046,0.1917 -1.893769,0.01 -2.326172,-0.2344 -0.17167,-0.096 -0.771872,-0.7238 -1.087891,-0.998 -0.785455,-7.43848 -3.312113,-13.00505 -4.445313,-17.85939 -0.07488,-0.3215 -0.172122,-0.63737 -0.291015,-0.94532 -1.144211,-2.96035 -2.387789,-5.39163 -2.919922,-7.3125 -0.517514,-1.86809 -0.504388,-2.69849 0.03516,-3.78125 0.04256,-0.0317 0.10604,-0.0958 0.419922,-0.26953 0.771566,-0.42699 2.121017,-0.88506 4.076172,-2.05273 l -0.111328,0.0664 c 3.059387,-1.75246 5.959294,-2.70855 9.330078,-5.77343 2.933156,-2.28866 4.507528,-3.99657 6.414063,-6.0625 0.06665,-0.0729 0.131763,-0.14709 0.195308,-0.22266 0.792011,-0.93364 2.474179,-2.4558 3.775391,-3.44336 0.05664,-0.0428 0.112637,-0.0864 0.167968,-0.13086 1.074919,-0.86788 1.58254,-1.48982 1.925782,-2.02929 1.126904,1.54286 2.39787,2.97557 3.810547,4.27929 l -0.388672,-0.38867 c 2.482687,2.67681 3.40723,3.55788 4.746093,5.16992 1.465024,1.89031 3.597921,6.04429 8.978511,8.12305 l -0.0527,-0.0195 c 0.40782,0.16123 0.1559,10e-4 0.44531,0.29883 0.28384,0.29169 1.05541,1.33064 2.57227,2.60351 1.59275,1.62983 3.23482,2.97729 4.92969,4.16211 0.29988,0.32199 0.47523,0.41719 0.59765,0.52149 0.40974,0.34905 0.51803,0.4091 0.67578,0.52148 0.63102,0.44952 1.3075,0.88637 2.20508,1.47852 1.79517,1.18429 4.31423,2.88278 4.92578,3.35546 0.70261,0.54294 1.50096,0.94907 2.35352,1.19727 2.25579,0.65704 4.82775,2.28122 8.60547,4.01172 3.42284,1.83223 7.62114,3.98293 12.92187,5.05859 4.08748,2.09012 8.57717,3.7414 13.46289,4.82031 3.73742,1.36168 7.91878,2.23767 11.55469,3.04493 3.63591,0.80725 7.50642,2.20311 6.32617,1.55461 1.07633,0.5912 2.28775,0.8927 3.51563,0.875 -0.87704,0.013 3.58255,0.6782 7.3789,1.6914 3.41882,0.9126 6.83323,1.8531 9.91993,2.4493 4.15053,1.875 8.16058,3.0955 11.27343,4.3691 3.50177,1.7943 6.20125,3.1144 7.99805,4.3477 0.45321,0.3051 0.94017,0.5568 1.45117,0.75 0.2866,0.1813 0.33814,0.2087 0.68164,0.4336 1.47786,0.9675 3.15927,2.1448 4.24805,2.9277 0.2896,0.2599 0.3968,0.3357 0.50195,0.418 0.46699,0.3653 0.95115,0.7208 1.60742,1.2285 1.31256,1.0153 3.20922,2.7979 3.10352,2.666 0.68588,0.8561 1.56104,1.5414 2.55664,2.0019 3.14434,1.4551 6.98636,2.8826 10.85352,3.9825 3.28664,0.9347 6.40008,1.5806 9.75781,1.6074 3.21208,0.9666 6.08913,1.2669 8.17187,1.6289 2.00799,0.349 2.51344,0.6979 2.63477,0.7168 0.0712,0.4355 0.0931,0.5899 0.22461,1.3242 0.48752,2.7231 1.87518,7.4935 6.01562,10.8867 1.08805,0.891 2.4165,1.4383 3.81641,1.5723 14.36127,1.3783 29.07906,0.3537 42.60742,0.6445 l -0.41992,-0.022 c 4.19812,0.3402 8.20851,-1.2304 10.86914,-3.4785 2.27284,-1.9203 3.63895,-4.1769 4.63281,-6.4082 2.13139,-2.942 3.09831,-6.3452 3.04102,-10.082 -0.0581,-3.7899 -1.46745,-7.9791 -4.4668,-11.4102 -2.04759,-3.8667 -5.57237,-6.454 -9.25976,-7.7285 -7.20408,-5.3544 -16.0319,-5.0921 -23.62305,-4.6133 -0.35146,0.023 -0.70074,0.072 -1.04492,0.1465 -1.5026,0.3236 -1.28968,0.2243 -2.16992,-0.2402 -0.88025,-0.4645 -2.51662,-1.9186 -5.55664,-3.35154 -0.0762,-0.0359 -0.15304,-0.0704 -0.23047,-0.10352 -0.96318,-0.41275 -3.33425,-2.32611 -6.60352,-4.38281 l 0.71484,0.51367 c -4.55536,-3.72959 -8.80223,-4.5687 -10.42578,-5.58008 -0.95924,-0.59756 -2.04742,-0.95715 -3.17383,-1.04882 -0.19416,-0.0158 0.23138,0.0537 -2.57421,-2.59375 -0.42453,-0.40031 -0.89685,-0.74667 -1.40625,-1.03125 -0.99293,-0.55507 -2.13204,-2.14024 -3.26954,-4.37891 -0.0476,-2.13374 0.6092,-3.35706 2.02344,-4.67188 0.57756,-0.4722 1.29858,-0.74401 3.43555,-0.76953 2.14066,-0.0255 5.29223,0.38264 8.92187,0.4961 5.50453,0.40206 9.96057,-1.0418 13.22266,-2.14063 3.26898,-1.10115 5.38658,-1.82066 8.09961,-1.77734 0.31319,0.005 0.62638,-0.0106 0.9375,-0.0469 3.53587,-0.41357 6.41753,-2.15831 8.1543,-3.55078 1.73676,-1.39247 2.66288,-2.30914 3.00586,-2.5293 l -0.58789,0.3379 c 2.99858,-1.54163 6.50431,-3.82807 8.73242,-7.72266 2.56165,-4.24625 3.57604,-8.93141 2.85156,-14.32617 -0.36598,-2.72525 -1.33444,-5.86065 -4.03125,-8.40235 -1.73138,-1.63179 -4.11974,-2.57242 -6.57813,-2.93945 -0.64487,-0.67352 -1.15981,-1.22004 -1.66406,-1.76367 -0.35644,-0.88568 -0.81945,-3.06828 -1.20312,-6.2207 -0.41257,-3.3899 -0.70438,-7.7286 -3.75977,-12.04688 -0.2553,-0.36007 -0.54366,-0.69551 -0.86133,-1.00195 -4.63914,-4.48263 -10.15112,-5.44113 -14.59375,-5.99805 -1.37675,-0.24344 -2.71931,-1.25782 -2.80468,-1.1582 0.40687,-0.79642 0.84915,-1.66786 1.26953,-3.01367 0.12631,-0.40586 0.21586,-0.82225 0.26758,-1.24415 0.86785,-7.0313 4.3e-4,-14.37921 -4.7168,-20.03515 -1.31672,-1.5783 -3.25355,-2.50753 -5.3086,-2.54688 -2.62803,-0.0504 -5.42173,0.94344 -7.27734,2.41407 -1.85561,1.47062 -2.86636,3.12516 -3.5664,4.45898 -1.39281,2.65377 -2.3415,4.59468 -1.60743,3.68945 0.16224,-0.21313 -3.13143,2.35687 -4.5039,2.7793 -0.55724,0.17136 -1.09122,0.4108 -1.58985,0.71289 -0.68956,0.418 -3.17265,1.02247 -6.55078,1.44922 -3.09676,0.3912 -6.93507,0.72028 -10.96289,2.72656 -0.37413,0.15528 -0.88217,0.33806 -1.17383,0.48633 l 0.0312,0.0547 c -0.32596,0.19045 -0.63619,0.40663 -0.92773,0.64648 0.73763,-0.61059 0.44464,-0.33377 0.32422,-0.25586 -0.12043,0.0779 -0.33838,0.2169 -0.60547,0.38477 -0.53418,0.33573 -1.2758,0.79762 -2.0918,1.31836 -1.57001,1.00193 -3.33987,2.15676 -4.95898,3.44726 -3.26495,2.296 -5.28269,3.99114 -7.47461,6.05469 -0.10535,0.0997 -0.20761,0.20262 -0.30664,0.3086 0.15617,-0.16623 -0.43474,0.2806 -1.24414,0.44921 -0.64278,0.13391 -1.20823,0.0364 -1.04688,0.12696 -5.33087,-2.6965 -10.03218,-3.32658 -12.20312,-4.44727 l 0.4082,0.22852 c -4.1523,-2.50391 -7.98348,-3.75342 -10.09766,-5.0293 -0.0536,-0.0319 -0.10766,-0.0632 -0.16211,-0.0937 -1.93816,-1.10062 -4.57009,-2.59284 -7.04101,-3.96289 -0.0957,-0.0655 -0.21115,-0.14626 -0.29492,-0.20117 -0.56849,-0.37262 -1.35901,-0.86314 -2.36719,-1.47657 -1.67388,-1.01846 -3.60538,-2.12685 -5.37305,-3.0664 -1.10168,-0.98514 -2.91033,-3.07633 -6.19726,-4.89649 -1.2129,-1.03193 -2.18682,-2.22844 -4.24024,-4.22656 -3.18796,-3.17889 -5.45452,-4.13977 -5.82031,-4.40429 -4.4441,-3.57234 -7.90452,-8.49442 -11.33017,-12.59785 -1.25684,-1.52163 -2.79869,-3.41682 -4.09375,-5.03516 -0.18588,-0.23175 -0.38615,-0.45158 -0.59961,-0.6582 -2.36989,-2.29897 -3.92215,-3.61036 -4.84765,-4.63867 -0.0328,-0.0362 -0.066,-0.072 -0.0996,-0.10742 -2.2333,-2.38097 -3.80211,-3.46597 -5.37305,-5.11329 -0.25509,-0.26719 -0.53067,-0.51403 -0.82422,-0.73828 -3.32299,-2.54203 -6.36355,-3.8905 -7.54883,-4.84765 -0.41149,-0.33275 -0.85893,-0.61839 -1.33398,-0.85157 -1.48109,-0.72557 -4.35259,-3.4361 -9.49805,-4.79101 -5.96169,-3.01641 -12.10181,-3.58948 -16.10156,-4.95313 -0.58331,-0.19834 -1.18998,-0.3198 -1.80469,-0.36132 -9.313572,-0.63463 -17.047584,-0.88939 -26.66992,0.76953 -0.276714,-0.51633 -0.768554,-1.65469 -1.738281,-3.6836 -0.198244,-0.41469 -0.436344,-0.80913 -0.710938,-1.17773 -1.031452,-1.3851 -1.825587,-3.34656 -4.847656,-7.84961 -0.113956,-0.16921 -0.235163,-0.33343 -0.363281,-0.49219 -0.898223,-1.11676 -2.045285,-4.14701 -4.044922,-7.85547 -1.903574,-4.67226 -3.116055,-6.4259 -4.199219,-9.90039 -0.09074,-0.2926 -0.200342,-0.579 -0.328125,-0.85742 -1.620115,-3.51742 -3.340135,-9.79202 -2.658203,-14.5957 1.036067,-4.15819 2.257488,-7.82231 3.779297,-10.54102 2.327462,-2.53426 3.358622,-4.40924 3.777344,-4.84375 3.141938,-2.6733 5.302917,-4.51832 7.90039,-5.3789 0.322767,-0.10746 0.637381,-0.238 0.941406,-0.39063 1.440879,-0.72072 3.885437,-1.70315 5.550782,-2.00781 0.785874,-0.14377 1.041652,-0.12893 1.082031,-0.16602 0.296089,0.27888 0.615627,0.53177 0.955078,0.75586 -1.431545,0.33027 -3.044733,0.77739 -4.826172,1.61524 -1.894725,0.89113 -4.080774,2.3941 -5.599609,4.80078 -1.518835,2.40668 -2.087394,5.42851 -1.871094,8.24609 l 0,0.0137 c 0.522657,6.63497 4.230375,11.10809 6.355469,13.85743 0.131234,0.16895 0.270048,0.33188 0.416015,0.48828 4.446476,4.78657 10.291589,6.23739 15.701172,6.66015 0.364688,0.0283 0.731016,0.0283 1.095704,0 5.848252,-0.44882 12.141652,-1.75446 17.671872,-5.72461 0.54414,-0.39106 1.03009,-0.85729 1.44336,-1.38476 2.41901,-3.08371 2.89717,-3.85688 4.11328,-4.88477 0.38396,-0.32476 0.73227,-0.68944 1.03907,-1.08789 3.2364,-4.20062 5.13496,-9.18679 6.18554,-14.41211 2.19653,-8.69051 1.86109,-18.5858 -2.66992,-26.64062 l 0.59766,1.39453 c -1.19187,-3.88085 -2.87857,-7.99021 -6.06836,-11.54883 -0.14867,-0.16613 -0.30509,-0.32516 -0.46875,-0.47656 -0.89566,-0.82708 -2.51957,-2.83091 -5.17188,-4.82617 -2.72675,-3.28964 -5.88876,-4.91037 -8.14648,-6.19922 -0.15813,-0.0908 -0.31971,-0.17553 -0.48438,-0.25391 -6.641718,-3.1403 -14.536451,-4.61988 -22.613278,-4.54883 l -0.002,0 z"
       id="path5878"
       inkscape:connector-curvature="0"
       sodipodi:nodetypes="cccsccccccccccccccccccccccccscsccccscccccsccccccccccccccccccsccccccccccccccccccccscccccscccccccccccccccsccccccccsccccsccccssccccccsccscccssccsccccccccsscccsccccccscccccccccccscccccccccccccccccccccccccccccsccssccccccccccccccccccccc" />
  </g>
</svg>
