<?xml version="1.0" encoding="UTF-8" standalone="no"?>
<!-- Created with Inkscape (http://www.inkscape.org/) -->

<svg
   xmlns:dc="http://purl.org/dc/elements/1.1/"
   xmlns:cc="http://creativecommons.org/ns#"
   xmlns:rdf="http://www.w3.org/1999/02/22-rdf-syntax-ns#"
   xmlns:svg="http://www.w3.org/2000/svg"
   xmlns="http://www.w3.org/2000/svg"
   xmlns:sodipodi="http://sodipodi.sourceforge.net/DTD/sodipodi-0.dtd"
   xmlns:inkscape="http://www.inkscape.org/namespaces/inkscape"
   width="570.17395"
   height="395.63309"
   id="svg2"
   version="1.1"
   inkscape:version="0.48.1 r9760"
   sodipodi:docname="tiny_cat_clear.svg">
  <sodipodi:namedview
     id="base"
     pagecolor="#ffffff"
     bordercolor="#666666"
     borderopacity="1.0"
     inkscape:pageopacity="0.0"
     inkscape:pageshadow="2"
     inkscape:zoom="1.9118893"
     inkscape:cx="323.55614"
     inkscape:cy="216.49508"
     inkscape:document-units="px"
     inkscape:current-layer="layer1"
     showgrid="false"
     units="in"
     inkscape:window-width="1920"
     inkscape:window-height="1054"
     inkscape:window-x="0"
     inkscape:window-y="0"
     inkscape:window-maximized="1" />
  <defs
     id="defs4">
    <inkscape:perspective
       sodipodi:type="inkscape:persp3d"
       inkscape:vp_x="0 : 526.18109 : 1"
       inkscape:vp_y="0 : 1000 : 0"
       inkscape:vp_z="744.09448 : 526.18109 : 1"
       inkscape:persp3d-origin="372.04724 : 350.78739 : 1"
       id="perspective10" />
    <inkscape:perspective
       id="perspective2824"
       inkscape:persp3d-origin="0.5 : 0.33333333 : 1"
       inkscape:vp_z="1 : 0.5 : 1"
       inkscape:vp_y="0 : 1000 : 0"
       inkscape:vp_x="0 : 0.5 : 1"
       sodipodi:type="inkscape:persp3d" />
  </defs>
  <metadata
     id="metadata7">
    <rdf:RDF>
      <cc:Work
         rdf:about="">
        <dc:format>image/svg+xml</dc:format>
        <dc:type
           rdf:resource="http://purl.org/dc/dcmitype/StillImage" />
        <dc:title></dc:title>
      </cc:Work>
    </rdf:RDF>
  </metadata>
  <g
     inkscape:label="Layer 1"
     inkscape:groupmode="layer"
     id="layer1"
     transform="translate(-24.443941,-179.66802)">
    <g
       id="g9281" />
  </g>
  <g
     inkscape:groupmode="layer"
     id="layer2"
     inkscape:label="Layer 2">
    <path
       style="fill:none;stroke:#000000;stroke-opacity:1"
       d="m 134.48096,13.025435 c -0.26153,0.002 -0.51403,0.0378 -0.75667,0.0732 -13.12088,1.91567 -25.95197,46.27606 -20.11291,69.54086 l 1.78185,7.02975 15.25554,-13.13197 c 16.51258,-14.22173 16.28165,-13.32104 10.37377,-41.98325 -2.36957,-11.49575 3.34085,-0.42644 8.10374,15.71931 l 4.22274,14.35242 -19.50269,15.86576 c -13.65959,11.10899 -22.22913,20.797595 -28.6316,32.341745 -12.672452,22.84973 -12.267422,27.8631 2.4653,30.29141 19.5724,3.22599 21.37521,6.82378 2.4897,4.955 -17.132992,-1.69538 -17.393362,-1.61899 -16.475982,4.75973 0.8549,5.94411 2.07741,6.41352 14.669732,5.73608 7.55448,-0.40641 16.82384,0.49487 20.60108,2.00153 5.55608,2.2162 3.07833,2.76377 -13.03433,2.90465 -10.95392,0.0958 -19.917642,1.17698 -19.917642,2.39207 0,6.5464 18.019642,28.97805 31.365392,39.05418 8.43337,6.36723 15.32877,11.92046 15.32877,12.32648 0,0.40604 -2.1645,0.57599 -4.80854,0.36613 -3.06638,-0.24338 -4.65128,1.38779 -4.3936,4.54005 0.22222,2.71813 -0.41362,4.53194 -1.39131,4.00306 -19.1542,-10.36253 -29.46208,-13.43291 -39.932902,-11.86271 -15.7065,2.35535 -28.72357,10.88366 -33.29369,21.82152 -4.11319,9.84435 -2.15165,23.87879 3.61251,25.80018 1.98747,0.66248 2.65518,-0.56976 1.68421,-3.09993 -0.88286,-2.30082 -0.29771,-6.41751 1.29367,-9.15333 2.49939,-4.29681 2.90349,-3.84807 3.05111,3.27079 0.21987,10.60399 5.54554,17.46001 15.81694,20.40581 11.04547,3.16779 15.64593,0.13587 10.37377,-6.83448 -2.2182,-2.93269 -3.98063,-8.4272 -3.90542,-12.20443 0.12857,-6.46091 0.37531,-6.3352 4.00306,1.95271 3.68851,8.42663 11.102322,14.54768 17.623202,14.54768 5.93795,0 16.53909,-13.5197 16.62244,-21.18689 0.0687,-6.31122 0.5571,-6.84762 2.7582,-3.07552 1.74877,2.99687 1.70565,7.11969 -0.0976,11.86271 -3.56377,9.37335 -3.5162,9.6415 1.3669,9.6415 3.07856,0 4.14244,-3.31005 4.17392,-13.05874 0.0711,-22.12847 4.04101,-20.60513 4.39359,1.68421 0.26338,16.64404 1.87249,24.19134 7.7132,36.41803 6.57313,13.76 22.14017,32.76594 24.33564,29.70559 3.06919,-4.27833 18.85036,-54.54801 18.69719,-59.55764 -0.19988,-6.53796 3.99728,-8.53613 5.90695,-2.80702 0.62026,1.86087 -2.96093,14.82336 -7.95729,28.80247 -10.94025,30.60957 -17.18912,71.3795 -12.52175,81.62324 3.19205,7.00582 17.0311,12.67798 25.65372,10.49581 7.46591,-1.88941 10.89369,-12.8048 6.15103,-19.57591 -4.6173,-6.59202 -0.75421,-8.03405 4.51568,-1.68421 2.07019,2.49442 2.82495,7.89584 1.90389,13.57133 -1.19131,7.3412 -0.51254,9.69395 3.07552,10.64227 8.88295,2.34776 13.05777,1.82413 19.1121,-2.41648 6.37646,-4.46622 8.53897,-18.61088 3.34406,-21.82153 -1.51093,-0.93378 -2.7338,-3.05503 -2.7338,-4.71091 0,-1.6559 2.47018,-0.75757 5.49196,1.97712 3.02295,2.73575 5.49203,8.44922 5.49203,12.71702 0,7.29638 0.40999,7.58498 6.93212,4.61328 13.61546,-6.20362 12.25372,-23.34449 -2.41652,-30.34022 l -9.17773,-4.36919 3.97868,-18.77042 c 3.83606,-18.17689 3.43326,-55.37337 -0.73226,-68.24719 -1.71042,-5.28618 -1.62965,-5.29515 2.36762,-0.41495 7.69149,9.39023 8.97559,42.06791 2.97788,76.08244 -1.52038,8.62221 -0.88606,10.115 5.46759,13.00992 3.94697,1.79832 8.59379,6.37901 10.32499,10.1785 3.64773,8.00591 6.90634,8.56963 15.37758,2.63616 7.51457,-5.2634 8.28089,-18.89906 1.29363,-22.96875 -2.64404,-1.54004 -3.43622,-2.85872 -1.78181,-2.90465 5.87,-0.1629 12.80962,10.57211 11.44772,17.69643 -1.44118,7.5388 0.77296,8.53351 9.05573,4.10069 6.02223,-3.22298 7.24939,-16.08546 2.0259,-21.30894 -1.83141,-1.8314 -2.06316,-3.31961 -0.537,-3.31961 4.46686,0 9.32419,6.20844 9.32419,11.88712 0,4.38285 0.70532,4.69322 4.12514,1.85507 5.87101,-4.87252 5.09227,-13.71851 -1.85508,-21.11367 -7.69734,-8.19346 -16.02518,-8.04239 -28.63164,0.51259 -5.56608,3.77723 -12.11445,6.84876 -14.54768,6.83448 -2.43323,-0.0138 0.84459,-3.17646 7.27384,-7.02975 12.52999,-7.50975 18.3468,-16.17757 21.26016,-31.70712 2.50189,-13.33653 -7.99314,-25.97346 -25.14113,-30.2914 -9.29302,-2.34001 -15.01641,-6.32049 -23.70105,-16.40276 -10.82902,-12.5717 -12.06586,-13.22617 -22.50497,-11.93593 -13.43034,1.65998 -6.73185,-2.06306 12.54616,-6.98094 6.93586,-1.76936 16.16718,-6.06182 20.50344,-9.51946 l 7.88411,-6.27308 -13.62015,-7.29825 c -13.70966,-7.33872 -6.60812,-7.11914 7.85965,0.24409 6.02489,3.06631 8.61817,3.23854 11.66744,0.70786 6.21938,-5.16159 4.86006,-6.62215 -11.20371,-12.08239 -19.6234,-6.6702 -17.57883,-8.66012 2.80706,-2.73379 18.00414,5.23395 19.02439,4.5768 21.79708,-13.91306 1.88249,-12.55343 -0.70008,-26.86052 -9.39737,-52.01529 l -5.66286,-16.35394 12.98552,-13.180785 c 17.2532,-17.51659 20.96795,-16.87546 5.39432,0.92753 l -12.32644,14.108335 5.56522,15.4264 c 3.06114,8.48383 6.06996,17.13991 6.68803,19.23419 0.8859,3.00138 2.34294,2.69273 6.85885,-1.39131 13.671,-12.36368 24.72435,-50.303135 19.01455,-65.244905 -2.90993,-7.61472 -3.52964,-7.85249 -18.1602,-6.63921 -11.01906,0.91378 -18.33094,3.48597 -26.75212,9.42182 l -11.5698,8.15256 -15.01149,-8.98246 c -16.04752,-9.63619 -44.54575,-17.42793 -63.80477,-17.42793 -11.21785,0 -12.15828,-0.62589 -18.40429,-12.3997 -8.1991,-15.45538 -25.11269,-31.16214 -33.22047,-31.0969 z M 149.32155,115.5915 c 8.75853,0 14.42225,6.42711 11.76508,13.35164 -2.13634,5.56716 -13.81358,5.89705 -18.28224,0.51259 -5.63865,-6.79411 -2.30424,-13.86423 6.51716,-13.86423 z m 89.65377,24.26241 c 3.10426,-0.01 6.6064,1.38414 9.61709,4.71091 5.23935,5.78948 5.22858,5.91532 0,9.73914 -6.74536,4.93228 -10.97055,4.894 -15.1335,-0.12205 -6.26405,-7.54768 -1.313,-14.30684 5.51641,-14.328 z m -52.55229,8.5431 c 0.24269,-0.0104 0.49107,-0.006 0.73227,0 4.24511,0.10323 8.20412,2.73418 10.76431,7.51793 3.14386,5.87431 -0.84725,13.22961 -7.17621,13.22961 -5.8404,0 -7.02179,7.9662 -1.61099,10.86194 3.55643,1.90336 6.5226,1.54137 10.20291,-1.24485 5.99833,-4.54117 9.29982,-5.15076 9.29982,-1.68421 0,1.33874 -4.14662,4.42387 -9.22659,6.83448 -5.08002,2.4106 -10.81297,6.24888 -12.71702,8.5431 -4.17763,5.03371 -6.14733,5.20282 -10.47141,0.87872 -1.81305,-1.81307 -3.29519,-4.41237 -3.29519,-5.76049 0,-1.34813 -2.47022,-5.58025 -5.492,-9.42182 -5.87828,-7.47305 -7.00085,-11.74067 -3.07551,-11.74067 1.33463,0 3.06645,2.47022 3.8566,5.492 1.51975,5.8115 6.36708,6.97211 12.59497,3.0267 3.03678,-1.92381 2.64975,-3.47686 -2.00153,-8.12815 -6.30623,-6.30622 -5.35792,-12.73982 2.48971,-16.93976 1.70232,-0.91105 3.42702,-1.39172 5.12586,-1.46453 z m -15.81694,48.15869 c 0.5004,-0.0295 1.56084,0.30434 3.22197,0.92754 2.76761,1.03833 6.87263,1.87948 9.1045,1.87948 2.23195,0 3.27704,1.24731 2.34325,2.7582 -2.57757,4.17067 -8.47975,3.29964 -12.69261,-1.87948 -2.07431,-2.55006 -2.81113,-3.63652 -1.97711,-3.68574 z"
       id="path2848"
       inkscape:connector-curvature="0" />
    <path
       style="fill:none;stroke:#000000;stroke-opacity:1"
       d="m 171.40959,343.56327 c 1.73698,-11.58335 1.28325,-12.87761 -6.94141,-19.79815 -8.84874,-7.44576 -24.50494,-36.45544 -24.509,-45.41319 0,-6.59301 -10.04091,-6.22054 -13.64092,0.50617 -3.6404,6.80226 -3.65454,21.00336 -0.0273,27.78042 1.54889,2.8941 6.18462,7.08998 10.30156,9.32418 4.11701,2.2342 5.82188,4.11166 3.78864,4.17215 -2.03324,0.0605 -7.18722,-1.95185 -11.45326,-4.47188 -7.25088,-4.28318 -8.21872,-4.27904 -14.84606,0.0635 -7.198,4.71621 -9.75667,16.28112 -4.34236,19.62734 1.51085,0.93378 2.74707,-0.1412 2.74707,-2.38872 0,-4.57389 7.2155,-12.72021 11.26675,-12.72021 1.4482,0 0.0695,3.46701 -3.06302,7.70446 -6.60407,8.93248 -5.21663,14.99505 4.4385,19.39422 10.06817,4.5874 11.25495,3.9714 9.91664,-5.14723 -1.19857,-8.16626 2.9989,-16.45729 8.33167,-16.45729 1.58372,0 1.35721,1.67472 -0.53489,3.9545 -9.00386,10.849 2.33786,26.12706 19.46656,26.22285 6.48916,0.0362 7.43592,-1.24877 9.10111,-12.35308 z"
       id="path2838"
       inkscape:connector-curvature="0" />
    <path
       style="fill:none;stroke:#000000;stroke-opacity:1"
       d="m 296.01505,242.50187 c 0.492,-5.80947 -1.48883,-15.29801 -4.71704,-22.59606 -4.97488,-11.24659 -6.15416,-12.26592 -11.11732,-9.60974 -3.05357,1.63427 -6.33178,6.33519 -7.28478,10.44653 -0.95308,4.11135 -3.54612,10.37496 -5.76229,13.91916 -3.7164,5.94319 -3.53347,6.79712 2.35364,10.98831 6.57282,4.67934 18.08482,8.40589 22.93254,7.42342 1.51085,-0.30619 3.12879,-5.06344 3.59525,-10.57162 z"
       id="path2836"
       inkscape:connector-curvature="0" />
  </g>
  <defs
     id="defs9743">
    <marker
       refY="-1.687441"
       refX="-4"
       style="overflow:visible"
       id="CheckToolsAndOPMarker"
       orient="auto">
      <path
         style="fill:#000044; fill-rule:evenodd;stroke:none;"
         d=" m -4.588864,-1.687441 0.0,0.0 L -9.177728,0.0 c 0.73311,-0.996261 0.728882,-2.359329 0.0,-3.374882"
         id="path9746" />
    </marker>
  </defs>
  <defs
     id="defs9748">
    <marker
       refY="-1.687441"
       refX="-4"
       style="overflow:visible"
       id="DrawCurveMarker"
       orient="auto">
      <path
         style="fill:#000044; fill-rule:evenodd;stroke:none;"
         d="m -4.588864,-1.687441 0.0,0.0 L -9.177728,0.0 c 0.73311,-0.996261 0.728882,-2.359329 0.0,-3.374882"
         id="path9751" />
    </marker>
  </defs>
  <defs
     id="defs9753">
    <marker
       refY="-1.687441"
       refX="4"
       style="overflow:visible"
       id="DrawCurveMarker_r"
       orient="auto">
      <path
         style="fill:#000044; fill-rule:evenodd;stroke:none;"
         d="m 4.588864,-1.687441 0.0,0.0 L 9.177728,0.0 c -0.73311,-0.996261 -0.728882,-2.359329 0.0,-3.374882"
         id="path9756" />
    </marker>
  </defs>
  <defs
     id="defs9758">
    <marker
       refY="-1.687441"
       refX="-4"
       style="overflow:visible"
       id="InOutPathMarker"
       orient="auto">
      <path
         style="fill:#0072a7; fill-rule:evenodd;stroke:none;"
         d="m -4.588864,-1.687441 0.0,0.0 L -9.177728,0.0 c 0.73311,-0.996261 0.728882,-2.359329 0.0,-3.374882"
         id="path9761" />
    </marker>
  </defs>
</svg>
