999
dxflib 2.2.0.0
  0
SECTION
  2
HEADER
  9
$ACADVER
  1
AC1015
  9
$HANDSEED
  5
FFFF
  9
$DIMASZ
 40
2.5
  9
$FILLMODE
 70
0
  9
$PLIMMIN
 10
0.0
 20
0.0
  9
$DIMEXE
 40
1.25
  9
$DIMGAP
 40
0.625
  9
$PLIMMAX
 10
210.0
 20
297.0
  9
$EXTMIN
 10
0.0
 20
0.0
 30
0.0
  9
$EXTMAX
 10
1000.0
 20
1000.0
 30
0.0
  9
$SPLFRAME
 70
1
  9
$INSUNITS
 70
4
  9
$DIMSTYLE
  2
Standard
  9
$DIMEXO
 40
0.625
  9
$DIMTXT
 40
2.5
  0
ENDSEC
  0
SECTION
  2
TABLES
  0
TABLE
  2
VPORT
  5
8
100
AcDbSymbolTable
 70
1
  0
VPORT
  5
30
100
AcDbSymbolTableRecord
100
AcDbViewportTableRecord
  2
*Active
 70
0
 10
0.0
 20
0.0
 11
1.0
 21
1.0
 12
286.3055555555554861
 22
148.5
 13
0.0
 23
0.0
 14
10.0
 24
10.0
 15
10.0
 25
10.0
 16
0.0
 26
0.0
 36
1.0
 17
0.0
 27
0.0
 37
0.0
 40
297.0
 41
1.92798353909465
 42
50.0
 43
0.0
 44
0.0
 50
0.0
 51
0.0
 71
0
 72
100
 73
1
 74
3
 75
1
 76
1
 77
0
 78
0
281
0
 65
1
110
0.0
120
0.0
130
0.0
111
1.0
121
0.0
131
0.0
112
0.0
122
1.0
132
0.0
 79
0
146
0.0
  0
ENDTAB
  0
TABLE
  2
LTYPE
  5
5
100
AcDbSymbolTable
 70
21
  0
LTYPE
  5
14
100
AcDbSymbolTableRecord
100
AcDbLinetypeTableRecord
  2
ByBlock
 70
0
  3

 72
65
 73
0
 40
0.0
  0
LTYPE
  5
15
100
AcDbSymbolTableRecord
100
AcDbLinetypeTableRecord
  2
ByLayer
 70
0
  3

 72
65
 73
0
 40
0.0
  0
LTYPE
  5
16
100
AcDbSymbolTableRecord
100
AcDbLinetypeTableRecord
  2
CONTINUOUS
 70
0
  3
Solid line
 72
65
 73
0
 40
0.0
  0
LTYPE
  5
31
100
AcDbSymbolTableRecord
100
AcDbLinetypeTableRecord
  2
DOT
 70
0
  3
Dot . . . . . . . . . . . . . . . . . . . . . .
 72
65
 73
2
 40
6.3499999999999996
 49
0.0
 74
0
 49
-6.3499999999999996
 74
0
  0
LTYPE
  5
32
100
AcDbSymbolTableRecord
100
AcDbLinetypeTableRecord
  2
DOT2
 70
0
  3
Dot (.5x) .....................................
 72
65
 73
2
 40
3.1749999999999998
 49
0.0
 74
0
 49
-3.1749999999999998
 74
0
  0
LTYPE
  5
33
100
AcDbSymbolTableRecord
100
AcDbLinetypeTableRecord
  2
DOTX2
 70
0
  3
Dot (2x) .  .  .  .  .  .  .  .  .  .  .  .  .
 72
65
 73
2
 40
12.6999999999999993
 49
0.0
 74
0
 49
-12.6999999999999993
 74
0
  0
LTYPE
  5
34
100
AcDbSymbolTableRecord
100
AcDbLinetypeTableRecord
  2
DASHED
 70
0
  3
Dashed __ __ __ __ __ __ __ __ __ __ __ __ __ _
 72
65
 73
2
 40
19.0500000000000007
 49
12.6999999999999993
 74
0
 49
-6.3499999999999996
 74
0
  0
LTYPE
  5
35
100
AcDbSymbolTableRecord
100
AcDbLinetypeTableRecord
  2
DASHED2
 70
0
  3
Dashed (.5x) _ _ _ _ _ _ _ _ _ _ _ _ _ _ _ _ _
 72
65
 73
2
 40
9.5250000000000004
 49
6.3499999999999996
 74
0
 49
-3.1749999999999998
 74
0
  0
LTYPE
  5
36
100
AcDbSymbolTableRecord
100
AcDbLinetypeTableRecord
  2
DASHEDX2
 70
0
  3
Dashed (2x) ____  ____  ____  ____  ____  ___
 72
65
 73
2
 40
38.1000000000000014
 49
25.3999999999999986
 74
0
 49
-12.6999999999999993
 74
0
  0
LTYPE
  5
37
100
AcDbSymbolTableRecord
100
AcDbLinetypeTableRecord
  2
DASHDOT
 70
0
  3
Dash dot __ . __ . __ . __ . __ . __ . __ . __
 72
65
 73
4
 40
25.3999999999999986
 49
12.6999999999999993
 74
0
 49
-6.3499999999999996
 74
0
 49
0.0
 74
0
 49
-6.3499999999999996
 74
0
  0
LTYPE
  5
38
100
AcDbSymbolTableRecord
100
AcDbLinetypeTableRecord
  2
DASHDOT2
 70
0
  3
Dash dot (.5x) _._._._._._._._._._._._._._._.
 72
65
 73
4
 40
12.6999999999999993
 49
6.3499999999999996
 74
0
 49
-3.1749999999999998
 74
0
 49
0.0
 74
0
 49
-3.1749999999999998
 74
0
  0
LTYPE
  5
39
100
AcDbSymbolTableRecord
100
AcDbLinetypeTableRecord
  2
DASHDOTX2
 70
0
  3
Dash dot (2x) ____  .  ____  .  ____  .  ___
 72
65
 73
4
 40
50.7999999999999972
 49
25.3999999999999986
 74
0
 49
-12.6999999999999993
 74
0
 49
0.0
 74
0
 49
-12.6999999999999993
 74
0
  0
LTYPE
  5
3A
100
AcDbSymbolTableRecord
100
AcDbLinetypeTableRecord
  2
DIVIDE
 70
0
  3
Divide ____ . . ____ . . ____ . . ____ . . ____
 72
65
 73
6
 40
31.75
 49
12.6999999999999993
 74
0
 49
-6.3499999999999996
 74
0
 49
0.0
 74
0
 49
-6.3499999999999996
 74
0
 49
0.0
 74
0
 49
-6.3499999999999996
 74
0
  0
LTYPE
  5
3B
100
AcDbSymbolTableRecord
100
AcDbLinetypeTableRecord
  2
DIVIDE2
 70
0
  3
Divide (.5x) __..__..__..__..__..__..__..__.._
 72
65
 73
6
 40
15.875
 49
6.3499999999999996
 74
0
 49
-3.1749999999999998
 74
0
 49
0.0
 74
0
 49
-3.1749999999999998
 74
0
 49
0.0
 74
0
 49
-3.1749999999999998
 74
0
  0
LTYPE
  5
3C
100
AcDbSymbolTableRecord
100
AcDbLinetypeTableRecord
  2
DIVIDEX2
 70
0
  3
Divide (2x) ________  .  .  ________  .  .  _
 72
65
 73
6
 40
63.5
 49
25.3999999999999986
 74
0
 49
-12.6999999999999993
 74
0
 49
0.0
 74
0
 49
-12.6999999999999993
 74
0
 49
0.0
 74
0
 49
-12.6999999999999993
 74
0
  0
LTYPE
  5
3D
100
AcDbSymbolTableRecord
100
AcDbLinetypeTableRecord
  2
CENTER
 70
0
  3
Center ____ _ ____ _ ____ _ ____ _ ____ _ ____
 72
65
 73
4
 40
50.7999999999999972
 49
31.75
 74
0
 49
-6.3499999999999996
 74
0
 49
6.3499999999999996
 74
0
 49
-6.3499999999999996
 74
0
  0
LTYPE
  5
3E
100
AcDbSymbolTableRecord
100
AcDbLinetypeTableRecord
  2
CENTER2
 70
0
  3
Center (.5x) ___ _ ___ _ ___ _ ___ _ ___ _ ___
 72
65
 73
4
 40
28.5749999999999993
 49
19.0500000000000007
 74
0
 49
-3.1749999999999998
 74
0
 49
3.1749999999999998
 74
0
 49
-3.1749999999999998
 74
0
  0
LTYPE
  5
3F
100
AcDbSymbolTableRecord
100
AcDbLinetypeTableRecord
  2
CENTERX2
 70
0
  3
Center (2x) ________  __  ________  __  _____
 72
65
 73
4
 40
101.5999999999999943
 49
63.5
 74
0
 49
-12.6999999999999993
 74
0
 49
12.6999999999999993
 74
0
 49
-12.6999999999999993
 74
0
  0
LTYPE
  5
40
100
AcDbSymbolTableRecord
100
AcDbLinetypeTableRecord
  2
BORDER
 70
0
  3
Border __ __ . __ __ . __ __ . __ __ . __ __ .
 72
65
 73
6
 40
44.4500000000000028
 49
12.6999999999999993
 74
0
 49
-6.3499999999999996
 74
0
 49
12.6999999999999993
 74
0
 49
-6.3499999999999996
 74
0
 49
0.0
 74
0
 49
-6.3499999999999996
 74
0
  0
LTYPE
  5
41
100
AcDbSymbolTableRecord
100
AcDbLinetypeTableRecord
  2
BORDER2
 70
0
  3
Border (.5x) __.__.__.__.__.__.__.__.__.__.__.
 72
65
 73
6
 40
22.2250000000000014
 49
6.3499999999999996
 74
0
 49
-3.1749999999999998
 74
0
 49
6.3499999999999996
 74
0
 49
-3.1749999999999998
 74
0
 49
0.0
 74
0
 49
-3.1749999999999998
 74
0
  0
LTYPE
  5
42
100
AcDbSymbolTableRecord
100
AcDbLinetypeTableRecord
  2
BORDERX2
 70
0
  3
Border (2x) ____  ____  .  ____  ____  .  ___
 72
65
 73
6
 40
88.9000000000000057
 49
25.3999999999999986
 74
0
 49
-12.6999999999999993
 74
0
 49
25.3999999999999986
 74
0
 49
-12.6999999999999993
 74
0
 49
0.0
 74
0
 49
-12.6999999999999993
 74
0
  0
ENDTAB
  0
TABLE
  2
LAYER
  5
2
100
AcDbSymbolTable
 70
5
  0
LAYER
  5
10
100
AcDbSymbolTableRecord
100
AcDbLayerTableRecord
  2
0
 70
0
 62
7
  6
CONTINUOUS
390
F
  0
LAYER
  5
43
100
AcDbSymbolTableRecord
100
AcDbLayerTableRecord
  2
inner
 70
1
 62
7
  6
CONTINUOUS
370
0
390
F
  0
LAYER
  5
44
100
AcDbSymbolTableRecord
100
AcDbLayerTableRecord
  2
outer
 70
1
 62
7
  6
CONTINUOUS
370
0
390
F
  0
LAYER
  5
45
100
AcDbSymbolTableRecord
100
AcDbLayerTableRecord
  2
top
 70
1
 62
7
  6
CONTINUOUS
370
0
390
F
  0
LAYER
  5
46
100
AcDbSymbolTableRecord
100
AcDbLayerTableRecord
  2
top_inner
 70
0
 62
7
  6
CONTINUOUS
370
0
390
F
  0
ENDTAB
  0
TABLE
  2
STYLE
  5
3
100
AcDbSymbolTable
 70
1
  0
STYLE
  5
11
100
AcDbSymbolTableRecord
100
AcDbTextStyleTableRecord
  2
Standard
 70
0
 40
0.0
 41
0.75
 50
0.0
 71
0
 42
2.5
  3
txt
  4

  0
ENDTAB
  0
TABLE
  2
VIEW
  5
6
100
AcDbSymbolTable
 70
0
  0
ENDTAB
  0
TABLE
  2
UCS
  5
7
100
AcDbSymbolTable
 70
0
  0
ENDTAB
  0
TABLE
  2
APPID
  5
9
100
AcDbSymbolTable
 70
1
  0
APPID
  5
12
100
AcDbSymbolTableRecord
100
AcDbRegAppTableRecord
  2
ACAD
 70
0
  0
ENDTAB
  0
TABLE
  2
DIMSTYLE
  5
A
100
AcDbSymbolTable
 70
1
100
AcDbDimStyleTable
 71
0
  0
DIMSTYLE
105
27
100
AcDbSymbolTableRecord
100
AcDbDimStyleTableRecord
  2
Standard
 41
2.5
 42
0.625
 43
3.75
 44
1.25
 70
0
 73
0
 74
0
 77
1
 78
8
140
2.5
141
2.5
143
0.03937007874016
147
0.625
171
3
172
1
271
2
272
2
274
3
278
44
283
0
284
8
340
11
  0
ENDTAB
  0
TABLE
  2
BLOCK_RECORD
  5
1
100
AcDbSymbolTable
 70
1
  0
BLOCK_RECORD
  5
1F
100
AcDbSymbolTableRecord
100
AcDbBlockTableRecord
  2
*Model_Space
340
22
  0
BLOCK_RECORD
  5
1B
100
AcDbSymbolTableRecord
100
AcDbBlockTableRecord
  2
*Paper_Space
340
1E
  0
BLOCK_RECORD
  5
23
100
AcDbSymbolTableRecord
100
AcDbBlockTableRecord
  2
*Paper_Space0
340
26
  0
ENDTAB
  0
ENDSEC
  0
SECTION
  2
BLOCKS
  0
BLOCK
  5
20
100
AcDbEntity
  8
0
100
AcDbBlockBegin
  2
*Model_Space
 70
0
 10
0.0
 20
0.0
 30
0.0
  3
*Model_Space
  1

  0
ENDBLK
  5
21
100
AcDbEntity
  8
0
100
AcDbBlockEnd
  0
BLOCK
  5
1C
100
AcDbEntity
 67
1
  8
0
100
AcDbBlockBegin
  2
*Paper_Space
 70
0
 10
0.0
 20
0.0
 30
0.0
  3
*Paper_Space
  1

  0
ENDBLK
  5
1D
100
AcDbEntity
 67
1
  8
0
100
AcDbBlockEnd
  0
BLOCK
  5
24
100
AcDbEntity
  8
0
100
AcDbBlockBegin
  2
*Paper_Space0
 70
0
 10
0.0
 20
0.0
 30
0.0
  3
*Paper_Space0
  1

  0
ENDBLK
  5
25
100
AcDbEntity
  8
0
100
AcDbBlockEnd
  0
ENDSEC
  0
SECTION
  2
ENTITIES
  0
LWPOLYLINE
  5
47
  8
inner
 62
0
370
-1
  6
ByLayer
100
AcDbEntity
100
AcDbPolyline
 90
71
 70
1
 10
65.3989723320158021
 20
59.6361264822134416
 10
64.0109090909090952
 20
59.6259288537549494
 10
62.7279051383399278
 20
59.5267984189723336
 10
61.6175494071146304
 20
59.3029249011857686
 10
60.7464822134387461
 20
58.9196837944664082
 10
60.1803952569170022
 20
58.344110671936761
 10
59.9887747035573184
 20
57.540158102766803
 10
60.2344664031620596
 20
56.4748616600790498
 10
60.988379446640316
 20
55.1109881422924914
 10
59.4058498023715416
 20
54.8316205533596914
 10
57.6867193675889354
 20
54.7867984189723316
 10
55.8879051383399243
 20
54.8536758893280663
 10
54.0675098814229287
 20
54.9103557312253017
 10
52.2817391304347865
 20
54.8330434782608762
 10
50.5886956521739179
 20
54.4986561264822171
 10
49.0417391304347845
 20
53.7871936758893341
 10
47.7039525691699637
 20
52.5736758893280651
 10
48.6300395256917
 20
50.5524110671936739
 10
49.268458498023719
 20
48.3497233201581054
 10
49.6775494071146255
 20
46.0429249011857777
 10
49.9144664031620593
 20
43.7074308300395273
 10
50.0392094861660084
 20
41.4210276679841911
 10
50.1096442687747086
 20
39.2607905138339959
 10
50.1857707509881408
 20
37.3052173913043532
 10
50.324743083003959
 20
35.6273517786561271
 10
52.0578656126482215
 20
36.7211067193675973
 10
53.8846640316205594
 20
37.8724901185770761
 10
55.7878260869565281
 20
38.9714624505928882
 10
57.7500395256916974
 20
39.903003952569172
 10
59.7532806324110695
 20
40.5577865612648267
 10
61.7835573122529667
 20
40.8203162055336009
 10
63.822845849802377
 20
40.5810276679841948
 10
65.8543083003952603
 20
39.7253754940711445
 10
67.6199209486165955
 20
37.992252964426882
 10
69.3298023715415042
 20
37.3811067193675939
 10
71.0190513833992156
 20
37.606166007905145
 10
72.7227667984189736
 20
38.3833201581027694
 10
74.4748616600790569
 20
39.4267984189723393
 10
76.3109090909090924
 20
40.4496442687747049
 10
78.2655335968379546
 20
41.1677470355731288
 10
80.3740711462450577
 20
41.2924901185770779
 10
83.3864031620553448
 20
40.5205533596838023
 10
86.2156521739130568
 20
39.1592885375494077
 10
88.9509881422924877
 20
37.6924901185770764
 10
91.681106719367591
 20
36.6039525691699623
 10
91.8976284584980334
 20
38.0309090909090912
 10
92.0916205533596894
 20
39.8565217391304358
 10
92.177944664031628
 20
41.8277470355731253
 10
92.07241106719367
 20
43.6946245059288572
 10
91.6863241106719471
 20
45.2026877470355757
 10
90.9378656126482241
 20
46.0993675889328074
 10
89.7385770750988172
 20
46.1313833992094828
 10
88.0052173913043418
 20
45.0468774703557386
 10
88.3668774703557318
 20
47.2007114624505917
 10
88.0400790513834011
 20
49.4947035573122562
 10
87.1433992094861765
 20
51.7747035573122574
 10
85.7987351778656233
 20
53.891304347826086
 10
84.122292490118582
 20
55.6913043478260903
 10
82.2362055335968449
 20
57.0243478260869594
 10
80.2585770750988132
 20
57.7358102766798424
 10
78.3105928853754989
 20
57.67533596837945
 10
77.7869565217391425
 20
55.2293280632411125
 10
76.8539920948616668
 20
53.7973913043478262
 10
75.6663241106719511
 20
53.2583399209486217
 10
74.3811857707509887
 20
53.4836363636363714
 10
73.1574703557312205
 20
54.3480632411067219
 10
72.1502766798419088
 20
55.7273517786561285
 10
71.5184980237154235
 20
57.4950988142292516
 10
71.4179446640316229
 20
59.5253754940711488
 10
68.7599209486166103
 20
59.5009486166007875
 10
65.3989723320158021
 20
59.6361264822134416
  0
LWPOLYLINE
  5
48
  8
inner
 62
0
370
-1
  6
ByLayer
100
AcDbEntity
100
AcDbPolyline
 90
56
 70
1
 10
64.4083794466403248
 20
106.5549407114624501
 10
62.9918577075098867
 20
106.4287747035573233
 10
64.1548616600790496
 20
104.7212648221343869
 10
65.371936758893284
 20
102.9805533596837961
 10
66.5401581027668101
 20
101.1973913043478319
 10
67.5539920948616555
 20
99.3599209486166046
 10
68.3057707509881453
 20
97.4581818181818278
 10
68.6925691699604783
 20
95.4807905138339947
 10
68.609328063241108
 20
93.4156521739130454
 10
67.9493280632411114
 20
91.2530434782608779
 10
67.3533596837944799
 20
89.711541501976285
 10
66.4410276679842013
 20
88.3049802371541546
 10
65.4257707509881499
 20
86.9994466403162079
 10
64.5191304347826247
 20
85.7548616600790581
 10
63.9333596837944711
 20
84.5392094861660155
 10
63.8821343873517833
 20
83.3128853754940764
 10
64.5793675889327972
 20
82.0417391304347916
 10
66.2366007905138332
 20
80.685691699604746
 10
67.177154150197623
 20
78.6063241106719488
 10
67.626086956521732
 20
76.4809486166007986
 10
67.648142292490121
 20
74.3347035573122525
 10
67.3097233201580991
 20
72.1950988142292545
 10
66.6765217391304361
 20
70.0875098814229318
 10
65.8144664031620579
 20
68.0377865612648236
 10
64.790434782608699
 20
66.071778656126483
 10
63.6696442687747037
 20
64.2141501976284559
 10
71.8346245059288577
 20
63.8266403162055411
 10
79.9445849802371526
 20
62.8026086956521823
 10
79.0128063241106702
 20
64.5988142292490153
 10
77.8704347826086973
 20
66.4822924901185957
 10
76.67399209486166
 20
68.448300395256922
 10
75.5814229249011902
 20
70.4878260869565167
 10
74.7490118577075151
 20
72.592569169960484
 10
74.3358893280632458
 20
74.7577865612648225
 10
74.4992885375494183
 20
76.9749407114624518
 10
75.3962055335968415
 20
79.2369169960474409
 10
77.0095652173913123
 20
80.6792885375494109
 10
77.8846640316205594
 20
82.0056916996047391
 10
78.1379446640316218
 20
83.2550197628458477
 10
77.8896442687747168
 20
84.460474308300391
 10
77.2592885375494092
 20
85.6583399209486203
 10
76.3675889328063278
 20
86.8846640316205594
 10
75.331936758893292
 20
88.1752569169960623
 10
74.2730434782608739
 20
89.5649802371541597
 10
73.5988142292490153
 20
91.78924901185772
 10
73.5793675889328114
 20
94.05762845849803
 10
74.0441897233201587
 20
96.3300395256917028
 10
74.8237154150197625
 20
98.5661660079051387
 10
75.7474308300395336
 20
100.7275889328063414
 10
76.6455335968379501
 20
102.7720948616600936
 10
77.3482213438735329
 20
104.6624505928853779
 10
77.6852173913043487
 20
106.3566798418972326
 10
74.4169960474308425
 20
105.8586561264822166
 10
70.8902766798419037
 20
105.9950197628458568
 10
67.4411067193675819
 20
106.3633201581027805
 10
64.4083794466403248
 20
106.5549407114624501
  0
LWPOLYLINE
  5
49
  8
inner
 62
0
370
-1
  6
ByLayer
100
AcDbEntity
100
AcDbPolyline
 90
61
 70
1
 10
84.8349407114624512
 20
82.8729644268774734
 10
83.6489328063241118
 20
82.1937549407114574
 10
83.0119367588932846
 20
80.6818972332015818
 10
82.6040316205533571
 20
78.7671146245059361
 10
82.107430830039533
 20
76.875810276679843
 10
80.7627667984189799
 20
75.8916205533596866
 10
80.0885375494071212
 20
74.6356521739130443
 10
79.969011857707514
 20
73.1911462450592865
 10
80.2917786561264961
 20
71.6420553359683936
 10
80.9456126482213563
 20
70.0735177865612684
 10
81.8152569169960486
 20
68.5668774703557347
 10
82.790434782608699
 20
67.2082213438735181
 10
83.7568379446640421
 20
66.078418972332031
 10
83.7618181818181853
 20
63.2657707509881391
 10
84.095256916996064
 20
60.7322529644268769
 10
85.302134387351785
 20
58.5760474308300445
 10
87.9307509881423073
 20
56.8903557312252985
 10
88.5660869565217439
 20
56.464426877470359
 10
89.1646640316205605
 20
55.8378656126482227
 10
89.7385770750988172
 20
55.0929644268774794
 10
90.3006324110671983
 20
54.3172332015810326
 10
90.8681422924901341
 20
53.595098814229253
 10
91.4508300395256981
 20
53.0124110671936819
 10
92.0657707509881504
 20
52.6535968379446686
 10
92.7260079051383457
 20
52.6033201581027683
 10
94.8824505928853768
 20
56.7644268774703562
 10
97.5935968379446734
 20
60.4647430830039596
 10
100.7240316205533617
 20
63.8178656126482267
 10
104.1400000000000006
 20
66.9328853754940667
 10
107.7101185770751215
 20
69.9203162055335952
 10
111.2987351778656091
 20
72.8923320158102683
 10
114.7754150197628462
 20
75.9584980237154213
 10
118.0033201581027811
 20
79.2279051383399207
 10
118.7408695652173947
 20
80.3370750988142248
 10
118.5411857707509853
 20
81.1886956521739194
 10
117.6407114624505965
 20
81.770434782608703
 10
116.2754150197628462
 20
82.0713833992094948
 10
114.68387351778658
 20
82.0789723320158231
 10
113.1027667984189833
 20
81.7806324110671881
 10
111.7697233201581071
 20
81.1642687747035581
 10
110.9216600790513922
 20
80.218735177865625
 10
109.8781818181818153
 20
79.6253754940711502
 10
108.7770750988142368
 20
79.1389723320158254
 10
107.6743083003952535
 20
78.8237944664031716
 10
106.6308300395257049
 20
78.7388932806324107
 10
105.704505928853763
 20
78.9473517786561274
 10
104.9567588932806359
 20
79.5108300395257004
 10
104.4447430830039565
 20
80.4914624505928913
 10
104.2298814229249047
 20
81.9480632411067234
 10
102.1507509881422919
 20
81.8847430830039684
 10
100.0896442687747054
 20
81.5221343873517839
 10
98.0411067193676047
 20
81.0174703557312341
 10
96.0020553359683788
 20
80.5234782608695667
 10
93.965138339920955
 20
80.1940711462450651
 10
91.9258498023715447
 20
80.1864822134387367
 10
89.8801581027667993
 20
80.6534387351778719
 10
87.8214229249011993
 20
81.7495652173913072
 10
86.8886956521739222
 20
82.2964426877470459
 10
86.0883003952569226
 20
82.6554940711462507
 10
85.4064822134387356
 20
82.8418972332015784
 10
84.8349407114624512
 20
82.8729644268774734
  0
LWPOLYLINE
  5
4A
  8
inner
 62
0
370
-1
  6
ByLayer
100
AcDbEntity
100
AcDbPolyline
 90
53
 70
1
 10
92.3067193675889399
 20
114.604189723320161
 10
90.6893280632411205
 20
113.8116205533596883
 10
88.8352569169960589
 20
112.0040316205533628
 10
86.827984189723324
 20
110.1162845849802352
 10
84.7552569169960464
 20
109.0780237154150285
 10
82.6784980237154201
 20
106.4173913043478308
 10
81.364901185770762
 20
103.1015019762845952
 10
80.2673517786561348
 20
99.5747826086956564
 10
78.8432411067193755
 20
96.2759683794466525
 10
78.3594466403162215
 20
94.5826877470355782
 10
78.772332015810278
 20
93.4002371541502043
 10
79.7693280632411188
 20
92.5433992094861679
 10
81.0343083003952671
 20
91.8307509881422988
 10
82.2539920948616725
 20
91.076363636363638
 10
83.1122529644268866
 20
90.0973913043478376
 10
83.2974703557312353
 20
88.7116996047430888
 10
82.4935177865612701
 20
86.7314624505928862
 10
82.6683003952569209
 20
86.3273517786561371
 10
82.9915415019762861
 20
86.1072727272727292
 10
83.4248221343873553
 20
86.0316205533596872
 10
83.9266403162055354
 20
86.0586561264822194
 10
84.4569169960474397
 20
86.1487747035573221
 10
84.9765217391304333
 20
86.2618972332015943
 10
85.4449011857707603
 20
86.3569960474308402
 10
85.8231620553359704
 20
86.3918577075098852
 10
90.1554940711462507
 20
88.3049802371541546
 10
94.5338339920948698
 20
89.1800790513834158
 10
98.8903557312252985
 20
88.7038735177865618
 10
103.1541501976284678
 20
86.5592885375494205
 10
104.0909090909090935
 20
86.9347035573122611
 10
104.6328063241106747
 20
87.7184980237154264
 10
104.9453754940711434
 20
88.7192885375494029
 10
105.1936758893280768
 20
89.7423715415019814
 10
105.5449011857707546
 20
90.5977865612648259
 10
106.1636363636363711
 20
91.0896442687747054
 10
107.2151778656126595
 20
91.0277470355731282
 10
108.8681422924901341
 20
90.2157312252964374
 10
110.2000000000000171
 20
89.3382608695652181
 10
112.0526482213438726
 20
88.6732806324110783
 10
114.111383399209501
 20
88.270355731225294
 10
116.0631620553359795
 20
88.1738339920948704
 10
117.5928063241106827
 20
88.4311462450592956
 10
118.3894071146245182
 20
89.087351778656128
 10
118.1361264822134416
 20
90.1913043478260903
 10
116.5211067193676087
 20
91.7854545454545558
 10
110.3942292490118717
 20
96.4353359683794622
 10
104.2993675889328102
 20
101.1703557312252997
 10
98.6728853754940758
 20
106.3851383399209567
 10
93.948300395256922
 20
112.4759683794466412
 10
93.6020553359683873
 20
113.4551778656126544
 10
93.2112252964426915
 20
114.1125691699604801
 10
92.7772332015810264
 20
114.4844268774703551
 10
92.3067193675889399
 20
114.604189723320161
  0
LWPOLYLINE
  5
4B
  8
inner
 62
0
370
-1
  6
ByLayer
100
AcDbEntity
100
AcDbPolyline
 90
70
 70
1
 10
56.9342292490118638
 20
82.806086956521753
 10
55.1650592885375559
 20
82.5656126482213466
 10
53.39328063241107
 20
81.9710671936758928
 10
51.6215019762845841
 20
81.1988932806324186
 10
49.8497233201581054
 20
80.4231620553359789
 10
48.0781818181818181
 20
79.82221343873519
 10
46.3090118577075103
 20
79.5701185770750925
 10
44.5438735177865581
 20
79.842845849802373
 10
42.7822924901185786
 20
80.8156521739130511
 10
41.2744664031620587
 20
81.5605533596837944
 10
39.9440316205533605
 20
81.7739920948616685
 10
38.8002371541501958
 20
81.5437154150197756
 10
37.8558893280632418
 20
80.9598418972332041
 10
37.1211857707509907
 20
80.1115415019762906
 10
36.6077470355731265
 20
79.0889328063241237
 10
36.32600790513834
 20
77.9811857707509972
 10
36.2873517786561308
 20
76.875810276679843
 10
34.2983399209486208
 20
77.4921739130434872
 10
32.4352094861660092
 20
78.2757312252964539
 10
30.6519051383399237
 20
79.1247430830039491
 10
28.9059288537549435
 20
79.934150197628469
 10
27.1522450592885392
 20
80.6043478260869648
 10
25.349660079051386
 20
81.0302766798419043
 10
23.4544426877470364
 20
81.1116205533596997
 10
21.4215335968379463
 20
80.743320158102776
 10
21.497422924901187
 20
79.6113833992094868
 10
22.1021660079051401
 20
78.4917786561264847
 10
23.108339920948616
 20
77.3930434782608785
 10
24.3911067193675883
 20
76.3237154150197625
 10
25.8218814229249034
 20
75.2920948616600896
 10
27.2744743083003982
 20
74.304110671936769
 10
28.6228853754940715
 20
73.3699604743083
 10
29.7409723320158115
 20
72.4946245059288685
 10
34.0113833992094925
 20
69.7078260869565156
 10
37.9343873517786534
 20
66.4758893280632464
 10
41.5626086956521732
 20
62.9107509881422899
 10
44.9479841897233214
 20
59.1229249011857689
 10
45.1742292490118587
 20
60.3912252964426983
 10
45.4199209486166069
 20
61.7283003952569231
 10
45.7007114624505917
 20
62.9660079051383477
 10
46.0324901185770798
 20
63.9362055335968407
 10
46.4351778656126513
 20
64.4726482213438885
 10
46.9241897233201612
 20
64.4071936758893173
 10
47.5158893280632455
 20
63.5721739130434855
 10
48.2299604743083066
 20
61.7989723320158149
 10
48.3599209486166046
 20
61.0720948616600836
 10
48.5038735177865661
 20
60.3345454545454629
 10
48.6945454545454623
 20
59.6453754940711462
 10
48.9594466403162087
 20
59.0636363636363626
 10
49.3313043478260909
 20
58.6493280632411071
 10
49.83833992094862
 20
58.4615019762845876
 10
50.5137549407114648
 20
58.5606324110671963
 10
51.3874308300395342
 20
59.0043478260869563
 10
53.415335968379452
 20
60.1481422924901281
 10
55.3979446640316198
 20
61.4503557312253008
 10
57.2622134387351807
 20
62.9195256916996115
 10
58.9386561264822149
 20
64.5639525691699703
 10
60.3566007905138378
 20
66.3909881422924855
 10
61.4453754940711505
 20
68.4084584980237196
 10
62.1333596837944739
 20
70.6241897233201712
 10
62.3520158102766828
 20
73.0467193675889348
 10
62.308616600790522
 20
74.4710671936758928
 10
61.7757312252964468
 20
75.5906719367588948
 10
60.9459288537549426
 20
76.52197628458498
 10
60.0053754940711528
 20
77.3814229249011873
 10
59.1471146245059316
 20
78.2859288537549389
 10
58.5580237154150254
 20
79.3500395256916988
 10
58.4292490118577135
 20
80.6906719367588892
 10
58.9516996047430837
 20
82.4211857707509949
 10
56.9342292490118638
 20
82.806086956521753
  0
LWPOLYLINE
  5
4C
  8
inner
 62
0
370
-1
  6
ByLayer
100
AcDbEntity
100
AcDbPolyline
 90
85
 70
1
 10
90.9480632411067234
 20
132.4358102766798311
 10
90.4512252964427006
 20
132.3701185770751181
 10
89.809249011857716
 20
132.0599209486165933
 10
89.0076679841897374
 20
131.4807905138339947
 10
88.0322529644268883
 20
130.6061660079051308
 10
85.9275098814229352
 20
129.453122529644304
 10
83.7158102766798464
 20
128.7416600790513996
 10
81.4433992094861736
 20
128.4468774703557301
 10
79.1558102766798442
 20
128.5448221343873456
 10
76.8988142292490124
 20
129.0082213438735153
 10
74.7193675889328119
 20
129.8121739130434946
 10
72.6646640316205605
 20
130.9327272727272771
 10
70.7783399209486106
 20
132.3433201581027561
 10
69.0632411067193743
 20
131.9195256916996186
 10
67.2724901185770818
 20
131.2405533596838154
 10
65.4129644268774797
 20
130.4515415019762941
 10
63.4920158102766834
 20
129.6990513833992225
 10
61.5172332015810284
 20
129.1277470355731225
 10
59.4983399209486237
 20
128.8834782608695946
 10
57.4410276679841942
 20
129.1109090909091037
 10
55.3554940711462464
 20
129.9551778656126544
 10
54.1706719367589002
 20
130.3732806324110811
 10
52.930118577075099
 20
130.9946245059288685
 10
51.7220553359683848
 20
131.6406324110672017
 10
50.6361264822134416
 20
132.1334387351778901
 10
49.7598418972332013
 20
132.2954150197628564
 10
49.1809486166007943
 20
131.9479841897233428
 10
48.9905138339920967
 20
130.9123320158102786
 10
49.2760474308300402
 20
129.0105928853755017
 10
49.9064031620553408
 20
127.0858498023715555
 10
49.8435573122529689
 20
124.9011857707509847
 10
49.3699604743083
 20
122.5941501976284655
 10
48.7704347826086959
 20
120.3013438735177942
 10
48.324110671936765
 20
118.1591304347826252
 10
48.3174703557312313
 20
116.3050592885375494
 10
49.0315415019762852
 20
114.8740711462450577
 10
50.7506719367588985
 20
114.0046640316205639
 10
52.33699604743083
 20
113.2673517786561348
 10
54.2309090909090941
 20
113.1347826086956445
 10
56.2867984189723316
 20
113.3958893280632623
 10
58.358339920948616
 20
113.8346245059288577
 10
60.2975494071146301
 20
114.2387351778656353
 10
61.9559683794466451
 20
114.3943083003952665
 10
63.1896442687747069
 20
114.0869565217391397
 10
63.8510671936758882
 20
113.1013438735177914
 10
62.4781818181818167
 20
111.747667984189718
 10
62.1298023715415084
 20
110.8303557312253105
 10
62.5849011857707538
 20
110.2694861660079226
 10
63.6271936758893375
 20
109.9839525691699578
 10
65.0389723320158168
 20
109.8900395256917193
 10
66.6020553359683731
 20
109.9052173913043617
 10
68.0970750988142299
 20
109.9516996047430837
 10
69.310355731225286
 20
109.9426877470355777
 10
71.1324110671936864
 20
109.6996047430830004
 10
72.4163636363636272
 20
109.9441106719367696
 10
73.2836363636363615
 20
110.5794466403162204
 10
73.8547035573122628
 20
111.509802371541511
 10
74.2524110671936768
 20
112.6393675889328136
 10
74.5972332015810338
 20
113.8718577075098892
 10
75.0101185770751044
 20
115.1124110671936904
 10
75.6122529644268724
 20
116.2611857707510126
 10
77.1369169960474323
 20
116.2163636363636385
 10
78.2899604743083017
 20
115.3479051383399252
 10
79.1942292490118547
 20
114.0134387351778855
 10
79.9780237154150342
 20
112.5750988142292499
 10
80.7641897233201718
 20
111.3874308300395342
 10
81.6800790513834016
 20
110.8123320158102842
 10
82.851146245059283
 20
111.2074308300395273
 10
84.4042687747035529
 20
112.9289328063241129
 10
85.6083003952569186
 20
114.1125691699604801
 10
86.3698023715415104
 20
115.6400790513834096
 10
86.8576284584980272
 20
117.3293280632411069
 10
87.2451383399209561
 20
118.9979446640316212
 10
87.6992885375494211
 20
120.4621343873517816
 10
88.3939130434782641
 20
121.5378656126482184
 10
89.4990513833992196
 20
122.043478260869577
 10
91.1871146245059379
 20
121.7951778656126578
 10
91.0972332015810338
 20
123.0354940711462461
 10
91.1975494071146358
 20
124.5898023715415235
 10
91.4007905138339964
 20
126.3150988142292732
 10
91.6208695652173901
 20
128.0662450592885477
 10
91.7714624505928924
 20
129.6976284584980306
 10
91.7662450592885506
 20
131.0669565217391437
 10
91.5203162055336037
 20
132.0279051383399178
 10
90.9480632411067234
 20
132.4358102766798311
  0
LWPOLYLINE
  5
4D
  8
inner
 62
0
370
-1
  6
ByLayer
100
AcDbEntity
100
AcDbPolyline
 90
67
 70
1
 10
43.7446640316205588
 20
110.2450592885375613
 10
43.2788932806324098
 20
110.0674308300395268
 10
42.7709090909090932
 20
109.6403162055336082
 10
42.2150197628458557
 20
108.9312252964426904
 10
41.6076679841897246
 20
107.9109881422925099
 10
38.9403952569170002
 20
105.4137549407114562
 10
36.0788932806324141
 20
103.1052964426877594
 10
33.1171225296442699
 20
100.8962055335968415
 10
30.1526956521739145
 20
98.6973122529644229
 10
27.2783162055335993
 20
96.417312252964436
 10
24.5905533596837955
 20
93.9637154150197631
 10
22.1845296442687783
 20
91.2490118577075151
 10
20.1567430830039527
 20
88.1792885375494109
 10
23.2434229249011892
 20
87.2140711462450753
 10
26.1666561264822164
 20
87.3416600790513797
 10
29.0204505928853749
 20
88.3090118577075174
 10
31.8986719367588947
 20
89.8645059288537595
 10
33.2033280632411092
 20
90.3509090909090986
 10
34.2532806324110695
 20
90.5759683794466497
 10
35.0792885375494023
 20
90.5451383399209533
 10
35.7136758893280657
 20
90.263399209486181
 10
36.1870355731225288
 20
89.7385770750988172
 10
36.5318577075098858
 20
88.9716205533596849
 10
36.7775494071146198
 20
87.9720158102766874
 10
36.9577865612648253
 20
86.7404743083003922
 10
38.9674308300395325
 20
86.5514624505928936
 10
40.9732806324110754
 20
86.8512252964426921
 10
42.9717786561264816
 20
87.4275098814229352
 10
44.9596047430830055
 20
88.0645059288537624
 10
46.9358102766798453
 20
88.5506719367589028
 10
48.897786561264823
 20
88.6718577075098864
 10
50.8445849802371583
 20
88.2136758893280728
 10
52.7731225296442759
 20
86.9605533596838001
 10
55.5485375494071221
 20
85.9647430830039667
 10
58.5397628458498005
 20
85.914703557312265
 10
59.0453754940711519
 20
86.6607905138340016
 10
59.1601581027668004
 20
87.7452964426877458
 10
59.0804743083004027
 20
89.0048221343873678
 10
59.0043478260869563
 20
90.2790513833992208
 10
59.1305138339921044
 20
91.4007905138339964
 10
59.6567588932806316
 20
92.2075889328063312
 10
60.7813438735177911
 20
92.5369960474308328
 10
62.7034782608695664
 20
92.2241897233201655
 10
63.5539130434782606
 20
94.0668774703557347
 10
63.7701976284585044
 20
96.1125691699604801
 10
63.435335968379448
 20
98.2571541501976355
 10
62.6313833992094899
 20
100.3969960474308323
 10
61.4401581027668016
 20
102.4272727272727366
 10
59.9437154150197671
 20
104.2441106719367667
 10
58.2260079051383386
 20
105.7417391304347944
 10
56.3693280632411131
 20
106.816284584980238
 10
55.1109881422924914
 20
107.7309881422924889
 10
53.7921739130434844
 20
108.5313833992095027
 10
52.4989723320158177
 20
109.1140711462450668
 10
51.3179446640316215
 20
109.3751778656126561
 10
50.3375494071146292
 20
109.2091699604743127
 10
49.6426877470355734
 20
108.5119367588932988
 10
49.3225296442687764
 20
107.1774703557312307
 10
49.4626877470355737
 20
105.1033201581027612
 10
48.5954150197628465
 20
103.8708300395256998
 10
47.8633201581027734
 20
103.800158102766801
 10
47.2187351778656179
 20
104.5787351778656245
 10
46.6180237154150205
 20
105.8923320158102683
 10
46.0158893280632455
 20
107.4298023715415127
 10
45.3658498023715424
 20
108.8762055335968313
 10
44.623557312252963
 20
109.9182608695652164
 10
43.7446640316205588
 20
110.2450592885375613
  0
LWPOLYLINE
  5
4E
  8
inner
 62
7
370
0
  6
CONTINUOUS
100
AcDbEntity
100
AcDbPolyline
 90
27
 70
1
 10
129.0
 20
136.7000000000000171
 10
129.0
 20
159.0000000000000284
 10
114.0000000000000142
 20
159.0000000000000284
 10
113.8811067193676081
 20
158.8479051383399394
 10
113.3856916996047488
 20
158.3899604743083103
 10
113.0124110671936677
 20
157.7811857707509944
 10
112.7437154150197784
 20
157.0618972332015915
 10
112.5596837944664088
 20
156.2721739130435026
 10
112.4449011857707461
 20
155.4551778656126544
 10
112.3794466403162176
 20
154.6495652173913129
 10
112.3483794466403225
 20
153.8968379446640427
 10
110.7660869565217467
 20
152.9411067193676104
 10
109.8255335968379569
 20
151.6943873517786585
 10
109.424268774703549
 20
150.2285375494071218
 10
109.4548616600790467
 20
148.6125691699604943
 10
109.8153359683794434
 20
146.9183399209486254
 10
110.3992094861660149
 20
145.214861660079066
 10
111.1030830039525767
 20
143.5713833992094806
 10
111.8223715415019939
 20
142.0600000000000023
 10
114.1550197628458534
 20
139.2433201581027902
 10
117.0371541501976367
 20
136.5954940711462768
 10
120.3013438735177942
 20
134.6178656126482451
 10
123.7815810276679969
 20
133.8113043478261091
 10
124.864901185770762
 20
135.8273517786561229
 10
126.357786561264831
 20
136.8938339920948692
 10
128.1177075098814271
 20
137.0546245059288708
 10
129.0
 20
136.7000000000000171
  0
LWPOLYLINE
  5
4F
  8
inner
 62
7
370
0
  6
CONTINUOUS
100
AcDbEntity
100
AcDbPolyline
 90
45
 70
1
 10
72.0000000000000142
 20
159.0000000000000284
 10
72.0
 20
157.0
 10
72.4602371541502066
 20
155.6712252964427137
 10
73.1022134387351912
 20
154.0049802371541716
 10
73.7662450592885364
 20
152.2977075098814339
 10
74.2588142292490119
 20
150.5579446640316235
 10
74.3899604743083103
 20
148.7928063241106713
 10
73.9640316205533708
 20
147.0108300395257004
 10
72.7908300395257015
 20
145.2210276679842025
 10
72.3535177865612695
 20
143.9716996047430939
 10
72.0276679841897192
 20
142.5307509881423016
 10
71.8770750988142311
 20
141.0625296442687784
 10
71.9660079051383406
 20
139.7349407114624569
 10
72.3570750988142208
 20
138.7144664031620493
 10
73.1150197628458614
 20
138.1649802371541398
 10
74.3026877470355771
 20
138.2539130434782635
 10
75.9855335968379535
 20
139.1467984189723381
 10
77.5552569169960577
 20
138.5420553359683709
 10
78.3390513833992088
 20
137.5709090909091117
 10
78.6618181818181768
 20
136.4074308300395444
 10
78.8472727272727383
 20
135.2252173913043407
 10
79.2177075098814356
 20
134.1945454545454481
 10
80.0961264822134353
 20
133.4906719367589005
 10
81.8102766798419054
 20
133.2862450592885466
 10
84.6817391304347922
 20
133.7532015810276675
 10
86.5256126482213546
 20
134.3256916996047607
 10
88.2319367588932835
 20
135.2252173913043407
 10
89.7589723320158157
 20
136.4064822134387498
 10
91.0649802371541597
 20
137.826798418972345
 10
92.1046640316205583
 20
139.4413438735177806
 10
92.8365217391304327
 20
141.20695652173913
 10
93.2188142292490198
 20
143.0800000000000125
 10
93.2071936758893429
 20
145.0151778656126567
 10
92.0866403162055462
 20
145.5812648221343863
 10
90.846086956521745
 20
146.2016600790514076
 10
89.6716996047430968
 20
146.8576284584980272
 10
88.7477470355731271
 20
147.5344664031620709
 10
88.2637154150197745
 20
148.2098814229248944
 10
88.405533596837941
 20
148.8698814229249194
 10
89.3603162055335929
 20
149.4940711462450622
 10
91.3132806324110788
 20
150.0639525691699703
 10
94.773122529644283
 20
152.0339920948616736
 10
98.446403162055347
 20
153.7552569169960464
 10
101.8870355731225317
 20
155.7279051383399349
 10
104.3000000000000114
 20
159.0000000000000284
  0
LWPOLYLINE
  5
50
  8
inner
 62
0
370
-1
  6
ByLayer
100
AcDbEntity
100
AcDbPolyline
 90
48
 70
1
 10
67.9000000000000057
 20
159.0000000000000284
 10
32.5
 20
159.0000000000000284
 10
32.5509881422924892
 20
158.6100395256917182
 10
32.7118260869565205
 20
158.0864031620553476
 10
33.2329486166007939
 20
157.5587351778656284
 10
34.0049802371541574
 20
157.0441106719367781
 10
34.9144664031620522
 20
156.5577075098814248
 10
35.8500395256916988
 20
156.1189723320158009
 10
36.7004743083004001
 20
155.740711462450605
 10
37.3526482213438769
 20
155.4409486166007923
 10
40.3455335968379529
 20
153.7671146245059219
 10
43.451541501976287
 20
152.3000790513834204
 10
46.7055335968379453
 20
151.263241106719363
 10
50.1433201581027674
 20
150.8757312252964482
 10
49.5231620553359733
 20
149.8132806324110788
 10
48.3909881422924926
 20
149.0358893280632628
 10
47.0026877470355728
 20
148.4261660079051524
 10
45.6169960474308311
 20
147.8662450592885591
 10
44.490988142292494
 20
147.2370750988142447
 10
43.881027667984192
 20
146.4203162055335952
 10
44.0444268774703573
 20
145.2971541501976276
 10
45.2411067193675933
 20
143.7480632411067347
 10
47.5222924901185806
 20
140.541501976284593
 10
50.1755731225296486
 20
137.6119367588932789
 10
53.3354150197628485
 20
135.4040316205533827
 10
57.1452964426877514
 20
134.362924901185778
 10
58.9758893280632464
 20
134.1096442687747299
 10
60.8185770750988226
 20
134.2125691699604886
 10
62.2080632411067214
 20
135.9895652173913163
 10
63.6554150197628488
 20
137.5203952569170269
 10
65.397786561264823
 20
138.2885375494071241
 10
67.6713833992094891
 20
137.7753359683794656
 10
68.5562055335968523
 20
138.8380237154150336
 10
68.9347035573122469
 20
140.0062450592885455
 10
68.9105138339920984
 20
141.2505928853755108
 10
68.592490118577075
 20
142.5397628458497934
 10
68.0856916996047516
 20
143.8419762845850016
 10
67.4973122529644343
 20
145.1245059288537789
 10
66.9328853754940667
 20
146.3584189723320321
 10
66.5003162055335935
 20
147.5112252964427171
 10
65.702529644268779
 20
149.0451383399209533
 10
65.6719367588932812
 20
150.6509090909090958
 10
66.1607114624505925
 20
152.2808695652173867
 10
66.9210276679841911
 20
153.8866403162055292
 10
67.7045849802371578
 20
155.4215019762845884
 10
68.2618972332015801
 20
156.8356521739130471
 10
68.3482213438735187
 20
158.0823715415019706
 10
67.9000000000000057
 20
159.0000000000000284
  0
LWPOLYLINE
  5
51
  8
inner
 62
0
370
-1
  6
ByLayer
100
AcDbEntity
100
AcDbPolyline
 90
42
 70
1
 10
129.0
 20
61.7000000000000028
 10
129.0
 20
106.8000000000000114
 10
128.7727272727273089
 20
106.7826086956521863
 10
127.5632411067193743
 20
106.308063241106737
 10
126.3471146245059344
 20
105.3274308300395319
 10
125.1003952569169968
 20
104.0562845849802471
 10
123.7958102766798589
 20
102.7092490118577217
 10
122.408695652173904
 20
101.4997628458498014
 10
120.9136758893280614
 20
100.6438735177865738
 10
119.2849011857707637
 20
100.3571541501976299
 10
117.7346245059288634
 20
100.1667193675889393
 10
116.6911462450592865
 20
99.7948616600790643
 10
116.1212648221343926
 20
99.2738339920948647
 10
115.9898814229249098
 20
98.6344664031620653
 10
116.2652173913043612
 20
97.9061660079051421
 10
116.9135968379446666
 20
97.1226086956521755
 10
117.9006324110671926
 20
96.313201581027684
 10
119.1950197628458739
 20
95.507826086956527
 10
120.8676679841897368
 20
93.9354940711462518
 10
122.3781027667984347
 20
92.1601581027668004
 10
123.6580237154150268
 20
90.2183399209486225
 10
124.6412648221343886
 20
88.1456126482213449
 10
125.2628458498023747
 20
85.9763636363636436
 10
125.4532806324110794
 20
83.7454545454545496
 10
125.1483003952569106
 20
81.4872727272727388
 10
124.2810276679842048
 20
79.2369169960474409
 10
123.7934387351778724
 20
77.5616600790513928
 10
122.5583399209486117
 20
75.9160474308300337
 10
120.9587351778656057
 20
74.3439525691699572
 10
119.3814229249012016
 20
72.8923320158102683
 10
118.2082213438735323
 20
71.6057707509881425
 10
117.822134387351781
 20
70.5290909090909111
 10
118.6106719367588909
 20
69.7068774703557352
 10
120.956126482213449
 20
69.1844268774703721
 10
122.533675889328066
 20
68.7430830039525631
 10
123.846086956521745
 20
67.8670355731225357
 10
124.9604743083004053
 20
66.6933596837944691
 10
125.9472727272727326
 20
65.357707509881422
 10
126.8762055335968455
 20
63.9966798418972402
 10
127.8155731225296421
 20
62.7459288537549469
 10
128.8343873517786733
 20
61.7396837944664085
 10
129.0
 20
61.7000000000000028
  0
LWPOLYLINE
  5
52
  8
inner
 62
7
370
0
  6
CONTINUOUS
100
AcDbEntity
100
AcDbPolyline
 90
92
 70
1
 10
129.0
 20
131.0
 10
127.4588932806324095
 20
130.9251383399209487
 10
125.8199209486166126
 20
130.3037944664031613
 10
124.1406324110672017
 20
128.937312252964432
 10
122.617154150197635
 20
128.5540711462450645
 10
121.1916205533596838
 20
128.6195256916996073
 10
119.8419762845849874
 20
129.0132015810276584
 10
118.5504347826087042
 20
129.6165217391304338
 10
117.29304347826087
 20
130.3139920948616748
 10
116.051778656126487
 20
130.9844268774703551
 10
114.8050592885375494
 20
131.5092490118577189
 10
113.5322529644268883
 20
131.7691699604743008
 10
112.3064031620553465
 20
131.5543083003952631
 10
111.3103557312253002
 20
131.9868774703557506
 10
110.4983399209486237
 20
132.915573122529679
 10
109.8307509881422988
 20
134.1933596837944833
 10
109.2644268774703562
 20
135.6663241106719511
 10
108.7588142292490119
 20
137.1860079051383536
 10
108.2700395256917147
 20
138.6013438735178056
 10
107.7566007905138434
 20
139.7591304347826338
 10
107.0093280632411137
 20
141.4433992094861878
 10
106.7285375494071076
 20
143.5806324110671994
 10
106.6927272727272822
 20
145.9173122529644502
 10
106.679920948616612
 20
148.1996837944664094
 10
106.4674308300395325
 20
150.1773122529644411
 10
105.837075098814239
 20
151.5952569169960498
 10
104.5659288537549543
 20
152.2011857707510103
 10
102.4324901185770784
 20
151.7418181818181893
 10
100.7240316205533617
 20
150.616047430830065
 10
99.3357312252964419
 20
149.185059288537559
 10
98.2792094861660246
 20
147.5152569169960657
 10
97.5651383399209635
 20
145.6701976284585101
 10
97.2022924901185803
 20
143.7184189723320173
 10
97.2049011857707654
 20
141.7239525691699669
 10
97.5817391304347836
 20
139.7503557312253122
 10
98.344901185770766
 20
137.8652173913043839
 10
98.9173913043478308
 20
136.3263241106719477
 10
98.685691699604746
 20
135.244426877470346
 10
97.9123320158102786
 20
134.4480632411067234
 10
96.8638735177865726
 20
133.7700395256916863
 10
95.8064031620553465
 20
133.0391304347826349
 10
95.001976284584984
 20
132.0895652173913106
 10
94.7204743083003962
 20
130.7489328063241487
 10
95.2246640316205628
 20
128.8483794466403367
 10
95.3441897233201558
 20
127.2995256916996141
 10
95.4769960474308448
 20
125.7632411067193772
 10
95.6942292490118689
 20
124.3132806324110788
 10
96.072490118577079
 20
123.0276679841897334
 10
96.685059288537559
 20
121.9792094861660274
 10
97.6064031620553436
 20
121.244505928853755
 10
98.9124110671936876
 20
120.898498023715419
 10
100.6749407114624546
 20
121.0142292490118621
 10
101.4302766798418958
 20
119.5023715415019865
 10
101.0648221343873558
 20
118.2312252964426875
 10
100.0073517786561439
 20
117.1298814229249103
 10
98.6871146245059379
 20
116.1288537549407209
 10
97.5316996047430962
 20
115.1548616600790638
 10
96.9720158102766874
 20
114.1396047430829981
 10
97.4337549407114665
 20
113.0086166007905319
 10
99.3497233201581196
 20
111.6935968379446678
 10
100.2734387351778764
 20
110.4815019762846049
 10
101.5768379446640353
 20
109.6493280632411143
 10
103.1157312252964431
 20
109.0958102766798419
 10
104.7421343873517827
 20
108.7241897233201655
 10
106.3116205533596883
 20
108.4369960474308385
 10
107.6807114624506028
 20
108.1350988142292522
 10
108.7021343873517907
 20
107.7193675889328119
 10
109.233596837944674
 20
107.0901976284584975
 10
108.1452964426877656
 20
106.076363636363638
 10
108.1566798418972297
 20
105.1640316205533594
 10
109.001897233201575
 20
104.3676679841897226
 10
110.418656126482233
 20
103.69865612648222
 10
112.1425296442687767
 20
103.1735968379446717
 10
113.9081422924901119
 20
102.8057707509881453
 10
115.4546245059288623
 20
102.6086956521739211
 10
116.5161264822134513
 20
102.594466403162059
 10
117.6663241106719511
 20
102.6537549407114653
 10
118.9156521739130454
 20
102.9881422924901244
 10
120.1623715415019831
 20
103.554466403162067
 10
121.3064031620553322
 20
104.3057707509881453
 10
122.24529644268776
 20
105.19865612648222
 10
122.8770750988142311
 20
106.1880632411067324
 10
123.1023715415019808
 20
107.231541501976281
 10
122.8182608695652362
 20
108.2816600790513917
 10
121.9429249011857763
 20
110.2642687747035666
 10
121.9806324110672051
 20
111.8003162055336048
 10
122.7191304347826133
 20
112.8760474308300417
 10
123.9501976284585112
 20
113.478181818181838
 10
125.4672727272727428
 20
113.5889328063241237
 10
127.0590513833992219
 20
113.1952569169960583
 10
128.5192094861660053
 20
112.2817391304347865
 10
129.0
 20
111.8000000000000114
  0
LWPOLYLINE
  5
53
  8
inner
 62
7
370
0
  6
CONTINUOUS
100
AcDbEntity
100
AcDbPolyline
 90
96
 70
1
 10
129.0
 20
53.7000000000000028
 10
128.6337549407114693
 20
53.6645849802371586
 10
127.9775494071146227
 20
52.7088537549407192
 10
125.9935177865612843
 20
51.4749407114624589
 10
124.3607114624506096
 20
51.3577865612648239
 10
123.1524110671936825
 20
52.0837154150197676
 10
122.4383399209486356
 20
53.3778656126482218
 10
122.2891699604743252
 20
54.9694071146245093
 10
122.7769960474308277
 20
56.5803952569170008
 10
123.971067193675907
 20
57.9404743083004021
 10
125.9446640316205617
 20
58.7714624505928853
 10
125.2628458498023747
 20
60.6321739130434878
 10
124.185691699604746
 20
62.274940711462456
 10
122.7819762845849851
 20
63.6620553359683825
 10
121.1235573122529843
 20
64.7520158102766743
 10
119.2822924901185786
 20
65.5045059288537601
 10
117.3293280632411069
 20
65.8787351778656216
 10
115.3362845849802341
 20
65.8365217391304327
 10
113.3754940711462496
 20
65.3332806324110607
 10
112.1645849802371657
 20
65.1494861660079039
 10
111.0350197628458488
 20
64.8148616600790604
 10
110.0479841897233229
 20
64.3452964426877543
 10
109.2736758893280751
 20
63.7519367588932866
 10
108.7756521739130591
 20
63.0483003952569234
 10
108.6212648221343926
 20
62.2481422924901153
 10
108.8762055335968313
 20
61.3630830039525748
 10
109.6066403162055423
 20
60.4040316205533685
 10
107.464426877470359
 20
60.0774703557312293
 10
105.368695652173912
 20
59.4523320158102848
 10
103.3718577075098892
 20
58.5452173913043552
 10
101.523952569169964
 20
57.3729644268774734
 10
99.8823715415019819
 20
55.9526482213438783
 10
98.4992885375494183
 20
54.3018181818181844
 10
97.42758893280633
 20
52.4373122529644249
 10
96.7196837944664196
 20
50.3747826086956536
 10
97.5381027667984313
 20
50.6709881422924937
 10
98.3757312252964482
 20
50.7777075098814237
 10
99.2081422924901233
 20
50.7169960474308326
 10
100.016126482213437
 20
50.5137549407114648
 10
100.7766798418972343
 20
50.1909881422924897
 10
101.4686956521739205
 20
49.7700395256917005
 10
102.0694071146245108
 20
49.2734387351778622
 10
102.5586561264822194
 20
48.7265612648221378
 10
102.9136758893280756
 20
48.148853754940717
 10
103.1128853754940735
 20
47.5661660079051387
 10
103.1363636363636402
 20
46.9986561264822171
 10
102.9601581027668118
 20
46.4712252964426895
 10
102.5626877470355822
 20
46.005217391304349
 10
101.9242687747035632
 20
45.6245849802371595
 10
101.0211857707509893
 20
45.351857707509879
 10
99.8332806324110749
 20
45.2090909090909108
 10
98.1196047430830163
 20
45.2759683794466454
 10
96.9179446640316229
 20
44.3738339920948661
 10
96.1870355731225288
 20
42.7720948616600793
 10
95.8808695652173952
 20
40.7380237154150251
 10
95.9567588932806359
 20
38.5403162055335997
 10
96.3713043478260829
 20
36.4457707509881459
 10
97.0813438735177954
 20
34.7240316205533617
 10
98.0437154150197614
 20
33.642063241106726
 10
99.4101976284585049
 20
34.0512252964426878
 10
100.4109881422924957
 20
34.204426877470361
 10
101.0918577075098881
 20
34.1285375494071133
 10
101.4957312252964527
 20
33.8491699604743133
 10
101.6695652173913089
 20
33.3911778656126472
 10
101.6555731225296455
 20
32.7800316205533591
 10
101.5009486166008088
 20
32.0402292490118583
 10
101.2500395256917045
 20
31.1974545454545478
 10
100.9476679841897351
 20
30.277509881422926
 10
100.6388932806324163
 20
29.3035177865612688
 10
100.3685375494071224
 20
28.3025138339920943
 10
100.1809486166008014
 20
27.3002055335968414
 10
100.1216600790513809
 20
26.3197865612648236
 10
100.2362055335968449
 20
25.3882687747035583
 10
100.5682213438735317
 20
24.5300790513834031
 10
101.1637154150197659
 20
23.7696679841897236
 10
102.3670355731225357
 20
21.5347509881422923
 10
103.824822134387361
 20
19.1660316205533618
 10
105.6385770750988087
 20
17.2605454545454542
 10
107.9135968379446666
 20
16.412648221343872
 10
108.1028458498023639
 20
19.1017154150197612
 10
108.4436363636363723
 20
21.8306956521739153
 10
108.972252964426886
 20
24.5467984189723332
 10
109.722608695652184
 20
27.2011462450592916
 10
110.7286166007905308
 20
29.7396916996047445
 10
112.0282213438735397
 20
32.1109723320158125
 10
113.6532015810276732
 20
34.2634782608695616
 10
115.6422134387351832
 20
36.1457707509881416
 10
117.0833992094861742
 20
35.8744664031620601
 10
118.6609486166008054
 20
36.0390513833992117
 10
120.3243478260869637
 20
36.4367588932806328
 10
122.0240316205533588
 20
36.8586561264822166
 10
123.7120948616600913
 20
37.1017391304347797
 10
125.3373122529644377
 20
36.9589723320158186
 10
126.8517786561264842
 20
36.2256916996047451
 10
128.2066403162055508
 20
34.6958102766798433
 10
129.0
 20
34.3000000000000043
  0
LWPOLYLINE
  5
54
  8
inner
 62
7
370
0
  6
CONTINUOUS
100
AcDbEntity
100
AcDbPolyline
 90
26
 70
1
 10
129.0
 20
28.7000000000000028
 10
128.6221343873517924
 20
29.0384743083003976
 10
127.4396837944664185
 20
29.1426798418972339
 10
125.8507509881422948
 20
28.85318577075099
 10
125.1390513833992202
 20
30.3752885375494088
 10
124.1923320158102797
 20
31.3891699604743089
 10
123.0689328063241135
 20
31.9385612648221375
 10
121.8300395256917028
 20
32.0633754940711526
 10
120.5330434782608648
 20
31.8060395256917019
 10
119.2384189723320276
 20
31.2077470355731244
 10
118.0073517786561297
 20
30.3109723320158118
 10
116.8996047430830174
 20
29.1542529644268811
 10
115.4584189723320264
 20
27.5626877470355751
 10
114.1590513833992162
 20
25.7871146245059322
 10
113.1191304347826048
 20
23.9124822134387358
 10
112.4617391304347933
 20
22.0262529644268774
 10
112.3064031620553465
 20
20.2133754940711441
 10
112.7733596837944816
 20
18.5587509881422932
 10
113.9837944664031681
 20
17.1473043478260863
 10
116.0605533596838086
 20
16.0639604743083027
 10
115.7183399209486225
 20
14.9947509881422931
 10
115.3220553359684004
 20
13.8972252964426879
 10
114.9836363636363643
 20
12.8434782608695652
 10
114.8000000000000114
 20
11.9000000000000021
 10
114.8000000000000114
 20
11.0000000000000018
 10
129.0
 20
11.0000000000000018
  0
LWPOLYLINE
  5
55
  8
inner
 62
7
370
0
  6
CONTINUOUS
100
AcDbEntity
100
AcDbPolyline
 90
41
 70
1
 10
70.8000000000000114
 20
11.0
 10
104.6000000000000085
 20
11.0
 10
103.6405533596838069
 20
12.8730750988142297
 10
101.0918577075098881
 20
14.8313517786561277
 10
98.0797628458498139
 20
16.4190750988142291
 10
95.2298814229249047
 20
17.8703873517786569
 10
92.9242687747035632
 20
18.3889249011857743
 10
91.9267984189723393
 20
18.9074387351778661
 10
91.9360474308300439
 20
19.4478181818181817
 10
92.650118577075105
 20
20.0332332015810266
 10
93.7694861660079084
 20
20.6894150197628477
 10
94.9917786561264847
 20
21.4369960474308314
 10
96.0160474308300422
 20
22.2990039525691692
 10
96.5420553359683851
 20
23.3000316205533622
 10
95.7124901185770796
 20
25.8656126482213438
 10
94.3716205533596906
 20
28.0773359683794475
 10
92.6811857707510001
 20
29.9699920948616629
 10
90.8076679841897203
 20
31.578300395256921
 10
89.3498814229249092
 20
33.0528063241106764
 10
87.5022134387351826
 20
34.320158102766797
 10
85.4242687747035632
 20
35.272332015810278
 10
83.2796837944664077
 20
35.7997628458498056
 10
81.2311462450592927
 20
35.7945454545454567
 10
79.4401581027668016
 20
35.1473517786561303
 10
78.0684584980237304
 20
33.7502766798419032
 10
77.281343873517784
 20
31.4933754940711488
 10
74.6577075098814191
 20
31.5667272727272739
 10
73.2513833992094874
 20
30.7998656126482224
 10
72.7754150197628462
 20
29.3768458498023719
 10
72.9475889328063261
 20
27.48418972332016
 10
73.4828458498023736
 20
25.3097707509881431
 10
74.0982608695652232
 20
23.037549407114625
 10
74.5085375494071229
 20
20.8528379446640315
 10
74.4298023715415127
 20
18.9434387351778639
 10
73.9026086956521766
 20
17.8343873517786555
 10
73.2193675889328119
 20
16.5978893280632391
 10
72.4756521739130335
 20
15.2983794466403165
 10
71.7653754940711508
 20
13.998869565217392
 10
71.18766798418973
 20
12.761138339920949
 10
70.8350197628458602
 20
11.6481928853754937
 10
70.8000000000000114
 20
11.0
  0
LWPOLYLINE
  5
56
  8
inner
 62
7
370
0
  6
CONTINUOUS
100
AcDbEntity
100
AcDbPolyline
 90
49
 70
1
 10
35.8999999999999986
 20
11.0
 10
66.4000000000000057
 20
11.0
 10
66.4000000000000057
 20
13.6000000000000014
 10
66.1106719367589051
 20
15.6149090909090908
 10
65.6897233201581088
 20
17.7044031620553355
 10
65.3939920948616589
 20
19.8158102766798407
 10
65.4364426877470464
 20
21.8898893280632407
 10
66.0283794466403151
 20
23.8713122529644259
 10
67.3803952569169979
 20
25.7022134387351784
 10
68.1741501976284638
 20
27.0223083003952596
 10
68.6221343873517924
 20
28.3063557312252989
 10
68.7224505928853802
 20
29.501636363636365
 10
68.4779446640316252
 20
30.5554071146245079
 10
67.8886166007905274
 20
31.4161818181818191
 10
66.9544664031620584
 20
32.0286324110671927
 10
65.6781027667984176
 20
32.3399920948616639
 10
64.059525691699605
 20
32.2975177865612721
 10
63.1640316205533665
 20
34.0704347826087002
 10
61.8416600790513868
 20
35.0045849802371549
 10
60.2150197628458486
 20
35.2426877470355748
 10
58.4088537549407221
 20
34.9260869565217433
 10
56.5455335968379487
 20
34.1939920948616631
 10
54.7519367588932866
 20
33.1891699604743096
 10
53.1501976284584998
 20
32.051778656126487
 10
51.8650592885375517
 20
30.9220948616600815
 10
49.9569169960474326
 20
29.0449011857707511
 10
48.1735177865612698
 20
26.9605296442687781
 10
46.7463241106719352
 20
24.6728932806324117
 10
45.9025296442687747
 20
22.1883715415019793
 10
46.7259288537549438
 20
22.1639209486166031
 10
47.5405533596837984
 20
22.0300948616600785
 10
48.3276679841897234
 20
21.802379446640316
 10
49.0713833992094877
 20
21.4987509881422945
 10
49.7522529644268801
 20
21.1307588932806354
 10
50.3517786561264842
 20
20.7151462450592874
 10
50.8533596837944728
 20
20.2674229249011866
 10
51.238023715415018
 20
19.8029328063241081
 10
51.487747035573129
 20
19.3359051383399212
 10
51.5856916996047445
 20
18.8804031620553374
 10
51.5121739130434761
 20
18.4545454545454533
 10
51.2510671936758939
 20
18.0711146245059311
 10
50.782687747035574
 20
17.7455968379446638
 10
50.0906719367588948
 20
17.4934071146245067
 10
49.1550988142292553
 20
17.3300079051383413
 10
47.9610276679841903
 20
17.2695335968379453
 10
44.744505928853755
 20
15.7963557312252973
 10
41.4634782608695645
 20
14.3784584980237149
 10
38.3152569169960486
 20
12.7662845849802373
 10
35.8999999999999986
 20
11.0
  0
LWPOLYLINE
  5
57
  8
inner
 62
7
370
0
  6
CONTINUOUS
100
AcDbEntity
100
AcDbPolyline
 90
27
 70
1
 10
11.0
 20
11.0
 10
26.0
 20
11.0
 10
25.3084901185770761
 20
11.7614173913043487
 10
24.3203636363636377
 20
12.5488379446640312
 10
24.111928853754943
 20
14.0773675889328054
 10
24.7281976284584992
 20
15.1324189723320153
 10
25.8720395256916973
 20
15.8851225296442689
 10
27.248743083003955
 20
16.5052806324110684
 10
28.5624110671936791
 20
17.1614624505928859
 10
29.5158181818181831
 20
18.0260790513833982
 10
29.8156047430830071
 20
19.2676758893280642
 10
29.1645691699604761
 20
21.0548458498023727
 10
29.1774466403162052
 20
23.4904426877470343
 10
28.8017233201581035
 20
25.9582450592885365
 10
28.0529090909090932
 20
28.3668300395256949
 10
26.9450909090909114
 20
30.6236126482213464
 10
25.4937786561264836
 20
32.6372173913043468
 10
23.7169011857707517
 20
34.3149407114624552
 10
21.6286877470355741
 20
35.5668774703557347
 10
19.2445296442687734
 20
36.2989723320158078
 10
18.4017786561264813
 20
35.134545454545453
 10
17.178205533596838
 20
34.3123320158102771
 10
15.7306877470355744
 20
33.7012569169960514
 10
14.2189011857707506
 20
33.1685849802371564
 10
12.7997470355731231
 20
32.5857312252964419
 10
11.6314616600790508
 20
31.8201976284585015
 10
11.0
 20
31.6000000000000014
  0
LWPOLYLINE
  5
58
  8
inner
 62
7
370
0
  6
CONTINUOUS
100
AcDbEntity
100
AcDbPolyline
 90
83
 70
1
 10
27.6656126482213445
 20
63.4649802371541583
 10
24.5750909090909104
 20
63.1666403162055374
 10
22.0558735177865621
 20
62.5839525691699663
 10
20.5980869565217404
 20
62.0332806324110706
 10
20.0293913043478256
 20
60.8427667984189782
 10
20.0062213438735199
 20
59.2578656126482315
 10
20.1889249011857714
 20
57.5183399209486268
 10
20.2352411067193714
 20
55.8663241106719397
 10
19.8054940711462457
 20
54.5449011857707546
 10
18.5561897233201591
 20
53.7935968379446692
 10
16.1488853754940713
 20
53.8554940711462464
 10
14.4569090909090914
 20
55.3398418972331996
 10
13.0274624505928855
 20
55.8468774703557358
 10
11.8720640316205532
 20
55.5471146245059373
 10
11.0
 20
54.6000000000000014
 10
11.0
 20
37.8999999999999986
 10
11.8090213438735177
 20
37.9381818181818176
 10
12.9464031620553364
 20
38.5377075098814288
 10
14.5868932806324114
 20
40.6118577075098841
 10
16.1089960474308285
 20
41.7890909090909162
 10
17.7533280632411063
 20
42.4516996047430837
 10
19.4671225296442714
 20
42.6549407114624515
 10
21.2002213438735154
 20
42.4595256916996107
 10
22.8972964426877468
 20
41.9190513833992071
 10
24.5082134387351758
 20
41.0930434782608742
 10
25.9801106719367603
 20
40.0393675889328051
 10
27.2603162055335986
 20
38.813043478260866
 10
29.2250434782608721
 20
38.7345454545454544
 10
30.6853675889328095
 20
37.7579446640316263
 10
31.7211146245059297
 20
36.0969169960474332
 10
32.4171857707509901
 20
33.9611067193675922
 10
32.8572252964426923
 20
31.5615573122529653
 10
33.1235494071146235
 20
29.1104980237154187
 10
33.2998260869565286
 20
26.8203003952569183
 10
33.4709565217391329
 20
24.9006324110671962
 10
33.6523794466403174
 20
23.877739130434783
 10
33.593185770750992
 20
22.6232648221343879
 10
33.3911778656126472
 20
21.2362687747035572
 10
33.1454150197628508
 20
19.8170909090909078
 10
32.9575889328063312
 20
18.4635335968379479
 10
32.9267114624505979
 20
17.2720948616600793
 10
33.1531699604743153
 20
16.343138339920948
 10
33.7372332015810343
 20
15.7731620553359697
 10
36.063478260869573
 20
17.1756205533596855
 10
38.0178656126482224
 20
19.0206561264822156
 10
39.5709881422924923
 20
21.2169644268774711
 10
40.700553359683795
 20
23.6744505928853748
 10
41.3773913043478245
 20
26.3005059288537559
 10
41.5768379446640353
 20
29.0037312252964448
 10
41.2744664031620587
 20
31.6915415019762854
 10
40.4432411067193698
 20
34.2713043478260886
 10
42.381027667984192
 20
34.2416600790513854
 10
43.7472727272727298
 20
34.9455335968379472
 10
44.6145454545454569
 20
36.2204743083003962
 10
45.0520948616600805
 20
37.9033201581027726
 10
45.1291699604743073
 20
39.8309090909090955
 10
44.9169169960474335
 20
41.8405533596837955
 10
44.485770750988145
 20
43.7690909090909059
 10
43.906877470355731
 20
45.4535968379446658
 10
41.4995256916996027
 20
44.839604743083008
 10
39.9143873517786574
 20
45.0829249011857769
 10
39.0898023715415093
 20
45.9397628458498062
 10
38.9636363636363683
 20
47.1686956521739162
 10
39.4756521739130477
 20
48.5273517786561328
 10
40.5641897233201618
 20
49.7726482213438715
 10
42.1711462450592904
 20
50.6617391304347819
 10
44.2339130434782604
 20
50.9524901185770815
 10
43.9132806324110732
 20
52.9495652173913101
 10
42.9381027667984227
 20
54.6324110671936793
 10
41.4494861660079081
 20
56.034940711462454
 10
39.5901976284584975
 20
57.18632411067194
 10
37.505849802371543
 20
58.1152569169960458
 10
35.3392094861660127
 20
58.8523320158102834
 10
33.2342292490118609
 20
59.4274308300395262
 10
31.3338181818181845
 20
59.8716205533596906
 10
31.5988853754940742
 20
60.8366007905138346
 10
31.5924584980237171
 20
61.6239525691699654
 10
31.3454150197628465
 20
62.2493280632411157
 10
30.8925217391304372
 20
62.7293280632411125
 10
30.2646324110671969
 20
63.0753359683794486
 10
29.4952332015810299
 20
63.3044268774703554
 10
28.6177154150197666
 20
63.4291699604743116
 10
27.6656126482213445
 20
63.4649802371541583
  0
LWPOLYLINE
  5
59
  8
inner
 62
0
370
-1
  6
ByLayer
100
AcDbEntity
100
AcDbPolyline
 90
90
 70
1
 10
11.0
 20
131.6000000000000227
 10
11.0
 20
112.1000000000000085
 10
11.1309573122529653
 20
112.1709881422925008
 10
12.1191003952569165
 20
112.8568379446640364
 10
13.0596442687747043
 20
114.0134387351778855
 10
14.0001739130434792
 20
115.3284584980237213
 10
14.9921660079051389
 20
116.4852964426877548
 10
16.0832648221343888
 20
117.1723320158102837
 10
17.3210197628458502
 20
117.0743873517786682
 10
18.7568932806324113
 20
115.8791304347826241
 10
19.3320158102766797
 20
114.3056126482213557
 10
18.9846086956521738
 20
112.9263241106719562
 10
18.0556758893280644
 20
111.6807905138339976
 10
16.8835415019762856
 20
110.5111462450592938
 10
15.8079051383399225
 20
109.3597628458498008
 10
15.1710039525691691
 20
108.1671146245059418
 10
15.3112569169960473
 20
106.873913043478268
 10
16.5683162055335984
 20
105.4213438735177988
 10
18.7427588932806337
 20
104.3842687747035711
 10
21.1654782608695662
 20
103.8478260869565304
 10
23.6705849802371553
 20
103.6803952569170093
 10
26.0959130434782622
 20
103.7527272727272845
 10
27.7646956521739163
 20
103.7553359683794554
 10
28.8814782608695673
 20
104.0228458498023798
 10
29.5338181818181837
 20
104.5180237154150262
 10
29.8104347826086951
 20
105.2012648221343909
 10
29.796300395256921
 20
106.0348616600790592
 10
29.5826956521739142
 20
106.9808695652174038
 10
29.2558972332015834
 20
107.9996837944664065
 10
28.9046482213438765
 20
109.0535968379446672
 10
31.1241027667984191
 20
109.0637944664031806
 10
33.3834703557312267
 20
109.3429249011857678
 10
35.611936758893286
 20
109.8976284584980192
 10
37.738735177865621
 20
110.7326482213438794
 10
39.6893280632411063
 20
111.8543873517786551
 10
41.3954150197628508
 20
113.268537549407128
 10
42.7849011857707566
 20
114.9786561264822069
 10
43.7859288537549389
 20
116.9920948616600782
 10
42.6537549407114653
 20
117.2366007905138474
 10
41.3425296442687795
 20
117.8681422924901341
 10
40.0573913043478314
 20
118.7833201581027822
 10
39.0034782608695707
 20
119.8742292490118615
 10
38.3885375494071184
 20
121.0358102766798538
 10
38.4167588932806296
 20
122.1594466403162187
 10
39.2968379446640341
 20
123.1384189723320191
 10
41.2332015810276715
 20
123.8679051383399212
 10
43.0846640316205551
 20
123.6850592885375733
 10
44.3211857707509935
 20
124.1007905138339993
 10
45.0506719367588957
 20
125.0003162055335935
 10
45.3815019762845822
 20
126.2688537549407073
 10
45.4199209486166069
 20
127.7909090909090963
 10
45.2759683794466454
 20
129.4519367588932823
 10
45.0558893280632375
 20
131.1364426877470351
 10
44.8678260869565193
 20
132.7279841897233155
 10
44.8139920948616606
 20
134.5303557312253133
 10
44.148774703557315
 20
135.4581027667984188
 10
43.1000790513834033
 20
135.7991304347826258
 10
41.8946245059288529
 20
135.8363636363636431
 10
40.7610276679841945
 20
135.8569960474308118
 10
39.9286166007905194
 20
136.1451383399209476
 10
39.6250592885375568
 20
136.9865612648221145
 10
40.0777865612648299
 20
138.667035573122547
 10
40.3801581027667993
 20
140.9403952569170144
 10
40.1871146245059379
 20
143.1947826086956752
 10
39.5541501976284593
 20
145.3768379446640324
 10
38.5350988142292508
 20
147.4367588932806541
 10
37.1854545454545473
 20
149.3178656126482338
 10
35.5592885375494063
 20
150.971067193675907
 10
33.7115494071146244
 20
152.3413438735178147
 10
31.6979683794466425
 20
153.3758102766798572
 10
31.9025375494071142
 20
148.7942292490118632
 10
31.7803083003952587
 20
144.2354150197628542
 10
31.0018735177865636
 20
139.7887747035573227
 10
29.2365928853754937
 20
135.537786561264852
 10
28.4530355731225306
 20
134.0207114624506062
 10
27.4803478260869554
 20
133.0583399209486402
 10
26.3571146245059325
 20
132.4910671936759172
 10
25.1219446640316235
 20
132.1590513833992304
 10
23.8133992094861675
 20
131.9017391304347768
 10
22.4688774703557321
 20
131.5618972332015915
 10
21.1281976284585014
 20
130.97802371541502
 10
19.8299683794466404
 20
129.989802371541515
 10
18.5098498023715408
 20
129.5086166007905035
 10
17.229644268774706
 20
129.540869565217406
 10
15.9816205533596829
 20
129.9215019762845884
 10
14.7631462450592892
 20
130.4837944664031681
 10
13.5652806324110671
 20
131.0615019762846032
 10
12.3841581027667988
 20
131.4874308300395569
 10
11.213304347826087
 20
131.5967588932806507
 10
11.0
 20
131.6000000000000227
  0
LWPOLYLINE
  5
5A
  8
inner
 62
7
370
0
  6
CONTINUOUS
100
AcDbEntity
100
AcDbPolyline
 90
27
 70
1
 10
11.0
 20
60.3999999999999986
 10
11.4449019762845854
 20
60.4324901185770784
 10
11.9222458498023709
 20
60.5688537549407116
 10
14.2780948616600796
 20
63.5283003952569203
 10
17.1511462450592873
 20
65.8955731225296546
 10
20.4938814229249004
 20
67.4100395256917011
 10
24.2624505928853793
 20
67.810355731225286
 10
25.4487193675889358
 20
68.5320158102766896
 10
25.3290750988142292
 20
69.501976284584984
 10
24.2560000000000002
 20
70.6730434782608796
 10
22.5872173913043497
 20
71.9944664031620647
 10
20.673976284584981
 20
73.4173913043478308
 10
18.8739762845849839
 20
74.8932015810276823
 10
17.5410039525691701
 20
76.3742292490118615
 10
17.0302450592885393
 20
77.8099604743082978
 10
15.9841818181818169
 20
80.5324901185770869
 10
15.5505928853754938
 20
83.3619762845849834
 10
15.6792490118577081
 20
86.2194466403162068
 10
16.3174308300395268
 20
89.0318577075098858
 10
17.4149090909090916
 20
91.7235573122529644
 10
18.9202924901185767
 20
94.2196047430830106
 10
20.7807905138339919
 20
96.4429249011857763
 10
22.9475019762845847
 20
98.3178656126482338
 10
20.437249011857709
 20
100.0870355731225345
 10
17.178205533596838
 20
101.5988932806324243
 10
13.8715177865612649
 20
103.2869565217391425
 10
11.0
 20
105.3000000000000114
  0
LWPOLYLINE
  5
5B
  8
inner
 62
7
370
0
  6
CONTINUOUS
100
AcDbEntity
100
AcDbPolyline
 90
29
 70
1
 10
26.0
 20
159.0
 10
11.0
 20
159.0
 10
11.0
 20
159.0
 10
11.0
 20
138.4000000000000057
 10
12.1435486166007909
 20
138.8600790513834227
 10
13.1059604743083007
 20
138.8264031620553283
 10
13.7968616600790526
 20
138.3815019762845964
 10
14.3154229249011848
 20
137.6633992094861583
 10
14.7579999999999991
 20
136.8103557312253145
 10
15.222490118577074
 20
135.9637154150197489
 10
15.8066245059288555
 20
135.2598418972332297
 10
16.6094861660079047
 20
134.8379446640316246
 10
19.1596284584980268
 20
135.5029249011857928
 10
21.5141660079051391
 20
136.7062450592885625
 10
23.6113913043478263
 20
138.3606324110672006
 10
25.3908537549407143
 20
140.3821343873517833
 10
26.7907035573122521
 20
142.6851383399209681
 10
27.7505375494071131
 20
145.1811857707510001
 10
28.2098814229249015
 20
147.7879841897233177
 10
28.1082371541501992
 20
150.415415019762861
 10
26.128071146245059
 20
150.7550197628458761
 10
24.8041106719367619
 20
151.4664822134387236
 10
24.054015810276681
 20
152.4675098814229557
 10
23.7928142292490143
 20
153.6781818181818267
 10
23.935628458498023
 20
155.0164426877470589
 10
24.4001422924901199
 20
156.3995256916996368
 10
25.1013596837944668
 20
157.7467984189723325
 10
26.0
 20
159.0
 10
26.0
 20
159.0
  0
LINE
  5
5C
100
AcDbEntity
100
AcDbLine
  8
outer
 62
256
370
-1
  6
ByLayer
 10
6.0
 20
0.0
 30
0.0
 11
6.0
 21
34.0
 31
0.0
  0
LINE
  5
5D
100
AcDbEntity
100
AcDbLine
  8
outer
 62
256
370
-1
  6
ByLayer
 10
6.0
 20
34.0
 30
0.0
 11
0.0
 21
34.0
 31
0.0
  0
LINE
  5
5E
100
AcDbEntity
100
AcDbLine
  8
outer
 62
256
370
-1
  6
ByLayer
 10
0.0
 20
34.0
 30
0.0
 11
0.0
 21
68.0
 31
0.0
  0
LINE
  5
5F
100
AcDbEntity
100
AcDbLine
  8
outer
 62
256
370
-1
  6
ByLayer
 10
0.0
 20
68.0
 30
0.0
 11
6.0
 21
68.0
 31
0.0
  0
LINE
  5
60
100
AcDbEntity
100
AcDbLine
  8
outer
 62
256
370
-1
  6
ByLayer
 10
6.0
 20
68.0
 30
0.0
 11
6.0
 21
102.0
 31
0.0
  0
LINE
  5
61
100
AcDbEntity
100
AcDbLine
  8
outer
 62
256
370
-1
  6
ByLayer
 10
6.0
 20
102.0
 30
0.0
 11
0.0
 21
102.0
 31
0.0
  0
LINE
  5
62
100
AcDbEntity
100
AcDbLine
  8
outer
 62
256
370
-1
  6
ByLayer
 10
0.0
 20
102.0
 30
0.0
 11
0.0
 21
136.0
 31
0.0
  0
LINE
  5
63
100
AcDbEntity
100
AcDbLine
  8
outer
 62
256
370
-1
  6
ByLayer
 10
0.0
 20
136.0
 30
0.0
 11
6.0
 21
136.0
 31
0.0
  0
LINE
  5
64
100
AcDbEntity
100
AcDbLine
  8
outer
 62
256
370
-1
  6
ByLayer
 10
6.0
 20
136.0
 30
0.0
 11
6.0
 21
170.0
 31
0.0
  0
LINE
  5
65
100
AcDbEntity
100
AcDbLine
  8
outer
 62
256
370
-1
  6
ByLayer
 10
140.0
 20
0.0
 30
0.0
 11
140.0
 21
34.0
 31
0.0
  0
LINE
  5
66
100
AcDbEntity
100
AcDbLine
  8
outer
 62
256
370
-1
  6
ByLayer
 10
140.0
 20
34.0
 30
0.0
 11
134.0
 21
34.0
 31
0.0
  0
LINE
  5
67
100
AcDbEntity
100
AcDbLine
  8
outer
 62
256
370
-1
  6
ByLayer
 10
134.0
 20
34.0
 30
0.0
 11
134.0
 21
68.0
 31
0.0
  0
LINE
  5
68
100
AcDbEntity
100
AcDbLine
  8
outer
 62
256
370
-1
  6
ByLayer
 10
134.0
 20
68.0
 30
0.0
 11
140.0
 21
68.0
 31
0.0
  0
LINE
  5
69
100
AcDbEntity
100
AcDbLine
  8
outer
 62
256
370
-1
  6
ByLayer
 10
140.0
 20
68.0
 30
0.0
 11
140.0
 21
102.0
 31
0.0
  0
LINE
  5
6A
100
AcDbEntity
100
AcDbLine
  8
outer
 62
256
370
-1
  6
ByLayer
 10
140.0
 20
102.0
 30
0.0
 11
134.0
 21
102.0
 31
0.0
  0
LINE
  5
6B
100
AcDbEntity
100
AcDbLine
  8
outer
 62
256
370
-1
  6
ByLayer
 10
134.0
 20
102.0
 30
0.0
 11
134.0
 21
136.0
 31
0.0
  0
LINE
  5
6C
100
AcDbEntity
100
AcDbLine
  8
outer
 62
256
370
-1
  6
ByLayer
 10
134.0
 20
136.0
 30
0.0
 11
140.0
 21
136.0
 31
0.0
  0
LINE
  5
6D
100
AcDbEntity
100
AcDbLine
  8
outer
 62
256
370
-1
  6
ByLayer
 10
140.0
 20
136.0
 30
0.0
 11
140.0
 21
170.0
 31
0.0
  0
LINE
  5
6E
100
AcDbEntity
100
AcDbLine
  8
outer
 62
256
370
-1
  6
ByLayer
 10
6.0
 20
170.0
 30
0.0
 11
20.0
 21
170.0
 31
0.0
  0
LINE
  5
6F
100
AcDbEntity
100
AcDbLine
  8
outer
 62
256
370
-1
  6
ByLayer
 10
20.0
 20
170.0
 30
0.0
 11
20.0
 21
164.0
 31
0.0
  0
LINE
  5
70
100
AcDbEntity
100
AcDbLine
  8
outer
 62
256
370
-1
  6
ByLayer
 10
20.0
 20
164.0
 30
0.0
 11
40.0
 21
164.0
 31
0.0
  0
LINE
  5
71
100
AcDbEntity
100
AcDbLine
  8
outer
 62
256
370
-1
  6
ByLayer
 10
40.0
 20
164.0
 30
0.0
 11
40.0
 21
170.0
 31
0.0
  0
LINE
  5
72
100
AcDbEntity
100
AcDbLine
  8
outer
 62
256
370
-1
  6
ByLayer
 10
40.0
 20
170.0
 30
0.0
 11
60.0
 21
170.0
 31
0.0
  0
LINE
  5
73
100
AcDbEntity
100
AcDbLine
  8
outer
 62
256
370
-1
  6
ByLayer
 10
60.0
 20
170.0
 30
0.0
 11
60.0
 21
164.0
 31
0.0
  0
LINE
  5
74
100
AcDbEntity
100
AcDbLine
  8
outer
 62
256
370
-1
  6
ByLayer
 10
60.0
 20
164.0
 30
0.0
 11
80.0
 21
164.0
 31
0.0
  0
LINE
  5
75
100
AcDbEntity
100
AcDbLine
  8
outer
 62
256
370
-1
  6
ByLayer
 10
80.0
 20
164.0
 30
0.0
 11
80.0
 21
170.0
 31
0.0
  0
LINE
  5
76
100
AcDbEntity
100
AcDbLine
  8
outer
 62
256
370
-1
  6
ByLayer
 10
80.0
 20
170.0
 30
0.0
 11
100.0
 21
170.0
 31
0.0
  0
LINE
  5
77
100
AcDbEntity
100
AcDbLine
  8
outer
 62
256
370
-1
  6
ByLayer
 10
100.0
 20
170.0
 30
0.0
 11
100.0
 21
164.0
 31
0.0
  0
LINE
  5
78
100
AcDbEntity
100
AcDbLine
  8
outer
 62
256
370
-1
  6
ByLayer
 10
100.0
 20
164.0
 30
0.0
 11
120.0
 21
164.0
 31
0.0
  0
LINE
  5
79
100
AcDbEntity
100
AcDbLine
  8
outer
 62
256
370
-1
  6
ByLayer
 10
120.0
 20
164.0
 30
0.0
 11
120.0
 21
170.0
 31
0.0
  0
LINE
  5
7A
100
AcDbEntity
100
AcDbLine
  8
outer
 62
256
370
-1
  6
ByLayer
 10
120.0
 20
170.0
 30
0.0
 11
140.0
 21
170.0
 31
0.0
  0
LINE
  5
7B
100
AcDbEntity
100
AcDbLine
  8
outer
 62
256
370
-1
  6
ByLayer
 10
6.0
 20
0.0
 30
0.0
 11
140.0
 21
0.0
 31
0.0
  0
LINE
  5
7C
100
AcDbEntity
100
AcDbLine
  8
top
 62
256
370
-1
  6
ByLayer
 10
19.9999999999999964
 20
134.0
 30
0.0
 11
20.0
 21
140.0
 31
0.0
  0
LINE
  5
7D
100
AcDbEntity
100
AcDbLine
  8
top
 62
256
370
-1
  6
ByLayer
 10
20.0
 20
140.0
 30
0.0
 11
39.9999999999999929
 21
140.0
 31
0.0
  0
LINE
  5
7E
100
AcDbEntity
100
AcDbLine
  8
top
 62
256
370
-1
  6
ByLayer
 10
39.9999999999999929
 20
140.0
 30
0.0
 11
40.0
 21
134.0
 31
0.0
  0
LINE
  5
7F
100
AcDbEntity
100
AcDbLine
  8
top
 62
256
370
-1
  6
ByLayer
 10
40.0
 20
134.0
 30
0.0
 11
59.9999999999999929
 21
134.0
 31
0.0
  0
LINE
  5
80
100
AcDbEntity
100
AcDbLine
  8
top
 62
256
370
-1
  6
ByLayer
 10
59.9999999999999929
 20
134.0
 30
0.0
 11
60.0
 21
140.0
 31
0.0
  0
LINE
  5
81
100
AcDbEntity
100
AcDbLine
  8
top
 62
256
370
-1
  6
ByLayer
 10
60.0
 20
140.0
 30
0.0
 11
80.0
 21
140.0
 31
0.0
  0
LINE
  5
82
100
AcDbEntity
100
AcDbLine
  8
top
 62
256
370
-1
  6
ByLayer
 10
80.0
 20
140.0
 30
0.0
 11
80.0
 21
134.0
 31
0.0
  0
LINE
  5
83
100
AcDbEntity
100
AcDbLine
  8
top
 62
256
370
-1
  6
ByLayer
 10
80.0
 20
134.0
 30
0.0
 11
100.0
 21
134.0
 31
0.0
  0
LINE
  5
84
100
AcDbEntity
100
AcDbLine
  8
top
 62
256
370
-1
  6
ByLayer
 10
100.0
 20
134.0
 30
0.0
 11
100.0000000000000142
 21
140.0
 31
0.0
  0
LINE
  5
85
100
AcDbEntity
100
AcDbLine
  8
top
 62
256
370
-1
  6
ByLayer
 10
100.0000000000000142
 20
140.0
 30
0.0
 11
120.0
 21
140.0
 31
0.0
  0
LINE
  5
86
100
AcDbEntity
100
AcDbLine
  8
top
 62
256
370
-1
  6
ByLayer
 10
120.0
 20
140.0
 30
0.0
 11
119.9999999999999858
 21
134.0
 31
0.0
  0
LINE
  5
87
100
AcDbEntity
100
AcDbLine
  8
top
 62
256
370
-1
  6
ByLayer
 10
19.9999999999999645
 20
6.0
 30
0.0
 11
20.0000000000000107
 21
0.0
 31
0.0
  0
LINE
  5
88
100
AcDbEntity
100
AcDbLine
  8
top
 62
256
370
-1
  6
ByLayer
 10
20.0000000000000107
 20
0.0
 30
0.0
 11
39.9999999999999716
 21
0.0
 31
0.0
  0
LINE
  5
89
100
AcDbEntity
100
AcDbLine
  8
top
 62
256
370
-1
  6
ByLayer
 10
39.9999999999999716
 20
0.0
 30
0.0
 11
39.9999999999999787
 21
6.0
 31
0.0
  0
LINE
  5
8A
100
AcDbEntity
100
AcDbLine
  8
top
 62
256
370
-1
  6
ByLayer
 10
39.9999999999999787
 20
6.0
 30
0.0
 11
60.0000000000000213
 21
6.0000000000000284
 31
0.0
  0
LINE
  5
8B
100
AcDbEntity
100
AcDbLine
  8
top
 62
256
370
-1
  6
ByLayer
 10
60.0000000000000213
 20
6.0000000000000284
 30
0.0
 11
60.0000000000000142
 21
0.0
 31
0.0
  0
LINE
  5
8C
100
AcDbEntity
100
AcDbLine
  8
top
 62
256
370
-1
  6
ByLayer
 10
60.0000000000000142
 20
0.0
 30
0.0
 11
80.0000000000000284
 21
0.0000000000000284
 31
0.0
  0
LINE
  5
8D
100
AcDbEntity
100
AcDbLine
  8
top
 62
256
370
-1
  6
ByLayer
 10
80.0000000000000284
 20
0.0000000000000284
 30
0.0
 11
80.0000000000000142
 21
6.0000000000000284
 31
0.0
  0
LINE
  5
8E
100
AcDbEntity
100
AcDbLine
  8
top
 62
256
370
-1
  6
ByLayer
 10
80.0000000000000142
 20
6.0000000000000284
 30
0.0
 11
100.0000000000000142
 21
6.0000000000000284
 31
0.0
  0
LINE
  5
8F
100
AcDbEntity
100
AcDbLine
  8
top
 62
256
370
-1
  6
ByLayer
 10
100.0000000000000142
 20
6.0000000000000284
 30
0.0
 11
99.9999999999999858
 21
-0.0000000000000284
 31
0.0
  0
LINE
  5
90
100
AcDbEntity
100
AcDbLine
  8
top
 62
256
370
-1
  6
ByLayer
 10
99.9999999999999858
 20
-0.0000000000000284
 30
0.0
 11
120.0000000000000284
 21
0.0000000000000284
 31
0.0
  0
LINE
  5
91
100
AcDbEntity
100
AcDbLine
  8
top
 62
256
370
-1
  6
ByLayer
 10
120.0000000000000284
 20
0.0000000000000284
 30
0.0
 11
120.0
 21
6.0
 31
0.0
  0
LINE
  5
92
100
AcDbEntity
100
AcDbLine
  8
top
 62
256
370
-1
  6
ByLayer
 10
6.0
 20
20.0
 30
0.0
 11
-0.0000000000000142
 21
20.0
 31
0.0
  0
LINE
  5
93
100
AcDbEntity
100
AcDbLine
  8
top
 62
256
370
-1
  6
ByLayer
 10
-0.0000000000000142
 20
20.0
 30
0.0
 11
0.0000000000000142
 21
39.9999999999999432
 31
0.0
  0
LINE
  5
94
100
AcDbEntity
100
AcDbLine
  8
top
 62
256
370
-1
  6
ByLayer
 10
0.0000000000000142
 20
39.9999999999999432
 30
0.0
 11
5.9999999999999716
 21
40.0000000000000568
 31
0.0
  0
LINE
  5
95
100
AcDbEntity
100
AcDbLine
  8
top
 62
256
370
-1
  6
ByLayer
 10
5.9999999999999716
 20
40.0000000000000568
 30
0.0
 11
6.0000000000000071
 21
59.9999999999999716
 31
0.0
  0
LINE
  5
96
100
AcDbEntity
100
AcDbLine
  8
top
 62
256
370
-1
  6
ByLayer
 10
6.0000000000000071
 20
59.9999999999999716
 30
0.0
 11
0.0
 21
60.0
 31
0.0
  0
LINE
  5
97
100
AcDbEntity
100
AcDbLine
  8
top
 62
256
370
-1
  6
ByLayer
 10
0.0
 20
60.0
 30
0.0
 11
0.0
 21
80.0
 31
0.0
  0
LINE
  5
98
100
AcDbEntity
100
AcDbLine
  8
top
 62
256
370
-1
  6
ByLayer
 10
0.0
 20
80.0
 30
0.0
 11
6.0
 21
80.0
 31
0.0
  0
LINE
  5
99
100
AcDbEntity
100
AcDbLine
  8
top
 62
256
370
-1
  6
ByLayer
 10
6.0
 20
80.0
 30
0.0
 11
6.0
 21
100.0
 31
0.0
  0
LINE
  5
9A
100
AcDbEntity
100
AcDbLine
  8
top
 62
256
370
-1
  6
ByLayer
 10
6.0
 20
100.0
 30
0.0
 11
0.0
 21
100.0
 31
0.0
  0
LINE
  5
9B
100
AcDbEntity
100
AcDbLine
  8
top
 62
256
370
-1
  6
ByLayer
 10
0.0
 20
100.0
 30
0.0
 11
-0.0000000000000142
 21
120.0
 31
0.0
  0
LINE
  5
9C
100
AcDbEntity
100
AcDbLine
  8
top
 62
256
370
-1
  6
ByLayer
 10
-0.0000000000000142
 20
120.0
 30
0.0
 11
6.0000000000000213
 21
120.0
 31
0.0
  0
LINE
  5
9D
100
AcDbEntity
100
AcDbLine
  8
top
 62
256
370
-1
  6
ByLayer
 10
134.0
 20
19.9999999999999432
 30
0.0
 11
140.0
 21
20.0
 31
0.0
  0
LINE
  5
9E
100
AcDbEntity
100
AcDbLine
  8
top
 62
256
370
-1
  6
ByLayer
 10
140.0
 20
20.0
 30
0.0
 11
140.0
 21
39.9999999999999147
 31
0.0
  0
LINE
  5
9F
100
AcDbEntity
100
AcDbLine
  8
top
 62
256
370
-1
  6
ByLayer
 10
140.0
 20
39.9999999999999147
 30
0.0
 11
133.9999999999999716
 21
39.9999999999999147
 31
0.0
  0
LINE
  5
A0
100
AcDbEntity
100
AcDbLine
  8
top
 62
256
370
-1
  6
ByLayer
 10
133.9999999999999716
 20
39.9999999999999147
 30
0.0
 11
133.9999999999999716
 21
60.0
 31
0.0
  0
LINE
  5
A1
100
AcDbEntity
100
AcDbLine
  8
top
 62
256
370
-1
  6
ByLayer
 10
133.9999999999999716
 20
60.0
 30
0.0
 11
140.0
 21
59.9999999999999716
 31
0.0
  0
LINE
  5
A2
100
AcDbEntity
100
AcDbLine
  8
top
 62
256
370
-1
  6
ByLayer
 10
140.0
 20
59.9999999999999716
 30
0.0
 11
139.9999999999999716
 21
80.0
 31
0.0
  0
LINE
  5
A3
100
AcDbEntity
100
AcDbLine
  8
top
 62
256
370
-1
  6
ByLayer
 10
139.9999999999999716
 20
80.0
 30
0.0
 11
133.9999999999999716
 21
80.0
 31
0.0
  0
LINE
  5
A4
100
AcDbEntity
100
AcDbLine
  8
top
 62
256
370
-1
  6
ByLayer
 10
133.9999999999999716
 20
80.0
 30
0.0
 11
134.0
 21
100.0
 31
0.0
  0
LINE
  5
A5
100
AcDbEntity
100
AcDbLine
  8
top
 62
256
370
-1
  6
ByLayer
 10
134.0
 20
100.0
 30
0.0
 11
140.0000000000000568
 21
99.9999999999999432
 31
0.0
  0
LINE
  5
A6
100
AcDbEntity
100
AcDbLine
  8
top
 62
256
370
-1
  6
ByLayer
 10
140.0000000000000568
 20
99.9999999999999432
 30
0.0
 11
139.9999999999999716
 21
120.0
 31
0.0
  0
LINE
  5
A7
100
AcDbEntity
100
AcDbLine
  8
top
 62
256
370
-1
  6
ByLayer
 10
139.9999999999999716
 20
120.0
 30
0.0
 11
134.0
 21
120.0
 31
0.0
  0
LINE
  5
A8
100
AcDbEntity
100
AcDbLine
  8
top
 62
256
370
-1
  6
ByLayer
 10
6.0000000000000302
 20
6.0
 30
0.0
 11
19.9999999999999645
 21
6.0
 31
0.0
  0
LINE
  5
A9
100
AcDbEntity
100
AcDbLine
  8
top
 62
256
370
-1
  6
ByLayer
 10
6.0000000000000302
 20
6.0
 30
0.0
 11
6.0
 21
20.0
 31
0.0
  0
LINE
  5
AA
100
AcDbEntity
100
AcDbLine
  8
top
 62
256
370
-1
  6
ByLayer
 10
120.0
 20
6.0
 30
0.0
 11
133.9999999999999716
 21
6.0
 31
0.0
  0
LINE
  5
AB
100
AcDbEntity
100
AcDbLine
  8
top
 62
256
370
-1
  6
ByLayer
 10
133.9999999999999716
 20
6.0
 30
0.0
 11
134.0
 21
19.9999999999999432
 31
0.0
  0
LINE
  5
AC
100
AcDbEntity
100
AcDbLine
  8
top
 62
256
370
-1
  6
ByLayer
 10
119.9999999999999858
 20
134.0
 30
0.0
 11
134.0000000000000284
 21
134.0
 31
0.0
  0
LINE
  5
AD
100
AcDbEntity
100
AcDbLine
  8
top
 62
256
370
-1
  6
ByLayer
 10
134.0
 20
120.0
 30
0.0
 11
134.0000000000000284
 21
134.0
 31
0.0
  0
LINE
  5
AE
100
AcDbEntity
100
AcDbLine
  8
top
 62
256
370
-1
  6
ByLayer
 10
6.0000000000000213
 20
120.0
 30
0.0
 11
6.0000000000000062
 21
134.0
 31
0.0
  0
LINE
  5
AF
100
AcDbEntity
100
AcDbLine
  8
top
 62
256
370
-1
  6
ByLayer
 10
6.0000000000000062
 20
134.0
 30
0.0
 11
19.9999999999999964
 21
134.0
 31
0.0
  0
LWPOLYLINE
  5
B0
  8
top_inner
 62
0
370
-1
  6
ByLayer
100
AcDbEntity
100
AcDbPolyline
 90
71
 70
1
 10
65.3989723320158021
 20
44.6361264822134416
 10
64.0109090909090952
 20
44.6259288537549494
 10
62.7279051383399278
 20
44.5267984189723336
 10
61.6175494071146304
 20
44.3029249011857686
 10
60.7464822134387461
 20
43.9196837944664082
 10
60.1803952569170022
 20
43.344110671936761
 10
59.9887747035573184
 20
42.540158102766803
 10
60.2344664031620596
 20
41.4748616600790498
 10
60.988379446640316
 20
40.1109881422924914
 10
59.4058498023715416
 20
39.8316205533596914
 10
57.6867193675889354
 20
39.7867984189723316
 10
55.8879051383399243
 20
39.8536758893280663
 10
54.0675098814229287
 20
39.9103557312253017
 10
52.2817391304347865
 20
39.8330434782608762
 10
50.5886956521739179
 20
39.4986561264822171
 10
49.0417391304347845
 20
38.7871936758893341
 10
47.7039525691699637
 20
37.5736758893280651
 10
48.6300395256917
 20
35.5524110671936739
 10
49.268458498023719
 20
33.3497233201581054
 10
49.6775494071146255
 20
31.0429249011857777
 10
49.9144664031620593
 20
28.7074308300395273
 10
50.0392094861660084
 20
26.4210276679841911
 10
50.1096442687747086
 20
24.2607905138339959
 10
50.1857707509881408
 20
22.3052173913043532
 10
50.324743083003959
 20
20.6273517786561271
 10
52.0578656126482215
 20
21.7211067193675973
 10
53.8846640316205594
 20
22.8724901185770761
 10
55.7878260869565281
 20
23.9714624505928882
 10
57.7500395256916974
 20
24.903003952569172
 10
59.7532806324110695
 20
25.5577865612648267
 10
61.7835573122529667
 20
25.8203162055336009
 10
63.822845849802377
 20
25.5810276679841948
 10
65.8543083003952603
 20
24.7253754940711445
 10
67.6199209486165955
 20
22.992252964426882
 10
69.3298023715415042
 20
22.3811067193675939
 10
71.0190513833992156
 20
22.606166007905145
 10
72.7227667984189736
 20
23.3833201581027694
 10
74.4748616600790569
 20
24.4267984189723393
 10
76.3109090909090924
 20
25.4496442687747049
 10
78.2655335968379546
 20
26.1677470355731288
 10
80.3740711462450577
 20
26.2924901185770779
 10
83.3864031620553448
 20
25.5205533596838023
 10
86.2156521739130568
 20
24.1592885375494077
 10
88.9509881422924877
 20
22.6924901185770764
 10
91.681106719367591
 20
21.6039525691699623
 10
91.8976284584980334
 20
23.0309090909090912
 10
92.0916205533596894
 20
24.8565217391304358
 10
92.177944664031628
 20
26.8277470355731253
 10
92.07241106719367
 20
28.6946245059288572
 10
91.6863241106719471
 20
30.2026877470355757
 10
90.9378656126482241
 20
31.0993675889328074
 10
89.7385770750988172
 20
31.1313833992094828
 10
88.0052173913043418
 20
30.0468774703557386
 10
88.3668774703557318
 20
32.2007114624505917
 10
88.0400790513834011
 20
34.4947035573122562
 10
87.1433992094861765
 20
36.7747035573122574
 10
85.7987351778656233
 20
38.891304347826086
 10
84.122292490118582
 20
40.6913043478260903
 10
82.2362055335968449
 20
42.0243478260869594
 10
80.2585770750988132
 20
42.7358102766798424
 10
78.3105928853754989
 20
42.67533596837945
 10
77.7869565217391425
 20
40.2293280632411125
 10
76.8539920948616668
 20
38.7973913043478262
 10
75.6663241106719511
 20
38.2583399209486217
 10
74.3811857707509887
 20
38.4836363636363714
 10
73.1574703557312205
 20
39.3480632411067219
 10
72.1502766798419088
 20
40.7273517786561285
 10
71.5184980237154235
 20
42.4950988142292516
 10
71.4179446640316229
 20
44.5253754940711488
 10
68.7599209486166103
 20
44.5009486166007875
 10
65.3989723320158021
 20
44.6361264822134416
  0
LWPOLYLINE
  5
B1
  8
top_inner
 62
0
370
-1
  6
ByLayer
100
AcDbEntity
100
AcDbPolyline
 90
56
 70
1
 10
64.4083794466403248
 20
91.5549407114624501
 10
62.9918577075098867
 20
91.4287747035573233
 10
64.1548616600790496
 20
89.7212648221343869
 10
65.371936758893284
 20
87.9805533596837961
 10
66.5401581027668101
 20
86.1973913043478319
 10
67.5539920948616555
 20
84.3599209486166046
 10
68.3057707509881453
 20
82.4581818181818278
 10
68.6925691699604783
 20
80.4807905138339947
 10
68.609328063241108
 20
78.4156521739130454
 10
67.9493280632411114
 20
76.2530434782608779
 10
67.3533596837944799
 20
74.711541501976285
 10
66.4410276679842013
 20
73.3049802371541546
 10
65.4257707509881499
 20
71.9994466403162079
 10
64.5191304347826247
 20
70.7548616600790581
 10
63.9333596837944711
 20
69.5392094861660155
 10
63.8821343873517833
 20
68.3128853754940764
 10
64.5793675889327972
 20
67.0417391304347916
 10
66.2366007905138332
 20
65.685691699604746
 10
67.177154150197623
 20
63.6063241106719488
 10
67.626086956521732
 20
61.4809486166007986
 10
67.648142292490121
 20
59.3347035573122525
 10
67.3097233201580991
 20
57.1950988142292545
 10
66.6765217391304361
 20
55.0875098814229318
 10
65.8144664031620579
 20
53.0377865612648236
 10
64.790434782608699
 20
51.071778656126483
 10
63.6696442687747037
 20
49.2141501976284559
 10
71.8346245059288577
 20
48.8266403162055411
 10
79.9445849802371526
 20
47.8026086956521823
 10
79.0128063241106702
 20
49.5988142292490153
 10
77.8704347826086973
 20
51.4822924901185957
 10
76.67399209486166
 20
53.448300395256922
 10
75.5814229249011902
 20
55.4878260869565167
 10
74.7490118577075151
 20
57.592569169960484
 10
74.3358893280632458
 20
59.7577865612648225
 10
74.4992885375494183
 20
61.9749407114624518
 10
75.3962055335968415
 20
64.2369169960474409
 10
77.0095652173913123
 20
65.6792885375494109
 10
77.8846640316205594
 20
67.0056916996047391
 10
78.1379446640316218
 20
68.2550197628458477
 10
77.8896442687747168
 20
69.460474308300391
 10
77.2592885375494092
 20
70.6583399209486203
 10
76.3675889328063278
 20
71.8846640316205594
 10
75.331936758893292
 20
73.1752569169960623
 10
74.2730434782608739
 20
74.5649802371541597
 10
73.5988142292490153
 20
76.78924901185772
 10
73.5793675889328114
 20
79.05762845849803
 10
74.0441897233201587
 20
81.3300395256917028
 10
74.8237154150197625
 20
83.5661660079051387
 10
75.7474308300395336
 20
85.7275889328063414
 10
76.6455335968379501
 20
87.7720948616600936
 10
77.3482213438735329
 20
89.6624505928853779
 10
77.6852173913043487
 20
91.3566798418972326
 10
74.4169960474308425
 20
90.8586561264822166
 10
70.8902766798419037
 20
90.9950197628458568
 10
67.4411067193675819
 20
91.3633201581027805
 10
64.4083794466403248
 20
91.5549407114624501
  0
LWPOLYLINE
  5
B2
  8
top_inner
 62
0
370
-1
  6
ByLayer
100
AcDbEntity
100
AcDbPolyline
 90
61
 70
1
 10
84.8349407114624512
 20
67.8729644268774734
 10
83.6489328063241118
 20
67.1937549407114574
 10
83.0119367588932846
 20
65.6818972332015818
 10
82.6040316205533571
 20
63.7671146245059361
 10
82.107430830039533
 20
61.875810276679843
 10
80.7627667984189799
 20
60.8916205533596866
 10
80.0885375494071212
 20
59.6356521739130443
 10
79.969011857707514
 20
58.1911462450592865
 10
80.2917786561264961
 20
56.6420553359683936
 10
80.9456126482213563
 20
55.0735177865612684
 10
81.8152569169960486
 20
53.5668774703557347
 10
82.790434782608699
 20
52.2082213438735181
 10
83.7568379446640421
 20
51.078418972332031
 10
83.7618181818181853
 20
48.2657707509881391
 10
84.095256916996064
 20
45.7322529644268769
 10
85.302134387351785
 20
43.5760474308300445
 10
87.9307509881423073
 20
41.8903557312252985
 10
88.5660869565217439
 20
41.464426877470359
 10
89.1646640316205605
 20
40.8378656126482227
 10
89.7385770750988172
 20
40.0929644268774794
 10
90.3006324110671983
 20
39.3172332015810326
 10
90.8681422924901341
 20
38.595098814229253
 10
91.4508300395256981
 20
38.0124110671936819
 10
92.0657707509881504
 20
37.6535968379446686
 10
92.7260079051383457
 20
37.6033201581027683
 10
94.8824505928853768
 20
41.7644268774703562
 10
97.5935968379446734
 20
45.4647430830039596
 10
100.7240316205533617
 20
48.8178656126482267
 10
104.1400000000000006
 20
51.9328853754940667
 10
107.7101185770751215
 20
54.9203162055335952
 10
111.2987351778656091
 20
57.8923320158102683
 10
114.7754150197628462
 20
60.9584980237154213
 10
118.0033201581027811
 20
64.2279051383399207
 10
118.7408695652173947
 20
65.3370750988142248
 10
118.5411857707509853
 20
66.1886956521739194
 10
117.6407114624505965
 20
66.770434782608703
 10
116.2754150197628462
 20
67.0713833992094948
 10
114.68387351778658
 20
67.0789723320158231
 10
113.1027667984189833
 20
66.7806324110671881
 10
111.7697233201581071
 20
66.1642687747035581
 10
110.9216600790513922
 20
65.218735177865625
 10
109.8781818181818153
 20
64.6253754940711502
 10
108.7770750988142368
 20
64.1389723320158254
 10
107.6743083003952535
 20
63.8237944664031716
 10
106.6308300395257049
 20
63.7388932806324107
 10
105.704505928853763
 20
63.9473517786561274
 10
104.9567588932806359
 20
64.5108300395257004
 10
104.4447430830039565
 20
65.4914624505928913
 10
104.2298814229249047
 20
66.9480632411067234
 10
102.1507509881422919
 20
66.8847430830039684
 10
100.0896442687747054
 20
66.5221343873517839
 10
98.0411067193676047
 20
66.0174703557312341
 10
96.0020553359683788
 20
65.5234782608695667
 10
93.965138339920955
 20
65.1940711462450651
 10
91.9258498023715447
 20
65.1864822134387367
 10
89.8801581027667993
 20
65.6534387351778719
 10
87.8214229249011993
 20
66.7495652173913072
 10
86.8886956521739222
 20
67.2964426877470459
 10
86.0883003952569226
 20
67.6554940711462507
 10
85.4064822134387356
 20
67.8418972332015784
 10
84.8349407114624512
 20
67.8729644268774734
  0
LWPOLYLINE
  5
B3
  8
top_inner
 62
0
370
-1
  6
ByLayer
100
AcDbEntity
100
AcDbPolyline
 90
53
 70
1
 10
92.3067193675889399
 20
99.604189723320161
 10
90.6893280632411205
 20
98.8116205533596883
 10
88.8352569169960589
 20
97.0040316205533628
 10
86.827984189723324
 20
95.1162845849802352
 10
84.7552569169960464
 20
94.0780237154150285
 10
82.6784980237154201
 20
91.4173913043478308
 10
81.364901185770762
 20
88.1015019762845952
 10
80.2673517786561348
 20
84.5747826086956564
 10
78.8432411067193755
 20
81.2759683794466525
 10
78.3594466403162215
 20
79.5826877470355782
 10
78.772332015810278
 20
78.4002371541502043
 10
79.7693280632411188
 20
77.5433992094861679
 10
81.0343083003952671
 20
76.8307509881422988
 10
82.2539920948616725
 20
76.076363636363638
 10
83.1122529644268866
 20
75.0973913043478376
 10
83.2974703557312353
 20
73.7116996047430888
 10
82.4935177865612701
 20
71.7314624505928862
 10
82.6683003952569209
 20
71.3273517786561371
 10
82.9915415019762861
 20
71.1072727272727292
 10
83.4248221343873553
 20
71.0316205533596872
 10
83.9266403162055354
 20
71.0586561264822194
 10
84.4569169960474397
 20
71.1487747035573221
 10
84.9765217391304333
 20
71.2618972332015943
 10
85.4449011857707603
 20
71.3569960474308402
 10
85.8231620553359704
 20
71.3918577075098852
 10
90.1554940711462507
 20
73.3049802371541546
 10
94.5338339920948698
 20
74.1800790513834158
 10
98.8903557312252985
 20
73.7038735177865618
 10
103.1541501976284678
 20
71.5592885375494205
 10
104.0909090909090935
 20
71.9347035573122611
 10
104.6328063241106747
 20
72.7184980237154264
 10
104.9453754940711434
 20
73.7192885375494029
 10
105.1936758893280768
 20
74.7423715415019814
 10
105.5449011857707546
 20
75.5977865612648259
 10
106.1636363636363711
 20
76.0896442687747054
 10
107.2151778656126595
 20
76.0277470355731282
 10
108.8681422924901341
 20
75.2157312252964374
 10
110.2000000000000171
 20
74.3382608695652181
 10
112.0526482213438726
 20
73.6732806324110783
 10
114.111383399209501
 20
73.270355731225294
 10
116.0631620553359795
 20
73.1738339920948704
 10
117.5928063241106827
 20
73.4311462450592956
 10
118.3894071146245182
 20
74.087351778656128
 10
118.1361264822134416
 20
75.1913043478260903
 10
116.5211067193676087
 20
76.7854545454545558
 10
110.3942292490118717
 20
81.4353359683794622
 10
104.2993675889328102
 20
86.1703557312252997
 10
98.6728853754940758
 20
91.3851383399209567
 10
93.948300395256922
 20
97.4759683794466412
 10
93.6020553359683873
 20
98.4551778656126544
 10
93.2112252964426915
 20
99.1125691699604801
 10
92.7772332015810264
 20
99.4844268774703551
 10
92.3067193675889399
 20
99.604189723320161
  0
LWPOLYLINE
  5
B4
  8
top_inner
 62
0
370
-1
  6
ByLayer
100
AcDbEntity
100
AcDbPolyline
 90
70
 70
1
 10
56.9342292490118638
 20
67.806086956521753
 10
55.1650592885375559
 20
67.5656126482213466
 10
53.39328063241107
 20
66.9710671936758928
 10
51.6215019762845841
 20
66.1988932806324186
 10
49.8497233201581054
 20
65.4231620553359789
 10
48.0781818181818181
 20
64.82221343873519
 10
46.3090118577075103
 20
64.5701185770750925
 10
44.5438735177865581
 20
64.842845849802373
 10
42.7822924901185786
 20
65.8156521739130511
 10
41.2744664031620587
 20
66.5605533596837944
 10
39.9440316205533605
 20
66.7739920948616685
 10
38.8002371541501958
 20
66.5437154150197756
 10
37.8558893280632418
 20
65.9598418972332041
 10
37.1211857707509907
 20
65.1115415019762906
 10
36.6077470355731265
 20
64.0889328063241237
 10
36.32600790513834
 20
62.9811857707509972
 10
36.2873517786561308
 20
61.875810276679843
 10
34.2983399209486208
 20
62.4921739130434872
 10
32.4352094861660092
 20
63.2757312252964539
 10
30.6519051383399237
 20
64.1247430830039491
 10
28.9059288537549435
 20
64.934150197628469
 10
27.1522450592885392
 20
65.6043478260869648
 10
25.349660079051386
 20
66.0302766798419043
 10
23.4544426877470364
 20
66.1116205533596997
 10
21.4215335968379463
 20
65.743320158102776
 10
21.497422924901187
 20
64.6113833992094868
 10
22.1021660079051401
 20
63.4917786561264847
 10
23.108339920948616
 20
62.3930434782608785
 10
24.3911067193675883
 20
61.3237154150197625
 10
25.8218814229249034
 20
60.2920948616600896
 10
27.2744743083003982
 20
59.304110671936769
 10
28.6228853754940715
 20
58.3699604743083
 10
29.7409723320158115
 20
57.4946245059288685
 10
34.0113833992094925
 20
54.7078260869565156
 10
37.9343873517786534
 20
51.4758893280632464
 10
41.5626086956521732
 20
47.9107509881422899
 10
44.9479841897233214
 20
44.1229249011857689
 10
45.1742292490118587
 20
45.3912252964426983
 10
45.4199209486166069
 20
46.7283003952569231
 10
45.7007114624505917
 20
47.9660079051383477
 10
46.0324901185770798
 20
48.9362055335968407
 10
46.4351778656126513
 20
49.4726482213438885
 10
46.9241897233201612
 20
49.4071936758893173
 10
47.5158893280632455
 20
48.5721739130434855
 10
48.2299604743083066
 20
46.7989723320158149
 10
48.3599209486166046
 20
46.0720948616600836
 10
48.5038735177865661
 20
45.3345454545454629
 10
48.6945454545454623
 20
44.6453754940711462
 10
48.9594466403162087
 20
44.0636363636363626
 10
49.3313043478260909
 20
43.6493280632411071
 10
49.83833992094862
 20
43.4615019762845876
 10
50.5137549407114648
 20
43.5606324110671963
 10
51.3874308300395342
 20
44.0043478260869563
 10
53.415335968379452
 20
45.1481422924901281
 10
55.3979446640316198
 20
46.4503557312253008
 10
57.2622134387351807
 20
47.9195256916996115
 10
58.9386561264822149
 20
49.5639525691699703
 10
60.3566007905138378
 20
51.3909881422924855
 10
61.4453754940711505
 20
53.4084584980237196
 10
62.1333596837944739
 20
55.6241897233201712
 10
62.3520158102766828
 20
58.0467193675889348
 10
62.308616600790522
 20
59.4710671936758928
 10
61.7757312252964468
 20
60.5906719367588948
 10
60.9459288537549426
 20
61.52197628458498
 10
60.0053754940711528
 20
62.3814229249011873
 10
59.1471146245059316
 20
63.2859288537549389
 10
58.5580237154150254
 20
64.3500395256916988
 10
58.4292490118577135
 20
65.6906719367588892
 10
58.9516996047430837
 20
67.4211857707509949
 10
56.9342292490118638
 20
67.806086956521753
  0
LWPOLYLINE
  5
B5
  8
top_inner
 62
0
370
-1
  6
ByLayer
100
AcDbEntity
100
AcDbPolyline
 90
85
 70
1
 10
90.9480632411067234
 20
117.4358102766798311
 10
90.4512252964427006
 20
117.3701185770751181
 10
89.809249011857716
 20
117.0599209486165933
 10
89.0076679841897374
 20
116.4807905138339947
 10
88.0322529644268883
 20
115.6061660079051308
 10
85.9275098814229352
 20
114.453122529644304
 10
83.7158102766798464
 20
113.7416600790513996
 10
81.4433992094861736
 20
113.4468774703557301
 10
79.1558102766798442
 20
113.5448221343873456
 10
76.8988142292490124
 20
114.0082213438735153
 10
74.7193675889328119
 20
114.8121739130434946
 10
72.6646640316205605
 20
115.9327272727272771
 10
70.7783399209486106
 20
117.3433201581027561
 10
69.0632411067193743
 20
116.9195256916996186
 10
67.2724901185770818
 20
116.2405533596838154
 10
65.4129644268774797
 20
115.4515415019762941
 10
63.4920158102766834
 20
114.6990513833992225
 10
61.5172332015810284
 20
114.1277470355731225
 10
59.4983399209486237
 20
113.8834782608695946
 10
57.4410276679841942
 20
114.1109090909091037
 10
55.3554940711462464
 20
114.9551778656126544
 10
54.1706719367589002
 20
115.3732806324110811
 10
52.930118577075099
 20
115.9946245059288685
 10
51.7220553359683848
 20
116.6406324110672017
 10
50.6361264822134416
 20
117.1334387351778901
 10
49.7598418972332013
 20
117.2954150197628564
 10
49.1809486166007943
 20
116.9479841897233428
 10
48.9905138339920967
 20
115.9123320158102786
 10
49.2760474308300402
 20
114.0105928853755017
 10
49.9064031620553408
 20
112.0858498023715555
 10
49.8435573122529689
 20
109.9011857707509847
 10
49.3699604743083
 20
107.5941501976284655
 10
48.7704347826086959
 20
105.3013438735177942
 10
48.324110671936765
 20
103.1591304347826252
 10
48.3174703557312313
 20
101.3050592885375494
 10
49.0315415019762852
 20
99.8740711462450577
 10
50.7506719367588985
 20
99.0046640316205639
 10
52.33699604743083
 20
98.2673517786561348
 10
54.2309090909090941
 20
98.1347826086956445
 10
56.2867984189723316
 20
98.3958893280632623
 10
58.358339920948616
 20
98.8346245059288577
 10
60.2975494071146301
 20
99.2387351778656353
 10
61.9559683794466451
 20
99.3943083003952665
 10
63.1896442687747069
 20
99.0869565217391397
 10
63.8510671936758882
 20
98.1013438735177914
 10
62.4781818181818167
 20
96.747667984189718
 10
62.1298023715415084
 20
95.8303557312253105
 10
62.5849011857707538
 20
95.2694861660079226
 10
63.6271936758893375
 20
94.9839525691699578
 10
65.0389723320158168
 20
94.8900395256917193
 10
66.6020553359683731
 20
94.9052173913043617
 10
68.0970750988142299
 20
94.9516996047430837
 10
69.310355731225286
 20
94.9426877470355777
 10
71.1324110671936864
 20
94.6996047430830004
 10
72.4163636363636272
 20
94.9441106719367696
 10
73.2836363636363615
 20
95.5794466403162204
 10
73.8547035573122628
 20
96.509802371541511
 10
74.2524110671936768
 20
97.6393675889328136
 10
74.5972332015810338
 20
98.8718577075098892
 10
75.0101185770751044
 20
100.1124110671936904
 10
75.6122529644268724
 20
101.2611857707510126
 10
77.1369169960474323
 20
101.2163636363636385
 10
78.2899604743083017
 20
100.3479051383399252
 10
79.1942292490118547
 20
99.0134387351778855
 10
79.9780237154150342
 20
97.5750988142292499
 10
80.7641897233201718
 20
96.3874308300395342
 10
81.6800790513834016
 20
95.8123320158102842
 10
82.851146245059283
 20
96.2074308300395273
 10
84.4042687747035529
 20
97.9289328063241129
 10
85.6083003952569186
 20
99.1125691699604801
 10
86.3698023715415104
 20
100.6400790513834096
 10
86.8576284584980272
 20
102.3293280632411069
 10
87.2451383399209561
 20
103.9979446640316212
 10
87.6992885375494211
 20
105.4621343873517816
 10
88.3939130434782641
 20
106.5378656126482184
 10
89.4990513833992196
 20
107.043478260869577
 10
91.1871146245059379
 20
106.7951778656126578
 10
91.0972332015810338
 20
108.0354940711462461
 10
91.1975494071146358
 20
109.5898023715415235
 10
91.4007905138339964
 20
111.3150988142292732
 10
91.6208695652173901
 20
113.0662450592885477
 10
91.7714624505928924
 20
114.6976284584980306
 10
91.7662450592885506
 20
116.0669565217391437
 10
91.5203162055336037
 20
117.0279051383399178
 10
90.9480632411067234
 20
117.4358102766798311
  0
LWPOLYLINE
  5
B6
  8
top_inner
 62
0
370
-1
  6
ByLayer
100
AcDbEntity
100
AcDbPolyline
 90
67
 70
1
 10
43.7446640316205588
 20
95.2450592885375613
 10
43.2788932806324098
 20
95.0674308300395268
 10
42.7709090909090932
 20
94.6403162055336082
 10
42.2150197628458557
 20
93.9312252964426904
 10
41.6076679841897246
 20
92.9109881422925099
 10
38.9403952569170002
 20
90.4137549407114562
 10
36.0788932806324141
 20
88.1052964426877594
 10
33.1171225296442699
 20
85.8962055335968415
 10
30.1526956521739145
 20
83.6973122529644229
 10
27.2783162055335993
 20
81.417312252964436
 10
24.5905533596837955
 20
78.9637154150197631
 10
22.1845296442687783
 20
76.2490118577075151
 10
20.1567430830039527
 20
73.1792885375494109
 10
23.2434229249011892
 20
72.2140711462450753
 10
26.1666561264822164
 20
72.3416600790513797
 10
29.0204505928853749
 20
73.3090118577075174
 10
31.8986719367588947
 20
74.8645059288537595
 10
33.2033280632411092
 20
75.3509090909090986
 10
34.2532806324110695
 20
75.5759683794466497
 10
35.0792885375494023
 20
75.5451383399209533
 10
35.7136758893280657
 20
75.263399209486181
 10
36.1870355731225288
 20
74.7385770750988172
 10
36.5318577075098858
 20
73.9716205533596849
 10
36.7775494071146198
 20
72.9720158102766874
 10
36.9577865612648253
 20
71.7404743083003922
 10
38.9674308300395325
 20
71.5514624505928936
 10
40.9732806324110754
 20
71.8512252964426921
 10
42.9717786561264816
 20
72.4275098814229352
 10
44.9596047430830055
 20
73.0645059288537624
 10
46.9358102766798453
 20
73.5506719367589028
 10
48.897786561264823
 20
73.6718577075098864
 10
50.8445849802371583
 20
73.2136758893280728
 10
52.7731225296442759
 20
71.9605533596838001
 10
55.5485375494071221
 20
70.9647430830039667
 10
58.5397628458498005
 20
70.914703557312265
 10
59.0453754940711519
 20
71.6607905138340016
 10
59.1601581027668004
 20
72.7452964426877458
 10
59.0804743083004027
 20
74.0048221343873678
 10
59.0043478260869563
 20
75.2790513833992208
 10
59.1305138339921044
 20
76.4007905138339964
 10
59.6567588932806316
 20
77.2075889328063312
 10
60.7813438735177911
 20
77.5369960474308328
 10
62.7034782608695664
 20
77.2241897233201655
 10
63.5539130434782606
 20
79.0668774703557347
 10
63.7701976284585044
 20
81.1125691699604801
 10
63.435335968379448
 20
83.2571541501976355
 10
62.6313833992094899
 20
85.3969960474308323
 10
61.4401581027668016
 20
87.4272727272727366
 10
59.9437154150197671
 20
89.2441106719367667
 10
58.2260079051383386
 20
90.7417391304347944
 10
56.3693280632411131
 20
91.816284584980238
 10
55.1109881422924914
 20
92.7309881422924889
 10
53.7921739130434844
 20
93.5313833992095027
 10
52.4989723320158177
 20
94.1140711462450668
 10
51.3179446640316215
 20
94.3751778656126561
 10
50.3375494071146292
 20
94.2091699604743127
 10
49.6426877470355734
 20
93.5119367588932988
 10
49.3225296442687764
 20
92.1774703557312307
 10
49.4626877470355737
 20
90.1033201581027612
 10
48.5954150197628465
 20
88.8708300395256998
 10
47.8633201581027734
 20
88.800158102766801
 10
47.2187351778656179
 20
89.5787351778656245
 10
46.6180237154150205
 20
90.8923320158102683
 10
46.0158893280632455
 20
92.4298023715415127
 10
45.3658498023715424
 20
93.8762055335968313
 10
44.623557312252963
 20
94.9182608695652164
 10
43.7446640316205588
 20
95.2450592885375613
  0
LWPOLYLINE
  5
B7
  8
top_inner
 62
0
370
-1
  6
ByLayer
100
AcDbEntity
100
AcDbPolyline
 90
42
 70
1
 10
129.0
 20
46.7000000000000028
 10
129.0
 20
91.8000000000000114
 10
128.7727272727273089
 20
91.7826086956521863
 10
127.5632411067193743
 20
91.308063241106737
 10
126.3471146245059344
 20
90.3274308300395319
 10
125.1003952569169968
 20
89.0562845849802471
 10
123.7958102766798589
 20
87.7092490118577217
 10
122.408695652173904
 20
86.4997628458498014
 10
120.9136758893280614
 20
85.6438735177865738
 10
119.2849011857707637
 20
85.3571541501976299
 10
117.7346245059288634
 20
85.1667193675889393
 10
116.6911462450592865
 20
84.7948616600790643
 10
116.1212648221343926
 20
84.2738339920948647
 10
115.9898814229249098
 20
83.6344664031620653
 10
116.2652173913043612
 20
82.9061660079051421
 10
116.9135968379446666
 20
82.1226086956521755
 10
117.9006324110671926
 20
81.313201581027684
 10
119.1950197628458739
 20
80.507826086956527
 10
120.8676679841897368
 20
78.9354940711462518
 10
122.3781027667984347
 20
77.1601581027668004
 10
123.6580237154150268
 20
75.2183399209486225
 10
124.6412648221343886
 20
73.1456126482213449
 10
125.2628458498023747
 20
70.9763636363636436
 10
125.4532806324110794
 20
68.7454545454545496
 10
125.1483003952569106
 20
66.4872727272727388
 10
124.2810276679842048
 20
64.2369169960474409
 10
123.7934387351778724
 20
62.5616600790513928
 10
122.5583399209486117
 20
60.9160474308300337
 10
120.9587351778656057
 20
59.3439525691699572
 10
119.3814229249012016
 20
57.8923320158102683
 10
118.2082213438735323
 20
56.6057707509881425
 10
117.822134387351781
 20
55.5290909090909111
 10
118.6106719367588909
 20
54.7068774703557352
 10
120.956126482213449
 20
54.1844268774703721
 10
122.533675889328066
 20
53.7430830039525631
 10
123.846086956521745
 20
52.8670355731225357
 10
124.9604743083004053
 20
51.6933596837944691
 10
125.9472727272727326
 20
50.357707509881422
 10
126.8762055335968455
 20
48.9966798418972402
 10
127.8155731225296421
 20
47.7459288537549469
 10
128.8343873517786733
 20
46.7396837944664085
 10
129.0
 20
46.7000000000000028
  0
LWPOLYLINE
  5
B8
  8
top_inner
 62
7
370
0
  6
CONTINUOUS
100
AcDbEntity
100
AcDbPolyline
 90
27
 70
1
 10
11.0
 20
45.3999999999999986
 10
11.4449019762845854
 20
45.4324901185770784
 10
11.9222458498023709
 20
45.5688537549407116
 10
14.2780948616600796
 20
48.5283003952569203
 10
17.1511462450592873
 20
50.8955731225296546
 10
20.4938814229249004
 20
52.4100395256917011
 10
24.2624505928853793
 20
52.810355731225286
 10
25.4487193675889358
 20
53.5320158102766896
 10
25.3290750988142292
 20
54.501976284584984
 10
24.2560000000000002
 20
55.6730434782608796
 10
22.5872173913043497
 20
56.9944664031620647
 10
20.673976284584981
 20
58.4173913043478308
 10
18.8739762845849839
 20
59.8932015810276823
 10
17.5410039525691701
 20
61.3742292490118615
 10
17.0302450592885393
 20
62.8099604743082978
 10
15.9841818181818169
 20
65.5324901185770869
 10
15.5505928853754938
 20
68.3619762845849834
 10
15.6792490118577081
 20
71.2194466403162068
 10
16.3174308300395268
 20
74.0318577075098858
 10
17.4149090909090916
 20
76.7235573122529644
 10
18.9202924901185767
 20
79.2196047430830106
 10
20.7807905138339919
 20
81.4429249011857763
 10
22.9475019762845847
 20
83.3178656126482338
 10
20.437249011857709
 20
85.0870355731225345
 10
17.178205533596838
 20
86.5988932806324243
 10
13.8715177865612649
 20
88.2869565217391425
 10
11.0
 20
90.3000000000000114
  0
LWPOLYLINE
  5
B9
  8
top_inner
 62
7
370
0
  6
CONTINUOUS
100
AcDbEntity
100
AcDbPolyline
 90
19
 70
1
 10
27.3000000000000007
 20
129.0
 10
11.0
 20
129.0
 10
11.0
 20
129.0
 10
11.0
 20
123.4000000000000057
 10
12.1435486166007909
 20
123.8600790513834227
 10
13.1059604743083007
 20
123.8264031620553283
 10
13.7968616600790526
 20
123.3815019762845964
 10
14.3154229249011848
 20
122.6633992094861583
 10
14.7579999999999991
 20
121.8103557312253145
 10
15.222490118577074
 20
120.9637154150197489
 10
15.8066245059288555
 20
120.2598418972332297
 10
16.6094861660079047
 20
119.8379446640316246
 10
19.1596284584980268
 20
120.5029249011857928
 10
21.5141660079051391
 20
121.7062450592885625
 10
23.6113913043478263
 20
123.3606324110672006
 10
25.3908537549407143
 20
125.3821343873517833
 10
26.7907035573122521
 20
127.6851383399209681
 10
27.3000000000000007
 20
129.0
 10
27.3000000000000007
 20
129.0
  0
LWPOLYLINE
  5
BA
  8
top_inner
 62
7
370
0
  6
CONTINUOUS
100
AcDbEntity
100
AcDbPolyline
 90
16
 70
1
 10
45.0
 20
129.0
 10
47.5222924901185806
 20
125.541501976284593
 10
50.1755731225296486
 20
122.6119367588932789
 10
53.3354150197628485
 20
120.4040316205533827
 10
57.1452964426877514
 20
119.362924901185778
 10
58.9758893280632464
 20
119.1096442687747299
 10
60.8185770750988226
 20
119.2125691699604886
 10
62.2080632411067214
 20
120.9895652173913163
 10
63.6554150197628488
 20
122.5203952569170269
 10
65.397786561264823
 20
123.2885375494071241
 10
67.6713833992094891
 20
122.7753359683794656
 10
68.5562055335968523
 20
123.8380237154150336
 10
68.9347035573122469
 20
125.0062450592885455
 10
68.9105138339920984
 20
126.2505928853755108
 10
68.592490118577075
 20
127.5397628458497934
 10
68.0
 20
129.0
  0
LWPOLYLINE
  5
BB
  8
top_inner
 62
7
370
0
  6
CONTINUOUS
100
AcDbEntity
100
AcDbPolyline
 90
24
 70
1
 10
72.0
 20
129.0
 10
72.0276679841897192
 20
127.5307509881423016
 10
71.8770750988142311
 20
126.0625296442687784
 10
71.9660079051383406
 20
124.7349407114624569
 10
72.3570750988142208
 20
123.7144664031620493
 10
73.1150197628458614
 20
123.1649802371541398
 10
74.3026877470355771
 20
123.2539130434782635
 10
75.9855335968379535
 20
124.1467984189723381
 10
77.5552569169960577
 20
123.5420553359683709
 10
78.3390513833992088
 20
122.5709090909091117
 10
78.6618181818181768
 20
121.4074308300395444
 10
78.8472727272727383
 20
120.2252173913043407
 10
79.2177075098814356
 20
119.1945454545454481
 10
80.0961264822134353
 20
118.4906719367589005
 10
81.8102766798419054
 20
118.2862450592885466
 10
84.6817391304347922
 20
118.7532015810276675
 10
86.5256126482213546
 20
119.3256916996047607
 10
88.2319367588932835
 20
120.2252173913043407
 10
89.7589723320158157
 20
121.4064822134387498
 10
91.0649802371541597
 20
122.826798418972345
 10
92.1046640316205583
 20
124.4413438735177806
 10
92.8365217391304327
 20
126.20695652173913
 10
93.2188142292490198
 20
128.0800000000000125
 10
93.0
 20
129.0
  0
LWPOLYLINE
  5
BC
  8
top_inner
 62
7
370
0
  6
CONTINUOUS
100
AcDbEntity
100
AcDbPolyline
 90
84
 70
1
 10
129.0
 20
116.0
 10
127.4588932806324095
 20
115.9251383399209487
 10
125.8199209486166126
 20
115.3037944664031613
 10
124.1406324110672017
 20
113.937312252964432
 10
122.617154150197635
 20
113.5540711462450645
 10
121.1916205533596838
 20
113.6195256916996073
 10
119.8419762845849874
 20
114.0132015810276584
 10
118.5504347826087042
 20
114.6165217391304338
 10
117.29304347826087
 20
115.3139920948616748
 10
116.051778656126487
 20
115.9844268774703551
 10
114.8050592885375494
 20
116.5092490118577189
 10
113.5322529644268883
 20
116.7691699604743008
 10
112.3064031620553465
 20
116.5543083003952631
 10
111.3103557312253002
 20
116.9868774703557506
 10
110.4983399209486237
 20
117.915573122529679
 10
109.8307509881422988
 20
119.1933596837944833
 10
109.2644268774703562
 20
120.6663241106719511
 10
108.7588142292490119
 20
122.1860079051383536
 10
108.2700395256917147
 20
123.6013438735178056
 10
107.7566007905138434
 20
124.7591304347826338
 10
107.0093280632411137
 20
126.4433992094861878
 10
106.7285375494071076
 20
128.5806324110671994
 10
107.0
 20
129.0
 10
97.0
 20
129.0
 10
97.2022924901185803
 20
128.7184189723320173
 10
97.2049011857707654
 20
126.7239525691699669
 10
97.5817391304347836
 20
124.7503557312253122
 10
98.344901185770766
 20
122.8652173913043839
 10
98.9173913043478308
 20
121.3263241106719477
 10
98.685691699604746
 20
120.244426877470346
 10
97.9123320158102786
 20
119.4480632411067234
 10
96.8638735177865726
 20
118.7700395256916863
 10
95.8064031620553465
 20
118.0391304347826349
 10
95.001976284584984
 20
117.0895652173913106
 10
94.7204743083003962
 20
115.7489328063241487
 10
95.2246640316205628
 20
113.8483794466403367
 10
95.3441897233201558
 20
112.2995256916996141
 10
95.4769960474308448
 20
110.7632411067193772
 10
95.6942292490118689
 20
109.3132806324110788
 10
96.072490118577079
 20
108.0276679841897334
 10
96.685059288537559
 20
106.9792094861660274
 10
97.6064031620553436
 20
106.244505928853755
 10
98.9124110671936876
 20
105.898498023715419
 10
100.6749407114624546
 20
106.0142292490118621
 10
101.4302766798418958
 20
104.5023715415019865
 10
101.0648221343873558
 20
103.2312252964426875
 10
100.0073517786561439
 20
102.1298814229249103
 10
98.6871146245059379
 20
101.1288537549407209
 10
97.5316996047430962
 20
100.1548616600790638
 10
96.9720158102766874
 20
99.1396047430829981
 10
97.4337549407114665
 20
98.0086166007905319
 10
99.3497233201581196
 20
96.6935968379446678
 10
100.2734387351778764
 20
95.4815019762846049
 10
101.5768379446640353
 20
94.6493280632411143
 10
103.1157312252964431
 20
94.0958102766798419
 10
104.7421343873517827
 20
93.7241897233201655
 10
106.3116205533596883
 20
93.4369960474308385
 10
107.6807114624506028
 20
93.1350988142292522
 10
108.7021343873517907
 20
92.7193675889328119
 10
109.233596837944674
 20
92.0901976284584975
 10
108.1452964426877656
 20
91.076363636363638
 10
108.1566798418972297
 20
90.1640316205533594
 10
109.001897233201575
 20
89.3676679841897226
 10
110.418656126482233
 20
88.69865612648222
 10
112.1425296442687767
 20
88.1735968379446717
 10
113.9081422924901119
 20
87.8057707509881453
 10
115.4546245059288623
 20
87.6086956521739211
 10
116.5161264822134513
 20
87.594466403162059
 10
117.6663241106719511
 20
87.6537549407114653
 10
118.9156521739130454
 20
87.9881422924901244
 10
120.1623715415019831
 20
88.554466403162067
 10
121.3064031620553322
 20
89.3057707509881453
 10
122.24529644268776
 20
90.19865612648222
 10
122.8770750988142311
 20
91.1880632411067324
 10
123.1023715415019808
 20
92.231541501976281
 10
122.8182608695652362
 20
93.2816600790513917
 10
121.9429249011857763
 20
95.2642687747035666
 10
121.9806324110672051
 20
96.8003162055336048
 10
122.7191304347826133
 20
97.8760474308300417
 10
123.9501976284585112
 20
98.478181818181838
 10
125.4672727272727428
 20
98.5889328063241237
 10
127.0590513833992219
 20
98.1952569169960583
 10
128.5192094861660053
 20
97.2817391304347865
 10
129.0
 20
96.8000000000000114
  0
LWPOLYLINE
  5
BD
  8
top_inner
 62
7
370
0
  6
CONTINUOUS
100
AcDbEntity
100
AcDbPolyline
 90
13
 70
1
 10
129.0
 20
121.7000000000000171
 10
129.0
 20
129.0
 10
111.0
 20
129.0
 10
111.1030830039525767
 20
128.5713833992094806
 10
111.8223715415019939
 20
127.0600000000000023
 10
114.1550197628458534
 20
124.2433201581027902
 10
117.0371541501976367
 20
121.5954940711462768
 10
120.3013438735177942
 20
119.6178656126482451
 10
123.7815810276679969
 20
118.8113043478261091
 10
124.864901185770762
 20
120.8273517786561229
 10
126.357786561264831
 20
121.8938339920948692
 10
128.1177075098814271
 20
122.0546245059288708
 10
129.0
 20
121.7000000000000171
  0
LWPOLYLINE
  5
BE
  8
top_inner
 62
7
370
0
  6
CONTINUOUS
100
AcDbEntity
100
AcDbPolyline
 90
84
 70
1
 10
11.0
 20
116.6000000000000227
 10
11.0
 20
97.1000000000000085
 10
11.1309573122529653
 20
97.1709881422925008
 10
12.1191003952569165
 20
97.8568379446640364
 10
13.0596442687747043
 20
99.0134387351778855
 10
14.0001739130434792
 20
100.3284584980237213
 10
14.9921660079051389
 20
101.4852964426877548
 10
16.0832648221343888
 20
102.1723320158102837
 10
17.3210197628458502
 20
102.0743873517786682
 10
18.7568932806324113
 20
100.8791304347826241
 10
19.3320158102766797
 20
99.3056126482213557
 10
18.9846086956521738
 20
97.9263241106719562
 10
18.0556758893280644
 20
96.6807905138339976
 10
16.8835415019762856
 20
95.5111462450592938
 10
15.8079051383399225
 20
94.3597628458498008
 10
15.1710039525691691
 20
93.1671146245059418
 10
15.3112569169960473
 20
91.873913043478268
 10
16.5683162055335984
 20
90.4213438735177988
 10
18.7427588932806337
 20
89.3842687747035711
 10
21.1654782608695662
 20
88.8478260869565304
 10
23.6705849802371553
 20
88.6803952569170093
 10
26.0959130434782622
 20
88.7527272727272845
 10
27.7646956521739163
 20
88.7553359683794554
 10
28.8814782608695673
 20
89.0228458498023798
 10
29.5338181818181837
 20
89.5180237154150262
 10
29.8104347826086951
 20
90.2012648221343909
 10
29.796300395256921
 20
91.0348616600790592
 10
29.5826956521739142
 20
91.9808695652174038
 10
29.2558972332015834
 20
92.9996837944664065
 10
28.9046482213438765
 20
94.0535968379446672
 10
31.1241027667984191
 20
94.0637944664031806
 10
33.3834703557312267
 20
94.3429249011857678
 10
35.611936758893286
 20
94.8976284584980192
 10
37.738735177865621
 20
95.7326482213438794
 10
39.6893280632411063
 20
96.8543873517786551
 10
41.3954150197628508
 20
98.268537549407128
 10
42.7849011857707566
 20
99.9786561264822069
 10
43.7859288537549389
 20
101.9920948616600782
 10
42.6537549407114653
 20
102.2366007905138474
 10
41.3425296442687795
 20
102.8681422924901341
 10
40.0573913043478314
 20
103.7833201581027822
 10
39.0034782608695707
 20
104.8742292490118615
 10
38.3885375494071184
 20
106.0358102766798538
 10
38.4167588932806296
 20
107.1594466403162187
 10
39.2968379446640341
 20
108.1384189723320191
 10
41.2332015810276715
 20
108.8679051383399212
 10
43.0846640316205551
 20
108.6850592885375733
 10
44.3211857707509935
 20
109.1007905138339993
 10
45.0506719367588957
 20
110.0003162055335935
 10
45.3815019762845822
 20
111.2688537549407073
 10
45.4199209486166069
 20
112.7909090909090963
 10
45.2759683794466454
 20
114.4519367588932823
 10
45.0558893280632375
 20
116.1364426877470351
 10
44.8678260869565193
 20
117.7279841897233155
 10
44.8139920948616606
 20
119.5303557312253133
 10
44.148774703557315
 20
120.4581027667984188
 10
43.1000790513834033
 20
120.7991304347826258
 10
41.8946245059288529
 20
120.8363636363636431
 10
40.7610276679841945
 20
120.8569960474308118
 10
39.9286166007905194
 20
121.1451383399209476
 10
39.6250592885375568
 20
121.9865612648221145
 10
40.0777865612648299
 20
123.667035573122547
 10
40.3801581027667993
 20
125.9403952569170144
 10
40.1871146245059379
 20
128.1947826086956752
 10
40.0
 20
129.0
 10
32.0
 20
129.0
 10
31.0018735177865636
 20
124.7887747035573227
 10
29.2365928853754937
 20
120.537786561264852
 10
28.4530355731225306
 20
119.0207114624506062
 10
27.4803478260869554
 20
118.0583399209486402
 10
26.3571146245059325
 20
117.4910671936759172
 10
25.1219446640316235
 20
117.1590513833992304
 10
23.8133992094861675
 20
116.9017391304347768
 10
22.4688774703557321
 20
116.5618972332015915
 10
21.1281976284585014
 20
115.97802371541502
 10
19.8299683794466404
 20
114.989802371541515
 10
18.5098498023715408
 20
114.5086166007905035
 10
17.229644268774706
 20
114.540869565217406
 10
15.9816205533596829
 20
114.9215019762845884
 10
14.7631462450592892
 20
115.4837944664031681
 10
13.5652806324110671
 20
116.0615019762846032
 10
12.3841581027667988
 20
116.4874308300395569
 10
11.213304347826087
 20
116.5967588932806507
 10
11.0
 20
116.6000000000000227
  0
LWPOLYLINE
  5
BF
  8
top_inner
 62
7
370
0
  6
CONTINUOUS
100
AcDbEntity
100
AcDbPolyline
 90
15
 70
1
 10
11.0
 20
11.0
 10
29.0
 20
11.0
 10
28.0529090909090932
 20
13.3668300395256949
 10
26.9450909090909114
 20
15.6236126482213464
 10
25.4937786561264836
 20
17.6372173913043468
 10
23.7169011857707517
 20
19.3149407114624552
 10
21.6286877470355741
 20
20.5668774703557347
 10
19.2445296442687734
 20
21.2989723320158078
 10
18.4017786561264813
 20
20.134545454545453
 10
17.178205533596838
 20
19.3123320158102771
 10
15.7306877470355744
 20
18.7012569169960514
 10
14.2189011857707506
 20
18.1685849802371564
 10
12.7997470355731231
 20
17.5857312252964419
 10
11.6314616600790508
 20
16.8201976284585015
 10
11.0
 20
16.6000000000000014
  0
LWPOLYLINE
  5
C0
  8
top_inner
 62
7
370
0
  6
CONTINUOUS
100
AcDbEntity
100
AcDbPolyline
 90
70
 70
1
 10
27.6656126482213445
 20
48.4649802371541583
 10
24.5750909090909104
 20
48.1666403162055374
 10
22.0558735177865621
 20
47.5839525691699663
 10
20.5980869565217404
 20
47.0332806324110706
 10
20.0293913043478256
 20
45.8427667984189782
 10
20.0062213438735199
 20
44.2578656126482315
 10
20.1889249011857714
 20
42.5183399209486268
 10
20.2352411067193714
 20
40.8663241106719397
 10
19.8054940711462457
 20
39.5449011857707546
 10
18.5561897233201591
 20
38.7935968379446692
 10
16.1488853754940713
 20
38.8554940711462464
 10
14.4569090909090914
 20
40.3398418972331996
 10
13.0274624505928855
 20
40.8468774703557358
 10
11.8720640316205532
 20
40.5471146245059373
 10
11.0
 20
39.6000000000000014
 10
11.0
 20
22.8999999999999986
 10
11.8090213438735177
 20
22.9381818181818176
 10
12.9464031620553364
 20
23.5377075098814288
 10
14.5868932806324114
 20
25.6118577075098841
 10
16.1089960474308285
 20
26.7890909090909162
 10
17.7533280632411063
 20
27.4516996047430837
 10
19.4671225296442714
 20
27.6549407114624515
 10
21.2002213438735154
 20
27.4595256916996107
 10
22.8972964426877468
 20
26.9190513833992071
 10
24.5082134387351758
 20
26.0930434782608742
 10
25.9801106719367603
 20
25.0393675889328051
 10
27.2603162055335986
 20
23.813043478260866
 10
29.2250434782608721
 20
23.7345454545454544
 10
30.6853675889328095
 20
22.7579446640316263
 10
31.7211146245059297
 20
21.0969169960474332
 10
32.4171857707509901
 20
18.9611067193675922
 10
32.8572252964426923
 20
16.5615573122529653
 10
33.1235494071146235
 20
14.1104980237154187
 10
33.0
 20
11.0
 10
41.0
 20
11.0
 10
41.5768379446640353
 20
14.0037312252964448
 10
41.2744664031620587
 20
16.6915415019762854
 10
40.4432411067193698
 20
19.2713043478260886
 10
42.381027667984192
 20
19.2416600790513854
 10
43.7472727272727298
 20
19.9455335968379472
 10
44.6145454545454569
 20
21.2204743083003962
 10
45.0520948616600805
 20
22.9033201581027726
 10
45.1291699604743073
 20
24.8309090909090955
 10
44.9169169960474335
 20
26.8405533596837955
 10
44.485770750988145
 20
28.7690909090909059
 10
43.906877470355731
 20
30.4535968379446658
 10
41.4995256916996027
 20
29.839604743083008
 10
39.9143873517786574
 20
30.0829249011857769
 10
39.0898023715415093
 20
30.9397628458498062
 10
38.9636363636363683
 20
32.1686956521739162
 10
39.4756521739130477
 20
33.5273517786561328
 10
40.5641897233201618
 20
34.7726482213438715
 10
42.1711462450592904
 20
35.6617391304347819
 10
44.2339130434782604
 20
35.9524901185770815
 10
43.9132806324110732
 20
37.9495652173913101
 10
42.9381027667984227
 20
39.6324110671936793
 10
41.4494861660079081
 20
41.034940711462454
 10
39.5901976284584975
 20
42.18632411067194
 10
37.505849802371543
 20
43.1152569169960458
 10
35.3392094861660127
 20
43.8523320158102834
 10
33.2342292490118609
 20
44.4274308300395262
 10
31.3338181818181845
 20
44.8716205533596906
 10
31.5988853754940742
 20
45.8366007905138346
 10
31.5924584980237171
 20
46.6239525691699654
 10
31.3454150197628465
 20
47.2493280632411157
 10
30.8925217391304372
 20
47.7293280632411125
 10
30.2646324110671969
 20
48.0753359683794486
 10
29.4952332015810299
 20
48.3044268774703554
 10
28.6177154150197666
 20
48.4291699604743116
 10
27.6656126482213445
 20
48.4649802371541583
  0
LWPOLYLINE
  5
C1
  8
top_inner
 62
7
370
0
  6
CONTINUOUS
100
AcDbEntity
100
AcDbPolyline
 90
18
 70
1
 10
68.0
 20
11.0
 10
68.6221343873517924
 20
13.3063557312252989
 10
68.7224505928853802
 20
14.501636363636365
 10
68.4779446640316252
 20
15.5554071146245079
 10
67.8886166007905274
 20
16.4161818181818191
 10
66.9544664031620584
 20
17.0286324110671927
 10
65.6781027667984176
 20
17.3399920948616639
 10
64.059525691699605
 20
17.2975177865612721
 10
63.1640316205533665
 20
19.0704347826087002
 10
61.8416600790513868
 20
20.0045849802371549
 10
60.2150197628458486
 20
20.2426877470355748
 10
58.4088537549407221
 20
19.9260869565217433
 10
56.5455335968379487
 20
19.1939920948616631
 10
54.7519367588932866
 20
18.1891699604743096
 10
53.1501976284584998
 20
17.051778656126487
 10
51.8650592885375517
 20
15.9220948616600815
 10
49.9569169960474326
 20
14.0449011857707511
 10
48.0
 20
11.0
  0
LWPOLYLINE
  5
C2
  8
top_inner
 62
7
370
0
  6
CONTINUOUS
100
AcDbEntity
100
AcDbPolyline
 90
16
 70
1
 10
96.0
 20
11.0
 10
94.3716205533596906
 20
13.0773359683794475
 10
92.6811857707510001
 20
14.9699920948616629
 10
90.8076679841897203
 20
16.578300395256921
 10
89.3498814229249092
 20
18.0528063241106764
 10
87.5022134387351826
 20
19.320158102766797
 10
85.4242687747035632
 20
20.272332015810278
 10
83.2796837944664077
 20
20.7997628458498056
 10
81.2311462450592927
 20
20.7945454545454567
 10
79.4401581027668016
 20
20.1473517786561303
 10
78.0684584980237304
 20
18.7502766798419032
 10
77.281343873517784
 20
16.4933754940711488
 10
74.6577075098814191
 20
16.5667272727272739
 10
73.2513833992094874
 20
15.7998656126482224
 10
72.7754150197628462
 20
14.3768458498023719
 10
73.0
 20
11.0
  0
LWPOLYLINE
  5
C3
  8
top_inner
 62
7
370
0
  6
CONTINUOUS
100
AcDbEntity
100
AcDbPolyline
 90
87
 70
1
 10
129.0
 20
38.7000000000000028
 10
128.6337549407114693
 20
38.6645849802371586
 10
127.9775494071146227
 20
37.7088537549407192
 10
125.9935177865612843
 20
36.4749407114624589
 10
124.3607114624506096
 20
36.3577865612648239
 10
123.1524110671936825
 20
37.0837154150197676
 10
122.4383399209486356
 20
38.3778656126482218
 10
122.2891699604743252
 20
39.9694071146245093
 10
122.7769960474308277
 20
41.5803952569170008
 10
123.971067193675907
 20
42.9404743083004021
 10
125.9446640316205617
 20
43.7714624505928853
 10
125.2628458498023747
 20
45.6321739130434878
 10
124.185691699604746
 20
47.274940711462456
 10
122.7819762845849851
 20
48.6620553359683825
 10
121.1235573122529843
 20
49.7520158102766743
 10
119.2822924901185786
 20
50.5045059288537601
 10
117.3293280632411069
 20
50.8787351778656216
 10
115.3362845849802341
 20
50.8365217391304327
 10
113.3754940711462496
 20
50.3332806324110607
 10
112.1645849802371657
 20
50.1494861660079039
 10
111.0350197628458488
 20
49.8148616600790604
 10
110.0479841897233229
 20
49.3452964426877543
 10
109.2736758893280751
 20
48.7519367588932866
 10
108.7756521739130591
 20
48.0483003952569234
 10
108.6212648221343926
 20
47.2481422924901153
 10
108.8762055335968313
 20
46.3630830039525748
 10
109.6066403162055423
 20
45.4040316205533685
 10
107.464426877470359
 20
45.0774703557312293
 10
105.368695652173912
 20
44.4523320158102848
 10
103.3718577075098892
 20
43.5452173913043552
 10
101.523952569169964
 20
42.3729644268774734
 10
99.8823715415019819
 20
40.9526482213438783
 10
98.4992885375494183
 20
39.3018181818181844
 10
97.42758893280633
 20
37.4373122529644249
 10
96.7196837944664196
 20
35.3747826086956536
 10
97.5381027667984313
 20
35.6709881422924937
 10
98.3757312252964482
 20
35.7777075098814237
 10
99.2081422924901233
 20
35.7169960474308326
 10
100.016126482213437
 20
35.5137549407114648
 10
100.7766798418972343
 20
35.1909881422924897
 10
101.4686956521739205
 20
34.7700395256917005
 10
102.0694071146245108
 20
34.2734387351778622
 10
102.5586561264822194
 20
33.7265612648221378
 10
102.9136758893280756
 20
33.148853754940717
 10
103.1128853754940735
 20
32.5661660079051387
 10
103.1363636363636402
 20
31.9986561264822171
 10
102.9601581027668118
 20
31.4712252964426895
 10
102.5626877470355822
 20
31.005217391304349
 10
101.9242687747035632
 20
30.6245849802371595
 10
101.0211857707509893
 20
30.351857707509879
 10
99.8332806324110749
 20
30.2090909090909108
 10
98.1196047430830163
 20
30.2759683794466454
 10
96.9179446640316229
 20
29.3738339920948661
 10
96.1870355731225288
 20
27.7720948616600793
 10
95.8808695652173952
 20
25.7380237154150251
 10
95.9567588932806359
 20
23.5403162055335997
 10
96.3713043478260829
 20
21.4457707509881459
 10
97.0813438735177954
 20
19.7240316205533617
 10
98.0437154150197614
 20
18.642063241106726
 10
99.4101976284585049
 20
19.0512252964426878
 10
100.4109881422924957
 20
19.204426877470361
 10
101.0918577075098881
 20
19.1285375494071133
 10
101.4957312252964527
 20
18.8491699604743133
 10
101.6695652173913089
 20
18.3911778656126472
 10
101.6555731225296455
 20
17.7800316205533591
 10
101.5009486166008088
 20
17.0402292490118583
 10
101.2500395256917045
 20
16.1974545454545478
 10
100.9476679841897351
 20
15.277509881422926
 10
100.6388932806324163
 20
14.3035177865612688
 10
100.3685375494071224
 20
13.3025138339920943
 10
100.1809486166008014
 20
12.3002055335968414
 10
100.0
 20
11.0
 10
109.0
 20
11.0
 10
109.722608695652184
 20
12.2011462450592916
 10
110.7286166007905308
 20
14.7396916996047445
 10
112.0282213438735397
 20
17.1109723320158125
 10
113.6532015810276732
 20
19.2634782608695616
 10
115.6422134387351832
 20
21.1457707509881416
 10
117.0833992094861742
 20
20.8744664031620601
 10
118.6609486166008054
 20
21.0390513833992117
 10
120.3243478260869637
 20
21.4367588932806328
 10
122.0240316205533588
 20
21.8586561264822166
 10
123.7120948616600913
 20
22.1017391304347797
 10
125.3373122529644377
 20
21.9589723320158186
 10
126.8517786561264842
 20
21.2256916996047451
 10
128.2066403162055508
 20
19.6958102766798433
 10
129.0
 20
19.3000000000000043
  0
LWPOLYLINE
  5
C4
  8
top_inner
 62
7
370
0
  6
CONTINUOUS
100
AcDbEntity
100
AcDbPolyline
 90
15
 70
1
 10
129.0
 20
13.7000000000000028
 10
128.6221343873517924
 20
14.0384743083003976
 10
127.4396837944664185
 20
14.1426798418972339
 10
125.8507509881422948
 20
13.85318577075099
 10
125.1390513833992202
 20
15.3752885375494088
 10
124.1923320158102797
 20
16.3891699604743089
 10
123.0689328063241135
 20
16.9385612648221375
 10
121.8300395256917028
 20
17.0633754940711526
 10
120.5330434782608648
 20
16.8060395256917019
 10
119.2384189723320276
 20
16.2077470355731244
 10
118.0073517786561297
 20
15.3109723320158118
 10
116.8996047430830174
 20
14.1542529644268811
 10
115.4584189723320264
 20
12.5626877470355751
 10
114.0
 20
11.0
 10
129.0
 20
11.0
  0
ENDSEC
  0
SECTION
  2
OBJECTS
  0
DICTIONARY
  5
C
100
AcDbDictionary
280
0
281
1
  3
ACAD_GROUP
350
D
  3
ACAD_LAYOUT
350
1A
  3
ACAD_MLINESTYLE
350
17
  3
ACAD_PLOTSETTINGS
350
19
  3
ACAD_PLOTSTYLENAME
350
E
  3
AcDbVariableDictionary
350
C5
  0
DICTIONARY
  5
D
100
AcDbDictionary
280
0
281
1
  0
ACDBDICTIONARYWDFLT
  5
E
100
AcDbDictionary
281
1
  3
Normal
350
F
100
AcDbDictionaryWithDefault
340
F
  0
ACDBPLACEHOLDER
  5
F
  0
DICTIONARY
  5
17
100
AcDbDictionary
280
0
281
1
  3
Standard
350
18
  0
MLINESTYLE
  5
18
100
AcDbMlineStyle
  2
STANDARD
 70
0
  3

 62
256
 51
90.0
 52
90.0
 71
2
 49
0.5
 62
256
  6
BYLAYER
 49
-0.5
 62
256
  6
BYLAYER
  0
DICTIONARY
  5
19
100
AcDbDictionary
280
0
281
1
  0
DICTIONARY
  5
1A
100
AcDbDictionary
281
1
  3
Layout1
350
1E
  3
Layout2
350
26
  3
Model
350
22
  0
LAYOUT
  5
1E
100
AcDbPlotSettings
  1

  2
C:\Program Files\AutoCAD 2002\plotters\DWF ePlot (optimized for plotting).pc3
  4

  6

 40
0.0
 41
0.0
 42
0.0
 43
0.0
 44
0.0
 45
0.0
 46
0.0
 47
0.0
 48
0.0
 49
0.0
140
0.0
141
0.0
142
1.0
143
1.0
 70
688
 72
0
 73
0
 74
5
  7

 75
16
147
1.0
148
0.0
149
0.0
100
AcDbLayout
  1
Layout1
 70
1
 71
1
 10
0.0
 20
0.0
 11
420.0
 21
297.0
 12
0.0
 22
0.0
 32
0.0
 14
100000000000000000000.0
 24
100000000000000000000.0
 34
100000000000000000000.0
 15
-100000000000000000000.0
 25
-100000000000000000000.0
 35
-100000000000000000000.0
146
0.0
 13
0.0
 23
0.0
 33
0.0
 16
1.0
 26
0.0
 36
0.0
 17
0.0
 27
1.0
 37
0.0
 76
0
330
1B
  0
LAYOUT
  5
22
100
AcDbPlotSettings
  1

  2
C:\Program Files\AutoCAD 2002\plotters\DWF ePlot (optimized for plotting).pc3
  4

  6

 40
0.0
 41
0.0
 42
0.0
 43
0.0
 44
0.0
 45
0.0
 46
0.0
 47
0.0
 48
0.0
 49
0.0
140
0.0
141
0.0
142
1.0
143
1.0
 70
1712
 72
0
 73
0
 74
0
  7

 75
0
147
1.0
148
0.0
149
0.0
100
AcDbLayout
  1
Model
 70
1
 71
0
 10
0.0
 20
0.0
 11
12.0
 21
9.0
 12
0.0
 22
0.0
 32
0.0
 14
0.0
 24
0.0
 34
0.0
 15
0.0
 25
0.0
 35
0.0
146
0.0
 13
0.0
 23
0.0
 33
0.0
 16
1.0
 26
0.0
 36
0.0
 17
0.0
 27
1.0
 37
0.0
 76
0
330
1F
  0
LAYOUT
  5
26
100
AcDbPlotSettings
  1

  2
C:\Program Files\AutoCAD 2002\plotters\DWF ePlot (optimized for plotting).pc3
  4

  6

 40
0.0
 41
0.0
 42
0.0
 43
0.0
 44
0.0
 45
0.0
 46
0.0
 47
0.0
 48
0.0
 49
0.0
140
0.0
141
0.0
142
1.0
143
1.0
 70
688
 72
0
 73
0
 74
5
  7

 75
16
147
1.0
148
0.0
149
0.0
100
AcDbLayout
  1
Layout2
 70
1
 71
2
 10
0.0
 20
0.0
 11
12.0
 21
9.0
 12
0.0
 22
0.0
 32
0.0
 14
0.0
 24
0.0
 34
0.0
 15
0.0
 25
0.0
 35
0.0
146
0.0
 13
0.0
 23
0.0
 33
0.0
 16
1.0
 26
0.0
 36
0.0
 17
0.0
 27
1.0
 37
0.0
 76
0
330
23
  0
DICTIONARY
  5
C5
100
AcDbDictionary
281
1
  3
DIMASSOC
350
C7
  3
HIDETEXT
350
C6
  0
DICTIONARYVAR
  5
C6
100
DictionaryVariables
280
0
  1
2
  0
DICTIONARYVAR
  5
C7
100
DictionaryVariables
280
0
  1
1
  0
ENDSEC
  0
EOF
