999
dxfrw 0.6.3
  0
SECTION
  2
HEADER
  9
$ACADVER
  1
AC1021
  9
$DWGCODEPAGE
  3
ANSI_1252
  9
$INSBASE
 10
0
 20
0
 30
0
  9
$EXTMIN
 10
9.623501299260754e-16
 20
-1.082467449009528e-15
 30
0
  9
$EXTMAX
 10
73.76106800000001
 20
73.685068
 30
0
  9
$LIMMIN
 10
0
 20
0
  9
$LIMMAX
 10
420
 20
297
  9
$ORTHOMODE
 70
    0
  9
$REGENMODE
 70
    1
  9
$FILLMODE
 70
    0
  9
$QTEXTMODE
 70
    0
  9
$MIRRTEXT
 70
    0
  9
$LTSCALE
 40
1
  9
$ATTMODE
 70
    0
  9
$TEXTSIZE
 40
2.5
  9
$TRACEWID
 40
15.68
  9
$TEXTSTYLE
  7
STANDARD
  9
$CLAYER
  8
Pupils
  9
$CELTYPE
  6
BYLAYER
  9
$CECOLOR
 62
  256
  9
$CELTSCALE
 40
1
  9
$DISPSILH
 70
    0
  9
$DIMSCALE
 40
2.5
  9
$DIMASZ
 40
2.5
  9
$DIMEXO
 40
0.625
  9
$DIMDLI
 40
3.75
  9
$DIMRND
 40
0
  9
$DIMDLE
 40
0
  9
$DIMEXE
 40
1.25
  9
$DIMTP
 40
0
  9
$DIMTM
 40
0
  9
$DIMTXT
 40
2.5
  9
$DIMCEN
 40
2.5
  9
$DIMTSZ
 40
0
  9
$DIMTOL
 70
    0
  9
$DIMLIM
 70
    0
  9
$DIMTIH
 70
    0
  9
$DIMTOH
 70
    0
  9
$DIMSE1
 70
    0
  9
$DIMSE2
 70
    0
  9
$DIMTAD
 70
    1
  9
$DIMZIN
 70
    8
  9
$DIMBLK
  1

  9
$DIMASO
 70
    1
  9
$DIMSHO
 70
    1
  9
$DIMPOST
  1

  9
$DIMAPOST
  1

  9
$DIMALT
 70
    0
  9
$DIMALTD
 70
    3
  9
$DIMALTF
 40
0.03937
  9
$DIMLFAC
 40
1
  9
$DIMTOFL
 70
    1
  9
$DIMTVP
 40
0
  9
$DIMTIX
 70
    0
  9
$DIMSOXD
 70
    0
  9
$DIMSAH
 70
    0
  9
$DIMBLK1
  1

  9
$DIMBLK2
  1

  9
$DIMSTYLE
  2
Standard
  9
$DIMCLRD
 70
    0
  9
$DIMCLRE
 70
    0
  9
$DIMCLRT
 70
    0
  9
$DIMTFAC
 40
1
  9
$DIMGAP
 40
0.625
  9
$DIMJUST
 70
    0
  9
$DIMSD1
 70
    0
  9
$DIMSD2
 70
    0
  9
$DIMTOLJ
 70
    0
  9
$DIMTZIN
 70
    8
  9
$DIMALTZ
 70
    0
  9
$DIMALTTZ
 70
    0
  9
$DIMUPT
 70
    0
  9
$DIMDEC
 70
    2
  9
$DIMTDEC
 70
    2
  9
$DIMALTU
 70
    2
  9
$DIMALTTD
 70
    3
  9
$DIMTXSTY
  7
STANDARD
  9
$DIMAUNIT
 70
    0
  9
$DIMADEC
 70
    0
  9
$DIMALTRND
 40
0
  9
$DIMAZIN
 70
    0
  9
$DIMDSEP
 70
   44
  9
$DIMATFIT
 70
    3
  9
$DIMFRAC
 70
    0
  9
$DIMLDRBLK
  1
STANDARD
  9
$DIMLUNIT
 70
    2
  9
$DIMLWD
 70
   -2
  9
$DIMLWE
 70
   -2
  9
$DIMTMOVE
 70
    0
  9
$DIMFXL
 40
1
  9
$DIMFXLON
 70
    0
  9
$DIMJOGANG
 40
0.7854
  9
$DIMTFILL
 70
    0
  9
$DIMTFILLCLR
 70
    0
  9
$DIMARCSYM
 70
    0
  9
$DIMLTYPE
  6

  9
$DIMLTEX1
  6

  9
$DIMLTEX2
  6

  9
$LUNITS
 70
    2
  9
$LUPREC
 70
    4
  9
$SKETCHINC
 40
1
  9
$FILLETRAD
 40
0
  9
$AUNITS
 70
    0
  9
$AUPREC
 70
    2
  9
$MENU
  1
.
  9
$ELEVATION
 40
0
  9
$PELEVATION
 40
0
  9
$THICKNESS
 40
0
  9
$LIMCHECK
 70
    0
  9
$CHAMFERA
 40
0
  9
$CHAMFERB
 40
0
  9
$CHAMFERC
 40
0
  9
$CHAMFERD
 40
0
  9
$SKPOLY
 70
    0
  9
$USRTIMER
 70
    1
  9
$ANGBASE
 50
0
  9
$ANGDIR
 70
    0
  9
$PDMODE
 70
   34
  9
$PDSIZE
 40
0
  9
$PLINEWID
 40
0
  9
$SPLFRAME
 70
    1
  9
$SPLINETYPE
 70
    2
  9
$SPLINESEGS
 70
    8
  9
$HANDSEED
  5
20000
  9
$SURFTAB1
 70
    6
  9
$SURFTAB2
 70
    6
  9
$SURFTYPE
 70
    6
  9
$SURFU
 70
    6
  9
$SURFV
 70
    6
  9
$UCSBASE
  2

  9
$UCSNAME
  2

  9
$UCSORG
 10
0
 20
0
 30
0
  9
$UCSXDIR
 10
1
 20
0
 30
0
  9
$UCSYDIR
 10
0
 20
1
 30
0
  9
$UCSORTHOREF
  2

  9
$UCSORTHOVIEW
 70
    0
  9
$UCSORGTOP
 10
0
 20
0
 30
0
  9
$UCSORGBOTTOM
 10
0
 20
0
 30
0
  9
$UCSORGLEFT
 10
0
 20
0
 30
0
  9
$UCSORGRIGHT
 10
0
 20
0
 30
0
  9
$UCSORGFRONT
 10
0
 20
0
 30
0
  9
$UCSORGBACK
 10
0
 20
0
 30
0
  9
$PUCSBASE
  2

  9
$PUCSNAME
  2

  9
$PUCSORG
 10
0
 20
0
 30
0
  9
$PUCSXDIR
 10
1
 20
0
 30
0
  9
$PUCSYDIR
 10
0
 20
1
 30
0
  9
$PUCSORTHOREF
  2

  9
$PUCSORTHOVIEW
 70
    0
  9
$PUCSORGTOP
 10
0
 20
0
 30
0
  9
$PUCSORGBOTTOM
 10
0
 20
0
 30
0
  9
$PUCSORGLEFT
 10
0
 20
0
 30
0
  9
$PUCSORGRIGHT
 10
0
 20
0
 30
0
  9
$PUCSORGFRONT
 10
0
 20
0
 30
0
  9
$PUCSORGBACK
 10
0
 20
0
 30
0
  9
$USERI1
 70
    0
  9
$USERI2
 70
    0
  9
$USERI3
 70
    0
  9
$USERI4
 70
    0
  9
$USERI5
 70
    0
  9
$USERR1
 40
0
  9
$USERR2
 40
0
  9
$USERR3
 40
0
  9
$USERR4
 40
0
  9
$USERR5
 40
0
  9
$WORLDVIEW
 70
    1
  9
$SHADEDGE
 70
    3
  9
$SHADEDIF
 70
   70
  9
$TILEMODE
 70
    1
  9
$MAXACTVP
 70
   64
  9
$PINSBASE
 10
0
 20
0
 30
0
  9
$PLIMCHECK
 70
    0
  9
$PEXTMIN
 10
0
 20
0
 30
0
  9
$PEXTMAX
 10
0
 20
0
 30
0
  9
$GRIDMODE
 70
    1
  9
$SNAPSTYLE
 70
    0
  9
$PLIMMIN
 10
0
 20
0
  9
$PLIMMAX
 10
215.9
 20
279.4
  9
$UNITMODE
 70
    0
  9
$VISRETAIN
 70
    1
  9
$PLINEGEN
 70
    0
  9
$PSLTSCALE
 70
    1
  9
$TREEDEPTH
 70
 3020
  9
$CMLSTYLE
  2
Standard
  9
$CMLJUST
 70
    0
  9
$CMLSCALE
 40
20
  9
$PROXYGRAPHICS
 70
    1
  9
$MEASUREMENT
 70
    1
  9
$CELWEIGHT
370
   -1
  9
$ENDCAPS
280
    0
  9
$JOINSTYLE
280
    0
  9
$LWDISPLAY
290
    0
  9
$INSUNITS
 70
    4
  9
$HYPERLINKBASE
  1

  9
$STYLESHEET
  1

  9
$XEDIT
290
    1
  9
$CEPSNTYPE
380
    0
  9
$PSTYLEMODE
290
    1
  9
$EXTNAMES
290
    1
  9
$PSVPSCALE
 40
1
  9
$OLESTARTUP
290
    0
  9
$SORTENTS
280
  127
  9
$INDEXCTL
280
    0
  9
$HIDETEXT
280
    1
  9
$XCLIPFRAME
290
    0
  9
$HALOGAP
280
    0
  9
$OBSCOLOR
 70
  257
  9
$OBSLTYPE
280
    0
  9
$INTERSECTIONDISPLAY
280
    0
  9
$INTERSECTIONCOLOR
 70
  257
  9
$DIMASSOC
280
    1
  9
$PROJECTNAME
  1

  9
$CAMERADISPLAY
290
    0
  9
$LENSLENGTH
 40
50
  9
$CAMERAHEIGHT
 40
0
  9
$STEPSPERSEC
 40
2
  9
$STEPSIZE
 40
50
  9
$3DDWFPREC
 40
2
  9
$PSOLWIDTH
 40
5
  9
$PSOLHEIGHT
 40
80
  9
$LOFTANG1
 40
1.570796326794897
  9
$LOFTANG2
 40
1.570796326794897
  9
$LOFTMAG1
 40
0
  9
$LOFTMAG2
 40
0
  9
$LOFTPARAM
 70
    7
  9
$LOFTNORMALS
280
    1
  9
$LATITUDE
 40
1
  9
$LONGITUDE
 40
1
  9
$NORTHDIRECTION
 40
0
  9
$TIMEZONE
 70
-8000
  9
$LIGHTGLYPHDISPLAY
280
    1
  9
$TILEMODELIGHTSYNCH
280
    1
  9
$SOLIDHIST
280
    1
  9
$SHOWHIST
280
    1
  9
$DWFFRAME
280
    2
  9
$DGNFRAME
280
    0
  9
$REALWORLDSCALE
290
    1
  9
$INTERFERECOLOR
 62
    1
  9
$CSHADOW
280
    0
  9
$SHADOWPLANELOCATION
 40
0
  0
ENDSEC
  0
SECTION
  2
CLASSES
  0
ENDSEC
  0
SECTION
  2
TABLES
  0
TABLE
  2
VPORT
  5
8
330
0
100
AcDbSymbolTable
 70
    1
  0
VPORT
  5
31
330
2
100
AcDbSymbolTableRecord
100
AcDbViewportTableRecord
  2
*ACTIVE
 70
    0
 10
0
 20
0
 11
1
 21
1
 12
44.38441743058824
 22
37.27597557647059
 13
0
 23
0
 14
10
 24
10
 15
10
 25
10
 16
0
 26
0
 36
1
 17
0
 27
0
 37
0
 40
75.41883430588236
 41
1.374712643678161
 42
50
 43
0
 44
0
 50
0
 51
0
 71
    0
 72
  100
 73
    1
 74
    3
 75
    0
 76
    1
 77
    0
 78
    0
281
    0
 65
    1
110
0
120
0
130
0
111
1
121
0
131
0
112
0
122
1
132
0
 79
    0
146
0
348
10020
 60
    7
 61
    5
292
1
282
    1
141
0
142
0
 63
  250
421
3358443
  0
ENDTAB
  0
TABLE
  2
LTYPE
  5
5
330
0
100
AcDbSymbolTable
 70
    4
  0
LTYPE
  5
14
330
5
100
AcDbSymbolTableRecord
100
AcDbLinetypeTableRecord
  2
ByBlock
 70
    0
  3

 72
   65
 73
    0
 40
0
  0
LTYPE
  5
15
330
5
100
AcDbSymbolTableRecord
100
AcDbLinetypeTableRecord
  2
ByLayer
 70
    0
  3

 72
   65
 73
    0
 40
0
  0
LTYPE
  5
16
330
5
100
AcDbSymbolTableRecord
100
AcDbLinetypeTableRecord
  2
Continuous
 70
    0
  3
Solid line
 72
   65
 73
    0
 40
0
  0
LTYPE
  5
32
330
5
100
AcDbSymbolTableRecord
100
AcDbLinetypeTableRecord
  2
DOT
 70
    0
  3
Dot . . . . . . . . . . . . . . . . . . . . . .
 72
   65
 73
    2
 40
6.35
 49
0
 74
    0
 49
-6.35
 74
    0
  0
LTYPE
  5
33
330
5
100
AcDbSymbolTableRecord
100
AcDbLinetypeTableRecord
  2
DOTTINY
 70
    0
  3
Dot (.15x) .....................................
 72
   65
 73
    2
 40
0.9525
 49
0
 74
    0
 49
-0.9525
 74
    0
  0
LTYPE
  5
34
330
5
100
AcDbSymbolTableRecord
100
AcDbLinetypeTableRecord
  2
DOT2
 70
    0
  3
Dot (.5x) .....................................
 72
   65
 73
    2
 40
3.175
 49
0
 74
    0
 49
-3.175
 74
    0
  0
LTYPE
  5
35
330
5
100
AcDbSymbolTableRecord
100
AcDbLinetypeTableRecord
  2
DOTX2
 70
    0
  3
Dot (2x) .  .  .  .  .  .  .  .  .  .  .  .  .
 72
   65
 73
    2
 40
12.7
 49
0
 74
    0
 49
-12.7
 74
    0
  0
LTYPE
  5
36
330
5
100
AcDbSymbolTableRecord
100
AcDbLinetypeTableRecord
  2
DASHED
 70
    0
  3
Dashed _ _ _ _ _ _ _ _ _ _ _ _ _ _ _ _ _
 72
   65
 73
    2
 40
19.05
 49
12.7
 74
    0
 49
-6.35
 74
    0
  0
LTYPE
  5
37
330
5
100
AcDbSymbolTableRecord
100
AcDbLinetypeTableRecord
  2
DASHEDTINY
 70
    0
  3
Dashed (.15x) _ _ _ _ _ _ _ _ _ _ _ _ _ _ _ _ _
 72
   65
 73
    2
 40
2.8575
 49
1.905
 74
    0
 49
-0.9525
 74
    0
  0
LTYPE
  5
38
330
5
100
AcDbSymbolTableRecord
100
AcDbLinetypeTableRecord
  2
DASHED2
 70
    0
  3
Dashed (.5x) _ _ _ _ _ _ _ _ _ _ _ _ _ _ _ _ _
 72
   65
 73
    2
 40
9.524999999999999
 49
6.35
 74
    0
 49
-3.175
 74
    0
  0
LTYPE
  5
39
330
5
100
AcDbSymbolTableRecord
100
AcDbLinetypeTableRecord
  2
DASHEDX2
 70
    0
  3
Dashed (2x) ____  ____  ____  ____  ____  ___
 72
   65
 73
    2
 40
38.09999999999999
 49
25.4
 74
    0
 49
-12.7
 74
    0
  0
LTYPE
  5
3A
330
5
100
AcDbSymbolTableRecord
100
AcDbLinetypeTableRecord
  2
DASHDOT
 70
    0
  3
Dash dot __ . __ . __ . __ . __ . __ . __ . __
 72
   65
 73
    4
 40
25.4
 49
12.7
 74
    0
 49
-6.35
 74
    0
 49
0
 74
    0
 49
-6.35
 74
    0
  0
LTYPE
  5
3B
330
5
100
AcDbSymbolTableRecord
100
AcDbLinetypeTableRecord
  2
DASHDOTTINY
 70
    0
  3
Dash dot (.15x) _._._._._._._._._._._._._._._.
 72
   65
 73
    4
 40
3.81
 49
1.905
 74
    0
 49
-0.9525
 74
    0
 49
0
 74
    0
 49
-0.9525
 74
    0
  0
LTYPE
  5
3C
330
5
100
AcDbSymbolTableRecord
100
AcDbLinetypeTableRecord
  2
DASHDOT2
 70
    0
  3
Dash dot (.5x) _._._._._._._._._._._._._._._.
 72
   65
 73
    4
 40
12.7
 49
6.35
 74
    0
 49
-3.175
 74
    0
 49
0
 74
    0
 49
-3.175
 74
    0
  0
LTYPE
  5
3D
330
5
100
AcDbSymbolTableRecord
100
AcDbLinetypeTableRecord
  2
DASHDOTX2
 70
    0
  3
Dash dot (2x) ____  .  ____  .  ____  .  ___
 72
   65
 73
    4
 40
50.8
 49
25.4
 74
    0
 49
-12.7
 74
    0
 49
0
 74
    0
 49
-12.7
 74
    0
  0
LTYPE
  5
3E
330
5
100
AcDbSymbolTableRecord
100
AcDbLinetypeTableRecord
  2
DIVIDE
 70
    0
  3
Divide ____ . . ____ . . ____ . . ____ . . ____
 72
   65
 73
    6
 40
31.75
 49
12.7
 74
    0
 49
-6.35
 74
    0
 49
0
 74
    0
 49
-6.35
 74
    0
 49
0
 74
    0
 49
-6.35
 74
    0
  0
LTYPE
  5
3F
330
5
100
AcDbSymbolTableRecord
100
AcDbLinetypeTableRecord
  2
DIVIDETINY
 70
    0
  3
Divide (.15x) __..__..__..__..__..__..__..__.._
 72
   65
 73
    6
 40
4.7625
 49
1.905
 74
    0
 49
-0.9525
 74
    0
 49
0
 74
    0
 49
-0.9525
 74
    0
 49
0
 74
    0
 49
-0.9525
 74
    0
  0
LTYPE
  5
40
330
5
100
AcDbSymbolTableRecord
100
AcDbLinetypeTableRecord
  2
DIVIDE2
 70
    0
  3
Divide (.5x) __..__..__..__..__..__..__..__.._
 72
   65
 73
    6
 40
15.875
 49
6.35
 74
    0
 49
-3.175
 74
    0
 49
0
 74
    0
 49
-3.175
 74
    0
 49
0
 74
    0
 49
-3.175
 74
    0
  0
LTYPE
  5
41
330
5
100
AcDbSymbolTableRecord
100
AcDbLinetypeTableRecord
  2
DIVIDEX2
 70
    0
  3
Divide (2x) ________  .  .  ________  .  .  _
 72
   65
 73
    6
 40
63.5
 49
25.4
 74
    0
 49
-12.7
 74
    0
 49
0
 74
    0
 49
-12.7
 74
    0
 49
0
 74
    0
 49
-12.7
 74
    0
  0
LTYPE
  5
42
330
5
100
AcDbSymbolTableRecord
100
AcDbLinetypeTableRecord
  2
BORDER
 70
    0
  3
Border __ __ . __ __ . __ __ . __ __ . __ __ .
 72
   65
 73
    6
 40
44.45
 49
12.7
 74
    0
 49
-6.35
 74
    0
 49
12.7
 74
    0
 49
-6.35
 74
    0
 49
0
 74
    0
 49
-6.35
 74
    0
  0
LTYPE
  5
43
330
5
100
AcDbSymbolTableRecord
100
AcDbLinetypeTableRecord
  2
BORDERTINY
 70
    0
  3
Border (.15x) __.__.__.__.__.__.__.__.__.__.__.
 72
   65
 73
    6
 40
6.6675
 49
1.905
 74
    0
 49
-0.9525
 74
    0
 49
1.905
 74
    0
 49
-0.9525
 74
    0
 49
0
 74
    0
 49
-0.9525
 74
    0
  0
LTYPE
  5
44
330
5
100
AcDbSymbolTableRecord
100
AcDbLinetypeTableRecord
  2
BORDER2
 70
    0
  3
Border (.5x) __.__.__.__.__.__.__.__.__.__.__.
 72
   65
 73
    6
 40
22.225
 49
6.35
 74
    0
 49
-3.175
 74
    0
 49
6.35
 74
    0
 49
-3.175
 74
    0
 49
0
 74
    0
 49
-3.175
 74
    0
  0
LTYPE
  5
45
330
5
100
AcDbSymbolTableRecord
100
AcDbLinetypeTableRecord
  2
BORDERX2
 70
    0
  3
Border (2x) ____  ____  .  ____  ____  .  ___
 72
   65
 73
    6
 40
88.89999999999999
 49
25.4
 74
    0
 49
-12.7
 74
    0
 49
25.4
 74
    0
 49
-12.7
 74
    0
 49
0
 74
    0
 49
-12.7
 74
    0
  0
LTYPE
  5
46
330
5
100
AcDbSymbolTableRecord
100
AcDbLinetypeTableRecord
  2
CENTER
 70
    0
  3
Center ____ _ ____ _ ____ _ ____ _ ____ _ ____
 72
   65
 73
    4
 40
50.8
 49
31.75
 74
    0
 49
-6.35
 74
    0
 49
6.35
 74
    0
 49
-6.35
 74
    0
  0
LTYPE
  5
47
330
5
100
AcDbSymbolTableRecord
100
AcDbLinetypeTableRecord
  2
CENTERTINY
 70
    0
  3
Center (.15x) ___ _ ___ _ ___ _ ___ _ ___ _ ___
 72
   65
 73
    4
 40
7.619999999999999
 49
4.7625
 74
    0
 49
-0.9525
 74
    0
 49
0.9525
 74
    0
 49
-0.9525
 74
    0
  0
LTYPE
  5
48
330
5
100
AcDbSymbolTableRecord
100
AcDbLinetypeTableRecord
  2
CENTER2
 70
    0
  3
Center (.5x) ___ _ ___ _ ___ _ ___ _ ___ _ ___
 72
   65
 73
    4
 40
28.575
 49
19.05
 74
    0
 49
-3.175
 74
    0
 49
3.175
 74
    0
 49
-3.175
 74
    0
  0
LTYPE
  5
49
330
5
100
AcDbSymbolTableRecord
100
AcDbLinetypeTableRecord
  2
CENTERX2
 70
    0
  3
Center (2x) ________  __  ________  __  _____
 72
   65
 73
    4
 40
101.6
 49
63.5
 74
    0
 49
-12.7
 74
    0
 49
12.7
 74
    0
 49
-12.7
 74
    0
  0
ENDTAB
  0
TABLE
  2
LAYER
  5
2
330
0
100
AcDbSymbolTable
 70
    1
  0
LAYER
  5
10
330
2
100
AcDbSymbolTableRecord
100
AcDbLayerTableRecord
  2
0
 70
    0
 62
    7
  6
CONTINUOUS
370
   -3
390
F
  0
LAYER
  5
4A
330
2
100
AcDbSymbolTableRecord
100
AcDbLayerTableRecord
  2
Ears
 70
    0
 62
    7
  6
CONTINUOUS
370
    0
390
F
  0
LAYER
  5
4B
330
2
100
AcDbSymbolTableRecord
100
AcDbLayerTableRecord
  2
Eyes
 70
    0
 62
    7
  6
CONTINUOUS
370
    0
390
F
  0
LAYER
  5
4C
330
2
100
AcDbSymbolTableRecord
100
AcDbLayerTableRecord
  2
Head
 70
    0
 62
    7
  6
CONTINUOUS
370
    0
390
F
  0
LAYER
  5
4D
330
2
100
AcDbSymbolTableRecord
100
AcDbLayerTableRecord
  2
Inside
 70
    0
 62
    7
  6
CONTINUOUS
370
    0
390
F
  0
LAYER
  5
4E
330
2
100
AcDbSymbolTableRecord
100
AcDbLayerTableRecord
  2
Outline
 70
    0
 62
    7
  6
CONTINUOUS
370
    0
390
F
  0
LAYER
  5
4F
330
2
100
AcDbSymbolTableRecord
100
AcDbLayerTableRecord
  2
Pupils
 70
    0
 62
    7
  6
CONTINUOUS
370
    0
390
F
  0
LAYER
  5
50
330
2
100
AcDbSymbolTableRecord
100
AcDbLayerTableRecord
  2
Shadow
 70
    0
 62
    7
  6
CONTINUOUS
370
    0
390
F
  0
LAYER
  5
51
330
2
100
AcDbSymbolTableRecord
100
AcDbLayerTableRecord
  2
Tools
 70
    0
 62
    7
  6
CONTINUOUS
370
    0
390
F
  0
LAYER
  5
52
330
2
100
AcDbSymbolTableRecord
100
AcDbLayerTableRecord
  2
Twinkle
 70
    0
 62
    7
  6
CONTINUOUS
370
    0
390
F
  0
ENDTAB
  0
TABLE
  2
STYLE
  5
3
330
0
100
AcDbSymbolTable
 70
    3
  0
STYLE
  5
53
330
2
100
AcDbSymbolTableRecord
100
AcDbTextStyleTableRecord
  2
Standard
 70
    0
 40
0
 41
1
 50
0
 71
    0
 42
1
  3
txt
  4

  0
ENDTAB
  0
TABLE
  2
VIEW
  5
6
330
0
100
AcDbSymbolTable
 70
    0
  0
ENDTAB
  0
TABLE
  2
UCS
  5
7
330
0
100
AcDbSymbolTable
 70
    0
  0
ENDTAB
  0
TABLE
  2
APPID
  5
9
330
0
100
AcDbSymbolTable
 70
    1
  0
APPID
  5
12
330
9
100
AcDbSymbolTableRecord
100
AcDbRegAppTableRecord
  2
ACAD
 70
    0
  0
APPID
  5
54
330
9
100
AcDbSymbolTableRecord
100
AcDbRegAppTableRecord
  2
LibreCad
 70
    0
  0
ENDTAB
  0
TABLE
  2
DIMSTYLE
  5
A
330
0
100
AcDbSymbolTable
 70
    1
100
AcDbDimStyleTable
 71
    1
  0
DIMSTYLE
105
55
330
A
100
AcDbSymbolTableRecord
100
AcDbDimStyleTableRecord
  2
Standard
 70
    0
 40
2.5
 41
2.5
 42
0.625
 43
0.38
 44
1.25
 45
0
 46
0
 47
0
 48
0
 49
1
140
2.5
141
0.09
142
0
143
25.4
144
1
145
0
146
1
147
0.625
148
0
 71
    0
 72
    0
 73
    0
 74
    1
 75
    0
 76
    0
 77
    0
 78
    8
 79
    0
170
    0
171
    2
172
    0
173
    0
174
    0
175
    0
176
    0
177
    0
178
    0
179
    0
271
    2
272
    4
273
    2
274
    2
275
    0
276
    0
277
    2
278
   44
279
    0
280
    0
281
    0
282
    0
283
    1
284
    0
285
    0
286
    0
288
    0
289
    3
340
STANDARD
341

371
   -2
372
   -2
  0
ENDTAB
  0
TABLE
  2
BLOCK_RECORD
  5
1
330
0
100
AcDbSymbolTable
 70
    2
  0
BLOCK_RECORD
  5
1F
330
1
100
AcDbSymbolTableRecord
100
AcDbBlockTableRecord
  2
*Model_Space
 70
    0
280
    1
281
    0
  0
BLOCK_RECORD
  5
1E
330
1
100
AcDbSymbolTableRecord
100
AcDbBlockTableRecord
  2
*Paper_Space
 70
    0
280
    1
281
    0
  0
BLOCK_RECORD
  5
56
330
1
100
AcDbSymbolTableRecord
100
AcDbBlockTableRecord
  2
tmp
 70
    0
280
    1
281
    0
  0
ENDTAB
  0
ENDSEC
  0
SECTION
  2
BLOCKS
  0
BLOCK
  5
20
330
1F
100
AcDbEntity
  8
0
100
AcDbBlockBegin
  2
*Model_Space
 70
    0
 10
0
 20
0
 30
0
  3
*Model_Space
  1

  0
ENDBLK
  5
21
330
1F
100
AcDbEntity
  8
0
100
AcDbBlockEnd
  0
BLOCK
  5
1C
330
1B
100
AcDbEntity
  8
0
100
AcDbBlockBegin
  2
*Paper_Space
 70
    0
 10
0
 20
0
 30
0
  3
*Paper_Space
  1

  0
ENDBLK
  5
1D
330
1F
100
AcDbEntity
  8
0
100
AcDbBlockEnd
  0
BLOCK
  5
57
330
56
100
AcDbEntity
  8
0
100
AcDbBlockBegin
  2
tmp
 70
    0
 10
0
 20
0
  3
tmp
  1

  0
LWPOLYLINE
  5
59
100
AcDbEntity
  8
0
  6
ByLayer
 62
    0
370
   -1
100
AcDbPolyline
 90
   45
 70
    1
 43
0
 10
0.514703
 20
1.89464
 10
1.43435
 20
1.89464
 10
1.45751
 20
1.89464
 10
1.52713
 20
1.88525
 10
1.61372
 20
1.85818
 10
1.69222
 20
1.81543
 10
1.76069
 20
1.75885
 10
1.81728
 20
1.69038
 10
1.86003
 20
1.61188
 10
1.8871
 20
1.52528
 10
1.89654
 20
1.45568
 10
1.89654
 20
1.43246
 10
1.89654
 20
0.514703
 10
1.89654
 20
0.491536
 10
1.8871
 20
0.421929
 10
1.86003
 20
0.33534
 10
1.81728
 20
0.25689
 10
1.76069
 20
0.188368
 10
1.69222
 20
0.131782
 10
1.61372
 20
0.08903
 10
1.52713
 20
0.0620117
 10
1.45751
 20
0.0525174
 10
1.43435
 20
0.0525174
 10
0.514703
 20
0.0525174
 10
0.491482
 20
0.0525174
 10
0.421875
 20
0.0620117
 10
0.335286
 20
0.08903
 10
0.256782
 20
0.131782
 10
0.188314
 20
0.188368
 10
0.131782
 20
0.25689
 10
0.08903
 20
0.33534
 10
0.0619575
 20
0.421929
 10
0.0525717
 20
0.491536
 10
0.0525717
 20
0.514703
 10
0.0525717
 20
1.43246
 10
0.0525717
 20
1.45568
 10
0.0619575
 20
1.52528
 10
0.08903
 20
1.61188
 10
0.131782
 20
1.69038
 10
0.188314
 20
1.75885
 10
0.256782
 20
1.81543
 10
0.335286
 20
1.85818
 10
0.421875
 20
1.88525
 10
0.491482
 20
1.89464
 10
0.514703
 20
1.89464
  0
LWPOLYLINE
  5
5A
100
AcDbEntity
  8
0
  6
ByLayer
 62
    0
370
   -1
100
AcDbPolyline
 90
   36
 70
    1
 43
0
 10
0.5025500000000001
 20
1.76714
 10
0.4819329999999999
 20
1.76714
 10
0.4202469999999999
 20
1.75657
 10
0.345594
 20
1.72651
 10
0.281467
 20
1.67979
 10
0.241428
 20
1.63558
 10
0.230849
 20
1.61903
 10
0.739529
 20
1.61903
 10
0.755751
 20
1.62771
 10
0.84375
 20
1.65956
 10
0.934571
 20
1.6754
 10
0.952311
 20
1.67606
 10
0.95421
 20
1.67617
 10
0.972928
 20
1.67611
 10
0.974772
 20
1.67606
 10
0.976617
 20
1.67611
 10
0.995335
 20
1.67589
 10
0.997233
 20
1.67578
 10
0.997233
 20
1.67578
 10
0.997342
 20
1.67578
 10
0.997342
 20
1.67578
 10
0.999186
 20
1.67572
 10
1.01818
 20
1.67458
 10
1.02007
 20
1.67438
 10
1.03608
 20
1.67301
 10
1.11702
 20
1.65625
 10
1.19488
 20
1.62674
 10
1.20936
 20
1.61903
 10
1.71843
 20
1.61903
 10
1.70762
 20
1.63553
 10
1.66738
 20
1.67979
 10
1.60325
 20
1.72651
 10
1.52869
 20
1.75657
 10
1.46707
 20
1.76714
 10
1.44656
 20
1.76714
 10
0.5025500000000001
 20
1.76714
  0
LWPOLYLINE
  5
5B
100
AcDbEntity
  8
0
  6
ByLayer
 62
    0
370
   -1
100
AcDbPolyline
 90
   39
 70
    1
 43
0
 10
0.194119
 20
1.54124
 10
0.191732
 20
1.53353
 10
0.17909
 20
1.4669
 10
0.17909
 20
1.44467
 10
0.17909
 20
0.5025500000000001
 10
0.17909
 20
0.471138
 10
0.204536
 20
0.376899
 10
0.2739809999999999
 20
0.274035
 10
0.376844
 20
0.20459
 10
0.4710829999999999
 20
0.17909
 10
0.5025500000000001
 20
0.17909
 10
1.44656
 20
0.17909
 10
1.47797
 20
0.17909
 10
1.57221
 20
0.20459
 10
1.67503
 20
0.274035
 10
1.74447
 20
0.376899
 10
1.76997
 20
0.471138
 10
1.76997
 20
0.5025500000000001
 10
1.76997
 20
1.44467
 10
1.76997
 20
1.46881
 10
1.75754
 20
1.53364
 10
1.75521
 20
1.54112
 10
1.69683
 20
1.54112
 10
1.52175
 20
1.54112
 10
1.36296
 20
1.54112
 10
1.31006
 20
1.54112
 10
1.31006
 20
0.925076
 10
0.638997
 20
0.925076
 10
0.639486
 20
1.29943
 10
0.638997
 20
1.54112
 10
0.638997
 20
1.54112
 10
0.639051
 20
1.54118
 10
0.639051
 20
1.54118
 10
0.612793
 20
1.54118
 10
0.534071
 20
1.54124
 10
0.431967
 20
1.54124
 10
0.322157
 20
1.54124
 10
0.226129
 20
1.54124
 10
0.194119
 20
1.54124
  0
LWPOLYLINE
  5
5C
100
AcDbEntity
  8
0
  6
ByLayer
 62
    0
370
   -1
100
AcDbPolyline
 90
   14
 70
    1
 43
0
 10
1.31673
 20
1.49571
 10
1.32335
 20
1.49507
 10
1.34283
 20
1.48872
 10
1.36713
 20
1.47439
 10
1.38917
 20
1.45454
 10
1.40831
 20
1.43072
 10
1.4241
 20
1.40474
 10
1.43604
 20
1.37826
 10
1.44358
 20
1.35292
 10
1.44624
 20
1.33615
 10
1.44624
 20
1.33051
 10
1.44624
 20
1.13081
 10
1.31673
 20
1.13081
 10
1.31673
 20
1.49571
  0
LWPOLYLINE
  5
5D
100
AcDbEntity
  8
0
  6
ByLayer
 62
    0
370
   -1
100
AcDbPolyline
 90
   14
 70
    1
 43
0
 10
0.632161
 20
1.49544
 10
0.632161
 20
1.13081
 10
0.503851
 20
1.13081
 10
0.503851
 20
1.33138
 10
0.503851
 20
1.33702
 10
0.506401
 20
1.35379
 10
0.513781
 20
1.37896
 10
0.525553
 20
1.40528
 10
0.541124
 20
1.43104
 10
0.5600579999999999
 20
1.45464
 10
0.5818680000000001
 20
1.47433
 10
0.606065
 20
1.4885
 10
0.625489
 20
1.49479
 10
0.632161
 20
1.49544
  0
LWPOLYLINE
  5
5E
100
AcDbEntity
  8
0
  6
ByLayer
 62
    0
370
   -1
100
AcDbPolyline
 90
   60
 70
    1
 43
0
 10
0.638997
 20
0.918946
 10
1.31006
 20
0.918946
 10
1.31006
 20
0.783365
 10
1.31006
 20
0.778592
 10
1.30246
 20
0.7642679999999999
 10
1.28749
 20
0.754883
 10
1.2838
 20
0.754178
 10
1.28326
 20
0.754124
 10
1.27778
 20
0.7536350000000001
 10
1.27723
 20
0.7535809999999999
 10
1.14464
 20
0.7535809999999999
 10
1.14464
 20
0.697592
 10
1.26307
 20
0.64285
 10
1.26307
 20
0.539225
 10
1.301
 20
0.5393869999999999
 10
1.301
 20
0.395833
 10
1.26302
 20
0.395833
 10
1.26302
 20
0.395942
 10
1.18842
 20
0.395833
 10
1.18842
 20
0.539225
 10
1.22526
 20
0.539225
 10
1.22526
 20
0.633626
 10
1.10688
 20
0.687229
 10
1.10682
 20
0.7535809999999999
 10
1.03125
 20
0.7535809999999999
 10
1.03125
 20
0.395833
 10
0.974556
 20
0.299914
 10
0.974556
 20
0.300022
 10
0.915853
 20
0.395833
 10
0.915853
 20
0.7536350000000001
 10
0.815593
 20
0.7536350000000001
 10
0.81581
 20
0.696724
 10
0.76671
 20
0.677083
 10
0.76671
 20
0.490994
 10
0.7268869999999999
 20
0.490994
 10
0.7268869999999999
 20
0.313368
 10
0.7268869999999999
 20
0.311361
 10
0.723144
 20
0.305285
 10
0.71696
 20
0.302083
 10
0.7149529999999999
 20
0.302083
 10
0.713921
 20
0.302083
 10
0.713921
 20
0.302083
 10
0.713867
 20
0.302083
 10
0.713867
 20
0.302083
 10
0.691949
 20
0.302083
 10
0.689779
 20
0.302083
 10
0.683376
 20
0.30561
 10
0.6800119999999999
 20
0.311415
 10
0.6800119999999999
 20
0.313314
 10
0.6800119999999999
 20
0.490994
 10
0.642199
 20
0.490994
 10
0.642199
 20
0.678928
 10
0.703939
 20
0.704264
 10
0.703939
 20
0.7536350000000001
 10
0.671442
 20
0.7536350000000001
 10
0.66569
 20
0.7536350000000001
 10
0.648492
 20
0.762912
 10
0.638997
 20
0.779406
 10
0.638997
 20
0.7848850000000001
 10
0.638997
 20
0.918946
  0
LWPOLYLINE
  5
5F
100
AcDbEntity
  8
0
  6
ByLayer
 62
    0
370
   -1
100
AcDbPolyline
 90
    5
 70
    1
 43
0
 10
1.18886
 20
0.388238
 10
1.30143
 20
0.388238
 10
1.30143
 20
0.337836
 10
1.18886
 20
0.337836
 10
1.18886
 20
0.388238
  0
LWPOLYLINE
  5
60
100
AcDbEntity
  8
0
  6
ByLayer
 62
    0
370
   -1
100
AcDbPolyline
 90
    6
 70
    1
 43
0
 10
1.19265
 20
0.326118
 10
1.29763
 20
0.326118
 10
1.28895
 20
0.319119
 10
1.24512
 20
0.305067
 10
1.20128
 20
0.319119
 10
1.19265
 20
0.326118
  0
ENDBLK
  5
58
330
56
100
AcDbEntity
  8
0
100
AcDbBlockEnd
  0
ENDSEC
  0
SECTION
  2
ENTITIES
  0
LWPOLYLINE
  5
61
100
AcDbEntity
  8
Shadow
  6
ByLayer
 62
   23
370
   -1
100
AcDbPolyline
 90
   15
 70
    1
 43
0
 10
39.147068
 20
13.730428
 10
39.147068
 20
28.042548
 10
48.988668
 20
28.042548
 10
49.218668
 20
28.042548
 10
49.913068
 20
28.385428
 10
50.30146800000001
 20
29.023428
 10
50.30146800000001
 20
29.233948
 10
50.30146800000001
 20
34.654948
 10
48.678268
 20
34.654948
 10
43.81306800000001
 20
34.648428
 10
38.619868
 20
34.641948
 10
36.890148
 20
34.641948
 10
36.890148
 20
28.042548
 10
36.879348
 20
9.893667999999998
 10
39.147068
 20
13.730428
  0
LWPOLYLINE
  5
62
100
AcDbEntity
  8
Shadow
  6
ByLayer
 62
   23
370
   -1
100
AcDbPolyline
 90
   21
 70
    1
 43
0
 10
36.894548
 20
64.93946800000001
 10
36.894548
 20
64.516268
 10
36.892388
 20
63.246668
 10
36.892388
 20
59.655068
 10
36.892388
 20
54.819868
 10
36.892388
 20
49.394668
 10
36.892388
 20
44.038668
 10
36.892388
 20
39.401068
 10
36.892388
 20
36.139348
 10
36.892388
 20
34.90450799999999
 10
36.892388
 20
34.90450799999999
 10
40.24306799999999
 20
34.90450799999999
 10
47.78626799999999
 20
34.902348
 10
50.30146800000001
 20
34.902348
 10
50.30146800000001
 20
59.542268
 10
49.72426800000001
 20
60.215068
 10
47.59546800000001
 20
61.883868
 10
44.23826800000001
 20
63.59146800000001
 10
40.55986800000001
 20
64.624268
 10
37.808188
 20
64.954268
 10
36.894548
 20
64.93946800000001
  0
LWPOLYLINE
  5
63
100
AcDbEntity
  8
Shadow
  6
ByLayer
 62
   23
370
   -1
100
AcDbPolyline
 90
   11
 70
    1
 43
0
 10
28.565548
 20
24.980428
 10
26.059068
 20
24.155828
 10
26.059068
 20
9.982667999999999
 10
26.497388
 20
9.982667999999999
 10
26.577668
 20
9.982667999999999
 10
26.825108
 20
10.110668
 10
26.974828
 20
10.351548
 10
26.974828
 20
10.431828
 10
26.974828
 20
17.539068
 10
28.565548
 20
17.539068
 10
28.565548
 20
24.980428
  0
LWPOLYLINE
  5
64
100
AcDbEntity
  8
Shadow
  6
ByLayer
 62
   23
370
   -1
100
AcDbPolyline
 90
    5
 70
    1
 43
0
 10
48.41786800000001
 20
13.335508
 10
49.937068
 20
13.335508
 10
49.937068
 20
11.319428
 10
48.41786800000001
 20
11.319428
 10
48.41786800000001
 20
13.335508
  0
LWPOLYLINE
  5
65
100
AcDbEntity
  8
Shadow
  6
ByLayer
 62
   23
370
   -1
100
AcDbPolyline
 90
    5
 70
    1
 43
0
 10
49.937068
 20
19.474828
 10
48.42026800000001
 20
19.468348
 10
48.41786800000001
 20
13.730428
 10
49.937068
 20
13.730428
 10
49.937068
 20
19.474828
  0
LWPOLYLINE
  5
66
100
AcDbEntity
  8
Shadow
  6
ByLayer
 62
   23
370
   -1
100
AcDbPolyline
 90
   14
 70
    1
 43
0
 10
50.568668
 20
57.727868
 10
50.568668
 20
43.131468
 10
55.74906800000001
 20
43.131468
 10
55.74906800000001
 20
51.117468
 10
55.74906800000001
 20
51.343468
 10
55.642268
 20
52.013868
 10
55.34066799999999
 20
53.02746800000001
 10
54.863468
 20
54.086268
 10
54.23146799999999
 20
55.126268
 10
53.46586800000001
 20
56.07826799999999
 10
52.58466800000001
 20
56.87506800000001
 10
51.612268
 20
57.447868
 10
50.83346800000001
 20
57.701468
 10
50.568668
 20
57.727868
  0
LWPOLYLINE
  5
67
100
AcDbEntity
  8
Tools
  6
ByLayer
 62
   40
370
   -1
100
AcDbPolyline
 90
   63
 70
    1
 43
0
 10
50.30146800000001
 20
34.654948
 10
23.457068
 20
34.654948
 10
23.457068
 20
33.962668
 10
23.457068
 20
31.881508
 10
23.457068
 20
29.941388
 10
23.457068
 20
29.292548
 10
23.457068
 20
29.073348
 10
23.836828
 20
28.415788
 10
24.524708
 20
28.042548
 10
24.754788
 20
28.042548
 10
26.054668
 20
28.042548
 10
26.054668
 20
26.067708
 10
23.587228
 20
25.056428
 10
23.587228
 20
17.539068
 10
25.099828
 20
17.539068
 10
25.099828
 20
10.431828
 10
25.099828
 20
10.355908
 10
25.232228
 20
10.121548
 10
25.490428
 20
9.980428
 10
25.577268
 20
9.980428
 10
26.451828
 20
9.980428
 10
26.532108
 20
9.980428
 10
26.779508
 20
10.108508
 10
26.929268
 20
10.351548
 10
26.929268
 20
10.431828
 10
26.974828
 20
17.539068
 10
28.565548
 20
17.539068
 10
28.565548
 20
24.980428
 10
30.531668
 20
25.768228
 10
30.52082800000001
 20
28.042548
 10
34.531268
 20
28.042548
 10
34.531268
 20
27.226548
 10
34.531268
 20
24.774348
 10
34.531268
 20
20.802948
 10
34.531268
 20
16.874988
 10
34.531268
 20
14.518228
 10
34.531268
 20
13.730428
 10
36.879348
 20
9.897987999999998
 10
39.147068
 20
13.730428
 10
39.147068
 20
28.042548
 10
42.172268
 20
28.042548
 10
42.172268
 20
25.388428
 10
46.90746800000001
 20
23.244348
 10
46.90746800000001
 20
19.468348
 10
45.436268
 20
19.468348
 10
45.436268
 20
13.730428
 10
49.937068
 20
13.739148
 10
49.937068
 20
19.474828
 10
48.42026800000001
 20
19.468348
 10
48.42026800000001
 20
23.61110799999999
 10
43.685068
 20
25.802948
 10
43.685068
 20
28.042548
 10
48.98666800000001
 20
28.042548
 10
49.21666800000001
 20
28.042548
 10
49.91106800000001
 20
28.389788
 10
50.29946800000001
 20
29.027788
 10
50.29946800000001
 20
29.24042799999999
 10
50.29946800000001
 20
29.424908
 10
50.29946800000001
 20
29.971788
 10
50.29946800000001
 20
31.362828
 10
50.29946800000001
 20
33.04906800000001
 10
50.30146800000001
 20
34.253508
 10
50.30146800000001
 20
34.654948
  0
LWPOLYLINE
  5
68
100
AcDbEntity
  8
Tools
  6
ByLayer
 62
   40
370
   -1
100
AcDbPolyline
 90
    5
 70
    1
 43
0
 10
45.436268
 20
13.335508
 10
49.937068
 20
13.335508
 10
49.937068
 20
11.319428
 10
45.436268
 20
11.319428
 10
45.436268
 20
13.335508
  0
LWPOLYLINE
  5
69
100
AcDbEntity
  8
Head
  6
ByLayer
 62
   40
370
   -1
100
AcDbPolyline
 90
   21
 70
    1
 43
0
 10
35.991788
 20
64.941468
 10
35.119348
 20
64.911068
 10
32.519548
 20
64.492268
 10
29.086388
 20
63.41786800000001
 10
25.974388
 20
61.757868
 10
23.997388
 20
60.173868
 10
23.457068
 20
59.542268
 10
23.478708
 20
49.876268
 10
23.457068
 20
34.902348
 10
50.30146800000001
 20
34.902348
 10
50.30146800000001
 20
49.876268
 10
50.28626799999999
 20
59.518268
 10
49.709068
 20
60.191068
 10
47.58226800000001
 20
61.863868
 10
44.229468
 20
63.580668
 10
40.555468
 20
64.62226799999999
 10
37.803828
 20
64.95666800000001
 10
36.890148
 20
64.941468
 10
36.816388
 20
64.943468
 10
36.065548
 20
64.94546800000001
 10
35.991788
 20
64.941468
  0
LWPOLYLINE
  5
6A
100
AcDbEntity
  8
Ears
  6
ByLayer
 62
   40
370
   -1
100
AcDbPolyline
 90
   14
 70
    1
 43
0
 10
50.57066800000001
 20
57.717068
 10
50.57066800000001
 20
43.168268
 10
55.70346800000002
 20
43.168268
 10
55.70346800000002
 20
51.154668
 10
55.70346800000002
 20
51.377868
 10
55.599068
 20
52.04866799999999
 10
55.30386800000001
 20
53.055468
 10
54.83266800000001
 20
54.108268
 10
54.209868
 20
55.139068
 10
53.45266800000001
 20
56.082668
 10
52.580268
 20
56.872668
 10
51.612268
 20
57.439468
 10
50.83546800000001
 20
57.691068
 10
50.57066800000001
 20
57.717068
  0
LWPOLYLINE
  5
6B
100
AcDbEntity
  8
Ears
  6
ByLayer
 62
   40
370
   -1
100
AcDbPolyline
 90
   14
 70
    1
 43
0
 10
18.051228
 20
43.131468
 10
23.185788
 20
43.131468
 10
23.185788
 20
57.717068
 10
22.918828
 20
57.691068
 10
22.141948
 20
57.439468
 10
21.17406800000001
 20
56.872668
 10
20.301668
 20
56.082668
 10
19.54426800000001
 20
55.139068
 10
18.91926800000001
 20
54.108268
 10
18.45050800000001
 20
53.055468
 10
18.153228
 20
52.04866799999999
 10
18.051228
 20
51.377868
 10
18.051228
 20
51.154668
 10
18.051228
 20
43.131468
  0
LWPOLYLINE
  5
6C
100
AcDbEntity
  8
Twinkle
  6
ByLayer
 62
    0
370
   -1
100
AcDbPolyline
 90
   13
 70
    1
 43
0
 10
28.517788
 20
41.102268
 10
28.318148
 20
41.102268
 10
27.725708
 20
40.803068
 10
27.328548
 20
40.212668
 10
27.328548
 20
40.015068
 10
27.024708
 20
40.015068
 10
27.024708
 20
40.258268
 10
27.491348
 20
40.987468
 10
28.259548
 20
41.373868
 10
28.517788
 20
41.373868
 10
28.517788
 20
41.306268
 10
28.517788
 20
41.154668
 10
28.517788
 20
41.102268
  0
LWPOLYLINE
  5
6D
100
AcDbEntity
  8
Twinkle
  6
ByLayer
 62
    0
370
   -1
100
AcDbPolyline
 90
   13
 70
    1
 43
0
 10
28.517788
 20
41.543068
 10
28.233508
 20
41.543068
 10
27.387188
 20
41.111068
 10
26.887988
 20
40.290668
 10
26.887988
 20
40.015068
 10
26.480068
 20
40.015068
 10
26.480068
 20
40.203868
 10
26.644948
 20
40.763868
 10
27.091988
 20
41.38026799999999
 10
27.740908
 20
41.79906800000001
 10
28.322508
 20
41.95106799999999
 10
28.517788
 20
41.95106799999999
 10
28.517788
 20
41.543068
  0
LWPOLYLINE
  5
6E
100
AcDbEntity
  8
Twinkle
  6
ByLayer
 62
    0
370
   -1
100
AcDbPolyline
 90
   13
 70
    1
 43
0
 10
45.29066800000001
 20
41.193468
 10
45.09346800000002
 20
41.193468
 10
44.501068
 20
40.894268
 10
44.10386800000001
 20
40.30386799999999
 10
44.10386800000001
 20
40.106268
 10
43.79786799999999
 20
40.106268
 10
43.79786799999999
 20
40.349468
 10
44.264268
 20
41.078668
 10
45.032668
 20
41.464668
 10
45.29066800000001
 20
41.464668
 10
45.29066800000001
 20
41.397468
 10
45.29066800000001
 20
41.245868
 10
45.29066800000001
 20
41.193468
  0
LWPOLYLINE
  5
6F
100
AcDbEntity
  8
Twinkle
  6
ByLayer
 62
    0
370
   -1
100
AcDbPolyline
 90
   13
 70
    1
 43
0
 10
45.29066800000001
 20
41.634268
 10
45.00666800000001
 20
41.634268
 10
44.16026800000001
 20
41.202268
 10
43.66106800000001
 20
40.381868
 10
43.66106800000001
 20
40.106268
 10
43.25506800000001
 20
40.106268
 10
43.25506800000001
 20
40.295068
 10
43.42026800000001
 20
40.855068
 10
43.86506800000001
 20
41.471468
 10
44.513868
 20
41.890268
 10
45.09546800000001
 20
42.042268
 10
45.29066800000001
 20
42.042268
 10
45.29066800000001
 20
41.634268
  0
LWPOLYLINE
  5
70
100
AcDbEntity
  8
Inside
  6
ByLayer
 62
  256
370
   -1
100
AcDbPolyline
 90
   36
 70
    1
 43
0
 10
17.999132
 20
68.58490399999999
 10
17.174452
 20
68.58490399999999
 10
14.707012
 20
68.162104
 10
11.720892
 20
66.959704
 10
9.155812000000005
 20
65.09090399999999
 10
7.554252000000004
 20
63.322504
 10
7.131092000000004
 20
62.660504
 10
27.478292
 20
62.660504
 10
28.127172
 20
63.007704
 10
31.64713200000001
 20
64.281704
 10
35.27997200000001
 20
64.91530400000001
 10
35.989572
 20
64.941704
 10
36.065532
 20
64.94610400000001
 10
36.814252
 20
64.943704
 10
36.888012
 20
64.941704
 10
36.961812
 20
64.943704
 10
37.710532
 20
64.934904
 10
37.786452
 20
64.930504
 10
37.786452
 20
64.930504
 10
37.790812
 20
64.930504
 10
37.790812
 20
64.930504
 10
37.864572
 20
64.92810399999999
 10
38.62433200000001
 20
64.882504
 10
38.69993200000001
 20
64.874504
 10
39.340332
 20
64.819704
 10
42.577932
 20
64.149304
 10
45.69233200000001
 20
62.96890399999999
 10
46.27153200000001
 20
62.660504
 10
66.634332
 20
62.660504
 10
66.20193200000001
 20
63.320504
 10
64.592332
 20
65.09090399999999
 10
62.02713199999999
 20
66.959704
 10
59.044732
 20
68.162104
 10
56.579932
 20
68.58490399999999
 10
55.75953200000001
 20
68.58490399999999
 10
17.999132
 20
68.58490399999999
  0
ARC
  5
71
100
AcDbEntity
  8
Tools
  6
ByLayer
 62
  256
370
   -1
100
AcDbCircle
 10
47.701932
 20
13.050992
 40
2.949008
100
AcDbArc
 50
225.1576147176467
 51
314.8423852823461
  0
LINE
  5
72
100
AcDbEntity
  8
Tools
  6
ByLayer
 62
  256
370
   -1
100
AcDbLine
 10
49.78145132907544
 20
10.96
 11
45.622412670924
 21
10.96
  0
LINE
  5
73
100
AcDbEntity
  8
Outline
  6
ByLayer
 62
   33
370
   -1
100
AcDbLine
 10
56.19986800000001
 20
73.685068
 11
55.273468
 21
73.685068
  0
LINE
  5
74
100
AcDbEntity
  8
Outline
  6
ByLayer
 62
   33
370
   -1
100
AcDbLine
 10
3.774758283725532e-15
 20
56.126268
 11
3.774758283725532e-15
 21
55.197068
  0
LINE
  5
75
100
AcDbEntity
  8
Outline
  6
ByLayer
 62
   33
370
   -1
100
AcDbLine
 10
55.273468
 20
-1.082467449009528e-15
 11
56.19986800000001
 21
-1.082467449009528e-15
  0
ARC
  5
76
100
AcDbEntity
  8
Outline
  6
ByLayer
 62
  256
370
   -1
100
AcDbCircle
 10
18
 20
18
 40
18
100
AcDbArc
 50
180
 51
270
  0
LINE
  5
77
100
AcDbEntity
  8
Outline
  6
ByLayer
 62
   33
370
   -1
100
AcDbLine
 10
3.811655148259429e-15
 20
55.685068
 11
9.623501299260754e-16
 21
18
  0
ARC
  5
78
100
AcDbEntity
  8
Outline
  6
ByLayer
 62
  256
370
   -1
100
AcDbCircle
 10
18
 20
55.685068
 40
18
100
AcDbArc
 50
90.00000000000001
 51
180
  0
LINE
  5
79
100
AcDbEntity
  8
Outline
  6
ByLayer
 62
   33
370
   -1
100
AcDbLine
 10
55.76106799999999
 20
73.685068
 11
18
 21
73.685068
  0
ARC
  5
7A
100
AcDbEntity
  8
Outline
  6
ByLayer
 62
  256
370
   -1
100
AcDbCircle
 10
55.76106799999999
 20
55.685068
 40
18
100
AcDbArc
 50
0
 51
90
  0
LINE
  5
7B
100
AcDbEntity
  8
Outline
  6
ByLayer
 62
   33
370
   -1
100
AcDbLine
 10
73.76106800000001
 20
18
 11
73.76106800000001
 21
55.685068
  0
LINE
  5
7C
100
AcDbEntity
  8
Outline
  6
ByLayer
 62
   33
370
   -1
100
AcDbLine
 10
18
 20
-1.082467449009528e-15
 11
55.76106799999999
 21
-1.082467449009528e-15
  0
ARC
  5
7D
100
AcDbEntity
  8
Outline
  6
ByLayer
 62
  256
370
   -1
100
AcDbCircle
 10
55.76106799999999
 20
18
 40
18
100
AcDbArc
 50
270
 51
0
  0
LINE
  5
7E
100
AcDbEntity
  8
Inside
  6
ByLayer
 62
  256
370
   -1
100
AcDbLine
 10
5.661892000000003
 20
59.548904
 11
5.566412000000004
 21
59.24050399999999
  0
LINE
  5
7F
100
AcDbEntity
  8
Inside
  6
ByLayer
 62
  256
370
   -1
100
AcDbLine
 10
5.566412000000004
 20
59.24050399999999
 11
5.060732000000004
 21
56.575304
  0
LINE
  5
80
100
AcDbEntity
  8
Inside
  6
ByLayer
 62
  256
370
   -1
100
AcDbLine
 10
5.060732000000004
 20
56.575304
 11
5.060732000000004
 21
55.686104
  0
LINE
  5
81
100
AcDbEntity
  8
Inside
  6
ByLayer
 62
  256
370
   -1
100
AcDbLine
 10
68.695932
 20
55.686104
 11
68.695932
 21
56.651704
  0
LINE
  5
82
100
AcDbEntity
  8
Inside
  6
ByLayer
 62
  256
370
   -1
100
AcDbLine
 10
68.695932
 20
56.651704
 11
68.19873200000001
 21
59.244904
  0
LINE
  5
83
100
AcDbEntity
  8
Inside
  6
ByLayer
 62
  256
370
   -1
100
AcDbLine
 10
68.19873200000001
 20
59.244904
 11
68.10553200000001
 21
59.544104
  0
LINE
  5
84
100
AcDbEntity
  8
Inside
  6
ByLayer
 62
  256
370
   -1
100
AcDbLine
 10
68.10553200000001
 20
59.544104
 11
65.77033200000001
 21
59.544104
  0
LINE
  5
85
100
AcDbEntity
  8
Inside
  6
ByLayer
 62
  256
370
   -1
100
AcDbLine
 10
65.77033200000001
 20
59.544104
 11
58.76713200000001
 21
59.544104
  0
LINE
  5
86
100
AcDbEntity
  8
Inside
  6
ByLayer
 62
  256
370
   -1
100
AcDbLine
 10
58.76713200000001
 20
59.544104
 11
52.415532
 21
59.544104
  0
LINE
  5
87
100
AcDbEntity
  8
Inside
  6
ByLayer
 62
  256
370
   -1
100
AcDbLine
 10
52.415532
 20
59.544104
 11
50.299532
 21
59.544104
  0
LINE
  5
88
100
AcDbEntity
  8
Inside
  6
ByLayer
 62
  256
370
   -1
100
AcDbLine
 10
50.299532
 20
59.544104
 11
50.299532
 21
34.902344
  0
LINE
  5
89
100
AcDbEntity
  8
Inside
  6
ByLayer
 62
  256
370
   -1
100
AcDbLine
 10
50.299532
 20
34.902344
 11
23.45701200000001
 21
34.902344
  0
LINE
  5
8A
100
AcDbEntity
  8
Inside
  6
ByLayer
 62
  256
370
   -1
100
AcDbLine
 10
23.45701200000001
 20
34.902344
 11
23.476572
 21
49.876504
  0
LINE
  5
8B
100
AcDbEntity
  8
Inside
  6
ByLayer
 62
  256
370
   -1
100
AcDbLine
 10
23.476572
 20
49.876504
 11
23.45701200000001
 21
59.544104
  0
LINE
  5
8C
100
AcDbEntity
  8
Inside
  6
ByLayer
 62
  256
370
   -1
100
AcDbLine
 10
23.45701200000001
 20
59.544104
 11
23.45701200000001
 21
59.544104
  0
LINE
  5
8D
100
AcDbEntity
  8
Inside
  6
ByLayer
 62
  256
370
   -1
100
AcDbLine
 10
23.45701200000001
 20
59.544104
 11
23.45917200000001
 21
59.546504
  0
LINE
  5
8E
100
AcDbEntity
  8
Inside
  6
ByLayer
 62
  256
370
   -1
100
AcDbLine
 10
23.45917200000001
 20
59.546504
 11
23.45917200000001
 21
59.546504
  0
LINE
  5
8F
100
AcDbEntity
  8
Inside
  6
ByLayer
 62
  256
370
   -1
100
AcDbLine
 10
23.45917200000001
 20
59.546504
 11
22.40885200000001
 21
59.546504
  0
LINE
  5
90
100
AcDbEntity
  8
Inside
  6
ByLayer
 62
  256
370
   -1
100
AcDbLine
 10
22.40885200000001
 20
59.546504
 11
19.259972
 21
59.548904
  0
LINE
  5
91
100
AcDbEntity
  8
Inside
  6
ByLayer
 62
  256
370
   -1
100
AcDbLine
 10
19.259972
 20
59.548904
 11
15.175812
 21
59.548904
  0
LINE
  5
92
100
AcDbEntity
  8
Inside
  6
ByLayer
 62
  256
370
   -1
100
AcDbLine
 10
15.175812
 20
59.548904
 11
10.78341200000001
 21
59.548904
  0
LINE
  5
93
100
AcDbEntity
  8
Inside
  6
ByLayer
 62
  256
370
   -1
100
AcDbLine
 10
10.78341200000001
 20
59.548904
 11
6.942292000000005
 21
59.548904
  0
LINE
  5
94
100
AcDbEntity
  8
Inside
  6
ByLayer
 62
  256
370
   -1
100
AcDbLine
 10
6.942292000000005
 20
59.548904
 11
5.661892000000003
 21
59.548904
  0
LINE
  5
95
100
AcDbEntity
  8
Inside
  6
ByLayer
 62
  256
370
   -1
100
AcDbLine
 10
5.661892000000003
 20
59.548904
 11
5.661892000000003
 21
59.548904
  0
LINE
  5
96
100
AcDbEntity
  8
Inside
  6
ByLayer
 62
  256
370
   -1
100
AcDbLine
 10
5.060732000000004
 20
55.686104
 11
5.060732000000004
 21
17.062904
  0
ARC
  5
97
100
AcDbEntity
  8
Inside
  6
ByLayer
 62
  256
370
   -1
100
AcDbCircle
 10
17.06073200000001
 20
17.062904
 40
12
100
AcDbArc
 50
180
 51
270
  0
LINE
  5
98
100
AcDbEntity
  8
Inside
  6
ByLayer
 62
  256
370
   -1
100
AcDbLine
 10
17.06073200000001
 20
5.062904
 11
56.695932
 21
5.062904
  0
LINE
  5
99
100
AcDbEntity
  8
Inside
  6
ByLayer
 62
  256
370
   -1
100
AcDbLine
 10
68.695932
 20
17.062904
 11
68.695932
 21
55.686104
  0
ARC
  5
9A
100
AcDbEntity
  8
Inside
  6
ByLayer
 62
  256
370
   -1
100
AcDbCircle
 10
56.695932
 20
17.062904
 40
12
100
AcDbArc
 50
270
 51
0
  0
CIRCLE
  5
9B
100
AcDbEntity
  8
Eyes
  6
ByLayer
 62
  256
370
   -1
100
AcDbCircle
 10
28.552508
 20
39.913068
 40
4.583600000000008
  0
CIRCLE
  5
9C
100
AcDbEntity
  8
Pupils
  6
ByLayer
 62
  256
370
   -1
100
AcDbCircle
 10
28.552508
 20
39.913068
 40
2.142173222220831
  0
CIRCLE
  5
9D
100
AcDbEntity
  8
Eyes
  6
ByLayer
 62
  256
370
   -1
100
AcDbCircle
 10
45.325468
 20
40.004268
 40
4.583200000000005
  0
CIRCLE
  5
9E
100
AcDbEntity
  8
Pupils
  6
ByLayer
 62
  256
370
   -1
100
AcDbCircle
 10
45.325468
 20
40.004268
 40
2.141125022038652
  0
ENDSEC
  0
SECTION
  2
OBJECTS
  0
DICTIONARY
  5
C
330
0
100
AcDbDictionary
281
    1
  3
ACAD_GROUP
350
D
  0
DICTIONARY
  5
D
330
C
100
AcDbDictionary
281
    1
  0
ENDSEC
  0
EOF
