999
dxfrw 0.6.3
  0
SECTION
  2
HEADER
  9
$ACADVER
  1
AC1021
  9
$DWGCODEPAGE
  3
ANSI_1252
  9
$INSBASE
 10
0
 20
0
 30
0
  9
$EXTMIN
 10
-1.861
 20
0.1265726
 30
0
  9
$EXTMAX
 10
1.7173983
 20
1.7146226
 30
0
  9
$LIMMIN
 10
0
 20
0
  9
$LIMMAX
 10
420
 20
297
  9
$ORTHOMODE
 70
    0
  9
$REGENMODE
 70
    1
  9
$FILLMODE
 70
    0
  9
$QTEXTMODE
 70
    0
  9
$MIRRTEXT
 70
    0
  9
$LTSCALE
 40
1
  9
$ATTMODE
 70
    0
  9
$TEXTSIZE
 40
2.5
  9
$TRACEWID
 40
15.68
  9
$TEXTSTYLE
  7
STANDARD
  9
$CLAYER
  8
Inside
  9
$CELTYPE
  6
BYLAYER
  9
$CECOLOR
 62
  256
  9
$CELTSCALE
 40
1
  9
$DISPSILH
 70
    0
  9
$DIMSCALE
 40
2.5
  9
$DIMASZ
 40
2.5
  9
$DIMEXO
 40
0.625
  9
$DIMDLI
 40
3.75
  9
$DIMRND
 40
0
  9
$DIMDLE
 40
0
  9
$DIMEXE
 40
1.25
  9
$DIMTP
 40
0
  9
$DIMTM
 40
0
  9
$DIMTXT
 40
2.5
  9
$DIMCEN
 40
2.5
  9
$DIMTSZ
 40
0
  9
$DIMTOL
 70
    0
  9
$DIMLIM
 70
    0
  9
$DIMTIH
 70
    0
  9
$DIMTOH
 70
    0
  9
$DIMSE1
 70
    0
  9
$DIMSE2
 70
    0
  9
$DIMTAD
 70
    1
  9
$DIMZIN
 70
    8
  9
$DIMBLK
  1

  9
$DIMASO
 70
    1
  9
$DIMSHO
 70
    1
  9
$DIMPOST
  1

  9
$DIMAPOST
  1

  9
$DIMALT
 70
    0
  9
$DIMALTD
 70
    3
  9
$DIMALTF
 40
0.03937
  9
$DIMLFAC
 40
1
  9
$DIMTOFL
 70
    1
  9
$DIMTVP
 40
0
  9
$DIMTIX
 70
    0
  9
$DIMSOXD
 70
    0
  9
$DIMSAH
 70
    0
  9
$DIMBLK1
  1

  9
$DIMBLK2
  1

  9
$DIMSTYLE
  2
Standard
  9
$DIMCLRD
 70
    0
  9
$DIMCLRE
 70
    0
  9
$DIMCLRT
 70
    0
  9
$DIMTFAC
 40
1
  9
$DIMGAP
 40
0.625
  9
$DIMJUST
 70
    0
  9
$DIMSD1
 70
    0
  9
$DIMSD2
 70
    0
  9
$DIMTOLJ
 70
    0
  9
$DIMTZIN
 70
    8
  9
$DIMALTZ
 70
    0
  9
$DIMALTTZ
 70
    0
  9
$DIMUPT
 70
    0
  9
$DIMDEC
 70
    2
  9
$DIMTDEC
 70
    2
  9
$DIMALTU
 70
    2
  9
$DIMALTTD
 70
    3
  9
$DIMTXSTY
  7
STANDARD
  9
$DIMAUNIT
 70
    0
  9
$DIMADEC
 70
    0
  9
$DIMALTRND
 40
0
  9
$DIMAZIN
 70
    0
  9
$DIMDSEP
 70
   44
  9
$DIMATFIT
 70
    3
  9
$DIMFRAC
 70
    0
  9
$DIMLDRBLK
  1
STANDARD
  9
$DIMLUNIT
 70
    2
  9
$DIMLWD
 70
   -2
  9
$DIMLWE
 70
   -2
  9
$DIMTMOVE
 70
    0
  9
$DIMFXL
 40
1
  9
$DIMFXLON
 70
    0
  9
$DIMJOGANG
 40
0.7854
  9
$DIMTFILL
 70
    0
  9
$DIMTFILLCLR
 70
    0
  9
$DIMARCSYM
 70
    0
  9
$DIMLTYPE
  6

  9
$DIMLTEX1
  6

  9
$DIMLTEX2
  6

  9
$LUNITS
 70
    2
  9
$LUPREC
 70
    4
  9
$SKETCHINC
 40
1
  9
$FILLETRAD
 40
0
  9
$AUNITS
 70
    0
  9
$AUPREC
 70
    2
  9
$MENU
  1
.
  9
$ELEVATION
 40
0
  9
$PELEVATION
 40
0
  9
$THICKNESS
 40
0
  9
$LIMCHECK
 70
    0
  9
$CHAMFERA
 40
0
  9
$CHAMFERB
 40
0
  9
$CHAMFERC
 40
0
  9
$CHAMFERD
 40
0
  9
$SKPOLY
 70
    0
  9
$USRTIMER
 70
    1
  9
$ANGBASE
 50
0
  9
$ANGDIR
 70
    0
  9
$PDMODE
 70
   34
  9
$PDSIZE
 40
0
  9
$PLINEWID
 40
0
  9
$SPLFRAME
 70
    1
  9
$SPLINETYPE
 70
    2
  9
$SPLINESEGS
 70
    8
  9
$HANDSEED
  5
20000
  9
$SURFTAB1
 70
    6
  9
$SURFTAB2
 70
    6
  9
$SURFTYPE
 70
    6
  9
$SURFU
 70
    6
  9
$SURFV
 70
    6
  9
$UCSBASE
  2

  9
$UCSNAME
  2

  9
$UCSORG
 10
0
 20
0
 30
0
  9
$UCSXDIR
 10
1
 20
0
 30
0
  9
$UCSYDIR
 10
0
 20
1
 30
0
  9
$UCSORTHOREF
  2

  9
$UCSORTHOVIEW
 70
    0
  9
$UCSORGTOP
 10
0
 20
0
 30
0
  9
$UCSORGBOTTOM
 10
0
 20
0
 30
0
  9
$UCSORGLEFT
 10
0
 20
0
 30
0
  9
$UCSORGRIGHT
 10
0
 20
0
 30
0
  9
$UCSORGFRONT
 10
0
 20
0
 30
0
  9
$UCSORGBACK
 10
0
 20
0
 30
0
  9
$PUCSBASE
  2

  9
$PUCSNAME
  2

  9
$PUCSORG
 10
0
 20
0
 30
0
  9
$PUCSXDIR
 10
1
 20
0
 30
0
  9
$PUCSYDIR
 10
0
 20
1
 30
0
  9
$PUCSORTHOREF
  2

  9
$PUCSORTHOVIEW
 70
    0
  9
$PUCSORGTOP
 10
0
 20
0
 30
0
  9
$PUCSORGBOTTOM
 10
0
 20
0
 30
0
  9
$PUCSORGLEFT
 10
0
 20
0
 30
0
  9
$PUCSORGRIGHT
 10
0
 20
0
 30
0
  9
$PUCSORGFRONT
 10
0
 20
0
 30
0
  9
$PUCSORGBACK
 10
0
 20
0
 30
0
  9
$USERI1
 70
    0
  9
$USERI2
 70
    0
  9
$USERI3
 70
    0
  9
$USERI4
 70
    0
  9
$USERI5
 70
    0
  9
$USERR1
 40
0
  9
$USERR2
 40
0
  9
$USERR3
 40
0
  9
$USERR4
 40
0
  9
$USERR5
 40
0
  9
$WORLDVIEW
 70
    1
  9
$SHADEDGE
 70
    3
  9
$SHADEDIF
 70
   70
  9
$TILEMODE
 70
    1
  9
$MAXACTVP
 70
   64
  9
$PINSBASE
 10
0
 20
0
 30
0
  9
$PLIMCHECK
 70
    0
  9
$PEXTMIN
 10
0
 20
0
 30
0
  9
$PEXTMAX
 10
0
 20
0
 30
0
  9
$SNAPSTYLE
 70
    0
  9
$PLIMMIN
 10
0
 20
0
  9
$PLIMMAX
 10
215.9
 20
279.4
  9
$UNITMODE
 70
    0
  9
$VISRETAIN
 70
    1
  9
$PLINEGEN
 70
    0
  9
$PSLTSCALE
 70
    1
  9
$TREEDEPTH
 70
 3020
  9
$CMLSTYLE
  2
Standard
  9
$CMLJUST
 70
    0
  9
$CMLSCALE
 40
20
  9
$PROXYGRAPHICS
 70
    1
  9
$MEASUREMENT
 70
    1
  9
$CELWEIGHT
370
   -1
  9
$ENDCAPS
280
    0
  9
$JOINSTYLE
280
    0
  9
$LWDISPLAY
290
    0
  9
$INSUNITS
 70
    4
  9
$HYPERLINKBASE
  1

  9
$STYLESHEET
  1

  9
$XEDIT
290
    1
  9
$CEPSNTYPE
380
    0
  9
$PSTYLEMODE
290
    1
  9
$EXTNAMES
290
    1
  9
$PSVPSCALE
 40
1
  9
$OLESTARTUP
290
    0
  9
$SORTENTS
280
  127
  9
$INDEXCTL
280
    0
  9
$HIDETEXT
280
    1
  9
$XCLIPFRAME
290
    0
  9
$HALOGAP
280
    0
  9
$OBSCOLOR
 70
  257
  9
$OBSLTYPE
280
    0
  9
$INTERSECTIONDISPLAY
280
    0
  9
$INTERSECTIONCOLOR
 70
  257
  9
$DIMASSOC
280
    1
  9
$PROJECTNAME
  1

  9
$CAMERADISPLAY
290
    0
  9
$LENSLENGTH
 40
50
  9
$CAMERAHEIGHT
 40
0
  9
$STEPSPERSEC
 40
2
  9
$STEPSIZE
 40
50
  9
$3DDWFPREC
 40
2
  9
$PSOLWIDTH
 40
5
  9
$PSOLHEIGHT
 40
80
  9
$LOFTANG1
 40
1.570796326794897
  9
$LOFTANG2
 40
1.570796326794897
  9
$LOFTMAG1
 40
0
  9
$LOFTMAG2
 40
0
  9
$LOFTPARAM
 70
    7
  9
$LOFTNORMALS
280
    1
  9
$LATITUDE
 40
1
  9
$LONGITUDE
 40
1
  9
$NORTHDIRECTION
 40
0
  9
$TIMEZONE
 70
-8000
  9
$LIGHTGLYPHDISPLAY
280
    1
  9
$TILEMODELIGHTSYNCH
280
    1
  9
$SOLIDHIST
280
    1
  9
$SHOWHIST
280
    1
  9
$DWFFRAME
280
    2
  9
$DGNFRAME
280
    0
  9
$REALWORLDSCALE
290
    1
  9
$INTERFERECOLOR
 62
    1
  9
$CSHADOW
280
    0
  9
$SHADOWPLANELOCATION
 40
0
  0
ENDSEC
  0
SECTION
  2
CLASSES
  0
ENDSEC
  0
SECTION
  2
TABLES
  0
TABLE
  2
VPORT
  5
8
330
0
100
AcDbSymbolTable
 70
    1
  0
VPORT
  5
31
330
2
100
AcDbSymbolTableRecord
100
AcDbViewportTableRecord
  2
*ACTIVE
 70
    0
 10
0
 20
0
 11
1
 21
1
 12
1.280644499522213
 22
0.9315944173268563
 13
0
 23
0
 14
10
 24
10
 15
10
 25
10
 16
0
 26
0
 36
1
 17
0
 27
0
 37
0
 40
2.072857143412698
 41
1.544827586206897
 42
50
 43
0
 44
0
 50
0
 51
0
 71
    0
 72
  100
 73
    1
 74
    3
 75
    0
 76
    1
 77
    0
 78
    0
281
    0
 65
    1
110
0
120
0
130
0
111
1
121
0
131
0
112
0
122
1
132
0
 79
    0
146
0
348
10020
 60
    7
 61
    5
292
1
282
    1
141
0
142
0
 63
  250
421
3358443
  0
ENDTAB
  0
TABLE
  2
LTYPE
  5
5
330
0
100
AcDbSymbolTable
 70
    4
  0
LTYPE
  5
14
330
5
100
AcDbSymbolTableRecord
100
AcDbLinetypeTableRecord
  2
ByBlock
 70
    0
  3

 72
   65
 73
    0
 40
0
  0
LTYPE
  5
15
330
5
100
AcDbSymbolTableRecord
100
AcDbLinetypeTableRecord
  2
ByLayer
 70
    0
  3

 72
   65
 73
    0
 40
0
  0
LTYPE
  5
16
330
5
100
AcDbSymbolTableRecord
100
AcDbLinetypeTableRecord
  2
Continuous
 70
    0
  3
Solid line
 72
   65
 73
    0
 40
0
  0
LTYPE
  5
32
330
5
100
AcDbSymbolTableRecord
100
AcDbLinetypeTableRecord
  2
DOT
 70
    0
  3
Dot . . . . . . . . . . . . . . . . . . . . . .
 72
   65
 73
    2
 40
6.35
 49
0
 74
    0
 49
-6.35
 74
    0
  0
LTYPE
  5
33
330
5
100
AcDbSymbolTableRecord
100
AcDbLinetypeTableRecord
  2
DOTTINY
 70
    0
  3
Dot (.15x) .....................................
 72
   65
 73
    2
 40
0.9525
 49
0
 74
    0
 49
-0.9525
 74
    0
  0
LTYPE
  5
34
330
5
100
AcDbSymbolTableRecord
100
AcDbLinetypeTableRecord
  2
DOT2
 70
    0
  3
Dot (.5x) .....................................
 72
   65
 73
    2
 40
3.175
 49
0
 74
    0
 49
-3.175
 74
    0
  0
LTYPE
  5
35
330
5
100
AcDbSymbolTableRecord
100
AcDbLinetypeTableRecord
  2
DOTX2
 70
    0
  3
Dot (2x) .  .  .  .  .  .  .  .  .  .  .  .  .
 72
   65
 73
    2
 40
12.7
 49
0
 74
    0
 49
-12.7
 74
    0
  0
LTYPE
  5
36
330
5
100
AcDbSymbolTableRecord
100
AcDbLinetypeTableRecord
  2
DASHED
 70
    0
  3
Dashed _ _ _ _ _ _ _ _ _ _ _ _ _ _ _ _ _
 72
   65
 73
    2
 40
19.05
 49
12.7
 74
    0
 49
-6.35
 74
    0
  0
LTYPE
  5
37
330
5
100
AcDbSymbolTableRecord
100
AcDbLinetypeTableRecord
  2
DASHEDTINY
 70
    0
  3
Dashed (.15x) _ _ _ _ _ _ _ _ _ _ _ _ _ _ _ _ _
 72
   65
 73
    2
 40
2.8575
 49
1.905
 74
    0
 49
-0.9525
 74
    0
  0
LTYPE
  5
38
330
5
100
AcDbSymbolTableRecord
100
AcDbLinetypeTableRecord
  2
DASHED2
 70
    0
  3
Dashed (.5x) _ _ _ _ _ _ _ _ _ _ _ _ _ _ _ _ _
 72
   65
 73
    2
 40
9.524999999999999
 49
6.35
 74
    0
 49
-3.175
 74
    0
  0
LTYPE
  5
39
330
5
100
AcDbSymbolTableRecord
100
AcDbLinetypeTableRecord
  2
DASHEDX2
 70
    0
  3
Dashed (2x) ____  ____  ____  ____  ____  ___
 72
   65
 73
    2
 40
38.09999999999999
 49
25.4
 74
    0
 49
-12.7
 74
    0
  0
LTYPE
  5
3A
330
5
100
AcDbSymbolTableRecord
100
AcDbLinetypeTableRecord
  2
DASHDOT
 70
    0
  3
Dash dot __ . __ . __ . __ . __ . __ . __ . __
 72
   65
 73
    4
 40
25.4
 49
12.7
 74
    0
 49
-6.35
 74
    0
 49
0
 74
    0
 49
-6.35
 74
    0
  0
LTYPE
  5
3B
330
5
100
AcDbSymbolTableRecord
100
AcDbLinetypeTableRecord
  2
DASHDOTTINY
 70
    0
  3
Dash dot (.15x) _._._._._._._._._._._._._._._.
 72
   65
 73
    4
 40
3.81
 49
1.905
 74
    0
 49
-0.9525
 74
    0
 49
0
 74
    0
 49
-0.9525
 74
    0
  0
LTYPE
  5
3C
330
5
100
AcDbSymbolTableRecord
100
AcDbLinetypeTableRecord
  2
DASHDOT2
 70
    0
  3
Dash dot (.5x) _._._._._._._._._._._._._._._.
 72
   65
 73
    4
 40
12.7
 49
6.35
 74
    0
 49
-3.175
 74
    0
 49
0
 74
    0
 49
-3.175
 74
    0
  0
LTYPE
  5
3D
330
5
100
AcDbSymbolTableRecord
100
AcDbLinetypeTableRecord
  2
DASHDOTX2
 70
    0
  3
Dash dot (2x) ____  .  ____  .  ____  .  ___
 72
   65
 73
    4
 40
50.8
 49
25.4
 74
    0
 49
-12.7
 74
    0
 49
0
 74
    0
 49
-12.7
 74
    0
  0
LTYPE
  5
3E
330
5
100
AcDbSymbolTableRecord
100
AcDbLinetypeTableRecord
  2
DIVIDE
 70
    0
  3
Divide ____ . . ____ . . ____ . . ____ . . ____
 72
   65
 73
    6
 40
31.75
 49
12.7
 74
    0
 49
-6.35
 74
    0
 49
0
 74
    0
 49
-6.35
 74
    0
 49
0
 74
    0
 49
-6.35
 74
    0
  0
LTYPE
  5
3F
330
5
100
AcDbSymbolTableRecord
100
AcDbLinetypeTableRecord
  2
DIVIDETINY
 70
    0
  3
Divide (.15x) __..__..__..__..__..__..__..__.._
 72
   65
 73
    6
 40
4.7625
 49
1.905
 74
    0
 49
-0.9525
 74
    0
 49
0
 74
    0
 49
-0.9525
 74
    0
 49
0
 74
    0
 49
-0.9525
 74
    0
  0
LTYPE
  5
40
330
5
100
AcDbSymbolTableRecord
100
AcDbLinetypeTableRecord
  2
DIVIDE2
 70
    0
  3
Divide (.5x) __..__..__..__..__..__..__..__.._
 72
   65
 73
    6
 40
15.875
 49
6.35
 74
    0
 49
-3.175
 74
    0
 49
0
 74
    0
 49
-3.175
 74
    0
 49
0
 74
    0
 49
-3.175
 74
    0
  0
LTYPE
  5
41
330
5
100
AcDbSymbolTableRecord
100
AcDbLinetypeTableRecord
  2
DIVIDEX2
 70
    0
  3
Divide (2x) ________  .  .  ________  .  .  _
 72
   65
 73
    6
 40
63.5
 49
25.4
 74
    0
 49
-12.7
 74
    0
 49
0
 74
    0
 49
-12.7
 74
    0
 49
0
 74
    0
 49
-12.7
 74
    0
  0
LTYPE
  5
42
330
5
100
AcDbSymbolTableRecord
100
AcDbLinetypeTableRecord
  2
BORDER
 70
    0
  3
Border __ __ . __ __ . __ __ . __ __ . __ __ .
 72
   65
 73
    6
 40
44.45
 49
12.7
 74
    0
 49
-6.35
 74
    0
 49
12.7
 74
    0
 49
-6.35
 74
    0
 49
0
 74
    0
 49
-6.35
 74
    0
  0
LTYPE
  5
43
330
5
100
AcDbSymbolTableRecord
100
AcDbLinetypeTableRecord
  2
BORDERTINY
 70
    0
  3
Border (.15x) __.__.__.__.__.__.__.__.__.__.__.
 72
   65
 73
    6
 40
6.6675
 49
1.905
 74
    0
 49
-0.9525
 74
    0
 49
1.905
 74
    0
 49
-0.9525
 74
    0
 49
0
 74
    0
 49
-0.9525
 74
    0
  0
LTYPE
  5
44
330
5
100
AcDbSymbolTableRecord
100
AcDbLinetypeTableRecord
  2
BORDER2
 70
    0
  3
Border (.5x) __.__.__.__.__.__.__.__.__.__.__.
 72
   65
 73
    6
 40
22.225
 49
6.35
 74
    0
 49
-3.175
 74
    0
 49
6.35
 74
    0
 49
-3.175
 74
    0
 49
0
 74
    0
 49
-3.175
 74
    0
  0
LTYPE
  5
45
330
5
100
AcDbSymbolTableRecord
100
AcDbLinetypeTableRecord
  2
BORDERX2
 70
    0
  3
Border (2x) ____  ____  .  ____  ____  .  ___
 72
   65
 73
    6
 40
88.89999999999999
 49
25.4
 74
    0
 49
-12.7
 74
    0
 49
25.4
 74
    0
 49
-12.7
 74
    0
 49
0
 74
    0
 49
-12.7
 74
    0
  0
LTYPE
  5
46
330
5
100
AcDbSymbolTableRecord
100
AcDbLinetypeTableRecord
  2
CENTER
 70
    0
  3
Center ____ _ ____ _ ____ _ ____ _ ____ _ ____
 72
   65
 73
    4
 40
50.8
 49
31.75
 74
    0
 49
-6.35
 74
    0
 49
6.35
 74
    0
 49
-6.35
 74
    0
  0
LTYPE
  5
47
330
5
100
AcDbSymbolTableRecord
100
AcDbLinetypeTableRecord
  2
CENTERTINY
 70
    0
  3
Center (.15x) ___ _ ___ _ ___ _ ___ _ ___ _ ___
 72
   65
 73
    4
 40
7.619999999999999
 49
4.7625
 74
    0
 49
-0.9525
 74
    0
 49
0.9525
 74
    0
 49
-0.9525
 74
    0
  0
LTYPE
  5
48
330
5
100
AcDbSymbolTableRecord
100
AcDbLinetypeTableRecord
  2
CENTER2
 70
    0
  3
Center (.5x) ___ _ ___ _ ___ _ ___ _ ___ _ ___
 72
   65
 73
    4
 40
28.575
 49
19.05
 74
    0
 49
-3.175
 74
    0
 49
3.175
 74
    0
 49
-3.175
 74
    0
  0
LTYPE
  5
49
330
5
100
AcDbSymbolTableRecord
100
AcDbLinetypeTableRecord
  2
CENTERX2
 70
    0
  3
Center (2x) ________  __  ________  __  _____
 72
   65
 73
    4
 40
101.6
 49
63.5
 74
    0
 49
-12.7
 74
    0
 49
12.7
 74
    0
 49
-12.7
 74
    0
  0
ENDTAB
  0
TABLE
  2
LAYER
  5
2
330
0
100
AcDbSymbolTable
 70
    1
  0
LAYER
  5
10
330
2
100
AcDbSymbolTableRecord
100
AcDbLayerTableRecord
  2
0
 70
    0
 62
    7
  6
CONTINUOUS
370
   -3
390
F
  0
LAYER
  5
4A
330
2
100
AcDbSymbolTableRecord
100
AcDbLayerTableRecord
  2
Ears
 70
    0
 62
    7
  6
CONTINUOUS
370
    0
390
F
  0
LAYER
  5
4B
330
2
100
AcDbSymbolTableRecord
100
AcDbLayerTableRecord
  2
Eyes
 70
    0
 62
    7
  6
CONTINUOUS
370
    0
390
F
  0
LAYER
  5
4C
330
2
100
AcDbSymbolTableRecord
100
AcDbLayerTableRecord
  2
Head
 70
    0
 62
    7
  6
CONTINUOUS
370
    0
390
F
  0
LAYER
  5
4D
330
2
100
AcDbSymbolTableRecord
100
AcDbLayerTableRecord
  2
Inside
 70
    1
 62
    7
  6
CONTINUOUS
370
    0
390
F
  0
LAYER
  5
4E
330
2
100
AcDbSymbolTableRecord
100
AcDbLayerTableRecord
  2
Outline
 70
    1
 62
    7
  6
CONTINUOUS
370
    0
390
F
  0
LAYER
  5
4F
330
2
100
AcDbSymbolTableRecord
100
AcDbLayerTableRecord
  2
Pupils
 70
    0
 62
    7
  6
CONTINUOUS
370
    0
390
F
  0
LAYER
  5
50
330
2
100
AcDbSymbolTableRecord
100
AcDbLayerTableRecord
  2
Shadow
 70
    1
 62
    7
  6
CONTINUOUS
370
    0
390
F
  0
LAYER
  5
51
330
2
100
AcDbSymbolTableRecord
100
AcDbLayerTableRecord
  2
Tools
 70
    0
 62
    7
  6
CONTINUOUS
370
    0
390
F
  0
LAYER
  5
52
330
2
100
AcDbSymbolTableRecord
100
AcDbLayerTableRecord
  2
Twinkle
 70
    0
 62
    7
  6
CONTINUOUS
370
    0
390
F
  0
ENDTAB
  0
TABLE
  2
STYLE
  5
3
330
0
100
AcDbSymbolTable
 70
    3
  0
STYLE
  5
53
330
2
100
AcDbSymbolTableRecord
100
AcDbTextStyleTableRecord
  2
Standard
 70
    0
 40
0
 41
1
 50
0
 71
    0
 42
1
  3
txt
  4

  0
ENDTAB
  0
TABLE
  2
VIEW
  5
6
330
0
100
AcDbSymbolTable
 70
    0
  0
ENDTAB
  0
TABLE
  2
UCS
  5
7
330
0
100
AcDbSymbolTable
 70
    0
  0
ENDTAB
  0
TABLE
  2
APPID
  5
9
330
0
100
AcDbSymbolTable
 70
    1
  0
APPID
  5
12
330
9
100
AcDbSymbolTableRecord
100
AcDbRegAppTableRecord
  2
ACAD
 70
    0
  0
APPID
  5
54
330
9
100
AcDbSymbolTableRecord
100
AcDbRegAppTableRecord
  2
LibreCad
 70
    0
  0
ENDTAB
  0
TABLE
  2
DIMSTYLE
  5
A
330
0
100
AcDbSymbolTable
 70
    1
100
AcDbDimStyleTable
 71
    1
  0
DIMSTYLE
105
55
330
A
100
AcDbSymbolTableRecord
100
AcDbDimStyleTableRecord
  2
Standard
 70
    0
 40
1
 41
2.5
 42
0.625
 43
0.38
 44
1.25
 45
0
 46
0
 47
0
 48
0
 49
1
140
2.5
141
0.09
142
2.5
143
25.4
144
1
145
0
146
1
147
0.625
148
0
 71
    0
 72
    0
 73
    0
 74
    1
 75
    0
 76
    0
 77
    0
 78
    1
 79
    0
170
    0
171
    2
172
    0
173
    0
174
    0
175
    0
176
    0
177
    0
178
    0
179
    0
271
    2
272
    4
273
    2
274
    2
275
    0
276
    0
277
    2
278
    0
279
    0
280
    0
281
    0
282
    0
283
    1
284
    0
285
    0
286
    0
288
    0
289
    3
340
standard
341

371
   -2
372
   -2
  0
ENDTAB
  0
TABLE
  2
BLOCK_RECORD
  5
1
330
0
100
AcDbSymbolTable
 70
    2
  0
BLOCK_RECORD
  5
1F
330
1
100
AcDbSymbolTableRecord
100
AcDbBlockTableRecord
  2
*Model_Space
 70
    0
280
    1
281
    0
  0
BLOCK_RECORD
  5
1E
330
1
100
AcDbSymbolTableRecord
100
AcDbBlockTableRecord
  2
*Paper_Space
 70
    0
280
    1
281
    0
  0
BLOCK_RECORD
  5
56
330
1
100
AcDbSymbolTableRecord
100
AcDbBlockTableRecord
  2
tmp
 70
    0
280
    1
281
    0
  0
ENDTAB
  0
ENDSEC
  0
SECTION
  2
BLOCKS
  0
BLOCK
  5
20
330
1F
100
AcDbEntity
  8
0
100
AcDbBlockBegin
  2
*Model_Space
 70
    0
 10
0
 20
0
 30
0
  3
*Model_Space
  1

  0
ENDBLK
  5
21
330
1F
100
AcDbEntity
  8
0
100
AcDbBlockEnd
  0
BLOCK
  5
1C
330
1B
100
AcDbEntity
  8
0
100
AcDbBlockBegin
  2
*Paper_Space
 70
    0
 10
0
 20
0
 30
0
  3
*Paper_Space
  1

  0
ENDBLK
  5
1D
330
1F
100
AcDbEntity
  8
0
100
AcDbBlockEnd
  0
BLOCK
  5
57
330
56
100
AcDbEntity
  8
0
100
AcDbBlockBegin
  2
tmp
 70
    0
 10
0
 20
0
  3
tmp
  1

  0
LWPOLYLINE
  5
59
100
AcDbEntity
  8
0
  6
ByLayer
 62
    0
370
   -1
100
AcDbPolyline
 90
   45
 70
    1
 43
0
 10
0.514703
 20
1.89464
 10
1.43435
 20
1.89464
 10
1.45751
 20
1.89464
 10
1.52713
 20
1.88525
 10
1.61372
 20
1.85818
 10
1.69222
 20
1.81543
 10
1.76069
 20
1.75885
 10
1.81728
 20
1.69038
 10
1.86003
 20
1.61188
 10
1.8871
 20
1.52528
 10
1.89654
 20
1.45568
 10
1.89654
 20
1.43246
 10
1.89654
 20
0.514703
 10
1.89654
 20
0.491536
 10
1.8871
 20
0.421929
 10
1.86003
 20
0.33534
 10
1.81728
 20
0.25689
 10
1.76069
 20
0.188368
 10
1.69222
 20
0.131782
 10
1.61372
 20
0.08903
 10
1.52713
 20
0.0620117
 10
1.45751
 20
0.0525174
 10
1.43435
 20
0.0525174
 10
0.514703
 20
0.0525174
 10
0.491482
 20
0.0525174
 10
0.421875
 20
0.0620117
 10
0.335286
 20
0.08903
 10
0.256782
 20
0.131782
 10
0.188314
 20
0.188368
 10
0.131782
 20
0.25689
 10
0.08903
 20
0.33534
 10
0.0619575
 20
0.421929
 10
0.0525717
 20
0.491536
 10
0.0525717
 20
0.514703
 10
0.0525717
 20
1.43246
 10
0.0525717
 20
1.45568
 10
0.0619575
 20
1.52528
 10
0.08903
 20
1.61188
 10
0.131782
 20
1.69038
 10
0.188314
 20
1.75885
 10
0.256782
 20
1.81543
 10
0.335286
 20
1.85818
 10
0.421875
 20
1.88525
 10
0.491482
 20
1.89464
 10
0.514703
 20
1.89464
  0
LWPOLYLINE
  5
5A
100
AcDbEntity
  8
0
  6
ByLayer
 62
    0
370
   -1
100
AcDbPolyline
 90
   36
 70
    1
 43
0
 10
0.5025500000000001
 20
1.76714
 10
0.4819329999999999
 20
1.76714
 10
0.4202469999999999
 20
1.75657
 10
0.345594
 20
1.72651
 10
0.281467
 20
1.67979
 10
0.241428
 20
1.63558
 10
0.230849
 20
1.61903
 10
0.739529
 20
1.61903
 10
0.755751
 20
1.62771
 10
0.84375
 20
1.65956
 10
0.934571
 20
1.6754
 10
0.952311
 20
1.67606
 10
0.95421
 20
1.67617
 10
0.972928
 20
1.67611
 10
0.974772
 20
1.67606
 10
0.976617
 20
1.67611
 10
0.995335
 20
1.67589
 10
0.997233
 20
1.67578
 10
0.997233
 20
1.67578
 10
0.997342
 20
1.67578
 10
0.997342
 20
1.67578
 10
0.999186
 20
1.67572
 10
1.01818
 20
1.67458
 10
1.02007
 20
1.67438
 10
1.03608
 20
1.67301
 10
1.11702
 20
1.65625
 10
1.19488
 20
1.62674
 10
1.20936
 20
1.61903
 10
1.71843
 20
1.61903
 10
1.70762
 20
1.63553
 10
1.66738
 20
1.67979
 10
1.60325
 20
1.72651
 10
1.52869
 20
1.75657
 10
1.46707
 20
1.76714
 10
1.44656
 20
1.76714
 10
0.5025500000000001
 20
1.76714
  0
LWPOLYLINE
  5
5B
100
AcDbEntity
  8
0
  6
ByLayer
 62
    0
370
   -1
100
AcDbPolyline
 90
   39
 70
    1
 43
0
 10
0.194119
 20
1.54124
 10
0.191732
 20
1.53353
 10
0.17909
 20
1.4669
 10
0.17909
 20
1.44467
 10
0.17909
 20
0.5025500000000001
 10
0.17909
 20
0.471138
 10
0.204536
 20
0.376899
 10
0.2739809999999999
 20
0.274035
 10
0.376844
 20
0.20459
 10
0.4710829999999999
 20
0.17909
 10
0.5025500000000001
 20
0.17909
 10
1.44656
 20
0.17909
 10
1.47797
 20
0.17909
 10
1.57221
 20
0.20459
 10
1.67503
 20
0.274035
 10
1.74447
 20
0.376899
 10
1.76997
 20
0.471138
 10
1.76997
 20
0.5025500000000001
 10
1.76997
 20
1.44467
 10
1.76997
 20
1.46881
 10
1.75754
 20
1.53364
 10
1.75521
 20
1.54112
 10
1.69683
 20
1.54112
 10
1.52175
 20
1.54112
 10
1.36296
 20
1.54112
 10
1.31006
 20
1.54112
 10
1.31006
 20
0.925076
 10
0.638997
 20
0.925076
 10
0.639486
 20
1.29943
 10
0.638997
 20
1.54112
 10
0.638997
 20
1.54112
 10
0.639051
 20
1.54118
 10
0.639051
 20
1.54118
 10
0.612793
 20
1.54118
 10
0.534071
 20
1.54124
 10
0.431967
 20
1.54124
 10
0.322157
 20
1.54124
 10
0.226129
 20
1.54124
 10
0.194119
 20
1.54124
  0
LWPOLYLINE
  5
5C
100
AcDbEntity
  8
0
  6
ByLayer
 62
    0
370
   -1
100
AcDbPolyline
 90
   14
 70
    1
 43
0
 10
1.31673
 20
1.49571
 10
1.32335
 20
1.49507
 10
1.34283
 20
1.48872
 10
1.36713
 20
1.47439
 10
1.38917
 20
1.45454
 10
1.40831
 20
1.43072
 10
1.4241
 20
1.40474
 10
1.43604
 20
1.37826
 10
1.44358
 20
1.35292
 10
1.44624
 20
1.33615
 10
1.44624
 20
1.33051
 10
1.44624
 20
1.13081
 10
1.31673
 20
1.13081
 10
1.31673
 20
1.49571
  0
LWPOLYLINE
  5
5D
100
AcDbEntity
  8
0
  6
ByLayer
 62
    0
370
   -1
100
AcDbPolyline
 90
   14
 70
    1
 43
0
 10
0.632161
 20
1.49544
 10
0.632161
 20
1.13081
 10
0.503851
 20
1.13081
 10
0.503851
 20
1.33138
 10
0.503851
 20
1.33702
 10
0.506401
 20
1.35379
 10
0.513781
 20
1.37896
 10
0.525553
 20
1.40528
 10
0.541124
 20
1.43104
 10
0.5600579999999999
 20
1.45464
 10
0.5818680000000001
 20
1.47433
 10
0.606065
 20
1.4885
 10
0.625489
 20
1.49479
 10
0.632161
 20
1.49544
  0
LWPOLYLINE
  5
5E
100
AcDbEntity
  8
0
  6
ByLayer
 62
    0
370
   -1
100
AcDbPolyline
 90
   60
 70
    1
 43
0
 10
0.638997
 20
0.918946
 10
1.31006
 20
0.918946
 10
1.31006
 20
0.783365
 10
1.31006
 20
0.778592
 10
1.30246
 20
0.7642679999999999
 10
1.28749
 20
0.754883
 10
1.2838
 20
0.754178
 10
1.28326
 20
0.754124
 10
1.27778
 20
0.7536350000000001
 10
1.27723
 20
0.7535809999999999
 10
1.14464
 20
0.7535809999999999
 10
1.14464
 20
0.697592
 10
1.26307
 20
0.64285
 10
1.26307
 20
0.539225
 10
1.301
 20
0.5393869999999999
 10
1.301
 20
0.395833
 10
1.26302
 20
0.395833
 10
1.26302
 20
0.395942
 10
1.18842
 20
0.395833
 10
1.18842
 20
0.539225
 10
1.22526
 20
0.539225
 10
1.22526
 20
0.633626
 10
1.10688
 20
0.687229
 10
1.10682
 20
0.7535809999999999
 10
1.03125
 20
0.7535809999999999
 10
1.03125
 20
0.395833
 10
0.974556
 20
0.299914
 10
0.974556
 20
0.300022
 10
0.915853
 20
0.395833
 10
0.915853
 20
0.7536350000000001
 10
0.815593
 20
0.7536350000000001
 10
0.81581
 20
0.696724
 10
0.76671
 20
0.677083
 10
0.76671
 20
0.490994
 10
0.7268869999999999
 20
0.490994
 10
0.7268869999999999
 20
0.313368
 10
0.7268869999999999
 20
0.311361
 10
0.723144
 20
0.305285
 10
0.71696
 20
0.302083
 10
0.7149529999999999
 20
0.302083
 10
0.713921
 20
0.302083
 10
0.713921
 20
0.302083
 10
0.713867
 20
0.302083
 10
0.713867
 20
0.302083
 10
0.691949
 20
0.302083
 10
0.689779
 20
0.302083
 10
0.683376
 20
0.30561
 10
0.6800119999999999
 20
0.311415
 10
0.6800119999999999
 20
0.313314
 10
0.6800119999999999
 20
0.490994
 10
0.642199
 20
0.490994
 10
0.642199
 20
0.678928
 10
0.703939
 20
0.704264
 10
0.703939
 20
0.7536350000000001
 10
0.671442
 20
0.7536350000000001
 10
0.66569
 20
0.7536350000000001
 10
0.648492
 20
0.762912
 10
0.638997
 20
0.779406
 10
0.638997
 20
0.7848850000000001
 10
0.638997
 20
0.918946
  0
LWPOLYLINE
  5
5F
100
AcDbEntity
  8
0
  6
ByLayer
 62
    0
370
   -1
100
AcDbPolyline
 90
    5
 70
    1
 43
0
 10
1.18886
 20
0.388238
 10
1.30143
 20
0.388238
 10
1.30143
 20
0.337836
 10
1.18886
 20
0.337836
 10
1.18886
 20
0.388238
  0
LWPOLYLINE
  5
60
100
AcDbEntity
  8
0
  6
ByLayer
 62
    0
370
   -1
100
AcDbPolyline
 90
    6
 70
    1
 43
0
 10
1.19265
 20
0.326118
 10
1.29763
 20
0.326118
 10
1.28895
 20
0.319119
 10
1.24512
 20
0.305067
 10
1.20128
 20
0.319119
 10
1.19265
 20
0.326118
  0
ENDBLK
  5
58
330
56
100
AcDbEntity
  8
0
100
AcDbBlockEnd
  0
ENDSEC
  0
SECTION
  2
ENTITIES
  0
LWPOLYLINE
  5
61
100
AcDbEntity
  8
Outline
  6
ByLayer
 62
   33
370
   -1
100
AcDbPolyline
 90
   45
 70
    1
 43
0
 10
1.8440267
 20
0.4621846999999999
 10
1.8440267
 20
1.3799267
 10
1.8440267
 20
1.4031567
 10
1.8345867
 20
1.4727667
 10
1.8075167
 20
1.5593467
 10
1.7647667
 20
1.6378567
 10
1.7081667
 20
1.7063167
 10
1.6397067
 20
1.7629167
 10
1.5611967
 20
1.8056667
 10
1.4746067
 20
1.8327367
 10
1.4049967
 20
1.8421267
 10
1.3818367
 20
1.8421267
 10
0.4621846999999999
 20
1.8421267
 10
0.4389657
 20
1.8421267
 10
0.3693587
 20
1.8327367
 10
0.2827697
 20
1.8056667
 10
0.2042637
 20
1.7629167
 10
0.1357957
 20
1.7063167
 10
0.07920969999999998
 20
1.6378567
 10
0.03645839999999999
 20
1.5593467
 10
0.009385899999999989
 20
1.4727667
 10
-1.387778780781446e-17
 20
1.4031567
 10
-1.387778780781446e-17
 20
1.3799267
 10
-1.387778780781446e-17
 20
0.4621846999999999
 10
-1.387778780781446e-17
 20
0.4390197
 10
0.009385899999999989
 20
0.3694127
 10
0.03645839999999999
 20
0.2828237
 10
0.07920969999999998
 20
0.2043177
 10
0.1357957
 20
0.1358517
 10
0.2042637
 20
0.07926469999999999
 10
0.2827697
 20
0.0365127
 10
0.3693587
 20
0.009440200000000003
 10
0.4389657
 20
0
 10
0.4621846999999999
 20
0
 10
1.3818367
 20
0
 10
1.4049967
 20
0
 10
1.4746067
 20
0.009440200000000003
 10
1.5611967
 20
0.0365127
 10
1.6397067
 20
0.07926469999999999
 10
1.7081667
 20
0.1358517
 10
1.7647667
 20
0.2043177
 10
1.8075167
 20
0.2828237
 10
1.8345867
 20
0.3694127
 10
1.8440267
 20
0.4390197
 10
1.8440267
 20
0.4621846999999999
  0
LWPOLYLINE
  5
62
100
AcDbEntity
  8
Eyes
  6
ByLayer
 62
    7
370
   -1
100
AcDbPolyline
 90
   25
 70
    1
 43
0
 10
0.7138127
 20
1.1124167
 10
0.7025817
 20
1.1124167
 10
0.6689997
 20
1.1034567
 10
0.6325957
 20
1.0789967
 10
0.6081276999999999
 20
1.0425867
 10
0.5992297
 20
1.0090567
 10
0.5992297
 20
0.9978266999999998
 10
0.5992297
 20
0.9866566999999999
 10
0.6081276999999999
 20
0.9531266999999999
 10
0.6325957
 20
0.9167206999999999
 10
0.6689997
 20
0.8922527
 10
0.7025817
 20
0.8832477000000001
 10
0.7138127
 20
0.8832477000000001
 10
0.7249886999999999
 20
0.8832477000000001
 10
0.7585177
 20
0.8922527
 10
0.7949227
 20
0.9167206999999999
 10
0.8193906999999999
 20
0.9531266999999999
 10
0.8283957
 20
0.9866566999999999
 10
0.8283957
 20
0.9978266999999998
 10
0.8283957
 20
1.0090567
 10
0.8193906999999999
 20
1.0425867
 10
0.7949227
 20
1.0789967
 10
0.7585177
 20
1.1034567
 10
0.7249886999999999
 20
1.1124167
 10
0.7138127
 20
1.1124167
  0
LWPOLYLINE
  5
63
100
AcDbEntity
  8
Eyes
  6
ByLayer
 62
    7
370
   -1
100
AcDbPolyline
 90
   25
 70
    1
 43
0
 10
1.1331367
 20
1.1146867
 10
1.1219067
 20
1.1146867
 10
1.0883767
 20
1.1057967
 10
1.0519767
 20
1.0813267
 10
1.0275067
 20
1.0449267
 10
1.0185567
 20
1.0113367
 10
1.0185567
 20
1.0001067
 10
1.0185567
 20
0.9889367
 10
1.0275067
 20
0.9554066999999999
 10
1.0519767
 20
0.9189997000000001
 10
1.0883767
 20
0.8945316999999999
 10
1.1219067
 20
0.8855246999999999
 10
1.1331367
 20
0.8855246999999999
 10
1.1443167
 20
0.8855246999999999
 10
1.1778467
 20
0.8945316999999999
 10
1.2142467
 20
0.9189997000000001
 10
1.2387167
 20
0.9554066999999999
 10
1.2477167
 20
0.9889367
 10
1.2477167
 20
1.0001067
 10
1.2477167
 20
1.0113367
 10
1.2387167
 20
1.0449267
 10
1.2142467
 20
1.0813267
 10
1.1778467
 20
1.1057967
 10
1.1443167
 20
1.1146867
 10
1.1331367
 20
1.1146867
  0
LWPOLYLINE
  5
64
100
AcDbEntity
  8
Shadow
  6
ByLayer
 62
   23
370
   -1
100
AcDbPolyline
 90
   15
 70
    1
 43
0
 10
0.9786766999999998
 20
0.3432607
 10
0.9786766999999998
 20
0.7010637
 10
1.2247167
 20
0.7010637
 10
1.2304667
 20
0.7010637
 10
1.2478267
 20
0.7096357
 10
1.2575367
 20
0.7255857000000001
 10
1.2575367
 20
0.7308486999999999
 10
1.2575367
 20
0.8663737
 10
1.2169567
 20
0.8663737
 10
1.0953267
 20
0.8662107000000001
 10
0.9654966999999999
 20
0.8660486999999999
 10
0.9222537
 20
0.8660486999999999
 10
0.9222537
 20
0.7010637
 10
0.9219837
 20
0.2473417
 10
0.9786766999999998
 20
0.3432607
  0
LWPOLYLINE
  5
65
100
AcDbEntity
  8
Shadow
  6
ByLayer
 62
   23
370
   -1
100
AcDbPolyline
 90
   21
 70
    1
 43
0
 10
0.9223636999999999
 20
1.6234867
 10
0.9223636999999999
 20
1.6129067
 10
0.9223096999999999
 20
1.5811667
 10
0.9223096999999999
 20
1.4913767
 10
0.9223096999999999
 20
1.3704967
 10
0.9223096999999999
 20
1.2348667
 10
0.9223096999999999
 20
1.1009667
 10
0.9223096999999999
 20
0.9850266999999999
 10
0.9223096999999999
 20
0.9034837
 10
0.9223096999999999
 20
0.8726126999999999
 10
0.9223096999999999
 20
0.8726126999999999
 10
1.0060767
 20
0.8726126999999999
 10
1.1946567
 20
0.8725586999999999
 10
1.2575367
 20
0.8725586999999999
 10
1.2575367
 20
1.4885567
 10
1.2431067
 20
1.5053767
 10
1.1898867
 20
1.5470967
 10
1.1059567
 20
1.5897867
 10
1.0139967
 20
1.6156067
 10
0.9452046999999999
 20
1.6238567
 10
0.9223636999999999
 20
1.6234867
  0
LWPOLYLINE
  5
66
100
AcDbEntity
  8
Shadow
  6
ByLayer
 62
   23
370
   -1
100
AcDbPolyline
 90
   11
 70
    1
 43
0
 10
0.7141386999999999
 20
0.6245107000000001
 10
0.6514766999999999
 20
0.6038957
 10
0.6514766999999999
 20
0.2495667
 10
0.6624346999999999
 20
0.2495667
 10
0.6644416999999999
 20
0.2495667
 10
0.6706276999999999
 20
0.2527667
 10
0.6743707
 20
0.2587887
 10
0.6743707
 20
0.2607957
 10
0.6743707
 20
0.4384767
 10
0.7141386999999999
 20
0.4384767
 10
0.7141386999999999
 20
0.6245107000000001
  0
LWPOLYLINE
  5
67
100
AcDbEntity
  8
Shadow
  6
ByLayer
 62
   23
370
   -1
100
AcDbPolyline
 90
    5
 70
    1
 43
0
 10
1.2104467
 20
0.3333877
 10
1.2484267
 20
0.3333877
 10
1.2484267
 20
0.2829857
 10
1.2104467
 20
0.2829857
 10
1.2104467
 20
0.3333877
  0
LWPOLYLINE
  5
68
100
AcDbEntity
  8
Shadow
  6
ByLayer
 62
   23
370
   -1
100
AcDbPolyline
 90
    5
 70
    1
 43
0
 10
1.2484267
 20
0.4868707
 10
1.2105067
 20
0.4867087
 10
1.2104467
 20
0.3432607
 10
1.2484267
 20
0.3432607
 10
1.2484267
 20
0.4868707
  0
LWPOLYLINE
  5
69
100
AcDbEntity
  8
Shadow
  6
ByLayer
 62
   23
370
   -1
100
AcDbPolyline
 90
   14
 70
    1
 43
0
 10
1.2642167
 20
1.4431967
 10
1.2642167
 20
1.0782867
 10
1.3937267
 20
1.0782867
 10
1.3937267
 20
1.2779367
 10
1.3937267
 20
1.2835867
 10
1.3910567
 20
1.3003467
 10
1.3835167
 20
1.3256867
 10
1.3715867
 20
1.3521567
 10
1.3557867
 20
1.3781567
 10
1.3366467
 20
1.4019567
 10
1.3146167
 20
1.4218767
 10
1.2903067
 20
1.4361967
 10
1.2708367
 20
1.4425367
 10
1.2642167
 20
1.4431967
  0
LWPOLYLINE
  5
6A
100
AcDbEntity
  8
Tools
  6
ByLayer
 62
   40
370
   -1
100
AcDbPolyline
 90
   63
 70
    1
 43
0
 10
1.2575367
 20
0.8663737
 10
0.5864267
 20
0.8663737
 10
0.5864267
 20
0.8490667000000001
 10
0.5864267
 20
0.7970377
 10
0.5864267
 20
0.7485347
 10
0.5864267
 20
0.7323137
 10
0.5864267
 20
0.7268337
 10
0.5959207
 20
0.7103946999999999
 10
0.6131177
 20
0.7010637
 10
0.6188697
 20
0.7010637
 10
0.6513667
 20
0.7010637
 10
0.6513667
 20
0.6516926999999999
 10
0.5896806999999999
 20
0.6264107000000001
 10
0.5896806999999999
 20
0.4384767
 10
0.6274957
 20
0.4384767
 10
0.6274957
 20
0.2607957
 10
0.6274957
 20
0.2588977
 10
0.6308056999999999
 20
0.2530387
 10
0.6372606999999999
 20
0.2495107
 10
0.6394316999999999
 20
0.2495107
 10
0.6612956999999999
 20
0.2495107
 10
0.6633026999999999
 20
0.2495107
 10
0.6694876999999999
 20
0.2527127
 10
0.6732317
 20
0.2587887
 10
0.6732317
 20
0.2607957
 10
0.6743707
 20
0.4384767
 10
0.7141386999999999
 20
0.4384767
 10
0.7141386999999999
 20
0.6245107000000001
 10
0.7632916999999999
 20
0.6442057000000001
 10
0.7630207
 20
0.7010637
 10
0.8632816999999999
 20
0.7010637
 10
0.8632816999999999
 20
0.6806637
 10
0.8632816999999999
 20
0.6193587
 10
0.8632816999999999
 20
0.5200737
 10
0.8632816999999999
 20
0.4218747
 10
0.8632816999999999
 20
0.3629557
 10
0.8632816999999999
 20
0.3432607
 10
0.9219837
 20
0.2474497
 10
0.9786766999999998
 20
0.3432607
 10
0.9786766999999998
 20
0.7010637
 10
1.0543067
 20
0.7010637
 10
1.0543067
 20
0.6347107000000001
 10
1.1726867
 20
0.5811086999999999
 10
1.1726867
 20
0.4867087
 10
1.1359067
 20
0.4867087
 10
1.1359067
 20
0.3432607
 10
1.2484267
 20
0.3434787
 10
1.2484267
 20
0.4868707
 10
1.2105067
 20
0.4867087
 10
1.2105067
 20
0.5902776999999999
 10
1.0921267
 20
0.6450737
 10
1.0921267
 20
0.7010637
 10
1.2246667
 20
0.7010637
 10
1.2304167
 20
0.7010637
 10
1.2477767
 20
0.7097446999999999
 10
1.2574867
 20
0.7256947
 10
1.2574867
 20
0.7310106999999999
 10
1.2574867
 20
0.7356227
 10
1.2574867
 20
0.7492947000000001
 10
1.2574867
 20
0.7840707
 10
1.2574867
 20
0.8262267000000001
 10
1.2575367
 20
0.8563377000000001
 10
1.2575367
 20
0.8663737
  0
LWPOLYLINE
  5
6B
100
AcDbEntity
  8
Tools
  6
ByLayer
 62
   40
370
   -1
100
AcDbPolyline
 90
    5
 70
    1
 43
0
 10
1.1359067
 20
0.3333877
 10
1.2484267
 20
0.3333877
 10
1.2484267
 20
0.2829857
 10
1.1359067
 20
0.2829857
 10
1.1359067
 20
0.3333877
  0
LWPOLYLINE
  5
6C
100
AcDbEntity
  8
Head
  6
ByLayer
 62
   40
370
   -1
100
AcDbPolyline
 90
   21
 70
    1
 43
0
 10
0.8997946999999999
 20
1.6235367
 10
0.8779836999999999
 20
1.6227767
 10
0.8129886999999999
 20
1.6123067
 10
0.7271597
 20
1.5854467
 10
0.6493597
 20
1.5439467
 10
0.5999346999999999
 20
1.5043467
 10
0.5864267
 20
1.4885567
 10
0.5869677
 20
1.2469067
 10
0.5864267
 20
0.8725586999999999
 10
1.2575367
 20
0.8725586999999999
 10
1.2575367
 20
1.2469067
 10
1.2571567
 20
1.4879567
 10
1.2427267
 20
1.5047767
 10
1.1895567
 20
1.5465967
 10
1.1057367
 20
1.5895167
 10
1.0138867
 20
1.6155567
 10
0.9450957
 20
1.6239167
 10
0.9222537
 20
1.6235367
 10
0.9204097
 20
1.6235867
 10
0.9016386999999999
 20
1.6236367
 10
0.8997946999999999
 20
1.6235367
  0
LWPOLYLINE
  5
6D
100
AcDbEntity
  8
Ears
  6
ByLayer
 62
   40
370
   -1
100
AcDbPolyline
 90
   14
 70
    1
 43
0
 10
1.2642667
 20
1.4429267
 10
1.2642667
 20
1.0792067
 10
1.3925867
 20
1.0792067
 10
1.3925867
 20
1.2788667
 10
1.3925867
 20
1.2844467
 10
1.3899767
 20
1.3012167
 10
1.3825967
 20
1.3263867
 10
1.3708167
 20
1.3527067
 10
1.3552467
 20
1.3784767
 10
1.3363167
 20
1.4020667
 10
1.3145067
 20
1.4218167
 10
1.2903067
 20
1.4359867
 10
1.2708867
 20
1.4422767
 10
1.2642667
 20
1.4429267
  0
LWPOLYLINE
  5
6E
100
AcDbEntity
  8
Ears
  6
ByLayer
 62
   40
370
   -1
100
AcDbPolyline
 90
   14
 70
    1
 43
0
 10
0.4512807
 20
1.0782867
 10
0.5796446999999999
 20
1.0782867
 10
0.5796446999999999
 20
1.4429267
 10
0.5729706999999999
 20
1.4422767
 10
0.5535486999999999
 20
1.4359867
 10
0.5293517
 20
1.4218167
 10
0.5075417
 20
1.4020667
 10
0.4886067
 20
1.3784767
 10
0.4729817
 20
1.3527067
 10
0.4612627
 20
1.3263867
 10
0.4538307
 20
1.3012167
 10
0.4512807
 20
1.2844467
 10
0.4512807
 20
1.2788667
 10
0.4512807
 20
1.0782867
  0
LWPOLYLINE
  5
6F
100
AcDbEntity
  8
Pupils
  6
ByLayer
 62
    0
370
   -1
100
AcDbPolyline
 90
   25
 70
    1
 43
0
 10
0.6586377
 20
0.9969667
 10
0.6586377
 20
0.9916467
 10
0.6629236999999999
 20
0.9756366999999999
 10
0.6746416999999999
 20
0.9583866999999999
 10
0.6918947
 20
0.9468856999999999
 10
0.7076817
 20
0.9426547000000001
 10
0.7129447
 20
0.9426547000000001
 10
0.7182607
 20
0.9426547000000001
 10
0.7342666999999999
 20
0.9469947000000001
 10
0.7515196999999999
 20
0.9587166999999999
 10
0.7630207
 20
0.9759666999999999
 10
0.7672526999999999
 20
0.9917567
 10
0.7672526999999999
 20
0.9969667
 10
0.7672526999999999
 20
1.0023367
 10
0.7629127
 20
1.0183967
 10
0.7511926999999999
 20
1.0356467
 10
0.7339416999999999
 20
1.0471467
 10
0.7181527
 20
1.0513267
 10
0.7129447
 20
1.0513267
 10
0.7075737
 20
1.0513267
 10
0.6915697
 20
1.0470367
 10
0.6743167
 20
1.0353167
 10
0.6628156999999999
 20
1.0180167
 10
0.6586377
 20
1.0022267
 10
0.6586377
 20
0.9969667
  0
LWPOLYLINE
  5
70
100
AcDbEntity
  8
Pupils
  6
ByLayer
 62
    0
370
   -1
100
AcDbPolyline
 90
   25
 70
    1
 43
0
 10
1.0779667
 20
0.9992966999999999
 10
1.0779667
 20
0.9939766999999999
 10
1.0822467
 20
0.9779167
 10
1.0939667
 20
0.9606667
 10
1.1112167
 20
0.9491666999999999
 10
1.1270067
 20
0.9449337
 10
1.1322667
 20
0.9449337
 10
1.1375867
 20
0.9449337
 10
1.1536467
 20
0.9492767
 10
1.1708967
 20
0.9609866999999999
 10
1.1823967
 20
0.9782967
 10
1.1866367
 20
0.9940867
 10
1.1866367
 20
0.9992966999999999
 10
1.1866367
 20
1.0046667
 10
1.1822967
 20
1.0206667
 10
1.1705767
 20
1.0379267
 10
1.1532667
 20
1.0494267
 10
1.1374767
 20
1.0536067
 10
1.1322667
 20
1.0536067
 10
1.1268967
 20
1.0536067
 10
1.1108967
 20
1.0493167
 10
1.0936467
 20
1.0375967
 10
1.0821367
 20
1.0203467
 10
1.0779667
 20
1.0045567
 10
1.0779667
 20
0.9992966999999999
  0
LWPOLYLINE
  5
71
100
AcDbEntity
  8
Twinkle
  6
ByLayer
 62
    0
370
   -1
100
AcDbPolyline
 90
   13
 70
    1
 43
0
 10
0.7129447
 20
1.0275567
 10
0.7079536999999999
 20
1.0275567
 10
0.6931427
 20
1.0200767
 10
0.6832136999999999
 20
1.0053167
 10
0.6832136999999999
 20
1.0003767
 10
0.6756177
 20
1.0003767
 10
0.6756177
 20
1.0064567
 10
0.6872836999999999
 20
1.0246867
 10
0.7064887
 20
1.0343467
 10
0.7129447
 20
1.0343467
 10
0.7129447
 20
1.0326567
 10
0.7129447
 20
1.0288667
 10
0.7129447
 20
1.0275567
  0
LWPOLYLINE
  5
72
100
AcDbEntity
  8
Twinkle
  6
ByLayer
 62
    0
370
   -1
100
AcDbPolyline
 90
   13
 70
    1
 43
0
 10
0.7129447
 20
1.0385767
 10
0.7058376999999999
 20
1.0385767
 10
0.6846796999999999
 20
1.0277767
 10
0.6721997
 20
1.0072667
 10
0.6721997
 20
1.0003767
 10
0.6620016999999999
 20
1.0003767
 10
0.6620016999999999
 20
1.0050967
 10
0.6661237
 20
1.0190967
 10
0.6772996999999999
 20
1.0345067
 10
0.6935226999999999
 20
1.0449767
 10
0.7080626999999999
 20
1.0487767
 10
0.7129447
 20
1.0487767
 10
0.7129447
 20
1.0385767
  0
LWPOLYLINE
  5
73
100
AcDbEntity
  8
Twinkle
  6
ByLayer
 62
    0
370
   -1
100
AcDbPolyline
 90
   13
 70
    1
 43
0
 10
1.1322667
 20
1.0298367
 10
1.1273367
 20
1.0298367
 10
1.1125267
 20
1.0223567
 10
1.1025967
 20
1.0075967
 10
1.1025967
 20
1.0026567
 10
1.0949467
 20
1.0026567
 10
1.0949467
 20
1.0087367
 10
1.1066067
 20
1.0269667
 10
1.1258167
 20
1.0366167
 10
1.1322667
 20
1.0366167
 10
1.1322667
 20
1.0349367
 10
1.1322667
 20
1.0311467
 10
1.1322667
 20
1.0298367
  0
LWPOLYLINE
  5
74
100
AcDbEntity
  8
Twinkle
  6
ByLayer
 62
    0
370
   -1
100
AcDbPolyline
 90
   13
 70
    1
 43
0
 10
1.1322667
 20
1.0408567
 10
1.1251667
 20
1.0408567
 10
1.1040067
 20
1.0300567
 10
1.0915267
 20
1.0095467
 10
1.0915267
 20
1.0026567
 10
1.0813767
 20
1.0026567
 10
1.0813767
 20
1.0073767
 10
1.0855067
 20
1.0213767
 10
1.0966267
 20
1.0367867
 10
1.1128467
 20
1.0472567
 10
1.1273867
 20
1.0510567
 10
1.1322667
 20
1.0510567
 10
1.1322667
 20
1.0408567
  0
LWPOLYLINE
  5
75
100
AcDbEntity
  8
Inside
  6
ByLayer
 62
  256
370
   -1
100
AcDbPolyline
 90
   36
 70
    1
 43
0
 10
0.4499783
 20
1.7146226
 10
0.4293612999999999
 20
1.7146226
 10
0.3676752999999999
 20
1.7040526
 10
0.2930222999999999
 20
1.6739926
 10
0.2288953
 20
1.6272726
 10
0.1888563
 20
1.5830626
 10
0.1782773
 20
1.5665126
 10
0.6869573
 20
1.5665126
 10
0.7031793
 20
1.5751926
 10
0.7911783
 20
1.6070426
 10
0.8819993
 20
1.6228826
 10
0.8997393
 20
1.6235426
 10
0.9016383
 20
1.6236526
 10
0.9203563
 20
1.6235926
 10
0.9222003
 20
1.6235426
 10
0.9240453
 20
1.6235926
 10
0.9427633
 20
1.6233726
 10
0.9446613
 20
1.6232626
 10
0.9446613
 20
1.6232626
 10
0.9447703
 20
1.6232626
 10
0.9447703
 20
1.6232626
 10
0.9466143
 20
1.6232026
 10
0.9656083000000002
 20
1.6220626
 10
0.9674983000000001
 20
1.6218626
 10
0.9835083
 20
1.6204926
 10
1.0644483
 20
1.6037326
 10
1.1423083
 20
1.5742226
 10
1.1567883
 20
1.5665126
 10
1.6658583
 20
1.5665126
 10
1.6550483
 20
1.5830126
 10
1.6148083
 20
1.6272726
 10
1.5506783
 20
1.6739926
 10
1.4761183
 20
1.7040526
 10
1.4144983
 20
1.7146226
 10
1.3939883
 20
1.7146226
 10
0.4499783
 20
1.7146226
  0
LWPOLYLINE
  5
76
100
AcDbEntity
  8
Inside
  6
ByLayer
 62
  256
370
   -1
100
AcDbPolyline
 90
   39
 70
    1
 43
0
 10
0.1415473
 20
1.4887226
 10
0.1391603
 20
1.4810126
 10
0.1265183
 20
1.4143826
 10
0.1265183
 20
1.3921526
 10
0.1265183
 20
0.4500326000000001
 10
0.1265183
 20
0.4186206
 10
0.1519643
 20
0.3243816
 10
0.2214092999999999
 20
0.2215176
 10
0.3242722999999999
 20
0.1520726
 10
0.4185112999999999
 20
0.1265726
 10
0.4499783
 20
0.1265726
 10
1.3939883
 20
0.1265726
 10
1.4253983
 20
0.1265726
 10
1.5196383
 20
0.1520726
 10
1.6224583
 20
0.2215176
 10
1.6918983
 20
0.3243816
 10
1.7173983
 20
0.4186206
 10
1.7173983
 20
0.4500326000000001
 10
1.7173983
 20
1.3921526
 10
1.7173983
 20
1.4162926
 10
1.7049683
 20
1.4811226
 10
1.7026383
 20
1.4886026
 10
1.6442583
 20
1.4886026
 10
1.4691783
 20
1.4886026
 10
1.3103883
 20
1.4886026
 10
1.2574883
 20
1.4886026
 10
1.2574883
 20
0.8725586
 10
0.5864253
 20
0.8725586
 10
0.5869143
 20
1.2469126
 10
0.5864253
 20
1.4886026
 10
0.5864253
 20
1.4886026
 10
0.5864793
 20
1.4886626
 10
0.5864793
 20
1.4886626
 10
0.5602213
 20
1.4886626
 10
0.4814992999999999
 20
1.4887226
 10
0.3793952999999999
 20
1.4887226
 10
0.2695853
 20
1.4887226
 10
0.1735573
 20
1.4887226
 10
0.1415473
 20
1.4887226
  0
ARC
  5
77
100
AcDbEntity
  8
Tools
  6
ByLayer
 62
  256
370
   -1
100
AcDbCircle
 10
1.1925483
 20
0.3262748
 40
0.07372519999999999
100
AcDbArc
 50
225.1576147176467
 51
314.8423852823461
  0
LINE
  5
78
100
AcDbEntity
  8
Tools
  6
ByLayer
 62
  256
370
   -1
100
AcDbLine
 10
1.244536283226886
 20
0.2740000000000001
 11
1.1405603167731
 21
0.2739999999999999
  0
ENDSEC
  0
SECTION
  2
OBJECTS
  0
DICTIONARY
  5
C
330
0
100
AcDbDictionary
281
    1
  3
ACAD_GROUP
350
D
  0
DICTIONARY
  5
D
330
C
100
AcDbDictionary
281
    1
  0
ENDSEC
  0
EOF
