<?xml version="1.0" encoding="UTF-8" standalone="no"?>
<svg viewBox="0 0 812 644"
 xmlns="http://www.w3.org/2000/svg" xmlns:xlink="http://www.w3.org/1999/xlink"  version="1.2" baseProfile="tiny">
<title>Qt Svg Document</title>
<desc>Generated with Qt</desc>
<defs>
</defs>
<g fill="none" stroke="black" stroke-width="1" fill-rule="evenodd" stroke-linecap="square" stroke-linejoin="bevel" >

<g fill="none" stroke="#000000" stroke-opacity="1" stroke-width="1" stroke-linecap="square" stroke-linejoin="bevel" transform="matrix(1,0,0,1,0,0)"
font-family="Arial" font-size="20" font-weight="400" font-style="normal" 
>
<text fill="#000000" fill-opacity="1" stroke="none" xml:space="preserve" x="97" y="532" font-family="Arial" font-size="20" font-weight="400" font-style="normal" 
 >B</text>
</g>

<g fill="none" stroke="#000000" stroke-opacity="1" stroke-width="1" stroke-linecap="square" stroke-linejoin="bevel" transform="matrix(1,0,0,1,0,0)"
font-family="Arial" font-size="20" font-weight="400" font-style="normal" 
>
<text fill="#000000" fill-opacity="1" stroke="none" xml:space="preserve" x="716" y="219" font-family="Arial" font-size="20" font-weight="400" font-style="normal" 
 >A</text>
</g>

<g fill="none" stroke="#000000" stroke-opacity="1" stroke-width="1" stroke-linecap="square" stroke-linejoin="bevel" transform="matrix(1,0,0,1,0,0)"
font-family="Arial" font-size="20" font-weight="400" font-style="normal" 
>
<text fill="#000000" fill-opacity="1" stroke="none" xml:space="preserve" x="373" y="390" font-family="Arial" font-size="20" font-weight="400" font-style="normal" 
 >Q</text>
</g>

<g fill="none" stroke="#000000" stroke-opacity="1" stroke-width="1" stroke-linecap="square" stroke-linejoin="bevel" transform="matrix(1,0,0,1,0,0)"
font-family="Arial" font-size="20" font-weight="400" font-style="normal" 
>
<text fill="#000000" fill-opacity="1" stroke="none" xml:space="preserve" x="295" y="277" font-family="Arial" font-size="20" font-weight="400" font-style="normal" 
 >P</text>
</g>

<g fill="none" stroke="#000000" stroke-opacity="1" stroke-width="1" stroke-linecap="square" stroke-linejoin="bevel" transform="matrix(1,0,0,1,0,0)"
font-family="Arial" font-size="20" font-weight="400" font-style="normal" 
>
<text fill="#000000" fill-opacity="1" stroke="none" xml:space="preserve" x="380" y="277" font-family="Arial" font-size="20" font-weight="400" font-style="normal" 
 >E</text>
</g>

<g fill="#000000" fill-opacity="1" stroke="none" transform="matrix(0.125,0,0,0.125,0,0)"
font-family="Arial" font-size="20" font-weight="400" font-style="normal" 
>
<path vector-effect="non-scaling-stroke" fill-rule="evenodd" d="M764,4053 C764,4070.67 749.673,4085 732,4085 C714.327,4085 700,4070.67 700,4053 C700,4035.33 714.327,4021 732,4021 C749.673,4021 764,4035.33 764,4053 "/>
</g>

<g fill="#000000" fill-opacity="1" stroke="none" transform="matrix(0.125,0,0,0.125,0,0)"
font-family="Arial" font-size="20" font-weight="400" font-style="normal" 
>
<path vector-effect="non-scaling-stroke" fill-rule="evenodd" d="M5704,1552 C5704,1569.67 5689.67,1584 5672,1584 C5654.33,1584 5640,1569.67 5640,1552 C5640,1534.33 5654.33,1520 5672,1520 C5689.67,1520 5704,1534.33 5704,1552 "/>
</g>

<g fill="#000000" fill-opacity="1" stroke="#000000" stroke-opacity="1" stroke-width="2" stroke-linecap="square" stroke-linejoin="bevel" transform="matrix(0.125,0,0,0.125,0,0)"
font-family="Arial" font-size="20" font-weight="400" font-style="normal" 
>
<polyline fill="none" vector-effect="none" points="732,4053 5672,1552 " />
</g>

<g fill="#000000" fill-opacity="1" stroke="none" transform="matrix(0.125,0,0,0.125,0,0)"
font-family="Arial" font-size="20" font-weight="400" font-style="normal" 
>
<path vector-effect="non-scaling-stroke" fill-rule="evenodd" d="M3026,2907 C3026,2924.67 3011.67,2939 2994,2939 C2976.33,2939 2962,2924.67 2962,2907 C2962,2889.33 2976.33,2875 2994,2875 C3011.67,2875 3026,2889.33 3026,2907 "/>
</g>

<g fill="#000000" fill-opacity="1" stroke="#000000" stroke-opacity="1" stroke-dasharray="8,4" stroke-dashoffset="0" stroke-width="2" stroke-linecap="square" stroke-linejoin="bevel" transform="matrix(0.125,0,0,0.125,0,0)"
font-family="Arial" font-size="20" font-weight="400" font-style="normal" 
>
<polyline fill="none" vector-effect="none" points="2994,2907 2992,1648 " />
</g>

<g fill="#000000" fill-opacity="1" stroke="#000000" stroke-opacity="1" stroke-width="2" stroke-linecap="square" stroke-linejoin="bevel" transform="matrix(0.125,0,0,0.125,0,0)"
font-family="Arial" font-size="20" font-weight="400" font-style="normal" 
>
<polyline fill="none" vector-effect="none" points="3226,2907 2762,2908 " />
</g>

<g fill="#000000" fill-opacity="1" stroke="#000000" stroke-opacity="1" stroke-width="2" stroke-linecap="square" stroke-linejoin="bevel" transform="matrix(0.125,0,0,0.125,0,0)"
font-family="Arial" font-size="20" font-weight="400" font-style="normal" 
>
<polyline fill="none" vector-effect="none" points="2762,2908 2400,1649 " />
</g>

<g fill="#000000" fill-opacity="1" stroke="none" transform="matrix(0.125,0,0,0.125,0,0)"
font-family="Arial" font-size="20" font-weight="400" font-style="normal" 
>
<path vector-effect="non-scaling-stroke" fill-rule="evenodd" d="M2571,2133 C2571,2150.67 2556.67,2165 2539,2165 C2521.33,2165 2507,2150.67 2507,2133 C2507,2115.33 2521.33,2101 2539,2101 C2556.67,2101 2571,2115.33 2571,2133 "/>
</g>

<g fill="#000000" fill-opacity="1" stroke="none" transform="matrix(0.125,0,0,0.125,0,0)"
font-family="Arial" font-size="20" font-weight="400" font-style="normal" 
>
<path vector-effect="non-scaling-stroke" fill-rule="evenodd" d="M3025,2133 C3025,2150.67 3010.67,2165 2993,2165 C2975.33,2165 2961,2150.67 2961,2133 C2961,2115.33 2975.33,2101 2993,2101 C3010.67,2101 3025,2115.33 3025,2133 "/>
</g>

<g fill="#000000" fill-opacity="1" stroke="#000000" stroke-opacity="1" stroke-dasharray="8,4" stroke-dashoffset="0" stroke-width="2" stroke-linecap="square" stroke-linejoin="bevel" transform="matrix(0.125,0,0,0.125,0,0)"
font-family="Arial" font-size="20" font-weight="400" font-style="normal" 
>
<polyline fill="none" vector-effect="none" points="2539,2133 2993,2133 " />
</g>

<g fill="#000000" fill-opacity="1" stroke="#000000" stroke-opacity="1" stroke-width="2" stroke-linecap="square" stroke-linejoin="bevel" transform="matrix(0.125,0,0,0.125,0,0)"
font-family="Arial" font-size="20" font-weight="400" font-style="normal" 
>
<polyline fill="none" vector-effect="none" points="3584,1647 3226,2907 " />
</g>

<g fill="#000000" fill-opacity="1" stroke="#000000" stroke-opacity="1" stroke-width="2" stroke-linecap="square" stroke-linejoin="bevel" transform="matrix(0.125,0,0,0.125,0,0)"
font-family="Arial" font-size="20" font-weight="400" font-style="normal" 
>
<polyline fill="none" vector-effect="none" points="2400,1649 3584,1647 " />
</g>

<g fill="#000000" fill-opacity="1" stroke="#000000" stroke-opacity="1" stroke-width="2" stroke-linecap="square" stroke-linejoin="bevel" transform="matrix(0.125,0,0,0.125,0,0)"
font-family="Arial" font-size="20" font-weight="400" font-style="normal" 
>
<polyline fill="none" vector-effect="none" points="732,4053 5672,1552 " />
</g>

<g fill="#000000" fill-opacity="1" stroke="#000000" stroke-opacity="1" stroke-dasharray="8,4" stroke-dashoffset="0" stroke-width="2" stroke-linecap="square" stroke-linejoin="bevel" transform="matrix(0.125,0,0,0.125,0,0)"
font-family="Arial" font-size="20" font-weight="400" font-style="normal" 
>
<polyline fill="none" vector-effect="none" points="2994,2907 2992,1648 " />
</g>

<g fill="#000000" fill-opacity="1" stroke="#000000" stroke-opacity="1" stroke-width="2" stroke-linecap="square" stroke-linejoin="bevel" transform="matrix(0.125,0,0,0.125,0,0)"
font-family="Arial" font-size="20" font-weight="400" font-style="normal" 
>
<polyline fill="none" vector-effect="none" points="3226,2907 2762,2908 " />
</g>

<g fill="#000000" fill-opacity="1" stroke="#000000" stroke-opacity="1" stroke-width="2" stroke-linecap="square" stroke-linejoin="bevel" transform="matrix(0.125,0,0,0.125,0,0)"
font-family="Arial" font-size="20" font-weight="400" font-style="normal" 
>
<polyline fill="none" vector-effect="none" points="2762,2908 2400,1649 " />
</g>

<g fill="#000000" fill-opacity="1" stroke="#000000" stroke-opacity="1" stroke-dasharray="8,4" stroke-dashoffset="0" stroke-width="2" stroke-linecap="square" stroke-linejoin="bevel" transform="matrix(0.125,0,0,0.125,0,0)"
font-family="Arial" font-size="20" font-weight="400" font-style="normal" 
>
<polyline fill="none" vector-effect="none" points="2539,2133 2993,2133 " />
</g>

<g fill="#000000" fill-opacity="1" stroke="#000000" stroke-opacity="1" stroke-width="2" stroke-linecap="square" stroke-linejoin="bevel" transform="matrix(0.125,0,0,0.125,0,0)"
font-family="Arial" font-size="20" font-weight="400" font-style="normal" 
>
<polyline fill="none" vector-effect="none" points="3584,1647 3226,2907 " />
</g>

<g fill="#000000" fill-opacity="1" stroke="#000000" stroke-opacity="1" stroke-width="2" stroke-linecap="square" stroke-linejoin="bevel" transform="matrix(0.125,0,0,0.125,0,0)"
font-family="Arial" font-size="20" font-weight="400" font-style="normal" 
>
<polyline fill="none" vector-effect="none" points="2400,1649 3584,1647 " />
</g>

<g fill="#000000" fill-opacity="1" stroke="none" transform="matrix(0.125,0,0,0.125,0,0)"
font-family="Arial" font-size="20" font-weight="400" font-style="normal" 
>
<path vector-effect="non-scaling-stroke" fill-rule="evenodd" d="M764,4053 C764,4070.67 749.673,4085 732,4085 C714.327,4085 700,4070.67 700,4053 C700,4035.33 714.327,4021 732,4021 C749.673,4021 764,4035.33 764,4053 "/>
</g>

<g fill="#000000" fill-opacity="1" stroke="none" transform="matrix(0.125,0,0,0.125,0,0)"
font-family="Arial" font-size="20" font-weight="400" font-style="normal" 
>
<path vector-effect="non-scaling-stroke" fill-rule="evenodd" d="M5704,1552 C5704,1569.67 5689.67,1584 5672,1584 C5654.33,1584 5640,1569.67 5640,1552 C5640,1534.33 5654.33,1520 5672,1520 C5689.67,1520 5704,1534.33 5704,1552 "/>
</g>

<g fill="#000000" fill-opacity="1" stroke="none" transform="matrix(0.125,0,0,0.125,0,0)"
font-family="Arial" font-size="20" font-weight="400" font-style="normal" 
>
<path vector-effect="non-scaling-stroke" fill-rule="evenodd" d="M3026,2907 C3026,2924.67 3011.67,2939 2994,2939 C2976.33,2939 2962,2924.67 2962,2907 C2962,2889.33 2976.33,2875 2994,2875 C3011.67,2875 3026,2889.33 3026,2907 "/>
</g>

<g fill="#000000" fill-opacity="1" stroke="none" transform="matrix(0.125,0,0,0.125,0,0)"
font-family="Arial" font-size="20" font-weight="400" font-style="normal" 
>
<path vector-effect="non-scaling-stroke" fill-rule="evenodd" d="M2571,2133 C2571,2150.67 2556.67,2165 2539,2165 C2521.33,2165 2507,2150.67 2507,2133 C2507,2115.33 2521.33,2101 2539,2101 C2556.67,2101 2571,2115.33 2571,2133 "/>
</g>

<g fill="#000000" fill-opacity="1" stroke="none" transform="matrix(0.125,0,0,0.125,0,0)"
font-family="Arial" font-size="20" font-weight="400" font-style="normal" 
>
<path vector-effect="non-scaling-stroke" fill-rule="evenodd" d="M3025,2133 C3025,2150.67 3010.67,2165 2993,2165 C2975.33,2165 2961,2150.67 2961,2133 C2961,2115.33 2975.33,2101 2993,2101 C3010.67,2101 3025,2115.33 3025,2133 "/>
</g>
</g>
</svg>
