<?xml version="1.0" encoding="UTF-8" standalone="no"?>
<svg
   xmlns:dc="http://purl.org/dc/elements/1.1/"
   xmlns:cc="http://creativecommons.org/ns#"
   xmlns:rdf="http://www.w3.org/1999/02/22-rdf-syntax-ns#"
   xmlns:svg="http://www.w3.org/2000/svg"
   xmlns="http://www.w3.org/2000/svg"
   xmlns:sodipodi="http://sodipodi.sourceforge.net/DTD/sodipodi-0.dtd"
   xmlns:inkscape="http://www.inkscape.org/namespaces/inkscape"
   id="svg11437"
   version="1.1"
   inkscape:version="0.48.1 r9760"
   width="100%"
   height="100%"
   sodipodi:docname="side_inside.dxf">
  <metadata
     id="metadata11497">
    <rdf:RDF>
      <cc:Work
         rdf:about="">
        <dc:format>image/svg+xml</dc:format>
        <dc:type
           rdf:resource="http://purl.org/dc/dcmitype/StillImage" />
        <dc:title></dc:title>
      </cc:Work>
    </rdf:RDF>
  </metadata>
  <sodipodi:namedview
     pagecolor="#ffffff"
     bordercolor="#666666"
     borderopacity="1"
     objecttolerance="10"
     gridtolerance="10"
     guidetolerance="10"
     inkscape:pageopacity="0"
     inkscape:pageshadow="2"
     inkscape:window-width="640"
     inkscape:window-height="480"
     id="namedview11495"
     showgrid="false"
     inkscape:zoom="0.26891882"
     inkscape:cx="372.04724"
     inkscape:cy="526.18109"
     inkscape:window-x="0"
     inkscape:window-y="0"
     inkscape:window-maximized="0"
     inkscape:current-layer="g11451" />
  <desc
     id="desc11439">/home/jcoffland/projects/openscam/svn/trunk/openscam/examples/lamp_shade/side_inside.dxf - scale = 1.000000</desc>
  <defs
     id="defs11441">
    <marker
       refY="0.0"
       refX="0.0"
       style="overflow:visible"
       id="DistanceX"
       orient="auto">
      <path
         style="stroke:#000000; stroke-width:0.5"
         d="M 3,-3 L -3,3 M 0,-5 L  0,5"
         id="path11444" />
    </marker>
    <symbol
       id="*Model_Space" />
    <symbol
       id="*Paper_Space" />
    <symbol
       id="*Paper_Space0" />
  </defs>
  <g
     inkscape:label="0"
     inkscape:groupmode="layer"
     id="g11449" />
  <g
     inkscape:label="inner"
     inkscape:groupmode="layer"
     id="g11451">
    <path
       style="stroke:#000000;fill:none;stroke-dasharray:"
       d="M 231.728642,841.053095 L 226.810308,841.089228 L 222.264231,841.440478 L 218.329899,842.233731 L 215.243441,843.591672 L 213.237621,845.631104 L 212.558651,848.479755 L 213.429212,852.254427 L 216.100557,857.087050 L 210.493169,858.076935 L 204.401762,858.235754 L 198.028010,857.998786 L 191.577791,857.797952 L 185.250257,858.071893 L 179.251284,859.256730 L 173.769942,861.777660 L 169.029753,866.077526 L 172.311164,873.239488 L 174.573278,881.044287 L 176.022813,889.217983 L 176.862283,897.493355 L 177.304286,905.594784 L 177.553858,913.249167 L 177.823597,920.178364 L 178.316019,926.123557 L 184.457004,922.248047 L 190.929912,918.168342 L 197.673400,914.274346 L 204.626124,910.973608 L 211.724223,908.653512 L 218.918116,907.723289 L 226.143942,908.571162 L 233.342037,911.603000 L 239.598145,917.743986 L 245.656780,919.909464 L 251.642308,919.112010 L 257.679095,916.358314 L 263.887305,912.660950 L 270.392985,909.036694 L 277.318820,906.492235 L 284.790016,906.050232 L 295.463633,908.785441 L 305.488531,913.608820 L 315.180667,918.806137 L 324.854315,922.663160 L 325.621518,917.607015 L 326.308892,911.138309 L 326.614765,904.153652 L 326.240827,897.538732 L 324.872802,892.195201 L 322.220784,889.017989 L 317.971336,888.904547 L 311.829510,892.747285 L 313.110983,885.115589 L 311.953036,876.987271 L 308.775824,868.908531 L 304.011266,861.408764 L 298.071115,855.030811 L 291.388130,850.307429 L 284.380785,847.786499 L 277.478479,848.000778 L 275.623074,856.667735 L 272.317295,861.741527 L 268.109022,863.651551 L 263.555383,862.853257 L 259.219383,859.790327 L 255.650587,854.903084 L 253.412001,848.639414 L 253.055709,841.445520 L 243.637515,841.532072 L 231.728642,841.053095 z"
       id="path11453" />
    <path
       style="stroke:#000000;fill:none;stroke-dasharray:"
       d="M 228.218667,674.805328 L 223.199496,675.252373 L 227.320376,681.302605 L 231.632847,687.470480 L 235.772214,693.788771 L 239.364539,700.299493 L 242.028322,707.037938 L 243.398867,714.044443 L 243.103918,721.361862 L 240.765336,729.024649 L 238.653637,734.486664 L 235.420964,739.470542 L 231.823597,744.096449 L 228.611092,748.506396 L 226.535526,752.813825 L 226.354019,757.159068 L 228.824531,761.663129 L 234.696617,766.468022 L 238.029286,773.835859 L 239.619993,781.366718 L 239.698142,788.971523 L 238.499020,796.552799 L 236.255392,804.020634 L 233.200865,811.283433 L 229.572407,818.249603 L 225.601102,824.831751 L 254.532134,826.204818 L 283.268214,829.833276 L 279.966637,823.468768 L 275.918863,816.795027 L 271.679500,809.828857 L 267.808191,802.602191 L 264.858703,795.144440 L 263.394883,787.472410 L 263.973857,779.616352 L 267.151909,771.601475 L 272.868538,766.490710 L 275.969282,761.790856 L 276.866733,757.364103 L 275.986929,753.092808 L 273.753385,748.848402 L 270.593819,744.503159 L 266.924185,739.930192 L 263.172201,735.005976 L 260.783200,727.124708 L 260.714295,719.087143 L 262.361302,711.035293 L 265.123401,703.112010 L 268.396408,695.453425 L 271.578662,688.209113 L 274.068501,681.511002 L 275.262581,675.507827 L 263.682269,677.272478 L 251.186020,676.789300 L 238.964551,675.484299 L 228.218667,674.805328 z"
       id="path11455" />
    <path
       style="stroke:#000000;fill:none;stroke-dasharray:"
       d="M 300.596247,758.717843 L 296.393856,761.124490 L 294.136784,766.481466 L 292.691451,773.266129 L 290.931842,779.967601 L 286.167284,783.454888 L 283.778283,787.905169 L 283.354766,793.023498 L 284.498428,798.512402 L 286.815163,804.070213 L 289.896580,809.408702 L 293.351934,814.222838 L 296.776197,818.226075 L 296.793844,828.192151 L 297.975320,837.169182 L 302.251657,844.809281 L 311.565653,850.782204 L 313.816844,852.291401 L 315.937786,854.511500 L 317.971336,857.150913 L 319.962871,859.899567 L 321.973733,862.458311 L 324.038374,864.522953 L 326.217298,865.794342 L 328.556721,865.972488 L 336.197660,851.228409 L 345.804083,838.117052 L 356.896175,826.235909 L 369.000000,815.198438 L 381.650026,804.613053 L 394.365597,794.082288 L 406.684541,783.217920 L 418.122001,771.633407 L 420.735365,767.703277 L 420.027824,764.685724 L 416.837167,762.624444 L 411.999502,761.558090 L 406.360182,761.531200 L 400.757835,762.588310 L 396.034453,764.772276 L 393.029504,768.122592 L 389.332140,770.225047 L 385.430581,771.948523 L 381.523140,773.065295 L 377.825776,773.366126 L 374.543525,772.627494 L 371.894028,770.630917 L 370.079798,767.156235 L 369.318477,761.995052 L 361.951480,762.219414 L 354.648346,763.504248 L 347.389748,765.292428 L 340.164763,767.042794 L 332.947341,768.209984 L 325.721515,768.236874 L 318.473001,766.582304 L 311.178270,762.698391 L 307.873331,760.760636 L 305.037285,759.488407 L 302.621394,758.827923 L 300.596247,758.717843 z"
       id="path11457" />
    <path
       style="stroke:#000000;fill:none;stroke-dasharray:"
       d="M 327.071053,646.284367 L 321.340139,649.092683 L 314.770595,655.497526 L 307.658212,662.186393 L 300.313902,665.865270 L 292.955308,675.292708 L 288.300831,687.041922 L 284.411876,699.538172 L 279.365815,711.226884 L 277.651583,717.226697 L 279.114562,721.416483 L 282.647225,724.452522 L 287.129439,726.977654 L 291.451153,729.650680 L 294.492235,733.119480 L 295.148517,738.029411 L 292.299866,745.045999 L 292.919175,746.477887 L 294.064517,747.257695 L 295.599763,747.525754 L 297.377859,747.429959 L 299.256793,747.110641 L 301.097912,746.709813 L 302.757524,746.372849 L 304.097818,746.249323 L 319.448601,739.470542 L 334.962404,736.369799 L 350.398898,738.057141 L 365.506831,745.656064 L 368.826056,744.325854 L 370.746164,741.548629 L 371.853693,738.002521 L 372.733497,734.377424 L 373.977996,731.346426 L 376.170365,729.603623 L 379.896300,729.822944 L 385.753260,732.700165 L 390.472441,735.809312 L 397.036943,738.165541 L 404.331673,739.593228 L 411.247425,739.935234 L 416.667424,739.023498 L 419.490025,736.698360 L 418.592574,732.786717 L 412.870063,727.138153 L 391.160655,710.662195 L 369.564688,693.884566 L 349.628334,675.406990 L 332.887679,653.825309 L 331.660826,650.355669 L 330.275995,648.026330 L 328.738228,646.708724 L 327.071053,646.284367 z"
       id="path11459" />
    <path
       style="stroke:#000000;fill:none;stroke-dasharray:"
       d="M 201.735458,758.954810 L 195.466746,759.806884 L 189.188790,761.913541 L 182.910834,764.649591 L 176.632878,767.398245 L 170.355762,769.527590 L 164.087050,770.420840 L 157.832623,769.454483 L 151.590800,766.007532 L 146.248109,763.368118 L 141.533970,762.611839 L 137.481155,763.427780 L 134.135041,765.496623 L 131.531761,768.502412 L 129.712489,772.125829 L 128.714201,776.050917 L 128.577231,779.967601 L 121.529551,777.783636 L 114.927908,775.007252 L 108.609113,771.998942 L 102.422583,769.130964 L 96.208742,766.756248 L 89.821630,765.247051 L 83.106293,764.958825 L 75.903072,766.263826 L 76.171971,770.274626 L 78.314761,774.241729 L 81.879945,778.134885 L 86.425181,781.923843 L 91.494855,785.579191 L 96.641838,789.079923 L 101.419673,792.389904 L 105.381398,795.491488 L 120.512776,805.365971 L 134.413184,816.817715 L 147.269086,829.450095 L 159.264511,842.871526 L 160.066167,838.377548 L 160.936728,833.639880 L 161.931655,829.254303 L 163.107248,825.816595 L 164.534095,823.915813 L 166.266814,824.147739 L 168.363387,827.106470 L 170.893561,833.389468 L 171.354051,835.965018 L 171.864119,838.578382 L 172.539728,841.020323 L 173.478354,843.081603 L 174.795960,844.549625 L 176.592543,845.215150 L 178.985746,844.863901 L 182.081448,843.291681 L 189.266938,839.238866 L 196.291930,834.624724 L 202.897607,829.419003 L 208.837758,823.592294 L 213.861971,817.118546 L 217.719834,809.970029 L 220.157574,802.119013 L 220.932339,793.535246 L 220.778563,788.488345 L 218.890386,784.521241 L 215.950142,781.221344 L 212.617472,778.176061 L 209.576390,774.971118 L 207.489060,771.200647 L 207.032772,766.450375 L 208.883975,760.318633 L 201.735458,758.954810 z"
       id="path11461" />
    <path
       style="stroke:#000000;fill:none;stroke-dasharray:"
       d="M 322.256917,583.101460 L 320.496468,583.334226 L 318.221748,584.433351 L 315.381501,586.485388 L 311.925306,589.584451 L 304.467555,593.670038 L 296.630824,596.190968 L 288.578974,597.235474 L 280.473344,596.888426 L 272.476113,595.246460 L 264.753665,592.397809 L 257.473219,588.427344 L 250.789393,583.429181 L 244.712272,584.930814 L 238.367091,587.336622 L 231.778220,590.132333 L 224.971710,592.798637 L 217.974448,594.822944 L 210.820889,595.688463 L 203.531200,594.882606 L 196.141514,591.891102 L 191.943326,590.409636 L 187.547664,588.208023 L 183.267125,585.919019 L 179.419346,584.172855 L 176.314400,583.598923 L 174.263204,584.829977 L 173.588435,588.499611 L 174.600168,595.238057 L 176.833712,602.058013 L 176.611030,609.798948 L 174.932931,617.973484 L 172.808627,626.097600 L 171.227164,633.688121 L 171.203635,640.257664 L 173.733808,645.328094 L 179.825216,648.408671 L 185.446049,651.021194 L 192.156764,651.490928 L 199.441412,650.565746 L 206.781519,649.011173 L 213.652734,647.579285 L 219.529022,647.028041 L 223.900314,648.117083 L 226.243939,651.609411 L 221.379384,656.405901 L 220.144969,659.656220 L 221.757524,661.643553 L 225.450686,662.655286 L 230.453052,662.988049 L 235.991535,662.934269 L 241.288849,662.769568 L 245.587875,662.801500 L 252.043976,663.662818 L 256.593414,662.796458 L 259.666428,660.545268 L 261.689894,657.248732 L 263.099094,653.246335 L 264.320905,648.879244 L 265.783885,644.483583 L 267.917432,640.413121 L 273.319785,640.571940 L 277.405372,643.649155 L 280.609474,648.377579 L 283.386698,653.474059 L 286.172326,657.682332 L 289.417603,659.720083 L 293.567054,658.320127 L 299.070244,652.220317 L 303.336497,648.026330 L 306.034733,642.613893 L 307.763250,636.628365 L 309.136317,630.715944 L 310.745511,625.527870 L 313.206779,621.716224 L 317.122623,619.924683 L 323.103949,620.804488 L 322.785472,616.409667 L 323.140923,610.902275 L 323.861069,604.789020 L 324.640876,598.584171 L 325.174473,592.803679 L 325.155986,587.951729 L 324.284585,584.546793 L 322.256917,583.101460 z"
       id="path11463" />
    <path
       style="stroke:#000000;fill:none;stroke-dasharray:"
       d="M 155.000778,661.730105 L 153.350409,662.359497 L 151.550465,663.872895 L 149.580779,666.385422 L 147.428745,670.000436 L 137.977778,678.848900 L 127.838598,687.028477 L 117.344135,694.855965 L 106.840260,702.647319 L 96.655451,710.726059 L 87.131882,719.419906 L 78.606601,729.038934 L 71.421531,739.915907 L 82.358585,743.335968 L 92.716498,742.883882 L 102.828368,739.456257 L 113.026790,733.944664 L 117.649588,732.221188 L 121.369892,731.423734 L 124.296692,731.532974 L 126.544521,732.531263 L 128.221780,734.390869 L 129.443590,737.108431 L 130.314151,740.650338 L 130.952787,745.014067 L 138.073574,745.683794 L 145.180916,744.621643 L 152.262208,742.579689 L 159.305686,740.322617 L 166.307989,738.599981 L 173.259874,738.170583 L 180.157978,739.794062 L 186.991379,744.234260 L 196.825527,747.762721 L 207.424357,747.940027 L 209.215897,745.296412 L 209.622607,741.453674 L 209.340263,736.990788 L 209.070524,732.475802 L 209.517569,728.501136 L 211.382217,725.642401 L 215.366966,724.475211 L 222.177679,725.583580 L 225.191030,719.054371 L 225.957393,711.805857 L 224.770875,704.206934 L 221.922225,696.624817 L 217.701348,689.430923 L 212.398992,682.993309 L 206.312626,677.686751 L 199.733840,673.879307 L 195.275155,670.638231 L 190.602191,667.802185 L 186.019981,665.737543 L 181.835237,664.812362 L 178.361396,665.400579 L 175.899287,667.871090 L 174.764869,672.599514 L 175.261492,679.948866 L 172.188478,684.315957 L 169.594442,684.566369 L 167.310479,681.807631 L 165.181974,677.153154 L 163.048427,671.705425 L 160.745137,666.580374 L 158.114967,662.888052 L 155.000778,661.730105 z"
       id="path11465" />
    <path
       style="stroke:#000000;fill:none;stroke-dasharray:"
       d="M 457.086614,567.992126 L 457.086614,488.976378 L 403.937008,488.976378 L 403.515732,489.515297 L 401.760325,491.137935 L 400.437677,493.295011 L 399.485606,495.843671 L 398.833525,498.641903 L 398.426815,501.536771 L 398.194890,504.391304 L 398.084809,507.058448 L 392.478261,510.444897 L 389.145591,514.862407 L 387.723787,520.056363 L 387.832187,525.782235 L 389.109458,531.785410 L 391.178301,537.821356 L 393.672341,543.644704 L 396.221002,549.000000 L 404.486290,558.980362 L 414.698578,568.362423 L 426.264604,575.369768 L 438.596153,578.227662 L 442.434689,571.084187 L 447.724441,567.305313 L 453.960381,566.735582 L 457.086614,567.992126 z"
       id="path11467" />
    <path
       style="stroke:#000000;fill:none;stroke-dasharray:"
       d="M 255.118110,488.976378 L 255.118110,496.062992 L 256.748872,500.771249 L 259.023591,506.675267 L 261.376459,512.724658 L 263.121783,518.889172 L 263.586474,525.143600 L 262.077277,531.457689 L 257.920264,537.799508 L 256.370732,542.226261 L 255.216146,547.331985 L 254.682550,552.534344 L 254.997666,557.238399 L 256.383337,560.854253 L 259.068968,562.801251 L 263.277240,562.486135 L 269.240080,559.322368 L 274.802091,561.465158 L 277.579316,564.906228 L 278.722978,569.028788 L 279.380100,573.217734 L 280.692664,576.869721 L 283.805173,579.363761 L 289.878933,580.088108 L 300.053406,578.433538 L 306.586816,576.405029 L 312.632847,573.217734 L 318.043603,569.032150 L 322.671190,563.999533 L 326.355109,558.278703 L 328.948305,552.022595 L 330.302885,545.385827 L 330.261710,538.528897 L 326.291245,536.523077 L 321.895584,534.324826 L 317.734369,532.000529 L 314.460521,529.602284 L 312.745448,527.209082 L 313.247954,524.870499 L 316.631042,522.658803 L 323.550994,520.639538 L 335.810277,513.659083 L 348.825838,507.560113 L 361.017055,500.570415 L 369.566929,488.976378 z"
       id="path11469" />
    <path
       style="stroke:#000000;fill:none;stroke-dasharray:"
       d="M 240.590551,488.976378 L 115.157480,488.976378 L 115.338147,490.358128 L 115.908045,492.213532 L 117.754542,494.083222 L 120.490087,495.906694 L 123.712676,497.630170 L 127.027699,499.184744 L 130.041051,500.525038 L 132.351903,501.587190 L 142.956615,507.518098 L 153.962155,512.716255 L 165.492048,516.390091 L 177.673182,517.763157 L 175.475771,521.527746 L 171.464131,524.282282 L 166.544957,526.442719 L 161.635025,528.426691 L 157.645234,530.656033 L 155.483956,533.550061 L 156.062930,537.529769 L 160.303134,543.018674 L 168.386076,554.380505 L 177.787464,564.760854 L 188.983754,572.584140 L 202.483334,576.273101 L 208.969687,577.170552 L 215.498895,576.805857 L 220.422271,570.509415 L 225.550683,565.085214 L 231.724441,562.363450 L 239.780492,564.181880 L 242.915689,560.416451 L 244.256824,556.277084 L 244.171112,551.867978 L 243.044256,547.300053 L 241.248514,542.685911 L 239.163705,538.141514 L 237.163767,533.769382 L 235.631042,529.684635 L 232.804239,524.249510 L 232.695839,518.559771 L 234.427718,512.784320 L 237.121752,507.094582 L 239.898136,501.656095 L 241.872864,496.645327 L 242.178737,492.227817 L 240.590551,488.976378 z"
       id="path11471" />
    <path
       style="stroke:#000000;fill:none;stroke-dasharray:"
       d="M 457.086614,833.740157 L 457.086614,673.937008 L 456.281317,673.998631 L 451.995736,675.680091 L 447.686627,679.154773 L 443.269117,683.658834 L 438.646572,688.431795 L 433.731599,692.717376 L 428.434285,695.750054 L 422.663036,696.765989 L 417.169929,697.440758 L 413.472565,698.758364 L 411.453301,700.604525 L 410.987769,702.870001 L 411.963369,705.450593 L 414.260776,708.226977 L 417.758146,711.094955 L 422.344558,713.948648 L 428.271265,719.519903 L 433.623199,725.810463 L 438.158352,732.690922 L 441.642277,740.035231 L 443.844729,747.721546 L 444.519498,755.626342 L 443.438860,763.627774 L 440.365846,771.601475 L 438.638169,777.537425 L 434.261834,783.368336 L 428.593944,788.938751 L 423.005042,794.082288 L 418.848028,798.640970 L 417.480004,802.455977 L 420.274034,805.369332 L 428.584700,807.220535 L 434.174442,808.784352 L 438.824718,811.888457 L 442.773334,816.047151 L 446.269864,820.779777 L 449.561358,825.602316 L 452.889826,830.034110 L 456.499798,833.599546 L 457.086614,833.740157 z"
       id="path11473" />
    <path
       style="stroke:#000000;fill:none;stroke-dasharray:"
       d="M 457.086614,588.188976 L 451.626000,588.454234 L 445.818618,590.655846 L 439.868383,595.497712 L 434.470231,596.855653 L 429.419128,596.623728 L 424.636924,595.228813 L 420.060596,593.091065 L 415.605272,590.619713 L 411.207090,588.244157 L 406.789580,586.384551 L 402.279636,585.463571 L 397.936074,586.224892 L 394.406772,584.692166 L 391.529551,581.401513 L 389.164078,576.873922 L 387.157418,571.654757 L 385.365877,566.270051 L 383.633998,561.255081 L 381.814727,557.152687 L 379.166910,551.184806 L 378.171983,543.611932 L 378.045097,535.332358 L 377.999720,527.245215 L 377.246802,520.237870 L 375.013258,515.213657 L 370.509197,513.066665 L 362.949768,514.694345 L 356.896175,518.683297 L 351.977000,523.753727 L 348.233419,529.670350 L 345.703246,536.207961 L 344.417572,543.123712 L 344.426815,550.190719 L 345.762068,557.183779 L 348.466185,563.863403 L 350.494694,569.316174 L 349.673711,573.149669 L 346.933460,575.971429 L 343.218449,578.373876 L 339.471507,580.963711 L 336.621176,584.328312 L 335.623728,589.078585 L 337.410227,595.812829 L 337.833743,601.300893 L 338.304317,606.744421 L 339.074041,611.882076 L 340.414335,616.437397 L 342.584856,620.152407 L 345.849460,622.755688 L 350.477047,623.981700 L 356.722231,623.571629 L 359.398618,628.928605 L 358.103700,633.432666 L 354.356758,637.335066 L 349.678753,640.882014 L 345.584762,644.333167 L 343.601631,647.930534 L 345.237714,651.937973 L 352.026579,656.597492 L 355.299586,660.892316 L 359.917930,663.840964 L 365.370701,665.802247 L 371.133547,667.119013 L 376.694718,668.136628 L 381.545828,669.206343 L 385.165043,670.679406 L 387.048178,672.908749 L 383.191995,676.501074 L 383.232330,679.733746 L 386.227195,682.555507 L 391.247207,684.926022 L 397.355420,686.786468 L 403.611528,688.089789 L 409.091189,688.788086 L 412.852417,688.838505 L 416.927920,688.628427 L 421.354673,687.443590 L 425.772183,685.436930 L 429.825838,682.774828 L 433.152625,679.611061 L 435.391211,676.105288 L 436.189505,672.407924 L 435.182814,668.687031 L 432.081230,661.662040 L 432.214839,656.219352 L 434.831565,652.407706 L 439.193614,650.274159 L 444.569077,649.881734 L 450.209237,651.276649 L 455.383026,654.513523 L 457.086614,656.220472 z"
       id="path11475" />
    <path
       style="stroke:#000000;fill:none;stroke-dasharray:"
       d="M 457.086614,862.086614 L 455.788895,862.212100 L 453.463758,865.598550 L 446.433724,869.970683 L 440.648190,870.385796 L 436.366811,867.813607 L 433.836638,863.228035 L 433.308083,857.588715 L 435.036600,851.880489 L 439.267561,847.061312 L 446.260621,844.116865 L 443.844729,837.523793 L 440.028041,831.702966 L 435.054247,826.787993 L 429.177959,822.925928 L 422.653792,820.259625 L 415.733840,818.933616 L 408.671875,819.083191 L 401.724192,820.866328 L 397.433569,821.517569 L 393.431172,822.703246 L 389.933802,824.367060 L 387.190190,826.469515 L 385.425539,828.962715 L 384.878497,831.797921 L 385.781831,834.933958 L 388.369985,838.332171 L 380.779465,839.489278 L 373.353646,841.704335 L 366.278236,844.918521 L 359.730541,849.072173 L 353.913915,854.104790 L 349.013227,859.954188 L 345.215866,866.560705 L 342.707541,873.868881 L 345.607451,872.819333 L 348.575426,872.441194 L 351.524914,872.656313 L 354.387850,873.376459 L 357.082724,874.520121 L 359.534748,876.011671 L 361.663254,877.771280 L 363.396813,879.709035 L 364.654757,881.756030 L 365.360617,883.820672 L 365.443808,885.831533 L 364.819458,887.700383 L 363.411098,889.351592 L 361.148984,890.700289 L 357.949083,891.666646 L 353.739971,892.172513 L 347.667891,891.935545 L 343.410040,895.132084 L 340.820205,900.807538 L 339.735365,908.014877 L 340.004264,915.802029 L 341.473126,923.223647 L 343.989014,929.324297 L 347.398992,933.158044 L 352.240858,931.708257 L 355.786966,931.165417 L 358.199496,931.434316 L 359.630544,932.424201 L 360.246491,934.047008 L 360.196913,936.212486 L 359.649031,938.833833 L 358.759983,941.820043 L 357.688587,945.079689 L 356.594504,948.530842 L 355.636550,952.077707 L 354.971865,955.629193 L 354.761788,959.103118 L 355.167657,962.403772 L 356.344091,965.444602 L 358.454110,968.138972 L 362.717843,976.057969 L 367.883228,984.451069 L 374.309919,991.202792 L 382.371012,994.207152 L 383.041580,984.678961 L 384.249105,975.009346 L 386.122156,965.385360 L 388.780897,955.980190 L 392.345492,946.985344 L 396.950391,938.583169 L 402.708195,930.956179 L 409.755874,924.286639 L 414.862438,925.247954 L 420.452180,924.664779 L 426.346114,923.255579 L 432.368616,921.760667 L 438.349942,920.899350 L 444.108587,921.405216 L 449.474806,924.003455 L 454.275497,929.424294 L 457.086614,930.826772 z"
       id="path11477" />
    <path
       style="stroke:#000000;fill:none;stroke-dasharray:"
       d="M 457.086614,950.669291 L 455.747720,949.469973 L 451.557935,949.100741 L 445.927858,950.126507 L 443.406088,944.733230 L 440.051570,941.140736 L 436.071022,939.194074 L 431.681242,938.751819 L 427.085587,939.663639 L 422.498335,941.783573 L 418.136286,944.961122 L 414.211198,949.059734 L 409.104634,954.699138 L 404.500576,960.990539 L 400.815817,967.632937 L 398.486477,974.316427 L 397.936074,980.740008 L 399.590645,986.602851 L 403.879587,991.604040 L 411.238181,995.442660 L 410.025614,999.231197 L 408.621456,1003.120068 L 407.422334,1006.853817 L 406.771654,1010.196850 L 406.771654,1013.385827 L 457.086614,1013.385827 z"
       id="path11479" />
    <path
       style="stroke:#000000;fill:none;stroke-dasharray:"
       d="M 250.866142,1013.385827 L 370.629921,1013.385827 L 367.230307,1006.748947 L 358.199496,999.810171 L 347.526719,994.184380 L 337.428714,989.041935 L 329.259220,987.204597 L 325.724876,985.367343 L 325.757648,983.452613 L 328.287822,981.378308 L 332.254085,979.053254 L 336.585042,976.404345 L 340.214341,973.349986 L 342.078149,969.803038 L 339.138745,960.712396 L 334.387632,952.875581 L 328.397902,946.169319 L 321.759453,940.470589 L 316.594068,935.245962 L 310.047213,930.755345 L 302.684417,927.381501 L 295.085494,925.512651 L 287.826896,925.531138 L 281.480875,927.824344 L 276.620522,932.774610 L 273.831533,940.771504 L 264.535184,940.511596 L 259.552146,943.228823 L 257.865644,948.271019 L 258.475709,954.977281 L 260.372288,962.681915 L 262.552893,970.733093 L 264.006629,978.474196 L 263.727646,985.239784 L 261.859637,989.169494 L 259.438704,993.550786 L 256.803492,998.155348 L 254.286764,1002.759911 L 252.239768,1007.145573 L 250.990228,1011.089080 L 250.866142,1013.385827 z"
       id="path11481" />
    <path
       style="stroke:#000000;fill:none;stroke-dasharray:"
       d="M 127.204724,1013.385827 L 235.275591,1013.385827 L 235.275591,1004.173228 L 234.250412,997.033787 L 232.758862,989.630068 L 231.710996,982.148704 L 231.861411,974.799605 L 233.958825,967.778815 L 238.749432,961.291370 L 241.561950,956.613868 L 243.149295,952.064094 L 243.504746,947.828848 L 242.638387,944.095014 L 240.550216,941.045025 L 237.240235,938.874925 L 232.717687,937.771682 L 226.982571,937.922181 L 223.809561,931.640192 L 219.123992,928.330211 L 213.360306,927.486539 L 206.960505,928.608353 L 200.358190,931.202390 L 194.002926,934.762784 L 188.327472,938.792910 L 183.773832,942.795727 L 177.012698,949.447201 L 170.693567,956.832769 L 165.636581,964.938567 L 162.646759,973.741991 L 165.564315,973.828627 L 168.450780,974.302813 L 171.239768,975.109679 L 173.874981,976.185528 L 176.287511,977.489437 L 178.411814,978.962080 L 180.189070,980.548501 L 181.552053,982.194333 L 182.436899,983.849155 L 182.783947,985.463138 L 182.523451,986.972083 L 181.598270,988.330696 L 179.938657,989.484106 L 177.486633,990.377691 L 174.171610,990.956665 L 169.940649,991.170944 L 158.543525,996.390866 L 146.917836,1001.414911 L 135.762721,1007.127338 L 127.204724,1013.385827 z"
       id="path11483" />
    <path
       style="stroke:#000000;fill:none;stroke-dasharray:"
       d="M 38.976378,1013.385827 L 92.125984,1013.385827 L 89.675752,1010.687891 L 86.174517,1007.897818 L 85.435968,1002.481768 L 87.619598,998.743397 L 91.672581,996.076337 L 96.550664,993.878927 L 101.205394,991.553873 L 104.583608,988.490271 L 105.645844,984.090912 L 103.339025,977.758420 L 103.384653,969.128353 L 102.053350,960.384171 L 99.400072,951.849815 L 95.474732,943.853341 L 90.332287,936.718521 L 84.036264,930.773832 L 76.637083,926.337836 L 68.189278,923.743799 L 65.203153,927.869721 L 60.867657,930.783076 L 55.738657,932.948302 L 50.381933,934.835723 L 45.353434,936.900952 L 41.213841,939.613473 L 38.976378,940.393701 z"
       id="path11485" />
    <path
       style="stroke:#000000;fill:none;stroke-dasharray:"
       d="M 98.027761,827.486290 L 87.077094,828.543400 L 78.150733,830.608042 L 72.985347,832.559242 L 70.970284,836.777598 L 70.888186,842.393390 L 71.535561,848.557063 L 71.699673,854.410663 L 70.176947,859.092870 L 65.750279,861.754972 L 57.220460,861.535651 L 51.225268,856.276151 L 46.160300,854.479568 L 42.066369,855.541720 L 38.976378,858.897638 L 38.976378,918.070866 L 41.842989,917.935576 L 45.873082,915.811273 L 51.685842,908.461922 L 57.079120,904.290623 L 62.905493,901.942797 L 68.977993,901.222651 L 75.118895,901.915066 L 81.132153,903.830133 L 86.840126,906.756933 L 92.055510,910.490430 L 96.591672,914.835673 L 103.553304,915.113815 L 108.727680,918.574212 L 112.397650,924.459743 L 114.864044,932.027575 L 116.423239,940.529915 L 117.366907,949.214771 L 117.991510,957.329644 L 118.597877,964.131617 L 119.240715,967.756042 L 119.030973,972.201030 L 118.315197,977.115583 L 117.444384,982.144166 L 116.778858,986.940235 L 116.669450,991.161869 L 117.471862,994.453447 L 119.541377,996.473048 L 127.783978,991.503707 L 134.708973,984.966179 L 140.212163,977.183984 L 144.214559,968.476356 L 146.612804,959.171436 L 147.319505,949.593078 L 146.248109,940.069341 L 143.302823,930.928449 L 150.168996,931.033488 L 155.010021,928.539448 L 158.083035,924.021941 L 159.633407,918.059102 L 159.906508,911.229062 L 159.154430,904.108275 L 157.626747,897.274875 L 155.575550,891.306153 L 147.045563,893.481715 L 141.428932,892.619557 L 138.507174,889.583517 L 138.060129,885.229031 L 139.874358,880.414895 L 143.731381,876.002428 L 149.425321,872.852105 L 156.734338,871.821885 L 155.598238,864.745635 L 152.142884,858.782795 L 146.868258,853.813202 L 140.280228,849.733497 L 132.894743,846.442003 L 125.217671,843.830320 L 117.759080,841.792568 L 111.025340,840.218667 L 111.964554,836.799446 L 111.941782,834.009617 L 111.066431,831.793719 L 109.461691,830.092932 L 107.236886,828.866920 L 104.510669,828.055180 L 101.401354,827.613177 L 98.027761,827.486290 z"
       id="path11487" />
    <path
       style="stroke:#000000;fill:none;stroke-dasharray:"
       d="M 38.976378,586.062992 L 38.976378,655.157480 L 39.440400,654.905948 L 42.941694,652.475771 L 46.274330,648.377579 L 49.606915,643.718060 L 53.121848,639.619028 L 56.987946,637.184650 L 61.373692,637.531698 L 66.461433,641.766861 L 68.499269,647.342317 L 67.268299,652.229560 L 63.976804,656.642868 L 59.823572,660.787277 L 56.012262,664.866982 L 53.755526,669.092901 L 54.252485,673.675111 L 58.706632,678.822010 L 66.411350,682.496685 L 74.995789,684.397467 L 83.872152,684.990725 L 92.465834,684.734431 L 98.378843,684.725188 L 102.335947,683.777318 L 104.647387,682.022751 L 105.627525,679.601818 L 105.577442,676.648128 L 104.820575,673.296131 L 103.662628,669.686160 L 102.418045,665.951822 L 110.282254,665.915689 L 118.287887,664.926644 L 126.184028,662.961159 L 133.719928,660.002428 L 140.631477,656.027761 L 146.676667,651.016993 L 151.600044,644.957518 L 155.146992,637.823286 L 151.135352,636.956926 L 146.489278,634.719181 L 141.935638,631.476425 L 138.201301,627.610999 L 136.022377,623.495160 L 136.122374,619.513772 L 139.240764,616.044972 L 146.101895,613.460179 L 152.662195,614.108058 L 157.043572,612.634994 L 159.628365,609.447698 L 160.800598,604.952880 L 160.936728,599.559771 L 160.426660,593.674240 L 159.646852,587.705518 L 158.980486,582.066198 L 158.789736,575.679842 L 156.432666,572.392549 L 152.716816,571.184183 L 148.445520,571.052255 L 144.428838,570.979148 L 141.479350,569.958171 L 140.403753,566.976751 L 142.007905,561.022315 L 143.079300,552.967103 L 142.395288,544.979117 L 140.152501,537.247425 L 136.541689,529.948492 L 131.759485,523.283153 L 125.997479,517.425352 L 119.450372,512.570041 L 112.315636,508.904609 L 113.040487,525.138558 L 112.607392,541.291837 L 109.849158,557.047649 L 103.594227,572.110205 L 100.817843,577.485668 L 97.371311,580.895646 L 93.391351,582.905667 L 89.014765,584.082101 L 84.378186,584.993838 L 79.614133,586.198002 L 74.863692,588.266845 L 70.263667,591.768417 L 65.586082,593.473406 L 61.049921,593.359124 L 56.627789,592.010426 L 52.310361,590.018051 L 48.065955,587.971056 L 43.880875,586.461859 L 39.732181,586.074476 L 38.976378,586.062992 z"
       id="path11489" />
    <path
       style="stroke:#000000;fill:none;stroke-dasharray:"
       d="M 38.976378,838.346457 L 40.552802,838.231334 L 42.244178,837.748156 L 50.591675,827.261928 L 60.771778,818.873954 L 72.616115,813.507734 L 85.969313,812.089291 L 90.172628,809.532227 L 89.748691,806.095360 L 85.946457,801.945909 L 80.033447,797.263702 L 73.254247,792.221842 L 66.876294,786.992593 L 62.153164,781.744857 L 60.343388,776.657620 L 56.636865,767.010862 L 55.100526,756.985123 L 55.556394,746.860228 L 57.817668,736.894992 L 61.706371,727.357474 L 67.040406,718.513212 L 73.632722,710.635305 L 81.310046,703.991815 L 72.415449,697.723102 L 60.867657,692.366126 L 49.151047,686.384800 L 38.976378,679.251969 z"
       id="path11491" />
    <path
       style="stroke:#000000;fill:none;stroke-dasharray:"
       d="M 92.125984,488.976378 L 38.976378,488.976378 L 38.976378,488.976378 L 38.976378,561.968504 L 43.028322,560.338303 L 46.438443,560.457627 L 48.886518,562.034048 L 50.723939,564.578507 L 52.292126,567.601102 L 53.937957,570.601008 L 56.007725,573.095048 L 58.852510,574.589960 L 67.888447,572.233731 L 76.231297,567.969998 L 83.662410,562.107995 L 89.967592,554.945193 L 94.927690,546.784943 L 98.328676,537.940680 L 99.956273,528.703993 L 99.596116,519.394199 L 92.579780,518.190875 L 87.888581,515.669945 L 85.230765,512.122996 L 84.305247,507.833214 L 84.811282,503.091345 L 86.457197,498.190657 L 88.941826,493.416856 L 92.125984,488.976378 L 92.125984,488.976378 z"
       id="path11493" />
  </g>
</svg>
