<?xml version="1.0" encoding="UTF-8" standalone="no"?>
<svg
   xmlns:dc="http://purl.org/dc/elements/1.1/"
   xmlns:cc="http://creativecommons.org/ns#"
   xmlns:rdf="http://www.w3.org/1999/02/22-rdf-syntax-ns#"
   xmlns:svg="http://www.w3.org/2000/svg"
   xmlns="http://www.w3.org/2000/svg"
   xmlns:sodipodi="http://sodipodi.sourceforge.net/DTD/sodipodi-0.dtd"
   xmlns:inkscape="http://www.inkscape.org/namespaces/inkscape"
   id="svg11337"
   version="1.1"
   inkscape:version="0.48.1 r9760"
   width="100%"
   height="100%"
   sodipodi:docname="top_inside.dxf">
  <metadata
     id="metadata11397">
    <rdf:RDF>
      <cc:Work
         rdf:about="">
        <dc:format>image/svg+xml</dc:format>
        <dc:type
           rdf:resource="http://purl.org/dc/dcmitype/StillImage" />
        <dc:title></dc:title>
      </cc:Work>
    </rdf:RDF>
  </metadata>
  <sodipodi:namedview
     pagecolor="#ffffff"
     bordercolor="#666666"
     borderopacity="1"
     objecttolerance="10"
     gridtolerance="10"
     guidetolerance="10"
     inkscape:pageopacity="0"
     inkscape:pageshadow="2"
     inkscape:window-width="640"
     inkscape:window-height="480"
     id="namedview11395"
     showgrid="false"
     inkscape:zoom="0.26891882"
     inkscape:cx="372.04724"
     inkscape:cy="526.18109"
     inkscape:window-x="0"
     inkscape:window-y="0"
     inkscape:window-maximized="0"
     inkscape:current-layer="g11351" />
  <desc
     id="desc11339">/home/jcoffland/projects/openscam/svn/trunk/openscam/examples/lamp_shade/top_inside.dxf - scale = 1.000000</desc>
  <defs
     id="defs11341">
    <marker
       refY="0.0"
       refX="0.0"
       style="overflow:visible"
       id="DistanceX"
       orient="auto">
      <path
         style="stroke:#000000; stroke-width:0.5"
         d="M 3,-3 L -3,3 M 0,-5 L  0,5"
         id="path11344" />
    </marker>
    <symbol
       id="*Model_Space" />
    <symbol
       id="*Paper_Space" />
    <symbol
       id="*Paper_Space0" />
  </defs>
  <g
     inkscape:label="0"
     inkscape:groupmode="layer"
     id="g11349" />
  <g
     inkscape:label="inner"
     inkscape:groupmode="layer"
     id="g11351">
    <path
       style="stroke:#000000;fill:none;stroke-dasharray:"
       d="M 231.728642,894.202701 L 226.810308,894.238835 L 222.264231,894.590084 L 218.329899,895.383337 L 215.243441,896.741278 L 213.237621,898.780710 L 212.558651,901.629361 L 213.429212,905.404033 L 216.100557,910.236656 L 210.493169,911.226541 L 204.401762,911.385360 L 198.028010,911.148393 L 191.577791,910.947558 L 185.250257,911.221499 L 179.251284,912.406337 L 173.769942,914.927267 L 169.029753,919.227133 L 172.311164,926.389095 L 174.573278,934.193894 L 176.022813,942.367589 L 176.862283,950.642962 L 177.304286,958.744390 L 177.553858,966.398774 L 177.823597,973.327970 L 178.316019,979.273163 L 184.457004,975.397653 L 190.929912,971.317948 L 197.673400,967.423952 L 204.626124,964.123214 L 211.724223,961.803118 L 218.918116,960.872895 L 226.143942,961.720768 L 233.342037,964.752607 L 239.598145,970.893592 L 245.656780,973.059071 L 251.642308,972.261617 L 257.679095,969.507921 L 263.887305,965.810557 L 270.392985,962.186300 L 277.318820,959.641841 L 284.790016,959.199838 L 295.463633,961.935047 L 305.488531,966.758426 L 315.180667,971.955744 L 324.854315,975.812766 L 325.621518,970.756621 L 326.308892,964.287915 L 326.614765,957.303259 L 326.240827,950.688338 L 324.872802,945.344807 L 322.220784,942.167595 L 317.971336,942.054153 L 311.829510,945.896891 L 313.110983,938.265196 L 311.953036,930.136877 L 308.775824,922.058137 L 304.011266,914.558370 L 298.071115,908.180418 L 291.388130,903.457035 L 284.380785,900.936105 L 277.478479,901.150384 L 275.623074,909.817342 L 272.317295,914.891133 L 268.109022,916.801158 L 263.555383,916.002863 L 259.219383,912.939933 L 255.650587,908.052691 L 253.412001,901.789020 L 253.055709,894.595126 L 243.637515,894.681678 L 231.728642,894.202701 z"
       id="path11353" />
    <path
       style="stroke:#000000;fill:none;stroke-dasharray:"
       d="M 228.218667,727.954934 L 223.199496,728.401979 L 227.320376,734.452211 L 231.632847,740.620087 L 235.772214,746.938377 L 239.364539,753.449099 L 242.028322,760.187545 L 243.398867,767.194049 L 243.103918,774.511469 L 240.765336,782.174255 L 238.653637,787.636270 L 235.420964,792.620149 L 231.823597,797.246055 L 228.611092,801.656002 L 226.535526,805.963431 L 226.354019,810.308674 L 228.824531,814.812735 L 234.696617,819.617628 L 238.029286,826.985466 L 239.619993,834.516324 L 239.698142,842.121129 L 238.499020,849.702406 L 236.255392,857.170241 L 233.200865,864.433040 L 229.572407,871.399209 L 225.601102,877.981358 L 254.532134,879.354424 L 283.268214,882.982883 L 279.966637,876.618375 L 275.918863,869.944633 L 271.679500,862.978463 L 267.808191,855.751797 L 264.858703,848.294046 L 263.394883,840.622016 L 263.973857,832.765958 L 267.151909,824.751082 L 272.868538,819.640316 L 275.969282,814.940462 L 276.866733,810.513710 L 275.986929,806.242414 L 273.753385,801.998008 L 270.593819,797.652765 L 266.924185,793.079798 L 263.172201,788.155582 L 260.783200,780.274315 L 260.714295,772.236750 L 262.361302,764.184899 L 265.123401,756.261617 L 268.396408,748.603031 L 271.578662,741.358719 L 274.068501,734.660608 L 275.262581,728.657434 L 263.682269,730.422085 L 251.186020,729.938906 L 238.964551,728.633905 L 228.218667,727.954934 z"
       id="path11355" />
    <path
       style="stroke:#000000;fill:none;stroke-dasharray:"
       d="M 300.596247,811.867449 L 296.393856,814.274097 L 294.136784,819.631073 L 292.691451,826.415736 L 290.931842,833.117208 L 286.167284,836.604494 L 283.778283,841.054776 L 283.354766,846.173104 L 284.498428,851.662009 L 286.815163,857.219819 L 289.896580,862.558308 L 293.351934,867.372444 L 296.776197,871.375681 L 296.793844,881.341757 L 297.975320,890.318789 L 302.251657,897.958887 L 311.565653,903.931810 L 313.816844,905.441007 L 315.937786,907.661106 L 317.971336,910.300520 L 319.962871,913.049174 L 321.973733,915.607918 L 324.038374,917.672559 L 326.217298,918.943948 L 328.556721,919.122094 L 336.197660,904.378015 L 345.804083,891.266658 L 356.896175,879.385516 L 369.000000,868.348044 L 381.650026,857.762659 L 394.365597,847.231894 L 406.684541,836.367527 L 418.122001,824.783013 L 420.735365,820.852884 L 420.027824,817.835330 L 416.837167,815.774050 L 411.999502,814.707697 L 406.360182,814.680807 L 400.757835,815.737917 L 396.034453,817.921882 L 393.029504,821.272198 L 389.332140,823.374654 L 385.430581,825.098130 L 381.523140,826.214901 L 377.825776,826.515732 L 374.543525,825.777100 L 371.894028,823.780523 L 370.079798,820.305842 L 369.318477,815.144658 L 361.951480,815.369021 L 354.648346,816.653855 L 347.389748,818.442034 L 340.164763,820.192400 L 332.947341,821.359590 L 325.721515,821.386480 L 318.473001,819.731910 L 311.178270,815.847997 L 307.873331,813.910242 L 305.037285,812.638013 L 302.621394,811.977529 L 300.596247,811.867449 z"
       id="path11357" />
    <path
       style="stroke:#000000;fill:none;stroke-dasharray:"
       d="M 327.071053,699.433973 L 321.340139,702.242289 L 314.770595,708.647132 L 307.658212,715.336000 L 300.313902,719.014877 L 292.955308,728.442314 L 288.300831,740.191528 L 284.411876,752.687778 L 279.365815,764.376490 L 277.651583,770.376303 L 279.114562,774.566089 L 282.647225,777.602129 L 287.129439,780.127260 L 291.451153,782.800286 L 294.492235,786.269086 L 295.148517,791.179017 L 292.299866,798.195605 L 292.919175,799.627494 L 294.064517,800.407301 L 295.599763,800.675360 L 297.377859,800.579565 L 299.256793,800.260247 L 301.097912,799.859419 L 302.757524,799.522455 L 304.097818,799.398929 L 319.448601,792.620149 L 334.962404,789.519405 L 350.398898,791.206747 L 365.506831,798.805671 L 368.826056,797.475460 L 370.746164,794.698235 L 371.853693,791.152127 L 372.733497,787.527030 L 373.977996,784.496032 L 376.170365,782.753229 L 379.896300,782.972550 L 385.753260,785.849771 L 390.472441,788.958918 L 397.036943,791.315147 L 404.331673,792.742834 L 411.247425,793.084840 L 416.667424,792.173104 L 419.490025,789.847966 L 418.592574,785.936323 L 412.870063,780.287759 L 391.160655,763.811802 L 369.564688,747.034173 L 349.628334,728.556596 L 332.887679,706.974915 L 331.660826,703.505275 L 330.275995,701.175936 L 328.738228,699.858330 L 327.071053,699.433973 z"
       id="path11359" />
    <path
       style="stroke:#000000;fill:none;stroke-dasharray:"
       d="M 201.735458,812.104416 L 195.466746,812.956491 L 189.188790,815.063148 L 182.910834,817.799197 L 176.632878,820.547851 L 170.355762,822.677196 L 164.087050,823.570446 L 157.832623,822.604090 L 151.590800,819.157138 L 146.248109,816.517724 L 141.533970,815.761445 L 137.481155,816.577386 L 134.135041,818.646229 L 131.531761,821.652018 L 129.712489,825.275435 L 128.714201,829.200523 L 128.577231,833.117208 L 121.529551,830.933242 L 114.927908,828.156858 L 108.609113,825.148548 L 102.422583,822.280570 L 96.208742,819.905854 L 89.821630,818.396657 L 83.106293,818.108431 L 75.903072,819.413433 L 76.171971,823.424232 L 78.314761,827.391335 L 81.879945,831.284492 L 86.425181,835.073449 L 91.494855,838.728798 L 96.641838,842.229529 L 101.419673,845.539510 L 105.381398,848.641094 L 120.512776,858.515577 L 134.413184,869.967321 L 147.269086,882.599701 L 159.264511,896.021132 L 160.066167,891.527154 L 160.936728,886.789487 L 161.931655,882.403909 L 163.107248,878.966201 L 164.534095,877.065420 L 166.266814,877.297345 L 168.363387,880.256077 L 170.893561,886.539074 L 171.354051,889.114625 L 171.864119,891.727989 L 172.539728,894.169929 L 173.478354,896.231210 L 174.795960,897.699231 L 176.592543,898.364757 L 178.985746,898.013507 L 182.081448,896.441287 L 189.266938,892.388472 L 196.291930,887.774330 L 202.897607,882.568610 L 208.837758,876.741900 L 213.861971,870.268152 L 217.719834,863.119635 L 220.157574,855.268619 L 220.932339,846.684853 L 220.778563,841.637951 L 218.890386,837.670847 L 215.950142,834.370950 L 212.617472,831.325667 L 209.576390,828.120725 L 207.489060,824.350254 L 207.032772,819.599981 L 208.883975,813.468239 L 201.735458,812.104416 z"
       id="path11361" />
    <path
       style="stroke:#000000;fill:none;stroke-dasharray:"
       d="M 322.256917,636.251066 L 320.496468,636.483832 L 318.221748,637.582957 L 315.381501,639.634994 L 311.925306,642.734057 L 304.467555,646.819645 L 296.630824,649.340575 L 288.578974,650.385080 L 280.473344,650.038032 L 272.476113,648.396066 L 264.753665,645.547415 L 257.473219,641.576951 L 250.789393,636.578787 L 244.712272,638.080421 L 238.367091,640.486228 L 231.778220,643.281940 L 224.971710,645.948243 L 217.974448,647.972550 L 210.820889,648.838069 L 203.531200,648.032212 L 196.141514,645.040708 L 191.943326,643.559242 L 187.547664,641.357630 L 183.267125,639.068625 L 179.419346,637.322461 L 176.314400,636.748529 L 174.263204,637.979584 L 173.588435,641.649217 L 174.600168,648.387663 L 176.833712,655.207619 L 176.611030,662.948554 L 174.932931,671.123090 L 172.808627,679.247207 L 171.227164,686.837727 L 171.203635,693.407270 L 173.733808,698.477701 L 179.825216,701.558277 L 185.446049,704.170801 L 192.156764,704.640534 L 199.441412,703.715353 L 206.781519,702.160779 L 213.652734,700.728891 L 219.529022,700.177648 L 223.900314,701.266689 L 226.243939,704.759018 L 221.379384,709.555507 L 220.144969,712.805826 L 221.757524,714.793159 L 225.450686,715.804892 L 230.453052,716.137655 L 235.991535,716.083875 L 241.288849,715.919175 L 245.587875,715.951106 L 252.043976,716.812424 L 256.593414,715.946065 L 259.666428,713.694874 L 261.689894,710.398338 L 263.099094,706.395942 L 264.320905,702.028851 L 265.783885,697.633189 L 267.917432,693.562728 L 273.319785,693.721546 L 277.405372,696.798761 L 280.609474,701.527186 L 283.386698,706.623666 L 286.172326,710.831938 L 289.417603,712.869690 L 293.567054,711.469733 L 299.070244,705.369923 L 303.336497,701.175936 L 306.034733,695.763499 L 307.763250,689.777971 L 309.136317,683.865550 L 310.745511,678.677477 L 313.206779,674.865831 L 317.122623,673.074290 L 323.103949,673.954094 L 322.785472,669.559273 L 323.140923,664.051881 L 323.861069,657.938626 L 324.640876,651.733777 L 325.174473,645.953285 L 325.155986,641.101335 L 324.284585,637.696399 L 322.256917,636.251066 z"
       id="path11363" />
    <path
       style="stroke:#000000;fill:none;stroke-dasharray:"
       d="M 155.000778,714.879711 L 153.350409,715.509103 L 151.550465,717.022502 L 149.580779,719.535028 L 147.428745,723.150042 L 137.977778,731.998506 L 127.838598,740.178083 L 117.344135,748.005571 L 106.840260,755.796925 L 96.655451,763.875665 L 87.131882,772.569512 L 78.606601,782.188541 L 71.421531,793.065513 L 82.358585,796.485575 L 92.716498,796.033488 L 102.828368,792.605863 L 113.026790,787.094270 L 117.649588,785.370795 L 121.369892,784.573340 L 124.296692,784.682581 L 126.544521,785.680869 L 128.221780,787.540475 L 129.443590,790.258037 L 130.314151,793.799944 L 130.952787,798.163674 L 138.073574,798.833401 L 145.180916,797.771249 L 152.262208,795.729296 L 159.305686,793.472223 L 166.307989,791.749588 L 173.259874,791.320189 L 180.157978,792.943668 L 186.991379,797.383866 L 196.825527,800.912328 L 207.424357,801.089633 L 209.215897,798.446018 L 209.622607,794.603280 L 209.340263,790.140394 L 209.070524,785.625408 L 209.517569,781.650742 L 211.382217,778.792008 L 215.366966,777.624817 L 222.177679,778.733186 L 225.191030,772.203977 L 225.957393,764.955464 L 224.770875,757.356540 L 221.922225,749.774423 L 217.701348,742.580530 L 212.398992,736.142915 L 206.312626,730.836357 L 199.733840,727.028913 L 195.275155,723.787837 L 190.602191,720.951791 L 186.019981,718.887149 L 181.835237,717.961968 L 178.361396,718.550185 L 175.899287,721.020697 L 174.764869,725.749121 L 175.261492,733.098472 L 172.188478,737.465563 L 169.594442,737.715975 L 167.310479,734.957238 L 165.181974,730.302761 L 163.048427,724.855031 L 160.745137,719.729980 L 158.114967,716.037658 L 155.000778,714.879711 z"
       id="path11365" />
    <path
       style="stroke:#000000;fill:none;stroke-dasharray:"
       d="M 457.086614,886.889764 L 457.086614,727.086614 L 456.281317,727.148237 L 451.995736,728.829697 L 447.686627,732.304379 L 443.269117,736.808440 L 438.646572,741.581401 L 433.731599,745.866982 L 428.434285,748.899661 L 422.663036,749.915596 L 417.169929,750.590364 L 413.472565,751.907970 L 411.453301,753.754132 L 410.987769,756.019607 L 411.963369,758.600199 L 414.260776,761.376583 L 417.758146,764.244561 L 422.344558,767.098254 L 428.271265,772.669509 L 433.623199,778.960070 L 438.158352,785.840528 L 441.642277,793.184837 L 443.844729,800.871152 L 444.519498,808.775948 L 443.438860,816.777380 L 440.365846,824.751082 L 438.638169,830.687031 L 434.261834,836.517942 L 428.593944,842.088357 L 423.005042,847.231894 L 418.848028,851.790576 L 417.480004,855.605583 L 420.274034,858.518938 L 428.584700,860.370141 L 434.174442,861.933958 L 438.824718,865.038063 L 442.773334,869.196757 L 446.269864,873.929383 L 449.561358,878.751922 L 452.889826,883.183717 L 456.499798,886.749152 L 457.086614,886.889764 z"
       id="path11367" />
    <path
       style="stroke:#000000;fill:none;stroke-dasharray:"
       d="M 38.976378,891.496063 L 40.552802,891.380941 L 42.244178,890.897762 L 50.591675,880.411534 L 60.771778,872.023560 L 72.616115,866.657340 L 85.969313,865.238897 L 90.172628,862.681834 L 89.748691,859.244966 L 85.946457,855.095515 L 80.033447,850.413308 L 73.254247,845.371448 L 66.876294,840.142199 L 62.153164,834.894463 L 60.343388,829.807227 L 56.636865,820.160468 L 55.100526,810.134730 L 55.556394,800.009835 L 57.817668,790.044599 L 61.706371,780.507080 L 67.040406,771.662818 L 73.632722,763.784912 L 81.310046,757.141421 L 72.415449,750.872709 L 60.867657,745.515732 L 49.151047,739.534406 L 38.976378,732.401575 z"
       id="path11369" />
    <path
       style="stroke:#000000;fill:none;stroke-dasharray:"
       d="M 96.732283,595.275591 L 38.976378,595.275591 L 38.976378,595.275591 L 38.976378,615.118110 L 43.028322,613.487909 L 46.438443,613.607233 L 48.886518,615.183654 L 50.723939,617.728113 L 52.292126,620.750708 L 53.937957,623.750615 L 56.007725,626.244655 L 58.852510,627.739566 L 67.888447,625.383337 L 76.231297,621.119604 L 83.662410,615.257602 L 89.967592,608.094799 L 94.927690,599.934549 L 96.732283,595.275591 L 96.732283,595.275591 z"
       id="path11371" />
    <path
       style="stroke:#000000;fill:none;stroke-dasharray:"
       d="M 159.448819,595.275591 L 168.386076,607.530111 L 177.787464,617.910460 L 188.983754,625.733746 L 202.483334,629.422707 L 208.969687,630.320158 L 215.498895,629.955464 L 220.422271,623.659021 L 225.550683,618.234820 L 231.724441,615.513056 L 239.780492,617.331487 L 242.915689,613.566058 L 244.256824,609.426691 L 244.171112,605.017584 L 243.044256,600.449659 L 240.944882,595.275591 z"
       id="path11373" />
    <path
       style="stroke:#000000;fill:none;stroke-dasharray:"
       d="M 255.118110,595.275591 L 255.216146,600.481591 L 254.682550,605.683950 L 254.997666,610.388005 L 256.383337,614.003859 L 259.068968,615.950857 L 263.277240,615.635741 L 269.240080,612.471974 L 274.802091,614.614765 L 277.579316,618.055834 L 278.722978,622.178395 L 279.380100,626.367340 L 280.692664,630.019327 L 283.805173,632.513367 L 289.878933,633.237714 L 300.053406,631.583144 L 306.586816,629.554636 L 312.632847,626.367340 L 318.043603,622.181756 L 322.671190,617.149139 L 326.355109,611.428309 L 328.948305,605.172201 L 330.302885,598.535433 L 329.527559,595.275591 z"
       id="path11375" />
    <path
       style="stroke:#000000;fill:none;stroke-dasharray:"
       d="M 457.086614,641.338583 L 451.626000,641.603841 L 445.818618,643.805453 L 439.868383,648.647319 L 434.470231,650.005260 L 429.419128,649.773334 L 424.636924,648.378420 L 420.060596,646.240671 L 415.605272,643.769319 L 411.207090,641.393763 L 406.789580,639.534157 L 402.279636,638.613177 L 397.936074,639.374498 L 394.406772,637.841773 L 391.529551,634.551119 L 389.164078,630.023529 L 387.157418,624.804363 L 385.365877,619.419657 L 383.633998,614.404687 L 381.814727,610.302294 L 379.166910,604.334412 L 378.171983,596.761539 L 379.133858,595.275591 L 343.700787,595.275591 L 344.417572,596.273319 L 344.426815,603.340326 L 345.762068,610.333385 L 348.466185,617.013009 L 350.494694,622.465781 L 349.673711,626.299275 L 346.933460,629.121036 L 343.218449,631.523482 L 339.471507,634.113317 L 336.621176,637.477919 L 335.623728,642.228191 L 337.410227,648.962435 L 337.833743,654.450500 L 338.304317,659.894028 L 339.074041,665.031683 L 340.414335,669.587003 L 342.584856,673.302014 L 345.849460,675.905294 L 350.477047,677.131306 L 356.722231,676.721235 L 359.398618,682.078211 L 358.103700,686.582273 L 354.356758,690.484672 L 349.678753,694.031621 L 345.584762,697.482774 L 343.601631,701.080141 L 345.237714,705.087579 L 352.026579,709.747098 L 355.299586,714.041922 L 359.917930,716.990570 L 365.370701,718.951853 L 371.133547,720.268619 L 376.694718,721.286234 L 381.545828,722.355949 L 385.165043,723.829012 L 387.048178,726.058355 L 383.191995,729.650680 L 383.232330,732.883353 L 386.227195,735.705113 L 391.247207,738.075628 L 397.355420,739.936074 L 403.611528,741.239395 L 409.091189,741.937693 L 412.852417,741.988111 L 416.927920,741.778034 L 421.354673,740.593197 L 425.772183,738.586536 L 429.825838,735.924434 L 433.152625,732.760667 L 435.391211,729.254894 L 436.189505,725.557530 L 435.182814,721.836638 L 432.081230,714.811646 L 432.214839,709.368958 L 434.831565,705.557312 L 439.193614,703.423765 L 444.569077,703.031340 L 450.209237,704.426255 L 455.383026,707.663129 L 457.086614,709.370079 z"
       id="path11377" />
    <path
       style="stroke:#000000;fill:none;stroke-dasharray:"
       d="M 457.086614,621.141732 L 457.086614,595.275591 L 393.307087,595.275591 L 393.672341,596.794311 L 396.221002,602.149606 L 404.486290,612.129968 L 414.698578,621.512029 L 426.264604,628.519374 L 438.596153,631.377268 L 442.434689,624.233793 L 447.724441,620.454919 L 453.960381,619.885189 L 457.086614,621.141732 z"
       id="path11379" />
    <path
       style="stroke:#000000;fill:none;stroke-dasharray:"
       d="M 38.976378,639.212598 L 38.976378,708.307087 L 39.440400,708.055554 L 42.941694,705.625377 L 46.274330,701.527186 L 49.606915,696.867667 L 53.121848,692.768635 L 56.987946,690.334257 L 61.373692,690.681305 L 66.461433,694.916467 L 68.499269,700.491924 L 67.268299,705.379167 L 63.976804,709.792475 L 59.823572,713.936883 L 56.012262,718.016588 L 53.755526,722.242507 L 54.252485,726.824718 L 58.706632,731.971616 L 66.411350,735.646292 L 74.995789,737.547073 L 83.872152,738.140332 L 92.465834,737.884037 L 98.378843,737.874794 L 102.335947,736.926924 L 104.647387,735.172357 L 105.627525,732.751424 L 105.577442,729.797734 L 104.820575,726.445738 L 103.662628,722.835766 L 102.418045,719.101429 L 110.282254,719.065295 L 118.287887,718.076250 L 126.184028,716.110765 L 133.719928,713.152034 L 140.631477,709.177368 L 146.676667,704.166599 L 151.600044,698.107124 L 155.146992,690.972892 L 151.135352,690.106533 L 146.489278,687.868787 L 141.935638,684.626031 L 138.201301,680.760605 L 136.022377,676.644767 L 136.122374,672.663378 L 139.240764,669.194578 L 146.101895,666.609785 L 152.662195,667.257664 L 157.043572,665.784601 L 159.628365,662.597305 L 160.800598,658.102487 L 160.936728,652.709377 L 160.426660,646.823846 L 159.646852,640.855124 L 158.980486,635.215804 L 158.789736,628.829448 L 156.432666,625.542156 L 152.716816,624.333790 L 148.445520,624.201861 L 144.428838,624.128754 L 141.479350,623.107778 L 140.403753,620.126358 L 142.007905,614.171921 L 143.079300,606.116710 L 142.395288,598.128723 L 141.732283,595.275591 L 113.385827,595.275591 L 109.849158,610.197255 L 103.594227,625.259811 L 100.817843,630.635274 L 97.371311,634.045252 L 93.391351,636.055274 L 89.014765,637.231708 L 84.378186,638.143444 L 79.614133,639.347608 L 74.863692,641.416451 L 70.263667,644.918023 L 65.586082,646.623012 L 61.049921,646.508730 L 56.627789,645.160032 L 52.310361,643.167657 L 48.065955,641.120662 L 43.880875,639.611466 L 39.732181,639.224083 L 38.976378,639.212598 z"
       id="path11381" />
    <path
       style="stroke:#000000;fill:none;stroke-dasharray:"
       d="M 38.976378,1013.385827 L 102.755906,1013.385827 L 99.400072,1004.999421 L 95.474732,997.002947 L 90.332287,989.868127 L 84.036264,983.923438 L 76.637083,979.487442 L 68.189278,976.893405 L 65.203153,981.019327 L 60.867657,983.932682 L 55.738657,986.097909 L 50.381933,987.985329 L 45.353434,990.050559 L 41.213841,992.763079 L 38.976378,993.543307 z"
       id="path11383" />
    <path
       style="stroke:#000000;fill:none;stroke-dasharray:"
       d="M 98.027761,880.635897 L 87.077094,881.693007 L 78.150733,883.757648 L 72.985347,885.708848 L 70.970284,889.927204 L 70.888186,895.542996 L 71.535561,901.706670 L 71.699673,907.560269 L 70.176947,912.242476 L 65.750279,914.904578 L 57.220460,914.685257 L 51.225268,909.425757 L 46.160300,907.629174 L 42.066369,908.691326 L 38.976378,912.047244 L 38.976378,971.220472 L 41.842989,971.085183 L 45.873082,968.960879 L 51.685842,961.611528 L 57.079120,957.440229 L 62.905493,955.092403 L 68.977993,954.372257 L 75.118895,955.064673 L 81.132153,956.979739 L 86.840126,959.906539 L 92.055510,963.640036 L 96.591672,967.985279 L 103.553304,968.263422 L 108.727680,971.723818 L 112.397650,977.609349 L 114.864044,985.177181 L 116.423239,993.679521 L 117.366907,1002.364377 L 116.929134,1013.385827 L 145.275591,1013.385827 L 147.319505,1002.742685 L 146.248109,993.218947 L 143.302823,984.078055 L 150.168996,984.183094 L 155.010021,981.689054 L 158.083035,977.171548 L 159.633407,971.208708 L 159.906508,964.378669 L 159.154430,957.257882 L 157.626747,950.424481 L 155.575550,944.455759 L 147.045563,946.631322 L 141.428932,945.769164 L 138.507174,942.733124 L 138.060129,938.378637 L 139.874358,933.564502 L 143.731381,929.152034 L 149.425321,926.001712 L 156.734338,924.971492 L 155.598238,917.895241 L 152.142884,911.932402 L 146.868258,906.962809 L 140.280228,902.883104 L 132.894743,899.591609 L 125.217671,896.979926 L 117.759080,894.942174 L 111.025340,893.368274 L 111.964554,889.949052 L 111.941782,887.159223 L 111.066431,884.943326 L 109.461691,883.242538 L 107.236886,882.016526 L 104.510669,881.204787 L 101.401354,880.762784 L 98.027761,880.635897 z"
       id="path11385" />
    <path
       style="stroke:#000000;fill:none;stroke-dasharray:"
       d="M 240.944882,1013.385827 L 243.149295,1005.213700 L 243.504746,1000.978454 L 242.638387,997.244620 L 240.550216,994.194631 L 237.240235,992.024531 L 232.717687,990.921288 L 226.982571,991.071787 L 223.809561,984.789798 L 219.123992,981.479817 L 213.360306,980.636146 L 206.960505,981.757960 L 200.358190,984.351997 L 194.002926,987.912390 L 188.327472,991.942517 L 183.773832,995.945333 L 177.012698,1002.596807 L 170.078740,1013.385827 z"
       id="path11387" />
    <path
       style="stroke:#000000;fill:none;stroke-dasharray:"
       d="M 340.157480,1013.385827 L 334.387632,1006.025188 L 328.397902,999.318926 L 321.759453,993.620195 L 316.594068,988.395568 L 310.047213,983.904952 L 302.684417,980.531107 L 295.085494,978.662258 L 287.826896,978.680744 L 281.480875,980.973950 L 276.620522,985.924216 L 273.831533,993.921110 L 264.535184,993.661203 L 259.552146,996.378429 L 257.865644,1001.420625 L 258.661417,1013.385827 z"
       id="path11389" />
    <path
       style="stroke:#000000;fill:none;stroke-dasharray:"
       d="M 457.086614,915.236220 L 455.788895,915.361707 L 453.463758,918.748156 L 446.433724,923.120289 L 440.648190,923.535402 L 436.366811,920.963213 L 433.836638,916.377642 L 433.308083,910.738321 L 435.036600,905.030096 L 439.267561,900.210918 L 446.260621,897.266472 L 443.844729,890.673400 L 440.028041,884.852572 L 435.054247,879.937599 L 429.177959,876.075535 L 422.653792,873.409231 L 415.733840,872.083222 L 408.671875,872.232797 L 401.724192,874.015935 L 397.433569,874.667175 L 393.431172,875.852852 L 389.933802,877.516666 L 387.190190,879.619122 L 385.425539,882.112321 L 384.878497,884.947527 L 385.781831,888.083564 L 388.369985,891.481778 L 380.779465,892.638885 L 373.353646,894.853942 L 366.278236,898.068127 L 359.730541,902.221780 L 353.913915,907.254396 L 349.013227,913.103794 L 345.215866,919.710311 L 342.707541,927.018487 L 345.607451,925.968940 L 348.575426,925.590800 L 351.524914,925.805920 L 354.387850,926.526065 L 357.082724,927.669727 L 359.534748,929.161277 L 361.663254,930.920886 L 363.396813,932.858641 L 364.654757,934.905636 L 365.360617,936.970278 L 365.443808,938.981140 L 364.819458,940.849989 L 363.411098,942.501198 L 361.148984,943.849896 L 357.949083,944.816252 L 353.739971,945.322119 L 347.667891,945.085151 L 343.410040,948.281691 L 340.820205,953.957144 L 339.735365,961.164483 L 340.004264,968.951635 L 341.473126,976.373253 L 343.989014,982.473904 L 347.398992,986.307650 L 352.240858,984.857863 L 355.786966,984.315023 L 358.199496,984.583922 L 359.630544,985.573807 L 360.246491,987.196614 L 360.196913,989.362093 L 359.649031,991.983440 L 358.759983,994.969649 L 357.688587,998.229296 L 356.594504,1001.680449 L 355.636550,1005.227313 L 354.971865,1008.778799 L 354.330709,1013.385827 L 386.220472,1013.385827 L 388.780897,1009.129797 L 392.345492,1000.134951 L 396.950391,991.732775 L 402.708195,984.105786 L 409.755874,977.436245 L 414.862438,978.397560 L 420.452180,977.814385 L 426.346114,976.405185 L 432.368616,974.910274 L 438.349942,974.048956 L 444.108587,974.554822 L 449.474806,977.153061 L 454.275497,982.573901 L 457.086614,983.976378 z"
       id="path11391" />
    <path
       style="stroke:#000000;fill:none;stroke-dasharray:"
       d="M 457.086614,1003.818898 L 455.747720,1002.619579 L 451.557935,1002.250347 L 445.927858,1003.276113 L 443.406088,997.882836 L 440.051570,994.290343 L 436.071022,992.343681 L 431.681242,991.901425 L 427.085587,992.813246 L 422.498335,994.933180 L 418.136286,998.110728 L 414.211198,1002.209340 L 409.104634,1007.848744 L 403.937008,1013.385827 L 457.086614,1013.385827 z"
       id="path11393" />
  </g>
</svg>
