<?xml version="1.0" encoding="UTF-8" standalone="no"?>
<svg
   xmlns:dc="http://purl.org/dc/elements/1.1/"
   xmlns:cc="http://creativecommons.org/ns#"
   xmlns:rdf="http://www.w3.org/1999/02/22-rdf-syntax-ns#"
   xmlns:svg="http://www.w3.org/2000/svg"
   xmlns="http://www.w3.org/2000/svg"
   xmlns:sodipodi="http://sodipodi.sourceforge.net/DTD/sodipodi-0.dtd"
   xmlns:inkscape="http://www.inkscape.org/namespaces/inkscape"
   sodipodi:docname="top_outside.svg"
   height="100%"
   width="100%"
   inkscape:version="0.48.1 r9760"
   version="1.1"
   id="svg7470">
  <metadata
     id="metadata7636">
    <rdf:RDF>
      <cc:Work
         rdf:about="">
        <dc:format>image/svg+xml</dc:format>
        <dc:type
           rdf:resource="http://purl.org/dc/dcmitype/StillImage" />
        <dc:title></dc:title>
      </cc:Work>
    </rdf:RDF>
  </metadata>
  <sodipodi:namedview
     pagecolor="#ffffff"
     bordercolor="#666666"
     borderopacity="1"
     objecttolerance="10"
     gridtolerance="10"
     guidetolerance="10"
     inkscape:pageopacity="0"
     inkscape:pageshadow="2"
     inkscape:window-width="1003"
     inkscape:window-height="717"
     id="namedview7634"
     showgrid="false"
     inkscape:zoom="0.76061729"
     inkscape:cx="372.04724"
     inkscape:cy="275.48009"
     inkscape:window-x="0"
     inkscape:window-y="0"
     inkscape:window-maximized="0"
     inkscape:current-layer="g7484" />
  <desc
     id="desc7472">/home/jcoffland/projects/openscam/svn/trunk/openscam/examples/lamp_shade/top.dxf - scale = 1.000000</desc>
  <defs
     id="defs7474">
    <marker
       refY="0.0"
       refX="0.0"
       style="overflow:visible"
       id="DistanceX"
       orient="auto">
      <path
         style="stroke:#000000; stroke-width:0.5"
         d="M 3,-3 L -3,3 M 0,-5 L  0,5"
         id="path7477" />
    </marker>
    <symbol
       id="*Model_Space" />
    <symbol
       id="*Paper_Space" />
    <symbol
       id="*Paper_Space0" />
  </defs>
  <g
     inkscape:label="0"
     inkscape:groupmode="layer"
     id="g7482" />
  <g
     inkscape:label="outer"
     inkscape:groupmode="layer"
     id="g7484">
    <path
       id="path7588"
       style="fill:none;stroke:#000000"
       d="m 70.866142,577.55905 -49.606299,0 m 0,0 0,49.6063 m 453.543307,-49.6063 0,49.6063 m 0,-49.6063 -49.6063,0 m 49.6063,403.93701 0,49.60634 m 0,0 -49.6063,0 m -403.937007,-49.60634 0,49.60634 m 49.606299,0 -49.606299,0 m 453.543307,-403.93705 21.25984,0 m 0,0 0,70.86615 m 0,0 -21.25984,0 m 0,0 0,70.86614 m 0,0 21.25984,0 m 0,0 0,70.86614 m 0,0 -21.25984,0 m 0,0 0,70.86614 m 0,0 21.25984,0 m 0,0 0,70.86614 m 0,0 -21.25984,0 M 21.259843,627.16535 0,627.16535 m 0,0 0,70.86615 m 0,0 21.259843,0 m 0,0 0,70.86614 m 0,0 -21.259843,0 m 0,0 0,70.86614 m 0,0 21.259843,0 m 0,0 0,70.86614 m 0,0 -21.259843,0 m 0,0 0,70.86614 m 0,0 21.259843,0 m 403.937007,49.60634 0,21.2598 m 0,0 -70.86614,0 m 0,0 0,-21.2598 m 0,0 -70.86614,0 m 0,0 0,21.2598 m 0,0 -70.86615,0 m 0,0 0,-21.2598 m 0,0 -70.86614,0 m 0,0 0,21.2598 m 0,0 -70.866138,0 m 0,0 0,-21.2598 m 354.330708,-453.54335 0,-21.25984 m 0,0 -70.86614,0 m 0,0 0,21.25984 m 0,0 -70.86614,0 m 0,0 0,-21.25984 m 0,0 -70.86615,0 m 0,0 0,21.25984 m 0,0 -70.86614,0 m 0,0 0,-21.25984 m 0,0 -70.866138,0 m 0,0 0,21.25984"
       inkscape:connector-curvature="0" />
  </g>
  <g
     inkscape:label="inner"
     inkscape:groupmode="layer"
     id="g7590" />
</svg>
